<svg width="32" height="32" viewBox="0 0 32 32" fill="none" xmlns="http://www.w3.org/2000/svg">
<g id="check">
<path id="Exclude" fill-rule="evenodd" clip-rule="evenodd" d="M16 30C23.732 30 30 23.732 30 16C30 8.26801 23.732 2 16 2C8.26801 2 2 8.26801 2 16C2 23.732 8.26801 30 16 30ZM16 27.5C22.3513 27.5 27.5 22.3513 27.5 16C27.5 9.64873 22.3513 4.5 16 4.5C9.64873 4.5 4.5 9.64873 4.5 16C4.5 22.3513 9.64873 27.5 16 27.5Z" fill="#6840FD"/>
<path id="Vector" d="M23.4257 10.7634C23.8581 11.1979 23.8581 11.9035 23.4257 12.338L14.5695 21.2366C14.1371 21.6711 13.4348 21.6711 13.0024 21.2366L8.57432 16.7873C8.14189 16.3528 8.14189 15.6472 8.57432 15.2127C9.00675 14.7782 9.70902 14.7782 10.1414 15.2127L13.7877 18.8729L21.862 10.7634C22.2944 10.3289 22.9967 10.3289 23.4291 10.7634H23.4257Z" fill="#6840FD"/>
</g>
</svg>
