<svg width="21" height="32" viewBox="0 0 21 32" fill="none" xmlns="http://www.w3.org/2000/svg">
<g id="icon" clip-path="url(#clip0_418_3105)">
<g id="Vector" opacity="0.5" filter="url(#filter0_f_418_3105)">
<path d="M16.9092 20.7076H13.3661V18.7514C16.316 17.8396 18.4839 14.9505 18.4839 11.5366C18.4839 7.39106 15.2967 4.01953 11.3815 4.01953C7.46621 4.01953 4.279 7.39106 4.279 11.5366C4.279 14.9505 6.44156 17.8396 9.39688 18.7514V20.7076H5.85373C4.75897 20.7076 3.86914 21.6459 3.86914 22.8068C3.86914 23.9678 4.75897 24.9061 5.85373 24.9061H9.39688V28.6593C9.39688 29.8202 10.2867 30.7585 11.3815 30.7585C12.4762 30.7585 13.3661 29.8202 13.3661 28.6593V24.9061H16.9092C18.004 24.9061 18.8938 23.9678 18.8938 22.8068C18.8938 21.6459 18.004 20.7076 16.9092 20.7076ZM8.24819 11.5366C8.24819 9.70767 9.65574 8.21804 11.3815 8.21804C13.1072 8.21804 14.5147 9.70767 14.5147 11.5366C14.5147 13.3655 13.1072 14.8551 11.3815 14.8551C9.65574 14.8551 8.24819 13.3655 8.24819 11.5366Z" fill="url(#paint0_linear_418_3105)"/>
</g>
<path id="Vector_2" d="M16.9364 19.8966H12.8055V17.7814C16.2408 16.7954 18.7646 13.6784 18.7646 9.97816C18.7646 7.71987 17.8155 5.66832 16.3001 4.1893C15.1784 3.10256 13.7492 2.3286 12.1475 2.00523C11.6136 1.8992 11.0636 1.84619 10.4973 1.84619C9.93105 1.84619 9.33243 1.9045 8.77696 2.02113C5.03428 2.8057 2.21918 6.07121 2.21918 9.97285C2.21918 11.5208 2.6614 12.9627 3.43259 14.1926C4.4896 15.9048 6.18297 17.2036 8.18914 17.7761V19.8913H4.05817C2.78005 19.8913 1.75 20.9091 1.75 22.1602C1.75 23.4113 2.78005 24.4291 4.05817 24.4291H8.18914V28.4898C8.18914 29.7461 9.21918 30.7587 10.4973 30.7587C11.7754 30.7587 12.8055 29.7461 12.8055 28.4898V24.4291H16.9364C18.2092 24.4291 19.2446 23.4166 19.2446 22.1602C19.2446 20.9038 18.2092 19.8913 16.9364 19.8913V19.8966ZM10.4973 13.5617C9.72612 13.5617 9.00347 13.3232 8.41025 12.915C7.46109 12.263 6.8463 11.1921 6.8463 9.97285C6.8463 8.00083 8.48575 6.38928 10.4973 6.38928C11.2847 6.38928 12.0127 6.63313 12.6059 7.05192C13.5389 7.70396 14.1483 8.76949 14.1483 9.97285C14.1483 11.9502 12.5089 13.5617 10.4973 13.5617Z" fill="url(#paint1_linear_418_3105)"/>
<path id="Vector_3" opacity="0.25" d="M12.7835 5.29724C12.7835 5.89627 12.7241 6.49 12.6055 7.05722C12.0123 6.63843 11.2842 6.39458 10.4969 6.39458C8.48531 6.39458 6.84587 8.00613 6.84587 9.97816C6.84587 11.1974 7.46066 12.2683 8.40981 12.9203C7.04001 13.7367 5.43832 14.2032 3.72337 14.2032C3.6263 14.2032 3.52923 14.2032 3.43216 14.1979C2.66636 12.968 2.21875 11.5261 2.21875 9.97816C2.21875 5.49338 5.93447 1.84619 10.4969 1.84619C11.0631 1.84619 11.6132 1.8992 12.1471 2.00523C12.5624 3.02305 12.7889 4.13099 12.7889 5.29724H12.7835Z" fill="url(#paint2_linear_418_3105)"/>
<path id="Vector_4" opacity="0.25" d="M16.3005 4.18937C15.4861 4.94743 14.3914 5.41924 13.1726 5.41924C11.0424 5.41924 9.25192 3.97732 8.77734 2.0265C9.33281 1.90988 9.90986 1.85156 10.4977 1.85156C11.0855 1.85156 11.614 1.90457 12.1479 2.0106C13.7496 2.32867 15.1787 3.10793 16.3005 4.19467V4.18937Z" fill="url(#paint3_linear_418_3105)"/>
</g>
<defs>
<filter id="filter0_f_418_3105" x="1.86914" y="2.01953" width="19.0244" height="30.739" filterUnits="userSpaceOnUse" color-interpolation-filters="sRGB">
<feFlood flood-opacity="0" result="BackgroundImageFix"/>
<feBlend mode="normal" in="SourceGraphic" in2="BackgroundImageFix" result="shape"/>
<feGaussianBlur stdDeviation="1" result="effect1_foregroundBlur_418_3105"/>
</filter>
<linearGradient id="paint0_linear_418_3105" x1="4.12387" y1="23.9537" x2="19.459" y2="9.46657" gradientUnits="userSpaceOnUse">
<stop stop-color="#FAC1D0"/>
<stop offset="1" stop-color="#F56285"/>
</linearGradient>
<linearGradient id="paint1_linear_418_3105" x1="2.04661" y1="23.4007" x2="18.6527" y2="6.50716" gradientUnits="userSpaceOnUse">
<stop stop-color="#FAC1D0"/>
<stop offset="1" stop-color="#F56285"/>
</linearGradient>
<linearGradient id="paint2_linear_418_3105" x1="2.12168" y1="12.9044" x2="12.4945" y2="2.35202" gradientUnits="userSpaceOnUse">
<stop stop-color="white"/>
<stop offset="1" stop-color="#E2E5F2"/>
</linearGradient>
<linearGradient id="paint3_linear_418_3105" x1="10.7404" y1="4.87322" x2="13.8146" y2="1.74579" gradientUnits="userSpaceOnUse">
<stop stop-color="white"/>
<stop offset="1" stop-color="#E2E5F2"/>
</linearGradient>
<clipPath id="clip0_418_3105">
<rect width="20" height="32" fill="white" transform="translate(0.5)"/>
</clipPath>
</defs>
</svg>
