<svg width="21" height="32" viewBox="0 0 21 32" fill="none" xmlns="http://www.w3.org/2000/svg">
<g id="icon" clip-path="url(#clip0_418_2989)">
<g id="Vector" opacity="0.5" filter="url(#filter0_f_418_2989)">
<path d="M12.7439 13.9625V9.32359L14.4713 10.9796C14.9075 11.3977 15.4813 11.6096 16.0495 11.6096C16.6176 11.6096 17.1915 11.3977 17.6277 10.9796C18.5 10.1432 18.5 8.78276 17.6277 7.94641L12.0839 2.62726C11.2116 1.79091 9.79412 1.79091 8.92181 2.62726L3.37805 7.95199C2.50574 8.78833 2.50574 10.1488 3.37805 10.9851C4.25036 11.8215 5.66786 11.8215 6.54017 10.9851L8.26757 9.32917V13.9681C4.93902 14.8992 2.5 17.8432 2.5 21.3279C2.5 25.5598 6.0868 29 10.5 29C14.9132 29 18.5 25.5598 18.5 21.3279C18.5 17.8432 16.061 14.8992 12.7324 13.9681L12.7439 13.9625ZM10.5057 24.7068C8.56026 24.7068 6.97633 23.1902 6.97633 21.3224C6.97633 19.4545 8.56026 17.9379 10.5057 17.9379C12.4512 17.9379 14.0352 19.4545 14.0352 21.3224C14.0352 23.1902 12.4512 24.7068 10.5057 24.7068Z" fill="url(#paint0_linear_418_2989)"/>
</g>
<path id="Vector_2" d="M18.4003 21.1673C17.8849 17.8749 15.4967 15.2054 12.3716 14.2933V9.13783L14.2112 10.9842C14.6767 11.4458 15.2806 11.6794 15.8957 11.6794C16.5108 11.6794 17.1092 11.4458 17.5746 10.9842C18.5 10.0555 18.5 8.54275 17.5746 7.61399L11.6789 1.69658C10.7536 0.767808 9.24641 0.767808 8.32106 1.69658L2.42536 7.60843C1.5 8.53719 1.5 10.0499 2.42536 10.9787C3.35072 11.9074 4.85789 11.9074 5.78325 10.9787L7.62288 9.13227V14.2878C4.09322 15.3222 1.5 18.6035 1.5 22.4743C1.5 26.345 4.05443 29.5818 7.55085 30.6441C8.3266 30.8776 9.14668 31 10 31C14.6877 31 18.5 27.1737 18.5 22.4743C18.5 22.0293 18.4668 21.59 18.4003 21.1617V21.1673ZM9.99446 26.2394C9.35169 26.2394 8.74218 26.0781 8.21578 25.7889C7.04107 25.1549 6.24316 23.9036 6.24316 22.4743C6.24316 20.3998 7.92764 18.7091 9.99446 18.7091C11.6014 18.7091 12.9756 19.7324 13.5075 21.1617C13.6626 21.5677 13.7458 22.0127 13.7458 22.4743C13.7458 24.5487 12.0613 26.2394 9.99446 26.2394Z" fill="url(#paint1_linear_418_2989)"/>
<path id="Vector_3" opacity="0.25" d="M18.5 22.6367C18.5 27.2466 14.7046 31 10.0376 31C9.18806 31 8.37713 30.8745 7.5993 30.6508C7.53862 30.2308 7.5 29.7998 7.5 29.3633C7.5 28.1195 7.77583 26.9411 8.26128 25.8882C8.79087 26.1718 9.39218 26.3301 10.0321 26.3301C12.0898 26.3301 13.7668 24.6716 13.7668 22.6367C13.7668 22.1839 13.6841 21.7474 13.5296 21.3492C14.2964 21.12 15.1128 21 15.9569 21C16.8009 21 17.6284 21.1255 18.4007 21.3492C18.4614 21.7692 18.5 22.2002 18.5 22.6367Z" fill="url(#paint2_linear_418_2989)"/>
</g>
<defs>
<filter id="filter0_f_418_2989" x="0.5" y="0" width="20" height="31" filterUnits="userSpaceOnUse" color-interpolation-filters="sRGB">
<feFlood flood-opacity="0" result="BackgroundImageFix"/>
<feBlend mode="normal" in="SourceGraphic" in2="BackgroundImageFix" result="shape"/>
<feGaussianBlur stdDeviation="1" result="effect1_foregroundBlur_418_2989"/>
</filter>
<linearGradient id="paint0_linear_418_2989" x1="2.77127" y1="22.1287" x2="18.2811" y2="6.67629" gradientUnits="userSpaceOnUse">
<stop stop-color="#D9D9D9"/>
<stop offset="1" stop-color="#F5F5F5"/>
</linearGradient>
<linearGradient id="paint1_linear_418_2989" x1="1.78822" y1="23.3652" x2="19.0012" y2="6.96617" gradientUnits="userSpaceOnUse">
<stop stop-color="#F5F5F5"/>
<stop offset="1" stop-color="#D9D9D9"/>
</linearGradient>
<linearGradient id="paint2_linear_418_2989" x1="8.1344" y1="31.18" x2="18.1228" y2="21.0744" gradientUnits="userSpaceOnUse">
<stop stop-color="white"/>
<stop offset="1" stop-color="#E2E5F2"/>
</linearGradient>
<clipPath id="clip0_418_2989">
<rect width="20" height="32" fill="white" transform="translate(0.5)"/>
</clipPath>
</defs>
</svg>
