<svg width="21" height="32" viewBox="0 0 21 32" fill="none" xmlns="http://www.w3.org/2000/svg">
<g id="icon" clip-path="url(#clip0_418_2556)">
<g id="Vector" filter="url(#filter0_f_418_2556)">
<path d="M12.7439 13.9625V9.32359L14.4713 10.9796C14.9075 11.3977 15.4813 11.6096 16.0495 11.6096C16.6176 11.6096 17.1915 11.3977 17.6277 10.9796C18.5 10.1432 18.5 8.78276 17.6277 7.94641L12.0839 2.62726C11.2116 1.79091 9.79412 1.79091 8.92181 2.62726L3.37805 7.95199C2.50574 8.78833 2.50574 10.1488 3.37805 10.9851C4.25036 11.8215 5.66786 11.8215 6.54017 10.9851L8.26757 9.32917V13.9681C4.93902 14.8992 2.5 17.8432 2.5 21.3279C2.5 25.5598 6.0868 29 10.5 29C14.9132 29 18.5 25.5598 18.5 21.3279C18.5 17.8432 16.061 14.8992 12.7324 13.9681L12.7439 13.9625ZM10.5057 24.7068C8.56026 24.7068 6.97633 23.1902 6.97633 21.3224C6.97633 19.4545 8.56026 17.9379 10.5057 17.9379C12.4512 17.9379 14.0352 19.4545 14.0352 21.3224C14.0352 23.1902 12.4512 24.7068 10.5057 24.7068Z" fill="url(#paint0_linear_418_2556)"/>
</g>
<path id="Vector_2" d="M19.3944 21.1673C18.8488 17.8749 16.3201 15.2054 13.0111 14.2933V9.13783L14.9589 10.9842C15.4518 11.4458 16.0913 11.6794 16.7425 11.6794C17.3937 11.6794 18.0274 11.4458 18.5202 10.9842C19.5 10.0555 19.5 8.54275 18.5202 7.61399L12.2777 1.69658C11.2979 0.767808 9.70209 0.767808 8.7223 1.69658L2.47979 7.60843C1.5 8.53719 1.5 10.0499 2.47979 10.9787C3.45958 11.9074 5.05541 11.9074 6.0352 10.9787L7.98305 9.13227V14.2878C4.24576 15.3222 1.5 18.6035 1.5 22.4743C1.5 26.345 4.20469 29.5818 7.90678 30.6441C8.72816 30.8776 9.59648 31 10.5 31C15.4635 31 19.5 27.1737 19.5 22.4743C19.5 22.0293 19.4648 21.59 19.3944 21.1617V21.1673ZM10.4941 26.2394C9.81356 26.2394 9.16819 26.0781 8.61082 25.7889C7.36701 25.1549 6.52216 23.9036 6.52216 22.4743C6.52216 20.3998 8.30574 18.7091 10.4941 18.7091C12.1956 18.7091 13.6506 19.7324 14.2138 21.1617C14.3781 21.5677 14.4661 22.0127 14.4661 22.4743C14.4661 24.5487 12.6825 26.2394 10.4941 26.2394Z" fill="url(#paint1_linear_418_2556)"/>
<path id="Vector_3" opacity="0.25" d="M19.5 21.8003C19.5 26.8712 15.3596 31 10.2683 31C9.34152 31 8.45687 30.862 7.60833 30.6159C7.54213 30.1538 7.5 29.6798 7.5 29.1997C7.5 27.8314 7.8009 26.5352 8.33049 25.377C8.90822 25.689 9.56419 25.8631 10.2623 25.8631C12.507 25.8631 14.3365 24.0387 14.3365 21.8003C14.3365 21.3022 14.2462 20.8221 14.0777 20.3841C14.9142 20.132 15.8049 20 16.7257 20C17.6464 20 18.5491 20.138 19.3917 20.3841C19.4579 20.8462 19.5 21.3202 19.5 21.8003Z" fill="url(#paint2_linear_418_2556)"/>
</g>
<defs>
<filter id="filter0_f_418_2556" x="0.5" y="0" width="20" height="31" filterUnits="userSpaceOnUse" color-interpolation-filters="sRGB">
<feFlood flood-opacity="0" result="BackgroundImageFix"/>
<feBlend mode="normal" in="SourceGraphic" in2="BackgroundImageFix" result="shape"/>
<feGaussianBlur stdDeviation="1" result="effect1_foregroundBlur_418_2556"/>
</filter>
<linearGradient id="paint0_linear_418_2556" x1="2.50574" y1="15.5014" x2="18.5057" y2="15.5014" gradientUnits="userSpaceOnUse">
<stop offset="0.00999999" stop-color="#919DFD"/>
<stop offset="1" stop-color="#9ED1FF"/>
</linearGradient>
<linearGradient id="paint1_linear_418_2556" x1="1.39439" y1="25.9001" x2="18.6326" y2="7.71493" gradientUnits="userSpaceOnUse">
<stop stop-color="#10ADFF"/>
<stop offset="1" stop-color="#4962FF"/>
</linearGradient>
<linearGradient id="paint2_linear_418_2556" x1="8.19208" y1="31.198" x2="19.18" y2="20.173" gradientUnits="userSpaceOnUse">
<stop stop-color="white"/>
<stop offset="1" stop-color="#E2E5F2"/>
</linearGradient>
<clipPath id="clip0_418_2556">
<rect width="20" height="32" fill="white" transform="translate(0.5)"/>
</clipPath>
</defs>
</svg>
