<svg width="360" height="242" viewBox="0 0 360 242" fill="none" xmlns="http://www.w3.org/2000/svg">
<g filter="url(#filter0_d_344_7769)">
<path d="M28.272 107.372C24.8843 106.774 22.9051 104.638 24.3965 98.4837C25.9574 91.9353 28.6155 77.7818 29.7818 67.0209C29.9114 65.8252 29.522 65.2692 28.4377 65.8903C27.3534 66.5115 25.611 67.179 23.9613 67.7817C22.3115 68.3844 20.6755 67.5273 20.2582 65.7478C19.8409 63.9683 19.7664 62.0868 22.1157 59.8203C25.9385 56.1077 32.2313 52.6682 38.5708 51.2678C41.7869 50.5351 44.54 52.8889 43.4146 57.8895C40.1032 72.9838 36.5649 89.8252 35.2688 100.401C34.6115 105.971 31.2658 107.9 28.272 107.372ZM54.078 113.141C52.1637 111.097 52.585 108.247 57.7053 103.626C62.7328 99.0697 89.3673 75.1716 100.243 65.554C104.075 62.2492 108.282 60.9603 110.442 63.4532C112.667 66.0389 111.148 69.5889 108.548 71.8925C97.1122 82.3861 74.3794 103.966 64.0878 111.656C60.4456 114.345 55.9273 115.091 54.078 113.141ZM53.0381 66.9787C54.4828 58.7851 61.5217 54.3398 69.4789 55.7429C77.4362 57.146 82.5302 63.7306 81.0854 71.9242C79.6545 80.039 72.6157 84.4842 64.6585 83.0811C56.7012 81.6781 51.6072 75.0935 53.0381 66.9787ZM62.3347 68.6179C61.8346 71.4541 63.1511 74.1233 66.1449 74.6512C69.1387 75.1791 71.2887 73.1212 71.7888 70.2849C72.3028 67.3699 70.9863 64.7007 67.9925 64.1728C64.9987 63.6449 62.8487 65.7029 62.3347 68.6179ZM85.2607 103.529C86.7054 95.3357 93.7443 90.8905 101.702 92.2936C109.659 93.6966 114.753 100.281 113.308 108.475C111.877 116.59 104.838 121.035 96.881 119.632C88.9238 118.229 83.8298 111.644 85.2607 103.529ZM94.5572 105.169C94.0571 108.005 95.3736 110.674 98.3675 111.202C101.361 111.73 103.511 109.672 104.011 106.836C104.525 103.921 103.209 101.251 100.215 100.724C97.2213 100.196 95.0712 102.254 94.5572 105.169Z" fill="white"/>
</g>
<g filter="url(#filter1_d_344_7769)">
<path d="M70.1785 153.527C62.3797 154.247 39.9803 155.697 29.5576 156.31C26.4871 156.466 24.8885 156.055 24.7226 153.683C24.585 151.715 25.777 150.469 29.488 150.326C33.257 150.179 38.7535 149.794 44.5973 149.386L44.4071 146.666C39.7744 146.932 35.5507 147.227 32.6537 147.372C30.1617 147.488 28.9317 146.527 28.8063 144.734C28.689 143.056 29.7612 141.76 32.4227 141.574L36.3571 141.299L36.2721 140.084C36.1669 138.579 36.9579 137.419 38.1325 136.756C36.0455 136.844 34.1941 136.973 32.6857 137.02C30.2516 137.133 28.7942 136.246 28.6688 134.452C28.5514 132.775 29.847 131.347 32.3349 131.173C39.7987 130.651 56.2387 129.617 64.1653 129.063C66.6532 128.889 67.7918 130.205 67.9051 131.825C68.0143 133.387 67.1116 134.613 64.6278 134.845C63.0696 135.012 61.2181 135.142 59.1931 135.283C60.275 135.789 61.1619 136.832 61.2711 138.394L61.3601 139.667L65.0631 139.408C67.956 139.205 69.0744 140.232 69.1957 141.968C69.3212 143.761 68.4104 144.872 65.5215 145.132C62.7483 145.384 58.6404 145.671 54.1852 145.983C54.1881 146.854 54.2528 147.78 54.3175 148.706C60.2729 148.231 65.7655 147.789 69.2289 147.431C73.1552 147.04 74.3273 148.004 74.473 150.087C74.6267 152.286 73.1252 153.263 70.1785 153.527ZM30.752 161.75C30.5821 159.32 32.0957 158.516 35.216 158.24C43.8208 157.405 57.7688 156.488 65.3766 156.363C69.2693 156.324 69.9422 156.8 70.2238 159.164C70.5013 161.47 70.5677 164.082 70.49 166.297C70.3666 168.689 69.6966 169.085 67.0431 169.387C59.8351 170.24 45.7754 171.223 40.0931 171.446C39.8038 171.466 39.5805 171.598 39.6048 171.945L39.6857 173.102C39.714 173.507 40.0154 173.66 40.594 173.62C47.0782 173.225 61.481 172.159 68.5936 171.604C71.9494 171.369 72.6291 172.775 72.7262 174.164C72.8274 175.61 71.9409 177.068 69.4032 177.361C59.9427 178.43 46.689 179.299 35.6339 180.014C33.956 180.131 33.0436 179.555 32.777 178.237C32.3056 175.653 32.0386 171.834 31.9735 168.409C31.914 166.727 32.6917 166.207 34.4853 166.082L61.1043 164.278C62.0879 164.21 62.2453 163.966 62.2089 163.445L62.1604 162.751C62.128 162.288 61.8925 162.247 61.1982 162.295C54.8795 162.563 43.8904 163.389 35.9799 164.175C33.3803 164.415 30.926 164.238 30.752 161.75ZM42.7033 136.436C43.7853 136.942 44.6681 137.927 44.7814 139.547L44.8664 140.762L52.8509 140.204L52.7619 138.931C52.6607 137.484 53.3939 136.328 54.5106 135.669C50.634 135.94 46.5261 136.227 42.7033 136.436ZM86.1591 169.271C80.9275 169.288 79.5118 168.166 79.0834 164.533C78.6387 160.669 78.0282 154.432 77.8595 151.188C77.7393 148.638 79.1049 147.38 82.2171 146.988C84.5234 146.71 89.7764 146.168 94.5208 145.837C95.3308 145.78 95.5501 145.59 95.4975 144.838C95.4461 143.272 95.3369 141.71 95.1981 140.556C94.9893 139.234 94.7458 139.076 93.0019 139.082C90.9068 139.054 87.4353 139.297 82.4299 140.054C78.7472 140.602 77.0098 139.037 76.8318 136.492C76.6538 133.946 78.1136 133.204 81.2218 132.754C87.091 131.879 88.9304 131.576 96.4925 131.628C101.728 131.669 103.169 132.324 103.656 135.953C104.252 140.33 104.626 144.839 104.739 148.959C104.811 150.815 103.987 152.326 100.469 152.746C96.7206 153.183 90.2404 153.636 88.3311 153.77C87.3475 153.838 87.1363 154.144 87.197 155.012C87.29 156.343 87.4612 157.959 87.5502 159.231C87.6635 160.851 88.0227 161.001 89.7666 160.995C92.4981 160.979 98.5773 160.612 103.583 159.855C107.265 159.306 108.933 160.701 109.169 163.243C109.409 165.843 107.935 167.225 104.827 167.675C98.958 168.55 91.9154 169.275 86.1591 169.271ZM109.483 132.813C109.145 129.639 109.925 127.491 113.685 127.228C116.289 127.046 118.473 128.347 118.965 133.72C119.237 136.782 119.266 139.687 119.538 142.75C120.927 142.653 122.551 142.597 123.886 142.562C125.688 142.552 127.433 144.233 127.571 146.2C127.712 148.225 126.966 150.021 124.931 150.861C123.745 151.351 121.786 151.605 120.285 151.768C120.645 156.917 121.07 162.992 121.143 166.534C121.229 170.249 119.828 172.673 116.935 172.875C114.043 173.077 112.157 171.058 112.175 167.161C112.172 163.789 111.287 147.804 110.202 138.112C110.035 136.554 109.642 134.256 109.483 132.813ZM133.479 168.404C130.442 168.209 129.052 166.62 129.068 164.352C129.084 162.083 130.016 160.448 133.727 160.305C138.541 160.143 143.641 159.902 148.795 159.6C148.692 158.968 148.648 158.331 148.611 157.811C148.542 156.827 148.598 155.951 148.776 155.183C145.826 155.389 143.098 155.463 140.949 155.497C135.197 155.551 133.757 154.082 133.102 149.709C132.771 147.464 132.473 144.869 132.502 141.96C132.556 139.398 133.752 138.209 136.86 137.759C139.737 137.326 153.673 136.235 161.954 135.772C162.475 135.736 162.587 135.67 162.55 135.149C162.518 134.686 162.417 133.24 162.327 132.781C162.245 132.438 162.125 132.388 161.72 132.416C157.662 132.584 145.589 133.719 137.212 134.479C132.939 134.894 131.846 133.401 131.684 131.086C131.534 128.945 132.582 127.302 136.161 126.936C139.335 126.598 162.516 124.686 166.178 124.662C169.314 124.618 170.668 125.686 171.078 128.215C171.311 129.885 171.842 136.651 171.864 138.626C171.91 140.948 171.147 142.513 167.614 142.702C159.216 143.173 146.264 144.195 142.808 144.669C141.829 144.796 141.614 145.044 141.65 145.564L141.759 147.126C141.796 147.647 142.279 147.904 143.151 147.901C150.631 147.611 159.587 146.81 167.642 145.607C171.325 145.059 173.844 146.162 174.022 148.708C174.2 151.254 172.793 152.747 169.681 153.139C166.11 153.622 161.956 154.087 157.794 154.436C158.136 155.168 158.313 156.027 158.385 157.069L158.515 158.92C163.54 158.453 168.5 157.873 173.105 157.203C177.019 156.638 178.565 158.797 178.731 161.17C178.889 163.426 177.928 164.656 174.998 165.152C167.239 166.45 144.867 169.119 133.479 168.404ZM195.164 155.951C187.006 156.521 179.924 150.853 179.357 142.753C178.771 134.364 185.475 127.964 193.806 127.382C201.849 126.819 208.799 132.264 209.386 140.653C209.997 149.39 203.901 155.34 195.164 155.951ZM188.66 141.928C188.923 145.689 191.978 147.801 194.987 147.591C198.111 147.372 200.842 144.856 200.579 141.095C200.32 137.392 197.262 135.222 194.137 135.44C191.186 135.647 188.414 138.399 188.66 141.928ZM215.273 125.067C214.877 121.897 215.855 120.084 218.69 119.886C221.294 119.704 223.651 120.992 224.433 126.345C225.41 132.847 226.698 150.432 226.9 159.139C226.985 162.854 225.701 165.269 222.808 165.472C219.915 165.674 218.087 163.65 217.932 159.766C217.571 149.616 216.505 136.027 215.901 130.721C215.734 129.163 215.522 126.968 215.273 125.067ZM243.496 144.606C237.744 144.659 235.616 141.668 235.251 137.275C234.722 131.381 234.587 127.786 234.616 124.877C234.67 122.315 235.862 121.069 238.974 120.677C242.603 120.19 266.664 118.392 270.375 118.248C273.45 118.15 274.724 119.747 274.874 121.887C275.036 124.202 274.186 126.18 270.648 126.311C267.169 126.438 248.418 127.691 244.963 128.165C243.983 128.292 243.826 128.535 243.829 129.407C243.872 130.858 244.01 132.825 244.169 134.267C244.398 135.879 245.198 136.521 246.938 136.458C253.319 136.244 261.878 135.587 270.099 134.257C273.778 133.651 276.329 135.216 276.507 137.762C276.685 140.308 275.282 141.86 272.17 142.252C263.18 143.404 250.529 144.579 243.496 144.606ZM231.999 156.456C232.015 154.188 232.947 152.553 236.658 152.41C249.246 151.994 263.78 151.153 276.035 149.307C279.95 148.743 281.496 150.902 281.662 153.274C281.82 155.531 280.859 156.761 277.929 157.256C270.17 158.555 247.798 161.224 236.41 160.509C233.373 160.314 231.983 158.725 231.999 156.456ZM293.115 162.474C291.437 162.591 290.529 162.073 290.27 160.87C289.819 158.576 289.572 155.047 289.527 151.91C289.48 150.402 290.262 149.94 292.055 149.815L318.906 147.995C319.889 147.927 320.047 147.683 320.014 147.22L319.966 146.526C319.938 146.121 319.698 146.021 319.004 146.07C312.697 146.511 301.543 147.465 293.574 148.255C290.975 148.495 288.512 148.202 288.358 146.004C288.201 143.747 289.714 142.943 292.835 142.667C301.497 141.829 315.441 140.854 323.111 140.783C327.008 140.801 327.677 141.219 327.942 143.352C328.203 145.427 328.258 147.865 328.168 149.906C328.024 152.009 327.354 152.405 324.701 152.707C317.431 153.506 303.197 154.501 297.519 154.782C297.23 154.802 297.006 154.934 297.027 155.223L297.091 156.149C297.116 156.496 297.421 156.707 298 156.667C304.484 156.272 319.06 155.194 326.231 154.635C329.587 154.4 330.242 155.459 330.347 156.963C330.448 158.41 329.542 159.578 327.004 159.872C317.482 160.886 304.228 161.755 293.115 162.474ZM282.411 138.28C282.447 136.3 283.49 135.413 287.197 135.212C300.343 134.467 314.46 133.48 327.578 132.33C330.988 132.034 332.276 132.99 332.413 134.958C332.535 136.693 331.025 137.555 328.487 137.848C320.874 138.73 297.272 140.438 286.742 141.175C283.733 141.385 282.425 140.139 282.411 138.28ZM286.006 116.516C285.852 114.317 287.358 113.398 290.478 113.122C299.202 112.337 311.981 111.327 319.709 111.252C323.601 111.212 324.266 111.573 324.532 113.706C324.785 115.665 324.884 118.739 324.79 120.723C324.646 122.826 323.98 123.279 321.319 123.465C320.566 123.518 301.216 125.336 295.538 125.617C294.901 125.662 294.678 125.793 294.719 126.372C294.759 126.951 295.13 127.274 295.709 127.233C300.912 126.811 322.089 125.33 322.956 125.27C325.676 125.079 326.848 126.044 326.945 127.433C327.054 128.995 326.16 130.336 323.622 130.63C312.488 131.874 301.941 132.379 290.774 133.16C289.097 133.277 288.304 132.751 287.934 131.614C287.547 130.246 287.232 125.733 287.191 122.654C287.148 121.204 287.921 120.626 289.715 120.501L315.458 118.643C316.441 118.574 316.599 118.33 316.554 117.694C316.502 116.942 316.196 116.73 315.328 116.791C309.199 117.278 298.091 118.055 291.164 118.772C287.758 119.126 286.151 118.599 286.006 116.516Z" fill="white"/>
</g>
<g filter="url(#filter2_d_344_7769)">
<path d="M188.753 225.891C186.406 226.055 184.8 224.764 184.601 221.915C184.558 221.301 184.399 218.224 184.194 216.891C183.973 215.335 183.682 215.187 181.998 215.192C175.602 215.247 168.005 215.778 160.019 217.178C155.749 217.926 153.644 216.726 153.452 213.989C153.277 211.475 154.647 210.2 158.538 209.647C166.819 208.451 176.315 207.787 186.186 207.658C190.898 207.609 191.674 209.07 192.049 212.019C192.519 215.523 192.763 219.829 192.721 221.628C192.716 224.772 190.987 225.735 188.753 225.891ZM146.284 202.196C147.224 197.976 148.903 193.087 150.613 188.645C147.098 188.947 145.858 188.079 145.622 186.299C145.358 184.129 146.493 182.702 149.107 182.351C152.611 181.881 154.286 181.764 157.59 181.645C160.391 181.562 161.631 182.429 161.616 184.62C161.629 186.415 160.586 187.555 158.985 187.947L157.275 192.389C158.505 193.931 159.911 195.573 161.071 196.896C162.536 198.589 161.883 200.488 160.676 201.695C159.366 203.021 157.327 202.771 156.056 201.456C155.694 201.089 155.327 200.665 154.77 199.918C154.349 201.127 154.04 202.327 153.675 203.532C152.681 206.969 150.732 208.004 148.399 207.549C146.349 207.131 145.513 205.618 146.284 202.196ZM162.429 201.067C163.612 197.111 165.423 191.707 167.245 187.257C164.061 187.48 162.877 186.608 162.644 184.885C162.38 182.714 163.512 181.231 166.13 180.936C169.358 180.542 171.592 180.385 174.896 180.267C177.697 180.183 178.765 181.007 178.918 183.185C179.07 185.364 177.52 186.483 175.345 186.691C174.717 188.138 174.148 189.638 173.579 191.137C175.359 193.314 177.06 195.16 179.18 197.369C181.841 200.103 181.355 201.989 180.048 203.372C178.794 204.694 176.488 204.631 174.448 202.753C173.308 201.71 172.093 200.391 170.867 198.905C170.502 200.11 170.133 201.258 169.82 202.403C168.825 205.84 167.152 206.799 164.819 206.345C162.422 205.783 161.713 204.485 162.429 201.067ZM182.539 184.392C182.026 180.273 183.19 178.452 185.756 178.216C188.377 177.977 190.247 179.025 190.666 184.216C191.007 188.29 191.68 197.113 191.742 201.207C191.754 203.788 190.682 205.322 188.169 205.498C185.655 205.674 184.112 204.491 183.993 201.973C183.716 197.221 183.166 189.344 182.539 184.392ZM238.754 220.093C235.96 220.289 234.308 218.327 234.325 214.565C234.296 212.546 234.011 206.054 233.522 199.071C231.3 199.395 228.778 199.459 226.911 199.253C226.061 199.144 225.423 198.851 224.945 198.436C224.683 205.92 219.293 210.732 211.416 211.283C203.54 211.833 196.996 206.565 196.449 198.744C195.883 190.644 202.092 184.708 210.136 184.146C216.784 183.681 222.428 187.328 224.258 193.431C224.762 192.61 225.617 191.989 226.838 191.791C228.004 191.598 230.506 191.254 232.852 191.09C232.616 188.524 232.083 184.913 231.221 182.222C230.284 179.256 231.186 176.892 234.817 176.638C237.331 176.462 239.83 177.691 240.361 182.874C240.892 188.058 242.51 205.572 242.705 213.979C242.787 217.566 241.547 219.898 238.754 220.093ZM205.432 197.948C205.685 201.579 208.34 203.414 211.245 203.211C214.262 203 216.635 200.813 216.381 197.182C216.131 193.607 213.472 191.716 210.456 191.927C207.607 192.126 205.193 194.54 205.432 197.948ZM250.936 213.74C248.019 213.775 246.892 212.114 246.908 209.924C246.923 207.733 247.958 206.482 251.537 206.288C253.72 206.191 256.01 206.031 258.357 205.867C258.211 204.586 258.07 202.575 257.889 200.791C256.325 200.901 254.813 200.95 253.468 200.988C249.151 201.066 248 199.855 247.646 196.399C247.442 194.28 246.675 184.117 246.523 181.938C246.331 179.201 248.077 177.675 250.312 177.519C252.658 177.355 254.431 178.635 254.627 181.428L254.771 183.495C257.616 183.24 263.262 182.901 266.167 182.698L266.027 180.687C265.82 177.726 267.462 176.32 269.752 176.16C271.987 176.004 273.968 177.044 274.171 179.949C274.312 181.96 275.134 192.119 275.179 194.362C275.254 197.837 274.342 199.248 269.33 199.823C268.44 199.941 267.438 200.067 266.321 200.146C266.382 201.825 266.519 203.781 266.565 205.237C268.739 205.029 270.97 204.817 273.085 204.556C276.258 204.166 278.243 205.262 278.403 207.553C278.555 209.732 277.655 211.31 274.882 211.785C267.335 213.042 258.509 213.659 250.936 213.74ZM255.412 192.656C255.55 193.826 255.833 193.862 257.066 193.832C259.472 193.72 262.772 193.545 264.939 193.225C266.607 192.996 266.922 192.693 266.864 191.856L266.68 189.23C263.716 189.381 258.073 189.776 255.228 190.031L255.412 192.656ZM278.645 178.906C278.43 175.834 279.615 173.505 282.352 173.314C284.866 173.138 286.751 174.41 287.282 179.593L288.127 188.46C289.468 188.366 291.036 188.313 292.324 188.279C294.064 188.269 295.749 189.892 295.882 191.791C296.019 193.746 295.29 195.369 293.326 196.18C292.18 196.653 290.289 196.898 288.84 197.055C289.188 202.027 289.555 207.278 289.626 210.698C289.708 214.285 288.356 216.625 285.563 216.82C282.77 217.015 280.949 215.066 280.967 211.303C280.964 208.047 280.148 193.172 279.101 183.814C278.939 182.31 278.782 180.861 278.645 178.906ZM320.906 199.697C315.264 200.091 311.807 195.618 308.288 195.864C305.16 196.082 302.599 198.002 301.094 198.949C299.588 199.896 298.06 199.723 297.196 198.604C296.332 197.486 296.207 195.698 297.833 194.069C300.774 191.168 303.61 189.174 307.129 188.928C312.939 188.521 315.507 192.328 319.753 192.031C321.82 191.886 322.85 191.365 324.247 190.481C325.697 189.538 327.108 190.45 327.805 191.58C328.692 193.033 328.625 195.284 326.552 196.944C324.479 198.605 322.75 199.568 320.906 199.697ZM340.099 202.509C338.423 202.626 336.653 201.403 336.031 195.72C335.41 190.038 334.447 180.281 334.161 173.789C334.137 171.04 334.899 168.292 338.14 168.066C340.598 167.894 342.005 168.75 342.436 174.109C342.866 179.468 343.731 191.028 343.596 195.528C343.462 200.028 342.557 202.337 340.099 202.509ZM336.294 212.318C336.052 208.855 336.778 206.39 340.297 206.144C342.42 205.995 344.05 206.836 344.3 210.411C344.507 213.372 343.059 215.943 339.931 216.162C337.976 216.299 336.454 214.609 336.294 212.318Z" fill="white"/>
</g>
<rect x="86.501" y="10" width="211" height="43" rx="21.5" transform="rotate(2 86.501 10)" fill="#FFF720"/>
<path d="M104.962 38.8218C104.507 38.8059 104.124 38.7445 103.794 38.5889C103.438 38.4564 103.134 38.2296 102.904 37.9334C102.649 37.6844 102.468 37.3658 102.36 37.0019C102.228 36.6611 102.194 36.2516 102.21 35.7959C102.232 35.1723 102.348 34.6 102.559 34.055C102.745 33.5332 103.05 33.0636 103.473 32.6461C103.824 32.226 104.242 31.9285 104.706 31.7045C105.145 31.5277 105.629 31.4246 106.156 31.443C106.588 31.4581 106.993 31.5443 107.348 31.7007C107.655 31.8555 107.936 32.0575 108.168 32.2817C108.241 32.2602 108.338 32.2396 108.459 32.2198L112.093 31.9865L112.036 30.1834C111.997 29.9179 112.053 29.7037 112.179 29.54C112.28 29.3994 112.45 29.3333 112.69 29.3417C112.882 29.3484 113.047 29.4262 113.186 29.5752C113.276 29.7464 113.34 29.9648 113.38 30.2063L113.624 38.3558C113.614 38.6436 113.558 38.8578 113.458 38.9744C113.333 39.1141 113.163 39.1802 112.947 39.1727C112.731 39.1651 112.565 39.1113 112.474 38.964C112.334 38.8391 112.27 38.6207 112.28 38.3329L112.205 36.3371L108.331 36.562C108.176 36.8928 107.973 37.1979 107.746 37.5021C107.393 37.9701 106.973 38.3157 106.51 38.5156C106.022 38.7387 105.514 38.8411 104.962 38.8218ZM108.776 33.4556C108.835 33.8179 108.895 34.1802 108.881 34.564C108.873 34.8038 108.84 35.0428 108.784 35.281L112.177 35.0873L112.121 33.2602L108.776 33.4556ZM107.586 34.5187C107.596 34.2309 107.558 33.9414 107.495 33.6991C107.406 33.4798 107.317 33.2846 107.203 33.1125C107.063 32.9876 106.899 32.8858 106.734 32.784C106.544 32.7293 106.33 32.6738 106.114 32.6662C105.778 32.6545 105.464 32.7156 105.171 32.8494C104.853 33.0064 104.582 33.2131 104.332 33.4926C104.058 33.7712 103.854 34.1242 103.744 34.5047C103.585 34.9314 103.522 35.3614 103.505 35.8411C103.495 36.129 103.511 36.3697 103.6 36.5649C103.64 36.8064 103.754 36.9785 103.917 37.1283C104.055 37.3012 104.218 37.427 104.409 37.4817C104.574 37.5595 104.765 37.5902 105.005 37.5985C105.341 37.6103 105.655 37.5492 105.973 37.3922C106.266 37.2583 106.539 37.0037 106.792 36.6283C107.043 36.3009 107.223 35.971 107.38 35.5922C107.489 35.2358 107.573 34.8785 107.586 34.5187ZM116.206 30.4251C116.215 30.1613 116.271 29.9471 116.373 29.7825C116.474 29.6419 116.644 29.5759 116.884 29.5842C117.1 29.5918 117.265 29.6696 117.404 29.8185C117.494 29.9898 117.559 30.2082 117.549 30.472L117.208 40.234C117.198 40.5219 117.119 40.7352 117.019 40.8518C116.87 40.9907 116.7 41.0328 116.484 41.0253C116.245 41.0169 116.078 40.963 115.987 40.8158C115.896 40.6925 115.855 40.475 115.865 40.1871L116.206 30.4251ZM128.975 31.1351L128.848 34.7569C128.818 35.6204 128.603 36.2613 128.205 36.6796C127.781 37.1211 127.197 37.3409 126.452 37.3629L122.029 37.4726C121.235 37.5169 120.664 37.3769 120.316 37.0285C119.943 36.7033 119.768 36.1929 119.792 35.5213L119.949 31.0361C119.958 30.7722 120.013 30.558 120.115 30.3935C120.216 30.2529 120.386 30.1868 120.626 30.1952C120.818 30.2019 120.984 30.2797 121.098 30.4278C121.189 30.5991 121.253 30.8175 121.245 31.0573L121.16 33.4798L123.707 33.4247L123.779 31.362C123.789 31.0981 123.844 30.8839 123.97 30.7202C124.071 30.5797 124.217 30.5127 124.457 30.5211C124.649 30.5278 124.815 30.6056 124.953 30.7546C125.043 30.9258 125.108 31.1442 125.099 31.408L125.029 33.3988L127.601 33.3205L127.68 31.0659C127.689 30.8261 127.744 30.6119 127.846 30.4473C127.947 30.3068 128.093 30.2398 128.333 30.2482C128.525 30.2549 128.69 30.3327 128.829 30.4817C128.919 30.6529 128.984 30.8713 128.975 31.1351ZM121.116 34.7511L121.092 35.4227C121.082 35.7105 121.123 35.928 121.263 36.029C121.354 36.1763 121.544 36.2309 121.832 36.241L123.61 36.207L123.663 34.6959L121.116 34.7511ZM124.933 36.1571L126.279 36.1321C126.662 36.1455 126.978 36.0365 127.202 35.8281C127.4 35.6429 127.531 35.3353 127.545 34.9516L127.557 34.5918L124.986 34.6461L124.933 36.1571ZM118.787 41.61C118.545 41.6496 118.402 41.6206 118.31 41.4973C118.194 41.3971 118.151 41.2516 118.158 41.0357C118.165 40.8438 118.219 40.6776 118.343 40.5618C118.442 40.4693 118.589 40.4023 118.806 40.3619L129.429 40.1325C129.621 40.1392 129.788 40.169 129.904 40.2691C129.996 40.3924 130.062 40.5628 130.056 40.7547C130.048 40.9706 129.97 41.136 129.871 41.2286C129.747 41.3443 129.601 41.3872 129.409 41.3805L118.787 41.61ZM137.674 36.1458L137.825 31.8044C137.832 31.6125 137.789 31.467 137.697 31.3437C137.605 31.2444 137.463 31.1914 137.271 31.1847L132.68 31.2886C132.391 31.3265 132.176 31.2949 132.06 31.1708C131.919 31.0699 131.852 30.9234 131.86 30.7076C131.867 30.5157 131.921 30.3495 132.069 30.2346C132.192 30.1428 132.41 30.0784 132.7 30.0405L137.29 29.9366C137.915 29.9344 138.389 30.0951 138.739 30.3955C139.063 30.743 139.214 31.2286 139.193 31.8522L139.041 36.1935C139.031 36.4814 138.951 36.6947 138.827 36.8104C138.678 36.9493 138.509 36.9914 138.293 36.9839C138.053 36.9755 137.911 36.9225 137.82 36.7753C137.704 36.6512 137.664 36.4336 137.674 36.1458ZM133.728 40.4747L133.906 35.3898C133.915 35.126 133.971 34.9118 134.096 34.7481C134.197 34.6075 134.344 34.5406 134.584 34.549C134.799 34.5565 134.965 34.6343 135.104 34.7833C135.218 34.9553 135.282 35.1737 135.273 35.4376L135.099 40.4265L141.179 40.3026C141.371 40.3093 141.538 40.3392 141.654 40.4393C141.746 40.5626 141.812 40.733 141.805 40.9249C141.798 41.1408 141.72 41.3061 141.621 41.3987C141.497 41.5145 141.351 41.5574 141.159 41.5507L130.537 41.7801C130.295 41.8197 130.152 41.7907 130.06 41.6674C129.944 41.5673 129.901 41.4217 129.908 41.2059C129.915 41.014 129.969 40.8478 130.093 40.732C130.192 40.6394 130.339 40.5725 130.556 40.5321L133.728 40.4747ZM147.828 30.2326C147.613 30.225 147.47 30.172 147.379 30.0488C147.286 29.9495 147.243 29.8039 147.251 29.588C147.257 29.3961 147.311 29.2299 147.411 29.1133C147.511 29.0207 147.657 28.9538 147.873 28.9614L151.926 29.1029C152.694 29.1297 153.289 29.2946 153.686 29.5966C154.06 29.8978 154.261 30.3371 154.242 30.8648C154.229 31.2486 154.097 31.5802 153.871 31.8844C153.644 32.1887 153.347 32.4425 152.979 32.6698L154.757 34.0047C154.942 34.2033 155.08 34.3762 155.146 34.5466C155.188 34.7402 155.157 34.9312 155.054 35.1197C154.928 35.3074 154.78 35.3983 154.637 35.3933C154.445 35.3866 154.255 35.308 154.046 35.1085L151.775 33.4443L149.122 35.1527C148.875 35.3362 148.681 35.4015 148.514 35.3476C148.323 35.3169 148.16 35.1912 148.072 34.948C147.957 34.7998 147.938 34.6551 148.016 34.4897C148.069 34.3475 148.243 34.1854 148.489 34.0019L152.247 31.6116C152.444 31.4744 152.592 31.3595 152.717 31.2198C152.817 31.1032 152.894 30.9618 152.899 30.8179C152.903 30.698 152.811 30.5987 152.646 30.4969C152.456 30.4422 152.218 30.3859 151.882 30.3741L147.828 30.2326ZM158.571 32.0726L161.041 32.1589C161.233 32.1656 161.399 32.2434 161.515 32.3435C161.606 32.4908 161.672 32.6612 161.665 32.8531C161.658 33.0689 161.581 33.2103 161.482 33.3029C161.358 33.3947 161.189 33.4368 160.997 33.4301L158.622 33.3472L158.691 35.5109C158.705 35.7995 158.649 36.0137 158.549 36.1303C158.424 36.27 158.254 36.3361 158.038 36.3286C157.798 36.3202 157.632 36.2664 157.541 36.1191C157.401 35.9942 157.361 35.7766 157.371 35.4888L157.173 29.4782C157.134 29.2127 157.165 28.9977 157.291 28.834C157.392 28.6934 157.538 28.6265 157.778 28.6348C157.994 28.6424 158.16 28.7202 158.298 28.8691C158.389 29.0404 158.453 29.2588 158.493 29.5003L158.571 32.0726ZM151.528 42.5852C151.516 42.921 151.627 43.165 151.888 43.2702C152.123 43.4225 152.482 43.459 152.915 43.4261C153.684 43.405 154.552 43.3152 155.518 43.1568C156.436 42.9968 157.282 42.8342 158.057 42.6691C158.25 42.6278 158.393 42.6569 158.534 42.7578C158.65 42.8819 158.741 43.0292 158.783 43.1748C158.802 43.3195 158.797 43.4634 158.744 43.6057C158.667 43.7711 158.543 43.8628 158.398 43.9058C157.985 44.0354 157.549 44.1403 157.066 44.2195C156.558 44.3218 156.051 44.4002 155.544 44.4785C155.013 44.556 154.482 44.6336 153.977 44.6639C153.446 44.7414 152.988 44.7735 152.556 44.7584C151.739 44.7779 151.145 44.5891 150.776 44.1679C150.382 43.7699 150.18 43.3546 150.149 42.8733C150.081 42.0544 150.271 41.4366 150.765 41.0456C151.21 40.677 151.77 40.4564 152.396 40.4062L155.093 40.2122C155.694 40.1851 156.202 40.0828 156.592 39.9043C156.958 39.749 157.158 39.5158 157.169 39.204C157.177 38.9642 157.064 38.7681 156.877 38.6175C156.665 38.514 156.38 38.432 155.996 38.4186L151.308 38.5671C151.066 38.6067 150.923 38.5777 150.831 38.4544C150.715 38.3543 150.673 38.1847 150.68 37.9688C150.687 37.7769 150.741 37.6107 150.865 37.495C150.964 37.4024 151.11 37.3594 151.327 37.319L156.015 37.1705C156.857 37.1519 157.499 37.3184 157.944 37.6461C158.364 37.997 158.561 38.5322 158.536 39.2518C158.511 39.9713 158.204 40.5129 157.616 40.8526C157.027 41.2163 156.203 41.4277 155.192 41.4884L152.712 41.666C152.351 41.7014 152.06 41.7873 151.863 41.9245C151.617 42.084 151.514 42.2965 151.528 42.5852ZM166.862 30.7772C167.013 30.5903 167.21 30.4531 167.404 30.4118C167.573 30.3697 167.763 30.4244 167.95 30.575C168.089 30.724 168.179 30.8952 168.173 31.0631C168.167 31.255 168.064 31.4435 167.913 31.6304L165.936 33.9388L168.597 36.121C168.783 36.2956 168.921 36.4685 168.987 36.6389C169.028 36.8325 168.975 36.9987 168.85 37.1384C168.699 37.3253 168.528 37.4153 168.336 37.4086C168.143 37.4259 167.93 37.3464 167.721 37.147L165.058 34.9888L163.18 37.2046C162.98 37.4377 162.807 37.5758 162.638 37.5939C162.444 37.6352 162.278 37.5813 162.139 37.4324C161.952 37.3058 161.861 37.1585 161.867 36.9666C161.849 36.7979 161.953 36.5854 162.153 36.3522L166.862 30.7772ZM172.296 34.0408L175.194 33.5657L175.272 31.335C175.281 31.0712 175.337 30.857 175.439 30.6924C175.54 30.5519 175.71 30.4858 175.95 30.4942C176.166 30.5017 176.331 30.5795 176.47 30.7285C176.56 30.8997 176.624 31.1181 176.615 31.3819L176.406 37.3783C176.396 37.6661 176.316 37.8794 176.216 37.996C176.067 38.1349 175.898 38.177 175.682 38.1695C175.442 38.1611 175.276 38.1073 175.185 37.96C175.093 37.8367 175.053 37.6192 175.063 37.3314L175.15 34.8369L172.347 35.3154L172.408 37.0225C172.422 37.3112 172.366 37.5254 172.266 37.642C172.141 37.7817 171.971 37.8478 171.779 37.8411C171.539 37.8327 171.349 37.778 171.258 37.6308C171.142 37.5066 171.078 37.2883 171.088 37.0004L170.875 31.3976C170.836 31.1321 170.868 30.9171 170.994 30.7534C171.095 30.6128 171.265 30.5467 171.505 30.5551C171.697 30.5618 171.862 30.6396 172.001 30.7885C172.115 30.9606 172.18 31.179 172.195 31.4197L172.296 34.0408ZM174.423 41.8958C174.407 42.3515 174.297 42.7559 174.116 43.1338C173.91 43.5349 173.657 43.8863 173.358 44.212C173.01 44.5361 172.593 44.7857 172.156 44.9145C171.67 45.0897 171.164 45.144 170.588 45.1239C170.06 45.1055 169.582 45.0408 169.204 44.8835C168.8 44.7493 168.471 44.5457 168.241 44.2495C167.962 43.9996 167.756 43.7042 167.648 43.3403C167.516 42.9994 167.458 42.6132 167.473 42.1814C167.49 41.7017 167.577 41.2725 167.76 40.8466C167.918 40.4439 168.195 40.0693 168.543 39.7213C168.843 39.3956 169.236 39.1451 169.698 38.9691C170.136 38.8163 170.667 38.7388 171.243 38.7589C171.722 38.7757 172.151 38.8627 172.554 39.0208C172.932 39.2021 173.26 39.4297 173.564 39.6805C173.842 39.9784 174.046 40.3217 174.226 40.6642C174.356 41.053 174.438 41.4641 174.423 41.8958ZM173.104 41.8498C173.112 41.6099 173.072 41.3924 173.008 41.15C172.919 40.9548 172.782 40.7578 172.645 40.5609C172.458 40.4103 172.27 40.2837 172.033 40.1794C171.796 40.099 171.51 40.041 171.198 40.0301C170.814 40.0167 170.5 40.0778 170.209 40.1637C169.893 40.2727 169.647 40.4323 169.448 40.6414C169.2 40.8729 169.046 41.1317 168.966 41.3691C168.86 41.6535 168.802 41.9397 168.792 42.2275C168.783 42.4913 168.799 42.708 168.888 42.9033C168.929 43.1208 169.043 43.2929 169.207 43.4187C169.346 43.5676 169.534 43.6703 169.772 43.7266C170.01 43.807 170.297 43.841 170.632 43.8527C170.992 43.8653 171.33 43.829 171.646 43.72C171.937 43.6341 172.183 43.4746 172.408 43.2183C172.606 43.0331 172.759 42.7983 172.911 42.5634C173.015 42.3269 173.095 42.0896 173.104 41.8498ZM178.866 33.7659C178.625 33.8055 178.434 33.7748 178.318 33.6507C178.177 33.5498 178.086 33.4025 178.092 33.2346C178.049 33.089 178.103 32.9228 178.205 32.7582C178.306 32.6177 178.477 32.5276 178.719 32.488C179.201 32.4328 179.707 32.3784 180.26 32.3497C180.79 32.3202 181.294 32.3138 181.776 32.2826C182.496 32.2837 183.045 32.3749 183.422 32.5802C183.775 32.8086 184.004 33.1048 184.113 33.4448C184.197 33.784 184.207 34.1686 184.097 34.573C183.962 35.0005 183.779 35.4264 183.574 35.8035C183.267 36.3451 182.839 36.9065 182.339 37.4654C181.815 38.0474 181.316 38.5584 180.87 38.975C180.671 39.1602 180.501 39.2263 180.334 39.1964C180.142 39.1897 179.976 39.1119 179.861 38.9878C179.72 38.8868 179.653 38.7404 179.66 38.5485C179.618 38.379 179.695 38.2136 179.894 38.0284C180.342 37.5878 180.792 37.0751 181.292 36.5163C181.767 35.9805 182.194 35.4191 182.55 34.8552C182.805 34.4318 182.864 34.1217 182.753 33.8776C182.615 33.6807 182.235 33.5714 181.635 33.5504C181.179 33.5585 180.721 33.5906 180.264 33.6226C179.782 33.6778 179.3 33.733 178.866 33.7659ZM188.277 31.7892C188.286 31.5253 188.342 31.3111 188.467 31.1474C188.568 31.0068 188.715 30.9399 188.955 30.9483C189.17 30.9558 189.336 31.0337 189.475 31.1826C189.589 31.3547 189.653 31.5731 189.644 31.8369L189.378 39.4642C189.368 39.7521 189.288 39.9654 189.164 40.0812C189.015 40.2201 188.846 40.2622 188.63 40.2546C188.39 40.2462 188.248 40.1932 188.157 40.046C188.041 39.9219 188 39.7043 188.011 39.4165L188.277 31.7892ZM182.466 41.3842C182.405 41.7663 182.392 42.1501 182.403 42.5107C182.39 42.8945 182.379 43.2063 182.393 43.4949C182.386 43.6868 182.43 43.8084 182.523 43.8837C182.592 43.9822 182.782 44.0368 183.071 44.0229C183.839 44.0257 184.706 43.9599 185.695 43.8264C186.66 43.716 187.529 43.5782 188.302 43.4371C188.495 43.4199 188.637 43.4729 188.778 43.5738C188.894 43.6979 188.985 43.8212 189.028 43.9668C189.046 44.1355 189.041 44.2794 188.988 44.4217C188.911 44.5871 188.787 44.6788 188.642 44.7218C188.205 44.8506 187.746 44.9306 187.239 45.009C186.708 45.0865 186.153 45.1632 185.623 45.2167C185.044 45.2925 184.49 45.3212 183.962 45.3268C183.408 45.3555 182.904 45.3619 182.472 45.3468C182.04 45.3318 181.684 45.2232 181.429 44.9742C181.147 44.7722 181.015 44.4314 181.006 43.9989C180.973 43.5654 180.965 43.1329 181.005 42.654C181.021 42.1983 181.037 41.7426 181.1 41.3125C181.107 41.1206 181.185 40.9552 181.357 40.8412C181.504 40.7502 181.65 40.6833 181.842 40.69C181.986 40.695 182.152 40.7729 182.292 40.8738C182.407 41.0219 182.473 41.1923 182.466 41.3842ZM197.591 34.5159L197.389 40.2963C197.725 40.3081 198.133 40.2983 198.615 40.2431C199.073 40.2111 199.554 40.1798 200.037 40.1006C200.52 40.0215 200.979 39.9414 201.438 39.8614C201.874 39.7805 202.261 39.698 202.6 39.6138C202.841 39.5742 203.033 39.5809 203.175 39.6579C203.315 39.7588 203.407 39.8821 203.45 40.0277C203.469 40.1725 203.439 40.3395 203.386 40.4817C203.308 40.6471 203.184 40.7629 202.991 40.8041C202.65 40.9363 202.238 41.042 201.707 41.1195C201.174 41.245 200.619 41.3217 200.065 41.3744C199.486 41.4502 198.932 41.5029 198.402 41.5325C197.872 41.586 197.44 41.5949 197.152 41.5848C196.72 41.5698 196.412 41.439 196.278 41.1701C196.094 40.9235 196.031 40.6812 196.039 40.4413L196.247 34.4929C196.255 34.2531 196.333 34.0877 196.482 33.9488C196.605 33.8571 196.752 33.7901 196.943 33.7968C197.087 33.8019 197.253 33.8797 197.393 33.9806C197.532 34.1296 197.598 34.3 197.591 34.5159ZM206.488 33.4817C206.497 33.2179 206.553 33.0037 206.655 32.8392C206.756 32.6986 206.926 32.6325 207.166 32.6409C207.382 32.6484 207.547 32.7262 207.686 32.8752C207.776 33.0464 207.841 33.2648 207.831 33.5287L207.476 43.6985C207.466 43.9863 207.387 44.1996 207.287 44.3162C207.138 44.4551 206.968 44.4972 206.752 44.4897C206.512 44.4813 206.346 44.4275 206.255 44.2802C206.163 44.1569 206.123 43.9394 206.133 43.6516L206.352 37.3914L201.994 37.6955C201.753 37.7351 201.61 37.7061 201.518 37.5828C201.401 37.4827 201.359 37.3371 201.366 37.1212C201.373 36.9293 201.427 36.7631 201.551 36.6474C201.65 36.5548 201.796 36.4878 202.014 36.4474L206.396 36.1201L206.488 33.4817ZM219.462 33.5506C219.466 33.4306 219.421 33.333 219.376 33.2594C219.282 33.2081 219.187 33.1567 219.091 33.1534L216.009 33.406C215.863 33.4489 215.766 33.4935 215.716 33.5398C215.641 33.6333 215.613 33.7284 215.609 33.8483L215.524 36.2948C215.514 36.5586 215.556 36.7522 215.696 36.8532C215.787 37.0004 215.977 37.0551 216.267 37.0172L218.937 36.8943C219.057 36.8985 219.153 36.8778 219.252 36.8092C219.302 36.7629 219.353 36.6687 219.358 36.5248L219.462 33.5506ZM216.028 32.1579L219.111 31.9053C219.664 31.8766 220.092 32.0116 220.394 32.2863C220.672 32.5842 220.801 33.021 220.781 33.5966L220.677 36.5708C220.659 37.0985 220.501 37.4772 220.204 37.731C219.882 38.008 219.446 38.1368 218.916 38.1663L216.247 38.2653C215.524 38.3361 215.002 38.1737 214.678 37.8262C214.329 37.5018 214.179 36.9683 214.204 36.2487L214.29 33.8022C214.307 33.3225 214.441 32.9189 214.739 32.6412C215.013 32.3626 215.45 32.2097 216.028 32.1579ZM225.483 34.4092L227.954 34.4955C228.146 34.5022 228.311 34.58 228.428 34.6802C228.519 34.8274 228.585 34.9978 228.578 35.1897C228.571 35.4056 228.494 35.547 228.394 35.6396C228.271 35.7313 228.101 35.7734 227.91 35.7667L225.535 35.6838L225.604 37.8475C225.617 38.1362 225.562 38.3504 225.462 38.467C225.337 38.6067 225.166 38.6728 224.951 38.6652C224.711 38.6569 224.545 38.603 224.454 38.4558C224.314 38.3308 224.273 38.1133 224.284 37.8254L224.085 31.8149C224.046 31.5493 224.078 31.3343 224.204 31.1706C224.305 31.03 224.451 30.9631 224.691 30.9715C224.907 30.979 225.072 31.0568 225.211 31.2058C225.301 31.377 225.366 31.5954 225.405 31.8369L225.483 34.4092ZM218.44 44.9218C218.429 45.2576 218.54 45.5017 218.801 45.6068C219.035 45.7591 219.394 45.7957 219.828 45.7628C220.597 45.7416 221.465 45.6518 222.431 45.4935C223.349 45.3334 224.195 45.1708 224.969 45.0058C225.163 44.9645 225.306 44.9935 225.447 45.0945C225.562 45.2186 225.653 45.3658 225.696 45.5114C225.715 45.6562 225.71 45.8001 225.657 45.9423C225.579 46.1077 225.456 46.1995 225.31 46.2424C224.898 46.3721 224.462 46.4769 223.979 46.5561C223.471 46.6585 222.964 46.7368 222.457 46.8152C221.926 46.8927 221.395 46.9702 220.889 47.0006C220.358 47.0781 219.901 47.1101 219.469 47.0951C218.652 47.1146 218.058 46.9257 217.689 46.5046C217.294 46.1066 217.093 45.6913 217.061 45.2099C216.994 44.391 217.184 43.7733 217.678 43.3823C218.123 43.0136 218.683 42.793 219.309 42.7428L222.005 42.5488C222.607 42.5218 223.114 42.4194 223.505 42.241C223.871 42.0856 224.071 41.8525 224.082 41.5407C224.09 41.3008 223.977 41.1047 223.79 40.9541C223.578 40.8506 223.292 40.7686 222.908 40.7552L218.22 40.9037C217.979 40.9433 217.836 40.9143 217.744 40.791C217.627 40.6909 217.585 40.5213 217.593 40.3055C217.6 40.1136 217.653 39.9473 217.778 39.8316C217.877 39.739 218.022 39.6961 218.24 39.6556L222.928 39.5072C223.769 39.4885 224.412 39.655 224.857 39.9828C225.277 40.3336 225.474 40.8688 225.449 41.5884C225.424 42.308 225.117 42.8496 224.528 43.1893C223.939 43.5529 223.116 43.7643 222.105 43.8251L219.625 44.0026C219.264 44.038 218.972 44.1239 218.776 44.2611C218.53 44.4207 218.426 44.6332 218.44 44.9218ZM234.231 39.3255C234.243 38.9657 234.206 38.6522 234.12 38.3611C234.009 38.093 233.874 37.8482 233.689 37.6496C233.479 37.4741 233.268 37.3227 233.031 37.2184C232.795 37.1141 232.533 37.0569 232.293 37.0485C231.957 37.0368 231.666 37.1227 231.397 37.2574C231.103 37.4152 230.856 37.6227 230.63 37.903C230.378 38.2304 230.222 38.5852 230.113 38.9656C229.979 39.3452 229.916 39.7752 229.901 40.2069C229.889 40.5427 229.903 40.8314 229.991 41.0746C230.031 41.3161 230.144 41.5122 230.331 41.6628C230.469 41.8357 230.656 41.9624 230.895 42.0187C231.107 42.1222 231.37 42.1554 231.658 42.1655C231.946 42.1755 232.26 42.1144 232.553 41.9806C232.845 41.8707 233.116 41.664 233.391 41.3614C233.641 41.082 233.844 40.7769 234 40.4221C234.132 40.0905 234.216 39.7333 234.231 39.3255ZM231.614 43.4367C231.11 43.4191 230.681 43.3321 230.326 43.1756C229.947 43.0183 229.619 42.7907 229.341 42.4928C229.062 42.2189 228.858 41.8756 228.728 41.4868C228.597 41.098 228.54 40.6637 228.558 40.16C228.581 39.5124 228.674 38.9153 228.885 38.3704C229.047 37.8477 229.328 37.3772 229.726 36.9589C230.076 36.5868 230.47 36.2884 230.91 36.0636C231.35 35.8629 231.81 35.7588 232.337 35.7773C232.817 35.794 233.269 35.9059 233.671 36.088C234.048 36.2933 234.401 36.5217 234.726 36.8213C235.002 37.1671 235.205 37.5584 235.383 37.9489C235.512 38.3857 235.592 38.8447 235.574 39.3724C235.554 39.9481 235.44 40.4484 235.232 40.9214C235.023 41.3944 234.719 41.8401 234.344 42.2593C233.945 42.6776 233.502 42.9983 233.064 43.1751C232.6 43.3751 232.117 43.4543 231.614 43.4367ZM239.078 34.6198C239.087 34.356 239.142 34.1418 239.268 33.9781C239.369 33.8375 239.516 33.7706 239.756 33.7789C239.971 33.7865 240.137 33.8643 240.276 34.0132C240.39 34.1853 240.454 34.4037 240.445 34.6675L240.09 44.8373C240.08 45.1252 240 45.3385 239.876 45.4543C239.727 45.5932 239.558 45.6353 239.342 45.6277C239.102 45.6193 238.96 45.5664 238.869 45.4191C238.753 45.295 238.713 45.0774 238.723 44.7896L239.078 34.6198ZM247.435 39.4744C247.444 39.2346 247.405 38.9691 247.366 38.7036C247.279 38.4603 247.192 38.1932 247.08 37.9491C246.943 37.7522 246.757 37.5776 246.522 37.4253C246.287 37.297 246.001 37.215 245.713 37.205C245.378 37.1932 245.086 37.2791 244.794 37.413C244.476 37.57 244.204 37.8006 243.954 38.0801C243.654 38.4058 243.451 38.7349 243.341 39.1153C243.184 39.4941 243.121 39.9241 243.105 40.3799C243.093 40.7157 243.108 40.9803 243.172 41.2227C243.211 41.4642 243.325 41.6603 243.511 41.8109C243.649 42.0078 243.812 42.1336 244.003 42.1883C244.192 42.2669 244.407 42.2985 244.647 42.3068C244.959 42.3177 245.273 42.2567 245.59 42.1236C245.882 42.0138 246.201 41.8088 246.5 41.507C246.798 41.2293 247.024 40.925 247.181 40.5702C247.337 40.2395 247.421 39.8822 247.435 39.4744ZM244.602 43.5781C244.123 43.5613 243.717 43.4751 243.387 43.3195C243.007 43.1862 242.703 42.9594 242.473 42.6632C242.195 42.3653 242.015 42.0228 241.909 41.6349C241.778 41.2461 241.745 40.8127 241.762 40.333C241.785 39.6614 241.902 39.0651 242.113 38.5201C242.324 37.9991 242.628 37.5295 243.027 37.1112C243.424 36.7408 243.843 36.4432 244.307 36.2193C244.746 36.0185 245.23 35.9153 245.758 35.9337C246.238 35.9505 246.666 36.0615 247.044 36.2428C247.421 36.4481 247.748 36.7237 248.024 37.0695C248.251 37.4377 248.453 37.829 248.608 38.2186C248.738 38.6314 248.794 39.0656 248.778 39.5213C248.758 40.097 248.621 40.5965 248.412 41.0695C248.156 41.5408 247.852 41.9865 247.453 42.4048C247.006 42.8215 246.563 43.1422 246.1 43.3182C245.613 43.5173 245.13 43.5965 244.602 43.5781ZM250.902 34.4083C250.863 34.1428 250.919 33.9286 251.045 33.7649C251.146 33.6244 251.316 33.5583 251.556 33.5666C251.748 33.5733 251.913 33.6512 252.052 33.8001C252.142 33.9714 252.207 34.1897 252.246 34.4313L252.334 37.4121L255.332 37.5168C255.524 37.5235 255.69 37.6014 255.83 37.7023C255.921 37.8496 255.987 38.02 255.981 38.2119C255.973 38.4278 255.896 38.5692 255.797 38.6618C255.65 38.7527 255.48 38.7948 255.288 38.7881L252.362 38.6859L252.426 40.9695L254.912 40.6241C255.105 40.5828 255.272 40.6126 255.414 40.6896C255.506 40.7889 255.597 40.9362 255.639 41.1297C255.678 41.3713 255.648 41.5383 255.549 41.6309C255.449 41.7475 255.302 41.8144 255.11 41.8317L252.479 42.1961L252.575 45.6576C252.565 45.9454 252.533 46.1604 252.433 46.277C252.308 46.4167 252.138 46.4828 251.922 46.4753C251.706 46.4677 251.54 46.4139 251.449 46.2666C251.309 46.1417 251.245 45.9233 251.255 45.6355L250.902 34.4083ZM262.583 36.7854L262.381 42.5659C262.717 42.5776 263.125 42.5679 263.607 42.5127C264.065 42.4806 264.546 42.4494 265.029 42.3702C265.512 42.291 265.971 42.211 266.43 42.131C266.866 42.0501 267.253 41.9676 267.592 41.8834C267.833 41.8438 268.025 41.8505 268.167 41.9274C268.307 42.0284 268.399 42.1517 268.442 42.2973C268.461 42.442 268.431 42.6091 268.378 42.7513C268.3 42.9167 268.176 43.0324 267.982 43.0737C267.642 43.2059 267.23 43.3116 266.699 43.3891C266.166 43.5146 265.611 43.5913 265.057 43.644C264.478 43.7198 263.924 43.7725 263.394 43.802C262.864 43.8556 262.431 43.8645 262.144 43.8544C261.712 43.8393 261.404 43.7085 261.27 43.4397C261.086 43.1931 261.023 42.9507 261.031 42.7109L261.239 36.7625C261.247 36.5227 261.325 36.3573 261.474 36.2184C261.597 36.1266 261.743 36.0597 261.935 36.0664C262.079 36.0714 262.245 36.1492 262.385 36.2502C262.524 36.3992 262.59 36.5696 262.583 36.7854ZM271.48 35.7513C271.489 35.4875 271.545 35.2733 271.647 35.1087C271.748 34.9682 271.918 34.9021 272.158 34.9105C272.374 34.918 272.539 34.9958 272.678 35.1448C272.768 35.316 272.833 35.5344 272.823 35.7982L272.468 45.968C272.458 46.2558 272.379 46.4692 272.279 46.5858C272.13 46.7247 271.96 46.7668 271.744 46.7592C271.504 46.7509 271.338 46.697 271.247 46.5498C271.155 46.4265 271.115 46.2089 271.125 45.9211L271.344 39.6609L266.986 39.9651C266.745 40.0046 266.602 39.9756 266.51 39.8524C266.393 39.7522 266.35 39.6066 266.358 39.3908C266.365 39.1989 266.419 39.0327 266.543 38.9169C266.642 38.8243 266.788 38.7574 267.006 38.717L271.388 38.3897L271.48 35.7513ZM278.308 46.268C278.3 46.5079 278.098 46.789 277.775 47.0899C277.427 47.414 277.039 47.5445 276.583 47.5286C275.743 47.4993 275.344 47.2452 275.362 46.7415C275.372 46.4297 275.646 46.1511 276.137 45.856C276.626 45.6089 277.159 45.4594 277.687 45.4779C278.119 45.4929 278.325 45.7643 278.308 46.268ZM276.218 33.8995C276.238 33.3479 276.488 33.0445 276.92 33.0595C277.352 33.0746 277.595 33.6595 277.558 34.7388L277.307 41.9344C277.293 42.3182 277.307 42.6069 277.445 42.7798C277.696 43.1488 277.685 43.4606 277.391 43.6424C277.021 43.9177 276.664 43.8332 276.341 43.4377C276.041 43.091 275.914 42.6062 275.939 41.9107L276.218 33.8995Z" fill="#222222"/>
<path d="M132.255 50.6562L100.814 51.7542L133.083 74.38L132.255 50.6562Z" fill="#FFF720"/>
<rect x="174" y="65.5504" width="144" height="43" rx="21.5" transform="rotate(-5 174 65.5504)" fill="#00E4FF"/>
<path d="M197.15 82.4209C197.676 82.3749 198.137 82.4069 198.556 82.5148C198.953 82.6487 199.33 82.8325 199.662 83.0444C199.95 83.3083 200.193 83.6003 200.389 83.9203C200.562 84.2425 200.691 84.6167 200.725 84.9992C200.764 85.4535 200.704 85.8683 200.544 86.2437C200.363 86.645 200.103 86.9809 199.743 87.2774C199.364 87.6238 198.977 87.8745 198.559 88.0556C198.398 88.142 198.232 88.1805 198.069 88.243L198.375 91.7337L202.014 91.1984C202.205 91.1817 202.375 91.191 202.526 91.2741C202.632 91.3852 202.719 91.5463 202.736 91.7376C202.754 91.9528 202.697 92.1264 202.61 92.2304C202.477 92.3625 202.338 92.4229 202.147 92.4396L193.94 93.6394C193.705 93.7082 193.559 93.6968 193.453 93.5856C193.349 93.4984 193.289 93.3591 193.27 93.1439C193.253 92.9526 193.287 92.7811 193.372 92.6532C193.459 92.5492 193.596 92.4649 193.807 92.3983L197.018 91.9246L196.711 88.41C196.446 88.4091 196.178 88.3843 195.955 88.3075C195.562 88.2214 195.234 88.0574 194.922 87.7956C194.614 87.5816 194.372 87.2896 194.199 86.9674C194.027 86.6452 193.921 86.269 193.884 85.8386C193.846 85.4083 193.882 84.9956 194.04 84.5963C194.176 84.223 194.41 83.8653 194.741 83.5231C195.051 83.2069 195.391 82.9603 195.806 82.7553C196.2 82.5763 196.648 82.4649 197.15 82.4209ZM199.386 85.1164C199.365 84.8773 199.298 84.6663 199.184 84.4595C199.071 84.2766 198.913 84.1217 198.757 83.9908C198.553 83.8641 198.33 83.7873 198.082 83.7126C197.839 83.6857 197.548 83.663 197.261 83.6881C196.95 83.7153 196.668 83.7882 196.435 83.8808C196.156 84.0016 195.93 84.1659 195.751 84.3261C195.529 84.5383 195.378 84.7442 195.325 84.9657C195.25 85.2131 195.224 85.4564 195.247 85.7194C195.267 85.9585 195.31 86.1716 195.397 86.3327C195.461 86.5197 195.595 86.6766 195.775 86.8055C195.933 86.9603 196.111 87.0652 196.354 87.0921C196.552 87.1471 196.817 87.148 197.104 87.1229C197.391 87.0978 197.676 87.0487 197.954 86.928C198.237 86.8551 198.487 86.6886 198.734 86.4744C198.958 86.2861 199.133 86.0781 199.257 85.8503C199.36 85.6486 199.411 85.4033 199.386 85.1164ZM204.733 86.4795L207.41 85.6911L207.105 82.2005C207.082 81.9375 207.111 81.7181 207.192 81.5424C207.275 81.3906 207.436 81.3042 207.675 81.2833C207.89 81.2645 208.064 81.3215 208.22 81.4524C208.33 81.6114 208.421 81.8203 208.444 82.0833L209.295 91.8142C209.32 92.1011 209.267 92.3225 209.182 92.4504C209.051 92.6064 208.888 92.6689 208.673 92.6877C208.434 92.7086 208.262 92.6755 208.154 92.5404C208.048 92.4292 207.981 92.2182 207.956 91.9313L207.521 86.9583L204.844 87.7467L205.178 91.5721C205.204 91.859 205.151 92.0804 205.065 92.2083C204.935 92.3643 204.771 92.4268 204.556 92.4456C204.317 92.4665 204.146 92.4333 204.037 92.2983C203.931 92.1871 203.865 91.9761 203.84 91.6892L203.059 82.7713C203.036 82.5083 203.065 82.2889 203.146 82.1132C203.229 81.9613 203.39 81.875 203.63 81.8541C203.845 81.8352 204.018 81.8923 204.174 82.0232C204.285 82.1822 204.375 82.3911 204.398 82.6541L204.733 86.4795ZM220.193 85.4401C220.172 85.201 220.101 84.9422 220.03 84.6834C219.914 84.4527 219.795 84.1981 219.655 83.9694C219.495 83.7907 219.289 83.6401 219.037 83.5175C218.787 83.4189 218.494 83.3723 218.207 83.3974C217.873 83.4267 217.594 83.5474 217.32 83.716C217.024 83.9105 216.782 84.1726 216.568 84.4804C216.31 84.8403 216.148 85.1917 216.086 85.5826C215.976 85.9777 215.966 86.4123 216.005 86.8665C216.035 87.2012 216.082 87.4621 216.174 87.695C216.243 87.9299 216.379 88.1107 216.583 88.2374C216.743 88.4161 216.921 88.521 217.116 88.5521C217.314 88.6071 217.531 88.6122 217.77 88.5912C218.081 88.5641 218.386 88.4651 218.684 88.2945C218.96 88.1498 219.252 87.9075 219.512 87.5716C219.774 87.2596 219.962 86.9299 220.074 86.5587C220.188 86.2115 220.229 85.8466 220.193 85.4401ZM217.881 89.8584C217.403 89.9002 216.99 89.8641 216.643 89.7499C216.25 89.6638 215.92 89.4758 215.656 89.2099C215.344 88.9481 215.124 88.6301 214.971 88.258C214.794 87.888 214.708 87.4618 214.666 86.9837C214.608 86.3142 214.651 85.7081 214.794 85.1415C214.94 84.5988 215.185 84.0955 215.53 83.6317C215.879 83.2157 216.258 82.8693 216.691 82.5905C217.103 82.3376 217.571 82.1763 218.097 82.1302C218.575 82.0884 219.013 82.1464 219.411 82.2803C219.81 82.4381 220.168 82.6718 220.484 82.9814C220.754 83.3191 221.003 83.6828 221.204 84.0507C221.383 84.4446 221.492 84.8687 221.532 85.323C221.582 85.8968 221.506 86.4093 221.357 86.9042C221.16 87.4033 220.913 87.8827 220.568 88.3465C220.175 88.8145 219.774 89.1869 219.336 89.4179C218.877 89.6749 218.407 89.8124 217.881 89.8584ZM225.042 84.4136L227.935 84.1605C228.126 84.1438 228.3 84.2008 228.452 84.2839C228.56 84.419 228.646 84.5801 228.663 84.7714C228.682 84.9865 228.623 85.1363 228.535 85.2403C228.4 85.3485 228.237 85.4109 228.046 85.4277L225.248 85.6724L225.929 90.1421C225.954 90.429 225.925 90.6484 225.84 90.7763C225.733 90.9302 225.571 91.0166 225.356 91.0354C225.141 91.0542 224.97 91.021 224.861 90.886C224.707 90.779 224.617 90.5701 224.592 90.2832L223.159 80.7959C223.089 80.5371 223.094 80.3198 223.199 80.142C223.282 79.9902 223.443 79.9038 223.682 79.8829C223.873 79.8662 224.047 79.9232 224.203 80.0541C224.337 80.211 224.428 80.4199 224.472 80.6569L225.042 84.4136ZM228.965 81.0348C228.687 81.1555 228.474 81.1983 228.322 81.1152C228.172 81.056 228.088 80.9188 228.067 80.6797C228.004 80.5166 228.016 80.371 228.147 80.215C228.256 80.085 228.463 79.9706 228.741 79.8498L230.982 79.0274C232.057 78.6443 232.893 78.5711 233.488 78.7599C234.063 78.9987 234.396 79.4996 234.465 80.2886C234.492 80.5994 234.424 80.9186 234.26 81.2462C234.113 81.4999 233.945 81.7796 233.753 82.0614L235.984 83.6009C236.192 83.7754 236.328 83.9562 236.39 84.1194C236.431 84.3086 236.4 84.504 236.269 84.66C236.14 84.8399 236.003 84.9242 235.831 84.891C235.638 84.8839 235.436 84.7811 235.228 84.6065L232.898 83.0276L230.682 85.5102C230.485 85.7442 230.305 85.8805 230.139 85.9191C229.952 85.9836 229.803 85.9244 229.666 85.7436C229.486 85.6148 229.424 85.4516 229.455 85.2562C229.464 85.0867 229.567 84.885 229.763 84.651L232.595 81.4882C232.769 81.2802 232.898 81.1003 233.001 80.8986C233.082 80.7228 233.115 80.5513 233.102 80.4078C233.081 80.1688 232.947 80.0119 232.702 79.961C232.435 79.9362 232.076 79.9676 231.606 80.1051L228.965 81.0348ZM238.482 78.0099C238.459 77.7469 238.488 77.5275 238.569 77.3518C238.652 77.2 238.813 77.1136 239.052 77.0927C239.267 77.0739 239.441 77.1309 239.597 77.2618C239.707 77.4208 239.798 77.6297 239.821 77.8927L240.396 84.4676C240.421 84.7545 240.368 84.976 240.283 85.1039C240.152 85.2599 239.989 85.3223 239.774 85.3412C239.535 85.3621 239.363 85.3289 239.255 85.1938C239.149 85.0826 239.082 84.8717 239.057 84.5848L238.482 78.0099ZM239.126 87.8552C239.11 87.6639 239.051 87.5485 238.947 87.4613C238.821 87.4 238.674 87.3647 238.483 87.3815L231.458 89.1524C231.178 89.2492 230.96 89.2442 230.832 89.159C230.683 89.0998 230.598 88.9626 230.58 88.7475C230.563 88.5562 230.596 88.3846 230.727 88.2286C230.836 88.0986 231.043 87.9842 231.326 87.9113L238.35 86.1403C238.963 85.9903 239.476 86.0659 239.836 86.3235C240.197 86.605 240.407 87.0686 240.465 87.738L240.689 90.2962C240.714 90.5832 240.661 90.8046 240.576 90.9325C240.445 91.0885 240.282 91.151 240.067 91.1698C239.828 91.1907 239.656 91.1575 239.548 91.0225C239.442 90.9113 239.375 90.7003 239.35 90.4134L239.126 87.8552ZM244.029 78.6087L249.477 77.8189C249.668 77.8021 249.838 77.8114 249.989 77.8945C250.095 78.0056 250.182 78.1667 250.199 78.358C250.217 78.5732 250.16 78.7468 250.073 78.8508C249.94 78.9829 249.801 79.0433 249.61 79.06L244.566 79.7904C244.427 79.8507 244.335 79.9069 244.292 79.9589C244.228 80.0608 244.213 80.1586 244.223 80.2781L244.428 82.6211C244.464 83.0276 244.584 83.3061 244.792 83.4807C245 83.6552 245.296 83.7257 245.702 83.6902C246.611 83.6107 247.443 83.4897 248.246 83.299C249.002 83.1364 249.727 82.8803 250.375 82.5827C250.582 82.4682 250.774 82.4515 250.921 82.4867C251.071 82.5459 251.201 82.655 251.311 82.814C251.402 83.0229 251.416 83.1903 251.381 83.3379C251.298 83.4897 251.187 83.5958 251 83.6604C250.26 84.0142 249.442 84.3026 248.592 84.4974L248.167 84.6068L248.446 87.7867L253.013 87.122C253.204 87.1053 253.374 87.1146 253.502 87.1998C253.608 87.3109 253.694 87.472 253.711 87.6633C253.73 87.8785 253.673 88.0521 253.585 88.1561C253.476 88.2861 253.337 88.3465 253.146 88.3632L242.63 89.8855C242.396 89.9542 242.25 89.9429 242.144 89.8317C242.016 89.7465 241.956 89.6072 241.937 89.3921C241.92 89.2008 241.953 89.0292 242.062 88.8992C242.15 88.7952 242.287 88.711 242.498 88.6443L247.089 87.9776L246.815 84.8456C246.483 84.8988 246.148 84.9281 245.813 84.9573C244.952 85.0326 244.29 84.8978 243.846 84.5031C243.382 84.1582 243.137 83.5533 243.065 82.7404L242.86 80.3973C242.814 79.8713 242.874 79.4565 243.088 79.1487C243.257 78.869 243.579 78.6962 244.029 78.6087ZM261.244 74.2839C261.37 74.08 261.501 73.924 261.686 73.8356C261.85 73.7731 262.043 73.7803 262.247 73.907C262.427 74.0358 262.535 74.1709 262.573 74.3362C262.59 74.5274 262.535 74.725 262.41 74.9527L262.347 75.0546L266.423 76.4808C266.675 76.6034 266.852 76.7083 266.961 76.8433C267.071 77.0023 267.085 77.1697 267.007 77.3693C266.906 77.595 266.773 77.7271 266.61 77.7895C266.425 77.878 266.205 77.849 265.954 77.7265L261.678 76.2214L260.176 78.8824C260.006 79.1382 259.849 79.2724 259.71 79.3327C259.525 79.4212 259.353 79.388 259.173 79.2592C258.974 79.1803 258.84 79.0234 258.823 78.8321C258.76 78.669 258.837 78.4454 259.008 78.1896L261.244 74.2839ZM262.35 81.1495L262.164 79.0217C262.141 78.7587 262.17 78.5393 262.275 78.3615C262.358 78.2097 262.495 78.1254 262.734 78.1045C262.95 78.0856 263.123 78.1427 263.279 78.2736C263.389 78.4326 263.48 78.6415 263.503 78.9045L263.683 80.9607L268.772 80.2022C268.963 80.1855 269.133 80.1948 269.261 80.2799C269.367 80.3911 269.453 80.5522 269.47 80.7435C269.489 80.9586 269.432 81.1323 269.344 81.2363C269.235 81.3663 269.074 81.4527 268.883 81.4694L258.37 83.0156C258.157 83.0583 258.009 83.023 257.903 82.9118C257.775 82.8267 257.715 82.6874 257.696 82.4722C257.679 82.281 257.712 82.1094 257.821 81.9794C257.909 81.8754 258.046 81.7911 258.259 81.7484L262.35 81.1495ZM261.6 89.0932C261.629 89.4279 261.767 89.6326 262.039 89.7052C262.286 89.78 262.647 89.7725 263.073 89.687C263.834 89.5723 264.684 89.3774 265.624 89.1025C266.516 88.8317 267.336 88.5672 268.084 88.309C268.271 88.2445 268.417 88.2559 268.569 88.3389C268.699 88.448 268.807 88.5831 268.867 88.7224C268.904 88.8637 268.916 89.0072 268.881 89.1548C268.824 89.3285 268.713 89.4346 268.573 89.4949C268.179 89.6739 267.76 89.8311 267.29 89.9686C266.798 90.1321 266.304 90.2716 265.811 90.4112C265.293 90.5528 264.775 90.6945 264.278 90.7862C263.76 90.9279 263.31 91.0154 262.879 91.0531C262.071 91.172 261.46 91.0809 261.044 90.7318C260.607 90.4087 260.356 90.0211 260.266 89.5471C260.1 88.7426 260.213 88.1063 260.657 87.682C261.056 87.2857 261.587 87.0224 262.203 86.8963L265.023 86.3605C265.616 86.2603 266.064 86.1489 266.386 85.9761C266.687 85.8294 266.837 85.6235 266.814 85.3605C266.793 85.1214 266.705 84.9364 266.549 84.8055C266.373 84.7245 266.104 84.6758 265.721 84.7093L260.919 85.4426C260.684 85.5113 260.539 85.5 260.432 85.3888C260.305 85.3036 260.242 85.1405 260.223 84.9253C260.207 84.734 260.24 84.5625 260.349 84.4325C260.436 84.3285 260.575 84.2681 260.786 84.2015L265.421 83.4828C266.254 83.3617 266.912 83.4487 267.394 83.7198C267.853 84.0168 268.114 84.524 268.177 85.2413C268.24 85.9585 267.997 86.4857 267.448 86.8228C266.902 87.1838 266.105 87.4462 265.11 87.6297L262.67 88.1081C262.316 88.1873 262.037 88.3081 261.856 88.4444C261.63 88.6087 261.551 88.8084 261.6 89.0932ZM274.244 74.857C275.224 74.7712 275.982 74.8977 276.542 75.2342C277.053 75.5749 277.366 76.1257 277.429 76.8429C277.492 77.5602 277.299 78.1071 276.874 78.4816C276.429 78.9059 275.737 79.2556 274.825 79.5763L273.018 80.1199C272.737 80.2167 272.511 80.3811 272.338 80.613C272.12 80.873 272.054 81.2161 272.091 81.6464C272.125 82.029 272.244 82.2836 272.495 82.4061C272.699 82.5328 273.016 82.5774 273.444 82.5158C274.138 82.4552 274.944 82.3123 275.888 82.0852C276.788 81.9101 277.634 81.6674 278.383 81.4092C278.57 81.3447 278.715 81.356 278.867 81.4391C278.997 81.5482 279.079 81.6615 279.14 81.8007C279.154 81.9681 279.143 82.1136 279.108 82.2613C279.027 82.437 278.894 82.5691 278.707 82.6336C277.936 82.9178 277.116 83.1823 276.192 83.3595L276.216 83.3574L276.432 85.82L280.999 85.1554C281.19 85.1387 281.36 85.148 281.488 85.2331C281.594 85.3443 281.68 85.5054 281.697 85.6967C281.716 85.9118 281.659 86.0855 281.571 86.1895C281.462 86.3195 281.323 86.3798 281.132 86.3966L270.616 87.9188C270.382 87.9876 270.236 87.9762 270.13 87.865C270.002 87.7799 269.942 87.6406 269.923 87.4254C269.906 87.2342 269.939 87.0626 270.048 86.9326C270.136 86.8286 270.273 86.7443 270.484 86.6777L275.075 86.011L274.866 83.6201C274.296 83.7181 273.794 83.7621 273.316 83.8039C272.503 83.875 271.891 83.76 271.477 83.4348C271.041 83.1356 270.8 82.5786 270.729 81.7657C270.666 81.0484 270.783 80.4599 271.126 79.9722C271.423 79.5126 271.924 79.1797 272.603 78.9516L274.362 78.4122C274.854 78.2487 275.27 78.0437 275.611 77.8211C275.929 77.6005 276.098 77.3208 276.066 76.9622C276.037 76.6275 275.871 76.377 275.593 76.2327C275.293 76.1143 274.881 76.0781 274.355 76.1242C274.068 76.1493 273.831 76.1941 273.594 76.2389C273.335 76.3097 273.098 76.3546 272.863 76.4233C272.63 76.5159 272.398 76.6086 272.163 76.6773C271.906 76.7721 271.649 76.8668 271.414 76.9355C271.16 77.0542 270.966 77.047 270.814 76.9639C270.639 76.8829 270.533 76.7717 270.472 76.6325C270.412 76.4932 270.399 76.3497 270.456 76.1761C270.492 76.0285 270.603 75.9224 270.788 75.8339C271.345 75.5925 271.906 75.3988 272.467 75.2051C273.031 75.0354 273.622 74.9114 274.244 74.857ZM287.102 79.5864C287.081 79.3473 287.01 79.0885 286.939 78.8296C286.823 78.5989 286.704 78.3443 286.564 78.1157C286.403 77.9369 286.197 77.7863 285.946 77.6638C285.696 77.5652 285.403 77.5185 285.116 77.5436C284.781 77.5729 284.503 77.6937 284.229 77.8622C283.932 78.0568 283.69 78.3189 283.476 78.6267C283.219 78.9865 283.057 79.338 282.995 79.7289C282.885 80.124 282.874 80.5585 282.914 81.0128C282.943 81.3475 282.99 81.6084 283.083 81.8412C283.152 82.0761 283.288 82.2569 283.492 82.3836C283.652 82.5623 283.83 82.6672 284.025 82.6983C284.223 82.7533 284.44 82.7584 284.679 82.7375C284.99 82.7103 285.295 82.6114 285.593 82.4407C285.869 82.2961 286.161 82.0537 286.421 81.7178C286.683 81.4058 286.871 81.0762 286.983 80.705C287.097 80.3577 287.137 79.9928 287.102 79.5864ZM284.79 84.0046C284.312 84.0465 283.899 84.0103 283.552 83.8961C283.159 83.8101 282.829 83.6221 282.565 83.3561C282.253 83.0943 282.032 82.7763 281.879 82.4042C281.703 82.0342 281.617 81.6081 281.575 81.1299C281.517 80.4605 281.56 79.8544 281.703 79.2877C281.848 78.745 282.094 78.2417 282.438 77.7779C282.787 77.3619 283.167 77.0155 283.6 76.7367C284.012 76.4839 284.479 76.3225 285.005 76.2765C285.483 76.2346 285.922 76.2926 286.319 76.4265C286.719 76.5843 287.076 76.818 287.393 77.1277C287.663 77.4654 287.912 77.8291 288.113 78.197C288.292 78.5909 288.401 79.015 288.441 79.4692C288.491 80.043 288.415 80.5556 288.266 81.0505C288.069 81.5496 287.821 82.0289 287.476 82.4928C287.084 82.9608 286.683 83.3331 286.245 83.5641C285.786 83.8212 285.316 83.9586 284.79 84.0046ZM289.925 74.1355C289.855 73.8767 289.884 73.6573 289.988 73.4795C290.072 73.3277 290.233 73.2413 290.472 73.2204C290.663 73.2037 290.837 73.2608 290.993 73.3917C291.103 73.5507 291.193 73.7596 291.262 73.9945L291.713 76.9424L294.701 76.6809C294.893 76.6642 295.066 76.7213 295.218 76.8044C295.326 76.9395 295.413 77.1005 295.429 77.2918C295.448 77.507 295.389 77.6567 295.302 77.7607C295.167 77.8689 295.004 77.9314 294.812 77.9481L291.895 78.2033L292.238 80.4621L294.663 79.8163C294.85 79.7517 295.019 79.761 295.169 79.8202C295.273 79.9074 295.381 80.0425 295.446 80.2296C295.514 80.4645 295.505 80.6339 295.418 80.7379C295.333 80.8659 295.195 80.9501 295.006 80.9908L292.44 81.673L292.956 85.0971C292.981 85.384 292.976 85.6012 292.891 85.7291C292.784 85.8831 292.623 85.9694 292.408 85.9883C292.193 86.0071 292.021 85.9739 291.913 85.8388C291.759 85.7318 291.669 85.5229 291.643 85.236L289.925 74.1355ZM299.915 84.1991C299.936 84.4382 299.794 84.7398 299.558 85.0736C299.301 85.4334 298.955 85.6082 298.5 85.648C297.807 85.7086 297.451 85.4988 297.407 84.9968C297.38 84.6859 297.498 84.3865 297.854 84.0422C298.142 83.752 298.533 83.5491 298.988 83.5094C299.538 83.4612 299.871 83.697 299.915 84.1991ZM300.063 74.5977C299.959 73.4023 299.356 72.8527 298.304 72.9447C297.683 72.9991 297.079 73.5337 296.517 74.5466C296.327 74.8523 296.068 74.9231 295.737 74.7112C295.385 74.5492 295.308 74.2187 295.579 73.7373C296.192 72.4791 297.07 71.7759 298.193 71.6776C300.154 71.506 301.248 72.4462 301.426 74.4785C301.51 75.4348 300.935 76.3042 299.809 77.1978C298.656 78.0695 298.156 78.9565 298.233 79.8412C298.256 80.1042 298.383 80.4544 298.73 80.8337C299.024 81.1693 299.051 81.4801 298.781 81.6965C298.447 82.0148 298.082 81.9744 297.714 81.6212C297.19 81.137 296.927 80.6059 296.87 79.9604C296.757 78.6693 297.289 77.5869 298.444 76.739C299.574 75.8933 300.113 75.1715 300.063 74.5977Z" fill="#222222"/>
<path d="M283 91.3813L310.218 89.0001L284.683 110.62L283 91.3813Z" fill="#00E4FF"/>
<defs>
<filter id="filter0_d_344_7769" x="3.79248" y="37.8572" width="125.489" height="94.8473" filterUnits="userSpaceOnUse" color-interpolation-filters="sRGB">
<feFlood flood-opacity="0" result="BackgroundImageFix"/>
<feColorMatrix in="SourceAlpha" type="matrix" values="0 0 0 0 0 0 0 0 0 0 0 0 0 0 0 0 0 0 127 0" result="hardAlpha"/>
<feOffset/>
<feGaussianBlur stdDeviation="4"/>
<feComposite in2="hardAlpha" operator="out"/>
<feColorMatrix type="matrix" values="0 0 0 0 0 0 0 0 0 0 0 0 0 0 0 0 0 0 0.2 0"/>
<feBlend mode="normal" in2="BackgroundImageFix" result="effect1_dropShadow_344_7769"/>
<feBlend mode="normal" in="SourceGraphic" in2="effect1_dropShadow_344_7769" result="shape"/>
</filter>
<filter id="filter1_d_344_7769" x="15.1729" y="102.02" width="326.972" height="87.2029" filterUnits="userSpaceOnUse" color-interpolation-filters="sRGB">
<feFlood flood-opacity="0" result="BackgroundImageFix"/>
<feColorMatrix in="SourceAlpha" type="matrix" values="0 0 0 0 0 0 0 0 0 0 0 0 0 0 0 0 0 0 127 0" result="hardAlpha"/>
<feOffset/>
<feGaussianBlur stdDeviation="4"/>
<feComposite in2="hardAlpha" operator="out"/>
<feColorMatrix type="matrix" values="0 0 0 0 0 0 0 0 0 0 0 0 0 0 0 0 0 0 0.2 0"/>
<feBlend mode="normal" in2="BackgroundImageFix" result="effect1_dropShadow_344_7769"/>
<feBlend mode="normal" in="SourceGraphic" in2="effect1_dropShadow_344_7769" result="shape"/>
</filter>
<filter id="filter2_d_344_7769" x="135.798" y="159.23" width="217.663" height="78.4098" filterUnits="userSpaceOnUse" color-interpolation-filters="sRGB">
<feFlood flood-opacity="0" result="BackgroundImageFix"/>
<feColorMatrix in="SourceAlpha" type="matrix" values="0 0 0 0 0 0 0 0 0 0 0 0 0 0 0 0 0 0 127 0" result="hardAlpha"/>
<feOffset/>
<feGaussianBlur stdDeviation="4"/>
<feComposite in2="hardAlpha" operator="out"/>
<feColorMatrix type="matrix" values="0 0 0 0 0 0 0 0 0 0 0 0 0 0 0 0 0 0 0.2 0"/>
<feBlend mode="normal" in2="BackgroundImageFix" result="effect1_dropShadow_344_7769"/>
<feBlend mode="normal" in="SourceGraphic" in2="effect1_dropShadow_344_7769" result="shape"/>
</filter>
</defs>
</svg>
