<svg width="1064" height="440" viewBox="0 0 1064 440" fill="none" xmlns="http://www.w3.org/2000/svg">
<g filter="url(#filter0_d_460_3448)">
<path d="M77.3717 174.743C70.5962 173.549 66.6379 169.277 69.6207 156.967C72.7424 143.871 78.0586 115.564 80.3912 94.0418C80.6504 91.6504 79.8717 90.5383 77.7031 91.7806C75.5344 93.0229 72.0496 94.3581 68.7502 95.5634C65.4507 96.7688 62.1787 95.0546 61.344 91.4956C60.5094 87.9366 60.3605 84.1736 65.0591 79.6406C72.7046 72.2154 85.2903 65.3364 97.9693 62.5355C104.401 61.0702 109.908 65.7778 107.657 75.7789C101.034 105.968 93.9575 139.65 91.3652 160.802C90.0507 171.943 83.3593 175.799 77.3717 174.743ZM128.984 186.281C125.155 182.194 125.998 176.494 136.238 167.252C146.293 158.139 199.562 110.343 221.313 91.108C228.977 84.4984 237.393 81.9206 241.712 86.9065C246.162 92.0777 243.123 99.1778 237.924 103.785C215.052 124.772 169.587 167.933 149.003 183.312C141.719 188.689 132.682 190.183 128.984 186.281ZM126.904 93.9573C129.793 77.5701 143.871 68.6796 159.785 71.4858C175.7 74.2919 185.888 87.4611 182.998 103.848C180.137 120.078 166.059 128.968 150.145 126.162C134.23 123.356 124.042 110.187 126.904 93.9573ZM145.497 97.2358C144.497 102.908 147.13 108.247 153.117 109.302C159.105 110.358 163.405 106.242 164.405 100.57C165.433 94.7398 162.8 89.4014 156.813 88.3457C150.825 87.2899 146.525 91.4057 145.497 97.2358ZM191.349 167.059C194.238 150.671 208.316 141.781 224.231 144.587C240.145 147.393 250.333 160.562 247.444 176.95C244.582 193.179 230.504 202.07 214.59 199.264C198.675 196.457 188.487 183.288 191.349 167.059ZM209.942 170.337C208.942 176.01 211.575 181.348 217.563 182.404C223.55 183.46 227.85 179.344 228.85 173.671C229.878 167.841 227.245 162.503 221.258 161.447C215.27 160.391 210.97 164.507 209.942 170.337Z" fill="white"/>
</g>
<g filter="url(#filter1_d_460_3448)">
<path d="M333.546 263.472C317.41 264.961 271.067 267.962 249.503 269.229C243.15 269.553 239.842 268.701 239.499 263.793C239.214 259.723 241.681 257.145 249.359 256.849C257.156 256.544 268.529 255.749 280.619 254.903L280.226 249.277C270.641 249.827 261.902 250.438 255.908 250.737C250.752 250.977 248.208 248.99 247.948 245.279C247.705 241.807 249.924 239.126 255.43 238.741L263.57 238.172L263.395 235.658C263.177 232.546 264.814 230.146 267.244 228.773C262.926 228.954 259.095 229.222 255.974 229.32C250.938 229.552 247.923 227.718 247.664 224.007C247.421 220.535 250.101 217.581 255.249 217.221C270.691 216.141 304.705 214.004 321.105 212.857C326.252 212.497 328.608 215.219 328.842 218.571C329.068 221.803 327.201 224.34 322.061 224.819C318.838 225.165 315.007 225.433 310.817 225.726C313.056 226.772 314.891 228.929 315.117 232.162L315.301 234.795L322.962 234.259C328.948 233.841 331.261 235.965 331.512 239.556C331.772 243.267 329.888 245.564 323.911 246.102C318.173 246.624 309.674 247.218 300.456 247.862C300.462 249.666 300.596 251.582 300.73 253.497C313.051 252.515 324.415 251.6 331.581 250.859C339.704 250.05 342.13 252.046 342.431 256.355C342.749 260.904 339.642 262.926 333.546 263.472ZM251.974 280.484C251.622 275.456 254.754 273.794 261.21 273.222C279.013 271.496 307.871 269.598 323.611 269.34C331.665 269.258 333.057 270.243 333.639 275.134C334.214 279.906 334.351 285.309 334.19 289.892C333.935 294.842 332.549 295.66 327.059 296.285C312.146 298.049 283.057 300.083 271.3 300.545C270.702 300.586 270.24 300.859 270.29 301.578L270.457 303.972C270.516 304.81 271.139 305.127 272.336 305.043C285.752 304.225 315.551 302.021 330.267 300.872C337.21 300.387 338.616 303.296 338.817 306.169C339.026 309.161 337.192 312.177 331.942 312.784C312.368 314.995 284.947 316.792 262.074 318.271C258.603 318.514 256.715 317.323 256.163 314.595C255.188 309.25 254.636 301.349 254.501 294.261C254.378 290.781 255.987 289.706 259.698 289.447L314.772 285.716C316.807 285.574 317.132 285.07 317.057 283.992L316.957 282.556C316.89 281.598 316.402 281.512 314.966 281.613C301.893 282.166 279.157 283.876 262.79 285.502C257.412 285.998 252.334 285.631 251.974 280.484ZM276.701 228.111C278.939 229.158 280.766 231.195 281 234.547L281.176 237.061L297.695 235.906L297.511 233.272C297.302 230.28 298.819 227.888 301.129 226.524C293.109 227.084 284.61 227.679 276.701 228.111ZM366.609 296.045C355.785 296.08 352.856 293.759 351.97 286.243C351.05 278.247 349.786 265.344 349.437 258.632C349.189 253.356 352.014 250.753 358.453 249.942C363.225 249.368 374.093 248.247 383.909 247.56C385.585 247.443 386.039 247.051 385.93 245.494C385.824 242.254 385.598 239.022 385.31 236.636C384.879 233.899 384.375 233.574 380.767 233.585C376.432 233.528 369.25 234.03 358.894 235.596C351.274 236.73 347.68 233.493 347.311 228.226C346.943 222.959 349.963 221.425 356.394 220.494C368.537 218.682 372.343 218.055 387.988 218.164C398.821 218.249 401.803 219.604 402.809 227.112C404.043 236.168 404.816 245.497 405.051 254.021C405.199 257.86 403.493 260.987 396.216 261.857C388.46 262.76 375.053 263.697 371.103 263.974C369.068 264.116 368.631 264.748 368.756 266.544C368.949 269.297 369.303 272.64 369.487 275.274C369.722 278.626 370.465 278.935 374.073 278.923C379.724 278.889 392.302 278.129 402.658 276.563C410.277 275.429 413.727 278.315 414.215 283.574C414.711 288.953 411.664 291.812 405.233 292.743C393.09 294.554 378.519 296.054 366.609 296.045ZM414.865 220.615C414.165 214.048 415.779 209.605 423.56 209.061C428.947 208.684 433.466 211.375 434.484 222.491C435.047 228.828 435.106 234.838 435.67 241.174C438.543 240.973 441.903 240.859 444.665 240.786C448.392 240.766 452.004 244.242 452.288 248.312C452.581 252.502 451.037 256.219 446.828 257.957C444.372 258.97 440.319 259.494 437.215 259.832C437.96 270.486 438.839 283.055 438.99 290.382C439.167 298.069 436.27 303.083 430.284 303.502C424.299 303.92 420.398 299.742 420.436 291.68C420.429 284.703 418.598 251.631 416.353 231.578C416.008 228.354 415.194 223.6 414.865 220.615ZM464.513 294.251C458.23 293.849 455.353 290.561 455.386 285.868C455.419 281.174 457.347 277.791 465.025 277.495C474.986 277.159 485.537 276.662 496.2 276.037C495.988 274.728 495.896 273.412 495.82 272.334C495.678 270.299 495.792 268.487 496.162 266.897C490.057 267.324 484.414 267.478 479.968 267.548C468.067 267.659 465.087 264.619 463.733 255.572C463.047 250.928 462.431 245.558 462.492 239.539C462.602 234.239 465.077 231.78 471.507 230.849C477.459 229.952 506.292 227.695 523.427 226.737C524.504 226.662 524.735 226.526 524.66 225.448C524.593 224.491 524.384 221.498 524.197 220.549C524.027 219.839 523.779 219.736 522.942 219.794C514.545 220.141 489.568 222.489 472.236 224.062C463.394 224.921 461.133 221.831 460.798 217.042C460.488 212.613 462.657 209.214 470.062 208.455C476.629 207.756 524.59 203.8 532.165 203.752C538.654 203.659 541.455 205.869 542.302 211.103C542.785 214.557 543.884 228.555 543.929 232.642C544.024 237.447 542.446 240.685 535.136 241.076C517.761 242.05 490.964 244.164 483.815 245.145C481.788 245.407 481.343 245.92 481.418 246.997L481.644 250.229C481.719 251.307 482.719 251.838 484.523 251.832C499.999 251.231 518.528 249.575 535.195 247.086C542.815 245.952 548.026 248.234 548.395 253.501C548.763 258.768 545.852 261.859 539.412 262.67C532.024 263.668 523.43 264.629 514.82 265.352C515.527 266.866 515.892 268.645 516.043 270.8L516.311 274.63C526.708 273.663 536.97 272.464 546.496 271.076C554.594 269.908 557.794 274.376 558.137 279.284C558.464 283.953 556.476 286.498 550.413 287.523C534.361 290.209 488.074 295.732 464.513 294.251ZM592.137 268.486C575.259 269.666 560.605 257.94 559.433 241.181C558.219 223.823 572.089 210.583 589.327 209.378C605.967 208.215 620.347 219.479 621.561 236.836C622.825 254.912 610.213 267.222 592.137 268.486ZM578.681 239.474C579.225 247.255 585.545 251.625 591.77 251.19C598.234 250.738 603.885 245.531 603.341 237.75C602.805 230.088 596.476 225.599 590.012 226.051C583.907 226.478 578.17 232.172 578.681 239.474ZM633.741 204.588C632.922 198.029 634.945 194.279 640.811 193.869C646.198 193.492 651.076 196.159 652.692 207.233C654.715 220.684 657.38 257.067 657.797 275.082C657.974 282.768 655.316 287.766 649.331 288.184C643.345 288.603 639.564 284.417 639.243 276.379C638.496 255.38 636.289 227.266 635.041 216.286C634.695 213.062 634.257 208.522 633.741 204.588ZM692.134 245.013C680.233 245.124 675.83 238.936 675.075 229.847C673.981 217.653 673.702 210.214 673.762 204.196C673.873 198.895 676.339 196.317 682.778 195.506C690.286 194.499 740.068 190.778 747.746 190.481C754.107 190.277 756.744 193.581 757.054 198.01C757.388 202.799 755.63 206.891 748.311 207.163C741.111 207.425 702.318 210.018 695.169 210.999C693.142 211.261 692.816 211.765 692.822 213.569C692.912 216.57 693.197 220.64 693.525 223.624C693.999 226.959 695.656 228.287 699.256 228.156C712.457 227.714 730.165 226.355 747.175 223.602C754.786 222.348 760.065 225.588 760.433 230.855C760.801 236.122 757.898 239.332 751.459 240.143C732.86 242.526 706.686 244.958 692.134 245.013ZM668.347 269.533C668.379 264.839 670.308 261.456 677.986 261.16C704.03 260.301 734.101 258.559 759.457 254.741C767.555 253.573 770.754 258.041 771.098 262.949C771.424 267.618 769.437 270.162 763.374 271.188C747.322 273.874 701.034 279.396 677.474 277.916C671.19 277.514 668.314 274.226 668.347 269.533ZM794.794 281.982C791.322 282.225 789.443 281.154 788.908 278.665C787.975 273.918 787.464 266.616 787.371 260.127C787.273 257.006 788.89 256.051 792.601 255.791L848.154 252.027C850.189 251.885 850.515 251.381 850.448 250.423L850.347 248.987C850.289 248.149 849.793 247.943 848.357 248.043C835.309 248.956 812.23 250.93 795.744 252.564C790.365 253.061 785.271 252.455 784.953 247.906C784.626 243.237 787.758 241.575 794.214 241.003C812.136 239.269 840.986 237.251 856.854 237.104C864.917 237.142 866.3 238.007 866.849 242.42C867.39 246.712 867.502 251.757 867.316 255.98C867.019 260.331 865.633 261.15 860.143 261.775C845.102 263.428 815.654 265.487 803.906 266.068C803.307 266.11 802.845 266.383 802.887 266.981L803.021 268.897C803.071 269.615 803.703 270.052 804.9 269.968C818.316 269.15 848.474 266.921 863.309 265.763C870.252 265.278 871.608 267.469 871.826 270.581C872.035 273.574 870.159 275.99 864.909 276.598C845.207 278.698 817.786 280.495 794.794 281.982ZM772.648 231.925C772.722 227.83 774.88 225.995 782.549 225.579C809.748 224.038 838.957 221.996 866.097 219.617C873.151 219.003 875.816 220.982 876.1 225.052C876.352 228.643 873.228 230.425 867.978 231.033C852.227 232.856 803.394 236.391 781.608 237.915C775.383 238.35 772.676 235.773 772.648 231.925ZM780.085 186.897C779.767 182.348 782.882 180.446 789.338 179.874C807.388 178.251 833.827 176.162 849.815 176.006C857.869 175.924 859.244 176.67 859.794 181.082C860.318 185.136 860.522 191.497 860.328 195.6C860.03 199.952 858.653 200.89 853.146 201.275C851.59 201.384 811.555 205.146 799.807 205.727C798.49 205.819 798.028 206.092 798.111 207.289C798.195 208.486 798.964 209.154 800.161 209.07C810.926 208.197 854.739 205.134 856.535 205.008C862.161 204.615 864.586 206.61 864.787 209.483C865.013 212.715 863.162 215.491 857.912 216.099C834.875 218.672 813.055 219.717 789.951 221.332C786.48 221.575 784.84 220.487 784.074 218.135C783.274 215.303 782.621 205.966 782.537 199.597C782.447 196.596 784.048 195.401 787.759 195.142L841.02 191.297C843.055 191.155 843.381 190.651 843.289 189.334C843.18 187.778 842.548 187.341 840.752 187.466C828.072 188.473 805.088 190.08 790.757 191.564C783.711 192.297 780.386 191.206 780.085 186.897Z" fill="white"/>
</g>
<g filter="url(#filter2_d_460_3448)">
<path d="M680.568 406.252C675.541 406.603 672.099 403.837 671.672 397.732C671.58 396.415 671.24 389.822 670.799 386.966C670.326 383.631 669.702 383.314 666.094 383.326C652.389 383.442 636.108 384.58 618.996 387.581C609.846 389.184 605.335 386.612 604.925 380.746C604.548 375.359 607.485 372.628 615.823 371.443C633.567 368.879 653.917 367.456 675.07 367.18C685.167 367.076 686.829 370.207 687.632 376.527C688.638 384.035 689.163 393.261 689.072 397.116C689.062 403.853 685.357 405.917 680.568 406.252ZM589.565 355.476C591.579 346.434 595.177 335.957 598.842 326.438C591.309 327.085 588.652 325.226 588.145 321.412C587.579 316.76 590.012 313.703 595.613 312.951C603.121 311.944 606.712 311.693 613.792 311.439C619.794 311.26 622.45 313.119 622.418 317.813C622.446 321.66 620.211 324.102 616.781 324.943L613.116 334.462C615.753 337.766 618.766 341.285 621.25 344.118C624.391 347.748 622.991 351.816 620.405 354.402C617.597 357.245 613.228 356.708 610.505 353.892C609.728 353.104 608.943 352.196 607.749 350.596C606.847 353.185 606.185 355.757 605.403 358.338C603.272 365.705 599.096 367.922 594.096 366.948C589.703 366.052 587.912 362.809 589.565 355.476ZM624.16 353.057C626.695 344.58 630.577 333.001 634.481 323.465C627.658 323.942 625.121 322.074 624.623 318.38C624.057 313.728 626.481 310.552 632.091 309.919C639.008 309.074 643.797 308.739 650.876 308.485C656.878 308.306 659.167 310.07 659.494 314.739C659.82 319.408 656.499 321.805 651.839 322.251C650.492 325.353 649.273 328.566 648.054 331.778C651.869 336.444 655.514 340.399 660.055 345.134C665.758 350.99 664.717 355.033 661.917 357.995C659.228 360.83 654.286 360.694 649.915 356.669C647.473 354.434 644.87 351.609 642.241 348.424C641.459 351.005 640.669 353.466 639.999 355.919C637.867 363.286 634.282 365.341 629.282 364.367C624.145 363.163 622.628 360.382 624.16 353.057ZM667.253 317.324C666.154 308.499 668.648 304.596 674.146 304.091C679.764 303.578 683.771 305.824 684.669 316.948C685.4 325.678 686.842 344.584 686.974 353.356C687 358.888 684.704 362.176 679.317 362.553C673.93 362.929 670.625 360.394 670.368 354.998C669.777 344.815 668.596 327.936 667.253 317.324ZM787.713 393.827C781.728 394.246 778.186 390.043 778.224 381.981C778.162 377.654 777.55 363.743 776.504 348.78C771.741 349.474 766.337 349.611 762.336 349.169C760.516 348.935 759.149 348.309 758.124 347.418C757.561 363.457 746.013 373.767 729.134 374.948C712.255 376.128 698.233 364.839 697.061 348.08C695.848 330.722 709.153 318.003 726.391 316.797C740.636 315.801 752.731 323.617 756.652 336.695C757.732 334.935 759.564 333.604 762.181 333.181C764.678 332.766 770.04 332.03 775.067 331.678C774.563 326.18 773.42 318.441 771.573 312.676C769.565 306.32 771.496 301.253 779.277 300.709C784.664 300.332 790.021 302.965 791.158 314.073C792.296 325.181 795.762 362.71 796.18 380.725C796.357 388.411 793.699 393.409 787.713 393.827ZM716.309 346.373C716.853 354.154 722.541 358.087 728.766 357.651C735.231 357.199 740.316 352.513 739.772 344.732C739.236 337.071 733.54 333.018 727.075 333.47C720.97 333.897 715.799 339.071 716.309 346.373ZM813.818 380.213C807.568 380.289 805.154 376.729 805.186 372.035C805.219 367.342 807.437 364.66 815.107 364.244C819.784 364.038 824.692 363.695 829.72 363.343C829.408 360.598 829.106 356.289 828.719 352.466C825.367 352.701 822.126 352.807 819.245 352.888C809.994 353.054 807.527 350.46 806.769 343.055C806.331 338.514 804.688 316.736 804.361 312.067C803.951 306.201 807.692 302.932 812.48 302.598C817.508 302.246 821.309 304.988 821.727 310.973L822.037 315.402C828.134 314.855 840.233 314.13 846.457 313.694L846.156 309.385C845.712 303.04 849.231 300.028 854.139 299.684C858.927 299.35 863.173 301.579 863.608 307.804C863.91 312.113 865.672 333.883 865.768 338.688C865.928 346.135 863.974 349.159 853.234 350.391C851.327 350.645 849.18 350.915 846.786 351.083C846.918 354.682 847.211 358.872 847.309 361.993C851.969 361.547 856.749 361.092 861.281 360.535C868.079 359.698 872.333 362.047 872.676 366.955C873.003 371.624 871.074 375.007 865.131 376.024C848.959 378.718 830.045 380.041 813.818 380.213ZM823.41 335.034C823.705 337.54 824.312 337.617 826.954 337.553C832.11 337.313 839.181 336.939 843.825 336.253C847.399 335.763 848.075 335.114 847.95 333.318L847.556 327.692C841.204 328.016 829.113 328.861 823.016 329.408L823.41 335.034ZM873.196 305.569C872.735 298.986 875.273 293.996 881.139 293.586C886.526 293.21 890.566 295.934 891.704 307.042L893.513 326.042C896.386 325.841 899.746 325.727 902.508 325.654C906.236 325.634 909.847 329.11 910.132 333.18C910.425 337.37 908.863 340.847 904.654 342.585C902.199 343.599 898.146 344.123 895.042 344.46C895.787 355.114 896.574 366.367 896.725 373.694C896.902 381.381 894.004 386.395 888.019 386.813C882.034 387.232 878.133 383.054 878.17 374.992C878.164 368.015 876.416 336.139 874.172 316.087C873.826 312.863 873.489 309.759 873.196 305.569ZM963.755 350.121C951.664 350.966 944.257 341.38 936.716 341.907C930.012 342.376 924.526 346.489 921.299 348.519C918.073 350.549 914.799 350.176 912.948 347.779C911.096 345.383 910.828 341.552 914.313 338.06C920.615 331.846 926.691 327.571 934.233 327.044C946.683 326.173 952.185 334.33 961.283 333.693C965.712 333.384 967.919 332.267 970.915 330.373C974.021 328.352 977.045 330.306 978.537 332.727C980.439 335.842 980.295 340.664 975.853 344.223C971.41 347.781 967.705 349.845 963.755 350.121ZM1004.88 356.147C1001.29 356.398 997.499 353.776 996.166 341.599C994.833 329.423 992.77 308.516 992.158 294.604C992.107 288.714 993.74 282.825 1000.68 282.34C1005.95 281.971 1008.97 283.806 1009.89 295.289C1010.81 306.773 1012.66 331.544 1012.38 341.187C1012.09 350.831 1010.15 355.778 1004.88 356.147ZM996.728 377.167C996.21 369.745 997.765 364.463 1005.31 363.936C1009.86 363.618 1013.35 365.419 1013.89 373.08C1014.33 379.424 1011.23 384.934 1004.52 385.403C1000.33 385.696 997.072 382.075 996.728 377.167Z" fill="white"/>
</g>
<rect x="600" y="16" width="340" height="73" rx="36.5" transform="rotate(2 600 16)" fill="#FFF720"/>
<path d="M639.545 63.6491C638.862 63.6252 638.289 63.5332 637.793 63.2997C637.259 63.101 636.803 62.7608 636.458 62.3165C636.075 61.9429 635.803 61.4652 635.642 60.9192C635.444 60.408 635.393 59.7938 635.417 59.1102C635.45 58.1748 635.624 57.3164 635.941 56.4989C636.22 55.7162 636.677 55.0117 637.311 54.3855C637.838 53.7555 638.466 53.3091 639.162 52.9732C639.819 52.708 640.545 52.5532 641.337 52.5809C641.984 52.6035 642.592 52.7328 643.124 52.9675C643.585 53.1997 644.006 53.5026 644.355 53.8389C644.464 53.8067 644.609 53.7758 644.79 53.7461L650.242 53.3961L650.156 50.6915C650.098 50.2932 650.181 49.9719 650.37 49.7264C650.521 49.5155 650.777 49.4164 651.137 49.4289C651.425 49.439 651.673 49.5557 651.881 49.7791C652.016 50.036 652.113 50.3636 652.172 50.7259L652.538 62.9501C652.523 63.3818 652.439 63.7031 652.289 63.878C652.102 64.0876 651.846 64.1867 651.522 64.1754C651.199 64.1641 650.949 64.0833 650.813 63.8624C650.603 63.675 650.507 63.3474 650.522 62.9157L650.41 59.922L644.599 60.2594C644.365 60.7555 644.061 61.2132 643.721 61.6696C643.192 62.3716 642.562 62.8899 641.867 63.1898C641.135 63.5245 640.373 63.678 639.545 63.6491ZM645.266 55.5998C645.355 56.1433 645.444 56.6867 645.424 57.2623C645.411 57.6221 645.363 57.9806 645.278 58.3379L650.367 58.0474L650.283 55.3067L645.266 55.5998ZM643.481 57.1945C643.496 56.7628 643.439 56.3285 643.344 55.965C643.211 55.6361 643.077 55.3433 642.906 55.0852C642.697 54.8977 642.45 54.745 642.203 54.5923C641.918 54.5103 641.596 54.427 641.273 54.4157C640.769 54.3981 640.298 54.4897 639.858 54.6905C639.382 54.9261 638.975 55.236 638.6 55.6552C638.189 56.0731 637.882 56.6027 637.718 57.1734C637.48 57.8134 637.385 58.4585 637.36 59.1781C637.345 59.6098 637.368 59.9709 637.502 60.2637C637.562 60.626 637.733 60.8841 637.977 61.1088C638.184 61.3682 638.43 61.5569 638.715 61.6389C638.963 61.7556 639.25 61.8016 639.609 61.8142C640.113 61.8318 640.585 61.7402 641.061 61.5047C641.5 61.3039 641.91 60.9219 642.29 60.3589C642.667 59.8677 642.937 59.3728 643.173 58.8047C643.335 58.2701 643.462 57.7342 643.481 57.1945ZM656.411 51.054C656.425 50.6583 656.508 50.337 656.661 50.0901C656.812 49.8793 657.068 49.7802 657.428 49.7927C657.752 49.804 658 49.9208 658.208 50.1442C658.343 50.401 658.44 50.7286 658.426 51.1244L657.915 65.7674C657.9 66.1992 657.78 66.5192 657.63 66.6941C657.407 66.9024 657.152 66.9656 656.829 66.9543C656.469 66.9417 656.219 66.861 656.083 66.6401C655.945 66.4551 655.885 66.1288 655.9 65.6971L656.411 51.054ZM675.564 52.1191L675.374 57.5518C675.329 58.847 675.007 59.8083 674.409 60.4358C673.773 61.0981 672.897 61.4277 671.78 61.4607L665.146 61.6253C663.955 61.6918 663.098 61.4817 662.575 60.9592C662.016 60.4714 661.755 59.7058 661.79 58.6984L662.025 51.9705C662.039 51.5747 662.122 51.2534 662.275 51.0066C662.426 50.7958 662.682 50.6966 663.041 50.7092C663.329 50.7192 663.577 50.836 663.75 51.0581C663.885 51.315 663.981 51.6426 663.969 52.0024L663.842 55.6361L667.663 55.5534L667.771 52.4593C667.785 52.0636 667.868 51.7423 668.057 51.4967C668.208 51.2859 668.428 51.1855 668.788 51.198C669.076 51.2081 669.324 51.3248 669.532 51.5482C669.667 51.8051 669.764 52.1327 669.75 52.5284L669.646 55.5146L673.504 55.3972L673.622 52.0153C673.635 51.6555 673.718 51.3342 673.871 51.0874C674.022 50.8765 674.242 50.7761 674.602 50.7887C674.89 50.7987 675.138 50.9155 675.346 51.1389C675.481 51.3958 675.578 51.7233 675.564 52.1191ZM663.775 57.543L663.74 58.5504C663.725 58.9821 663.786 59.3084 663.997 59.4599C664.133 59.6808 664.418 59.7628 664.85 59.7778L667.517 59.7269L667.597 57.4603L663.775 57.543ZM669.501 59.6521L671.52 59.6145C672.095 59.6346 672.569 59.4711 672.905 59.1586C673.202 58.8808 673.399 58.4194 673.419 57.8437L673.438 57.304L669.58 57.3855L669.501 59.6521ZM660.282 67.8313C659.92 67.8907 659.705 67.8472 659.568 67.6623C659.393 67.5121 659.328 67.2937 659.34 66.9699C659.35 66.6821 659.431 66.4328 659.617 66.2591C659.766 66.1203 659.985 66.0199 660.312 65.9592L676.245 65.6151C676.533 65.6251 676.784 65.6699 676.959 65.8201C677.096 66.005 677.195 66.2606 677.185 66.5485C677.174 66.8723 677.057 67.1203 676.908 67.2592C676.722 67.4328 676.504 67.4973 676.216 67.4872L660.282 67.8313ZM688.613 59.6351L688.84 53.123C688.85 52.8352 688.786 52.6168 688.648 52.4319C688.509 52.283 688.296 52.2035 688.008 52.1934L681.122 52.3492C680.688 52.4061 680.366 52.3588 680.192 52.1726C679.981 52.0212 679.881 51.8015 679.892 51.4777C679.902 51.1899 679.983 50.9406 680.205 50.7682C680.39 50.6306 680.717 50.534 681.152 50.4771L688.037 50.3213C688.974 50.318 689.686 50.559 690.211 51.0096C690.697 51.5309 690.923 52.2592 690.891 53.1946L690.663 59.7067C690.648 60.1384 690.529 60.4584 690.343 60.632C690.12 60.8404 689.865 60.9035 689.541 60.8922C689.182 60.8797 688.968 60.8002 688.832 60.5793C688.658 60.3931 688.598 60.0668 688.613 59.6351ZM682.694 66.1285L682.961 58.5011C682.975 58.1054 683.058 57.7841 683.247 57.5385C683.398 57.3277 683.618 57.2273 683.977 57.2398C684.301 57.2511 684.549 57.3679 684.758 57.5913C684.929 57.8494 685.025 58.177 685.012 58.5727L684.75 66.0562L693.87 65.8703C694.158 65.8804 694.409 65.9252 694.584 66.0754C694.721 66.2603 694.82 66.5159 694.81 66.8037C694.799 67.1275 694.682 67.3756 694.533 67.5145C694.347 67.6881 694.129 67.7525 693.841 67.7425L677.907 68.0866C677.545 68.146 677.33 68.1025 677.193 67.9176C677.018 67.7674 676.953 67.549 676.965 67.2252C676.975 66.9373 677.055 66.688 677.242 66.5144C677.391 66.3755 677.61 66.2751 677.937 66.2145L682.694 66.1285ZM703.845 50.7652C703.521 50.7539 703.308 50.6744 703.17 50.4895C703.031 50.3406 702.967 50.1222 702.978 49.7984C702.988 49.5106 703.069 49.2612 703.219 49.0864C703.368 48.9475 703.588 48.8471 703.911 48.8584L709.992 49.0707C711.143 49.1109 712.035 49.3582 712.631 49.8113C713.192 50.2632 713.493 50.9221 713.466 51.7136C713.445 52.2892 713.248 52.7866 712.908 53.2431C712.568 53.6995 712.122 54.0801 711.57 54.4211L714.238 56.4234C714.515 56.7213 714.722 56.9807 714.822 57.2363C714.884 57.5266 714.838 57.8132 714.684 58.096C714.494 58.3775 714.273 58.5139 714.057 58.5064C713.769 58.4963 713.485 58.3783 713.171 58.0792L709.764 55.5828L705.784 58.1454C705.415 58.4207 705.123 58.5186 704.874 58.4378C704.587 58.3918 704.342 58.2031 704.21 57.8383C704.038 57.6162 704.009 57.399 704.126 57.151C704.206 56.9376 704.466 56.6945 704.836 56.4193L710.473 52.8338C710.768 52.628 710.99 52.4556 711.178 52.2461C711.328 52.0712 711.443 51.8591 711.451 51.6432C711.457 51.4633 711.318 51.3144 711.071 51.1617C710.786 51.0797 710.429 50.9952 709.925 50.9776L703.845 50.7652ZM719.958 53.5253L723.664 53.6547C723.952 53.6647 724.2 53.7815 724.375 53.9317C724.511 54.1526 724.61 54.4082 724.6 54.696C724.589 55.0198 724.473 55.2319 724.325 55.3708C724.14 55.5084 723.885 55.5716 723.597 55.5615L720.036 55.4371L720.138 58.6827C720.159 59.1157 720.076 59.437 719.926 59.6119C719.738 59.8214 719.483 59.9206 719.159 59.9093C718.799 59.8967 718.55 59.816 718.413 59.5951C718.204 59.4076 718.143 59.0813 718.158 58.6496L717.861 49.6337C717.803 49.2354 717.85 48.9129 718.039 48.6673C718.19 48.4565 718.41 48.3561 718.77 48.3687C719.093 48.38 719.341 48.4967 719.55 48.7201C719.685 48.977 719.781 49.3045 719.841 49.6668L719.958 53.5253ZM709.394 69.2942C709.376 69.7979 709.543 70.1639 709.934 70.3217C710.286 70.5501 710.825 70.6049 711.475 70.5556C712.629 70.5238 713.93 70.3892 715.379 70.1516C716.756 69.9115 718.026 69.6677 719.187 69.42C719.477 69.3581 719.692 69.4017 719.903 69.5531C720.076 69.7393 720.213 69.9602 720.277 70.1786C720.306 70.3957 720.298 70.6116 720.219 70.8249C720.102 71.073 719.917 71.2106 719.699 71.275C719.079 71.4695 718.426 71.6268 717.701 71.7456C716.939 71.8991 716.179 72.0166 715.418 72.1342C714.622 72.2504 713.825 72.3667 713.067 72.4123C712.27 72.5286 711.584 72.5766 710.937 72.554C709.711 72.5833 708.82 72.3 708.266 71.6683C707.674 71.0713 707.372 70.4483 707.325 69.7263C707.224 68.498 707.508 67.5713 708.249 66.9848C708.917 66.4318 709.757 66.1009 710.696 66.0257L714.741 65.7346C715.643 65.6941 716.405 65.5406 716.99 65.2729C717.539 65.0399 717.839 64.6901 717.856 64.2224C717.868 63.8626 717.698 63.5685 717.418 63.3426C717.099 63.1874 716.671 63.0644 716.096 63.0443L709.064 63.267C708.701 63.3264 708.487 63.2829 708.349 63.098C708.174 62.9478 708.111 62.6934 708.122 62.3696C708.132 62.0818 708.213 61.8324 708.399 61.6588C708.548 61.5199 708.767 61.4555 709.093 61.3949L716.125 61.1722C717.387 61.1442 718.351 61.394 719.018 61.8856C719.648 62.4119 719.944 63.2147 719.906 64.294C719.869 65.3734 719.408 66.1858 718.526 66.6953C717.642 67.2408 716.406 67.5579 714.89 67.649L711.171 67.9154C710.629 67.9685 710.192 68.0973 709.896 68.3031C709.528 68.5424 709.373 68.8612 709.394 69.2942ZM732.396 51.5822C732.622 51.3019 732.917 51.0961 733.207 51.0341C733.462 50.971 733.747 51.053 734.027 51.2789C734.236 51.5023 734.371 51.7592 734.362 52.011C734.352 52.2989 734.198 52.5817 733.972 52.8619L731.005 56.3245L734.998 59.5978C735.277 59.8597 735.484 60.1191 735.583 60.3747C735.645 60.6651 735.564 60.9144 735.377 61.124C735.151 61.4043 734.894 61.5394 734.606 61.5294C734.317 61.5553 733.997 61.436 733.683 61.1369L729.69 57.8996L726.872 61.2233C726.571 61.573 726.312 61.7801 726.059 61.8072C725.769 61.8691 725.519 61.7884 725.311 61.565C725.029 61.375 724.893 61.1542 724.903 60.8663C724.876 60.6132 725.031 60.2944 725.332 59.9447L732.396 51.5822ZM740.546 56.4776L744.893 55.7649L745.01 52.4189C745.024 52.0231 745.107 51.7019 745.26 51.455C745.411 51.2442 745.667 51.1451 746.027 51.1576C746.351 51.1689 746.599 51.2857 746.807 51.5091C746.942 51.7659 747.039 52.0935 747.025 52.4893L746.711 61.4838C746.696 61.9155 746.577 62.2356 746.426 62.4104C746.203 62.6187 745.949 62.6819 745.625 62.6706C745.265 62.658 745.016 62.5773 744.879 62.3564C744.742 62.1715 744.681 61.8452 744.696 61.4134L744.827 57.6717L740.623 58.3894L740.714 60.9502C740.735 61.3832 740.651 61.7044 740.501 61.8793C740.314 62.0889 740.058 62.188 739.77 62.178C739.411 62.1654 739.125 62.0834 738.989 61.8625C738.815 61.6763 738.719 61.3488 738.734 60.917L738.415 52.5128C738.357 52.1145 738.404 51.792 738.593 51.5464C738.744 51.3356 739 51.2364 739.36 51.249C739.647 51.259 739.895 51.3758 740.104 51.5992C740.275 51.8573 740.372 52.1849 740.395 52.5459L740.546 56.4776ZM743.737 68.2601C743.713 68.9437 743.547 69.5503 743.275 70.1171C742.966 70.7187 742.588 71.2458 742.138 71.7344C741.617 72.2206 740.992 72.595 740.336 72.7882C739.607 73.0509 738.848 73.1325 737.984 73.1023C737.193 73.0747 736.476 72.9776 735.907 72.7416C735.302 72.5404 734.808 72.2349 734.464 71.7906C734.045 71.4158 733.736 70.9727 733.575 70.4268C733.376 69.9156 733.289 69.3361 733.311 68.6885C733.336 67.969 733.467 67.3251 733.741 66.6863C733.979 66.0822 734.394 65.5204 734.917 64.9983C735.366 64.5097 735.956 64.1341 736.649 63.8701C737.306 63.6409 738.102 63.5246 738.966 63.5547C739.685 63.5799 740.329 63.7104 740.933 63.9477C741.5 64.2196 741.993 64.561 742.448 64.9371C742.864 65.3839 743.171 65.8989 743.441 66.4127C743.637 66.9958 743.759 67.6125 743.737 68.2601ZM741.758 68.191C741.77 67.8312 741.71 67.5049 741.614 67.1414C741.48 66.8485 741.275 66.5531 741.069 66.2578C740.789 66.0319 740.507 65.8419 740.152 65.6854C739.796 65.565 739.367 65.4779 738.899 65.4616C738.324 65.4415 737.852 65.5331 737.415 65.6619C736.941 65.8255 736.573 66.0648 736.274 66.3785C735.901 66.7257 735.672 67.1139 735.551 67.47C735.392 67.8967 735.305 68.3259 735.29 68.7576C735.276 69.1534 735.301 69.4785 735.435 69.7713C735.495 70.0976 735.667 70.3557 735.912 70.5444C736.12 70.7678 736.403 70.9218 736.76 71.0063C737.116 71.1268 737.547 71.1779 738.051 71.1955C738.59 71.2143 739.097 71.1599 739.571 70.9964C740.007 70.8675 740.376 70.6283 740.714 70.2438C741.011 69.966 741.24 69.6138 741.468 69.2616C741.625 68.9068 741.745 68.5508 741.758 68.191ZM750.401 56.0653C750.039 56.1247 749.752 56.0786 749.579 55.8925C749.368 55.741 749.232 55.5201 749.24 55.2683C749.176 55.0499 749.257 54.8006 749.409 54.5537C749.561 54.3429 749.818 54.2078 750.18 54.1484C750.903 54.0656 751.663 53.984 752.493 53.941C753.287 53.8967 754.043 53.8871 754.766 53.8402C755.846 53.8419 756.67 53.9788 757.235 54.2867C757.764 54.6293 758.109 55.0736 758.271 55.5836C758.397 56.0923 758.413 56.6692 758.248 57.2759C758.045 57.9172 757.771 58.556 757.463 59.1216C757.002 59.934 756.36 60.7761 755.611 61.6145C754.824 62.4875 754.077 63.2539 753.406 63.8789C753.109 64.1567 752.853 64.2558 752.602 64.2111C752.314 64.201 752.066 64.0843 751.893 63.8981C751.682 63.7466 751.582 63.527 751.592 63.2392C751.528 62.9848 751.645 62.7368 751.943 62.459C752.615 61.798 753.29 61.0291 754.039 60.1908C754.752 59.3871 755.394 58.545 755.928 57.6991C756.31 57.0641 756.398 56.5989 756.231 56.2328C756.025 55.9375 755.455 55.7735 754.555 55.742C753.87 55.7541 753.184 55.8022 752.498 55.8503C751.775 55.9331 751.051 56.0159 750.401 56.0653ZM764.517 53.1001C764.531 52.7044 764.614 52.3831 764.803 52.1375C764.955 51.9267 765.174 51.8263 765.534 51.8388C765.858 51.8501 766.106 51.9669 766.314 52.1903C766.485 52.4484 766.582 52.776 766.568 53.1717L766.169 64.6128C766.153 65.0445 766.034 65.3645 765.848 65.5381C765.625 65.7465 765.37 65.8096 765.047 65.7983C764.687 65.7857 764.473 65.7063 764.337 65.4854C764.163 65.2992 764.103 64.9729 764.118 64.5411L764.517 53.1001ZM755.802 67.4927C755.71 68.0658 755.69 68.6415 755.707 69.1824C755.687 69.7581 755.67 70.2258 755.691 70.6588C755.681 70.9466 755.747 71.129 755.887 71.242C755.99 71.3896 756.275 71.4717 756.708 71.4508C757.861 71.455 759.161 71.3563 760.645 71.156C762.092 70.9903 763.396 70.7837 764.556 70.5721C764.845 70.5462 765.058 70.6257 765.269 70.7771C765.442 70.9633 765.58 71.1482 765.645 71.3666C765.672 71.6197 765.664 71.8355 765.585 72.0489C765.468 72.297 765.283 72.4346 765.065 72.499C764.41 72.6923 763.721 72.8123 762.96 72.9299C762.164 73.0461 761.331 73.1611 760.536 73.2414C759.667 73.3552 758.837 73.3983 758.045 73.4066C757.215 73.4496 756.458 73.4592 755.81 73.4366C755.163 73.414 754.628 73.2513 754.245 72.8777C753.823 72.5748 753.625 72.0635 753.612 71.4147C753.562 70.7645 753.549 70.1157 753.61 69.3974C753.634 68.7138 753.658 68.0302 753.752 67.3851C753.762 67.0973 753.879 66.8492 754.137 66.6781C754.358 66.5417 754.578 66.4413 754.866 66.4514C755.081 66.4589 755.329 66.5757 755.54 66.7271C755.713 66.9493 755.812 67.2049 755.802 67.4927ZM778.488 57.1902L778.185 65.8609C778.689 65.8785 779.302 65.8639 780.025 65.7811C780.711 65.733 781.433 65.6861 782.158 65.5674C782.883 65.4486 783.571 65.3285 784.26 65.2085C784.912 65.0872 785.493 64.9634 786.002 64.8371C786.364 64.7777 786.652 64.7877 786.864 64.9032C787.075 65.0546 787.212 65.2396 787.277 65.4579C787.305 65.6751 787.261 65.9257 787.181 66.139C787.064 66.3871 786.878 66.5607 786.588 66.6226C786.077 66.8209 785.459 66.9794 784.662 67.0957C783.863 67.2839 783.031 67.3989 782.199 67.478C781.331 67.5917 780.5 67.6708 779.706 67.7151C778.91 67.7954 778.261 67.8087 777.83 67.7937C777.182 67.771 776.721 67.5748 776.519 67.1715C776.243 66.8017 776.148 66.4381 776.16 66.0784L776.472 57.1558C776.485 56.796 776.601 56.5479 776.825 56.3396C777.01 56.202 777.229 56.1016 777.517 56.1116C777.733 56.1192 777.981 56.2359 778.192 56.3873C778.4 56.6108 778.499 56.8664 778.488 57.1902ZM791.834 55.639C791.848 55.2432 791.931 54.922 792.084 54.6751C792.236 54.4643 792.491 54.3652 792.851 54.3777C793.175 54.389 793.423 54.5058 793.631 54.7292C793.766 54.986 793.863 55.3136 793.849 55.7094L793.316 70.9641C793.301 71.3958 793.182 71.7158 793.032 71.8907C792.808 72.099 792.554 72.1622 792.23 72.1509C791.871 72.1383 791.621 72.0576 791.485 71.8367C791.347 71.6518 791.287 71.3254 791.302 70.8937L791.63 61.5034L785.094 61.9596C784.731 62.019 784.517 61.9755 784.379 61.7906C784.204 61.6404 784.14 61.422 784.151 61.0982C784.161 60.8104 784.242 60.561 784.428 60.3874C784.577 60.2485 784.797 60.1481 785.123 60.0875L791.696 59.5966L791.834 55.639ZM811.295 55.7422C811.301 55.5623 811.234 55.4159 811.166 55.3055C811.024 55.2285 810.883 55.1515 810.739 55.1465L806.115 55.5253C805.897 55.5897 805.75 55.6567 805.676 55.7261C805.563 55.8663 805.522 56.0089 805.516 56.1888L805.387 59.8586C805.374 60.2543 805.436 60.5447 805.646 60.6961C805.783 60.917 806.068 60.999 806.502 60.9421L810.507 60.7578C810.687 60.7641 810.832 60.7331 810.98 60.6302C811.054 60.5608 811.131 60.4194 811.139 60.2035L811.295 55.7422ZM806.144 53.6532L810.768 53.2744C811.599 53.2313 812.24 53.4338 812.694 53.8459C813.11 54.2927 813.304 54.9479 813.273 55.8113L813.118 60.2726C813.09 61.0641 812.854 61.6322 812.409 62.0129C811.926 62.4283 811.271 62.6216 810.477 62.6659L806.473 62.8143C805.389 62.9205 804.605 62.677 804.118 62.1557C803.595 61.6691 803.371 60.8688 803.409 59.7895L803.537 56.1197C803.562 55.4001 803.763 54.7948 804.21 54.3781C804.621 53.9602 805.277 53.731 806.144 53.6532ZM820.327 57.0302L824.033 57.1596C824.321 57.1697 824.569 57.2864 824.744 57.4366C824.88 57.6575 824.979 57.9131 824.969 58.201C824.958 58.5248 824.842 58.7369 824.693 58.8757C824.509 59.0134 824.254 59.0765 823.966 59.0665L820.405 58.9421L820.507 62.1877C820.528 62.6207 820.445 62.942 820.295 63.1168C820.107 63.3264 819.852 63.4255 819.528 63.4142C819.168 63.4017 818.919 63.3209 818.782 63.1C818.573 62.9126 818.512 62.5863 818.527 62.1545L818.23 53.1387C818.172 52.7404 818.219 52.4179 818.408 52.1723C818.559 51.9614 818.779 51.861 819.138 51.8736C819.462 51.8849 819.71 52.0016 819.919 52.2251C820.054 52.4819 820.15 52.8095 820.21 53.1718L820.327 57.0302ZM809.762 72.7991C809.745 73.3028 809.912 73.6689 810.303 73.8266C810.655 74.0551 811.194 74.1099 811.844 74.0605C812.998 74.0288 814.299 73.8941 815.748 73.6566C817.125 73.4165 818.395 73.1726 819.556 72.925C819.846 72.8631 820.061 72.9066 820.272 73.0581C820.445 73.2442 820.582 73.4651 820.646 73.6835C820.675 73.9006 820.667 74.1165 820.588 74.3299C820.471 74.5779 820.286 74.7156 820.068 74.78C819.448 74.9745 818.795 75.1318 818.07 75.2506C817.308 75.4041 816.548 75.5216 815.787 75.6391C814.99 75.7554 814.194 75.8717 813.436 75.9172C812.639 76.0335 811.953 76.0816 811.306 76.059C810.08 76.0882 809.189 75.805 808.635 75.1732C808.043 74.5762 807.741 73.9533 807.694 73.2312C807.593 72.0029 807.877 71.0763 808.618 70.4898C809.286 69.9368 810.126 69.6059 811.065 69.5306L815.11 69.2396C816.012 69.1991 816.774 69.0455 817.359 68.7778C817.908 68.5448 818.208 68.1951 818.225 67.7274C818.237 67.3676 818.067 67.0735 817.787 66.8476C817.468 66.6924 817.04 66.5693 816.465 66.5492L809.433 66.772C809.07 66.8314 808.856 66.7878 808.718 66.6029C808.543 66.4527 808.48 66.1984 808.491 65.8746C808.501 65.5867 808.582 65.3374 808.768 65.1638C808.917 65.0249 809.136 64.9605 809.462 64.8998L816.494 64.6771C817.756 64.6491 818.72 64.8989 819.387 65.3905C820.017 65.9168 820.313 66.7197 820.275 67.799C820.238 68.8783 819.777 69.6908 818.895 70.2003C818.011 70.7458 816.775 71.0628 815.259 71.154L811.54 71.4203C810.997 71.4734 810.561 71.6023 810.265 71.8081C809.897 72.0474 809.742 72.3662 809.762 72.7991ZM833.448 64.4046C833.467 63.865 833.411 63.3947 833.282 62.958C833.116 62.5559 832.913 62.1886 832.635 61.8907C832.32 61.6276 832.004 61.4004 831.649 61.2439C831.294 61.0875 830.901 61.0017 830.541 60.9891C830.038 60.9715 829.601 61.1004 829.198 61.3024C828.757 61.5392 828.386 61.8504 828.047 62.2709C827.67 62.762 827.435 63.2941 827.271 63.8647C827.071 64.4341 826.976 65.0792 826.954 65.7268C826.936 66.2305 826.957 66.6635 827.088 67.0283C827.148 67.3906 827.318 67.6847 827.598 67.9106C827.805 68.17 828.087 68.3599 828.444 68.4445C828.763 68.5997 829.157 68.6495 829.589 68.6646C830.021 68.6796 830.492 68.588 830.931 68.3872C831.369 68.2224 831.776 67.9124 832.189 67.4586C832.563 67.0394 832.868 66.5817 833.102 66.0496C833.3 65.5522 833.427 65.0163 833.448 64.4046ZM829.522 70.5714C828.767 70.545 828.123 70.4145 827.591 70.1797C827.023 69.9438 826.53 69.6024 826.114 69.1556C825.696 68.7447 825.39 68.2297 825.194 67.6465C824.998 67.0634 824.913 66.412 824.939 65.6564C824.973 64.685 825.112 63.7894 825.429 62.9719C825.673 62.1879 826.093 61.4822 826.692 60.8547C827.216 60.2966 827.807 59.849 828.468 59.5118C829.127 59.2107 829.816 59.0546 830.608 59.0823C831.328 59.1074 832.006 59.2752 832.609 59.5484C833.175 59.8563 833.703 60.199 834.191 60.6483C834.606 61.1671 834.909 61.754 835.177 62.3397C835.37 62.9949 835.49 63.6835 835.463 64.475C835.433 65.3385 835.262 66.089 834.949 66.7985C834.636 67.508 834.181 68.1765 833.618 68.8053C833.02 69.4328 832.355 69.9139 831.697 70.1791C831.002 70.479 830.278 70.5978 829.522 70.5714ZM840.719 57.3461C840.733 56.9503 840.816 56.629 841.004 56.3835C841.156 56.1726 841.376 56.0722 841.735 56.0848C842.059 56.0961 842.307 56.2128 842.516 56.4362C842.687 56.6944 842.783 57.0219 842.769 57.4177L842.237 72.6724C842.222 73.1041 842.102 73.4242 841.916 73.5978C841.693 73.8061 841.438 73.8693 841.115 73.858C840.755 73.8454 840.542 73.7659 840.405 73.545C840.232 73.3588 840.171 73.0325 840.186 72.6008L840.719 57.3461ZM853.255 64.628C853.268 64.2683 853.209 63.87 853.151 63.4717C853.02 63.1069 852.89 62.7061 852.723 62.3401C852.517 62.0447 852.238 61.7828 851.885 61.5544C851.532 61.3619 851.104 61.2389 850.672 61.2238C850.169 61.2062 849.732 61.3351 849.293 61.5359C848.816 61.7714 848.408 62.1173 848.033 62.5365C847.584 63.0251 847.278 63.5188 847.114 64.0894C846.878 64.6575 846.784 65.3026 846.76 65.9862C846.742 66.4899 846.764 66.8869 846.86 67.2504C846.919 67.6127 847.089 67.9068 847.369 68.1328C847.575 68.4281 847.82 68.6168 848.106 68.6988C848.39 68.8168 848.712 68.8641 849.072 68.8766C849.54 68.893 850.011 68.8014 850.487 68.6018C850.925 68.437 851.404 68.1296 851.852 67.6769C852.299 67.2603 852.639 66.8038 852.873 66.2717C853.107 65.7756 853.234 65.2397 853.255 64.628ZM849.006 70.7835C848.286 70.7584 847.678 70.6291 847.182 70.3956C846.613 70.1956 846.156 69.8555 845.812 69.4112C845.395 68.9644 845.125 68.4506 844.965 67.8687C844.769 67.2855 844.72 66.6354 844.745 65.9158C844.78 64.9084 844.955 64.014 845.272 63.1966C845.588 62.4151 846.044 61.7106 846.643 61.0831C847.238 60.5276 847.866 60.0812 848.563 59.7453C849.221 59.4441 849.947 59.2893 850.739 59.317C851.458 59.3421 852.101 59.5086 852.668 59.7806C853.233 60.0885 853.723 60.5019 854.137 61.0206C854.478 61.5729 854.782 62.1598 855.014 62.7443C855.208 63.3634 855.294 64.0148 855.27 64.6984C855.24 65.5619 855.033 66.3111 854.72 67.0206C854.335 67.7276 853.88 68.3961 853.282 69.0236C852.611 69.6486 851.946 70.1297 851.253 70.3937C850.522 70.6923 849.797 70.8111 849.006 70.7835ZM858.455 57.0289C858.397 56.6306 858.481 56.3093 858.669 56.0638C858.821 55.8529 859.076 55.7538 859.436 55.7664C859.724 55.7764 859.972 55.8931 860.18 56.1165C860.315 56.3734 860.412 56.701 860.471 57.0633L860.603 61.5346L865.101 61.6917C865.389 61.7017 865.637 61.8184 865.847 61.9699C865.984 62.1908 866.083 62.4464 866.073 62.7342C866.062 63.058 865.946 63.2701 865.797 63.409C865.576 63.5454 865.322 63.6085 865.034 63.5985L860.645 63.4452L860.741 66.8707L864.47 66.3525C864.76 66.2906 865.011 66.3353 865.223 66.4508C865.362 66.5997 865.498 66.8206 865.56 67.111C865.619 67.4733 865.574 67.7239 865.426 67.8627C865.275 68.0376 865.056 68.138 864.767 68.1639L860.821 68.7106L860.964 73.9027C860.949 74.3345 860.902 74.657 860.751 74.8319C860.564 75.0415 860.308 75.1406 859.985 75.1293C859.661 75.118 859.411 75.0372 859.275 74.8163C859.066 74.6289 858.969 74.3013 858.984 73.8696L858.455 57.0289ZM875.976 60.5945L875.673 69.2652C876.177 69.2828 876.79 69.2682 877.513 69.1854C878.199 69.1373 878.921 69.0905 879.646 68.9717C880.37 68.8529 881.059 68.7329 881.748 68.6128C882.4 68.4915 882.981 68.3677 883.49 68.2414C883.852 68.182 884.14 68.1921 884.352 68.3075C884.563 68.459 884.7 68.6439 884.765 68.8623C884.793 69.0794 884.748 69.33 884.669 69.5434C884.552 69.7914 884.366 69.965 884.076 70.027C883.565 70.2252 882.947 70.3838 882.15 70.5C881.351 70.6883 880.518 70.8033 879.687 70.8823C878.819 70.9961 877.987 71.0751 877.193 71.1194C876.398 71.1997 875.749 71.2131 875.318 71.198C874.67 71.1754 874.209 70.9792 874.006 70.5759C873.731 70.206 873.636 69.8425 873.648 69.4827L873.96 60.5601C873.973 60.2004 874.089 59.9523 874.313 59.744C874.498 59.6063 874.717 59.5059 875.005 59.516C875.221 59.5235 875.469 59.6403 875.68 59.7917C875.888 60.0151 875.987 60.2707 875.976 60.5945ZM889.322 59.0434C889.336 58.6476 889.419 58.3263 889.572 58.0795C889.724 57.8686 889.979 57.7695 890.339 57.7821C890.663 57.7934 890.911 57.9101 891.119 58.1335C891.254 58.3904 891.351 58.718 891.337 59.1137L890.804 74.3684C890.789 74.8002 890.67 75.1202 890.52 75.2951C890.296 75.5034 890.042 75.5665 889.718 75.5552C889.358 75.5427 889.109 75.4619 888.973 75.241C888.835 75.0561 888.774 74.7298 888.79 74.2981L889.117 64.9078L882.582 65.364C882.219 65.4234 882.005 65.3798 881.867 65.1949C881.692 65.0447 881.628 64.8263 881.639 64.5025C881.649 64.2147 881.73 63.9654 881.916 63.7918C882.065 63.6529 882.285 63.5525 882.611 63.4918L889.184 63.0009L889.322 59.0434ZM899.564 74.8184C899.551 75.1782 899.248 75.5999 898.764 76.0512C898.243 76.5374 897.66 76.7331 896.976 76.7092C895.717 76.6653 895.118 76.2841 895.144 75.5286C895.161 75.0609 895.572 74.643 896.307 74.2004C897.041 73.8297 897.841 73.6055 898.633 73.6332C899.28 73.6558 899.59 74.0629 899.564 74.8184ZM896.429 56.2657C896.458 55.4382 896.834 54.9831 897.482 55.0057C898.13 55.0283 898.495 55.9056 898.439 57.5246L898.062 68.318C898.042 68.8937 898.063 69.3267 898.27 69.586C898.647 70.1395 898.63 70.6073 898.189 70.88C897.634 71.2929 897.098 71.1661 896.614 70.5729C896.164 70.0528 895.973 69.3257 896.01 68.2824L896.429 56.2657Z" fill="#222222"/>
<path d="M677.023 86.0181L627.313 87.754L678.333 123.527L677.023 86.0181Z" fill="#FFF720"/>
<rect x="792" y="96" width="239" height="73" rx="36.5" transform="rotate(-5 792 96)" fill="#00E4FF"/>
<path d="M839.028 124.245C839.817 124.176 840.508 124.224 841.137 124.385C841.733 124.586 842.299 124.862 842.796 125.18C843.228 125.576 843.592 126.014 843.887 126.494C844.146 126.977 844.34 127.538 844.39 128.112C844.45 128.793 844.359 129.416 844.12 129.979C843.847 130.581 843.457 131.085 842.918 131.529C842.349 132.049 841.768 132.425 841.141 132.697C840.9 132.826 840.652 132.884 840.407 132.978L840.865 138.214L846.324 137.411C846.611 137.386 846.865 137.4 847.093 137.524C847.252 137.691 847.381 137.933 847.406 138.22C847.435 138.542 847.349 138.803 847.218 138.959C847.019 139.157 846.81 139.248 846.523 139.273L834.213 141.072C833.86 141.176 833.642 141.158 833.483 140.992C833.327 140.861 833.236 140.652 833.208 140.329C833.183 140.042 833.233 139.785 833.361 139.593C833.492 139.437 833.697 139.311 834.014 139.211L838.83 138.5L838.369 133.228C837.971 133.227 837.571 133.19 837.235 133.075C836.646 132.945 836.154 132.699 835.686 132.307C835.225 131.986 834.861 131.548 834.602 131.064C834.343 130.581 834.185 130.017 834.129 129.371C834.072 128.726 834.126 128.107 834.363 127.508C834.567 126.948 834.918 126.411 835.415 125.898C835.879 125.424 836.389 125.054 837.013 124.746C837.603 124.478 838.275 124.311 839.028 124.245ZM842.382 128.288C842.35 127.929 842.25 127.613 842.079 127.302C841.91 127.028 841.673 126.796 841.439 126.6C841.133 126.409 840.798 126.294 840.427 126.182C840.062 126.142 839.625 126.108 839.195 126.145C838.729 126.186 838.304 126.296 837.955 126.435C837.537 126.616 837.198 126.862 836.93 127.102C836.596 127.421 836.37 127.73 836.291 128.062C836.179 128.433 836.138 128.798 836.173 129.192C836.204 129.551 836.268 129.871 836.398 130.112C836.495 130.393 836.696 130.628 836.966 130.821C837.203 131.054 837.47 131.211 837.835 131.251C838.131 131.334 838.529 131.335 838.959 131.298C839.389 131.26 839.816 131.186 840.234 131.005C840.658 130.896 841.034 130.646 841.403 130.325C841.74 130.042 842.002 129.73 842.189 129.389C842.343 129.086 842.419 128.718 842.382 128.288ZM850.402 130.333L854.419 129.15L853.96 123.914C853.926 123.52 853.969 123.19 854.091 122.927C854.216 122.699 854.457 122.57 854.816 122.538C855.139 122.51 855.399 122.596 855.633 122.792C855.798 123.03 855.934 123.344 855.969 123.738L857.246 138.335C857.283 138.765 857.204 139.097 857.076 139.289C856.88 139.523 856.635 139.617 856.312 139.645C855.954 139.676 855.697 139.626 855.534 139.424C855.375 139.257 855.275 138.941 855.237 138.51L854.585 131.051L850.569 132.233L851.071 137.971C851.108 138.402 851.029 138.734 850.901 138.926C850.705 139.16 850.46 139.253 850.137 139.282C849.779 139.313 849.521 139.263 849.359 139.061C849.2 138.894 849.1 138.577 849.062 138.147L847.892 124.77C847.857 124.376 847.901 124.047 848.022 123.783C848.147 123.555 848.389 123.426 848.747 123.394C849.07 123.366 849.331 123.452 849.565 123.648C849.73 123.887 849.866 124.2 849.9 124.594L850.402 130.333ZM873.592 128.773C873.561 128.415 873.455 128.027 873.349 127.638C873.174 127.292 872.996 126.91 872.785 126.567C872.545 126.299 872.236 126.073 871.858 125.89C871.484 125.742 871.044 125.672 870.614 125.709C870.112 125.753 869.694 125.934 869.283 126.187C868.838 126.479 868.475 126.872 868.154 127.334C867.768 127.874 867.525 128.401 867.432 128.987C867.267 129.58 867.251 130.232 867.311 130.913C867.355 131.415 867.425 131.806 867.564 132.156C867.667 132.508 867.872 132.779 868.178 132.969C868.418 133.237 868.685 133.395 868.978 133.441C869.274 133.524 869.6 133.532 869.959 133.5C870.425 133.459 870.882 133.311 871.329 133.055C871.744 132.838 872.182 132.474 872.571 131.971C872.964 131.503 873.246 131.008 873.414 130.451C873.585 129.93 873.646 129.383 873.592 128.773ZM870.125 135.401C869.408 135.464 868.789 135.409 868.268 135.238C867.678 135.109 867.184 134.827 866.787 134.428C866.319 134.035 865.989 133.558 865.759 133C865.494 132.445 865.365 131.806 865.303 131.089C865.215 130.085 865.28 129.175 865.495 128.326C865.712 127.511 866.08 126.757 866.597 126.061C867.121 125.437 867.69 124.917 868.34 124.499C868.957 124.12 869.659 123.878 870.448 123.809C871.165 123.746 871.823 123.833 872.419 124.034C873.018 124.27 873.554 124.621 874.029 125.085C874.434 125.592 874.807 126.138 875.109 126.689C875.377 127.28 875.541 127.916 875.601 128.598C875.676 129.458 875.563 130.227 875.338 130.97C875.043 131.718 874.672 132.437 874.155 133.133C873.565 133.835 872.964 134.394 872.308 134.74C871.619 135.126 870.914 135.332 870.125 135.401ZM880.866 127.234L885.205 126.854C885.492 126.829 885.753 126.915 885.98 127.039C886.143 127.242 886.272 127.483 886.297 127.77C886.326 128.093 886.237 128.318 886.106 128.474C885.903 128.636 885.659 128.73 885.372 128.755L881.176 129.122L882.196 135.826C882.234 136.257 882.19 136.586 882.062 136.778C881.902 137.009 881.66 137.138 881.337 137.166C881.015 137.195 880.757 137.145 880.595 136.942C880.364 136.782 880.228 136.468 880.191 136.038L878.042 121.807C877.936 121.419 877.944 121.093 878.101 120.826C878.226 120.599 878.467 120.469 878.826 120.438C879.113 120.413 879.373 120.498 879.607 120.694C879.808 120.93 879.944 121.243 880.012 121.599L880.866 127.234ZM886.751 122.165C886.333 122.347 886.013 122.411 885.786 122.286C885.561 122.197 885.435 121.992 885.403 121.633C885.31 121.388 885.327 121.17 885.523 120.936C885.687 120.741 885.997 120.569 886.415 120.388L889.776 119.154C891.388 118.58 892.643 118.47 893.535 118.753C894.398 119.111 894.897 119.863 895.001 121.046C895.041 121.512 894.939 121.991 894.693 122.483C894.473 122.863 894.221 123.283 893.932 123.705L897.278 126.015C897.59 126.276 897.795 126.548 897.888 126.792C897.949 127.076 897.903 127.369 897.706 127.603C897.513 127.873 897.307 128 897.05 127.95C896.76 127.939 896.457 127.785 896.145 127.523L892.65 125.155L889.326 128.879C889.031 129.23 888.76 129.434 888.512 129.492C888.231 129.589 888.007 129.5 887.802 129.229C887.533 129.035 887.439 128.791 887.485 128.498C887.499 128.243 887.654 127.941 887.948 127.59L892.195 122.846C892.457 122.534 892.65 122.264 892.804 121.961C892.926 121.698 892.975 121.44 892.956 121.225C892.925 120.866 892.724 120.631 892.356 120.555C891.955 120.518 891.417 120.565 890.712 120.771L886.751 122.165ZM901.026 117.628C900.991 117.234 901.035 116.905 901.156 116.641C901.281 116.413 901.522 116.284 901.881 116.252C902.204 116.224 902.464 116.31 902.698 116.506C902.864 116.745 902.999 117.058 903.034 117.452L903.897 127.315C903.934 127.745 903.855 128.077 903.727 128.269C903.531 128.503 903.286 128.597 902.963 128.625C902.605 128.656 902.348 128.607 902.185 128.404C902.026 128.237 901.926 127.921 901.888 127.49L901.026 117.628ZM901.992 132.396C901.967 132.109 901.88 131.936 901.724 131.805C901.535 131.713 901.314 131.66 901.027 131.685L890.49 134.342C890.069 134.487 889.743 134.48 889.552 134.352C889.327 134.263 889.201 134.057 889.172 133.734C889.147 133.448 889.197 133.19 889.393 132.956C889.557 132.761 889.867 132.59 890.291 132.48L900.828 129.824C901.748 129.599 902.517 129.712 903.056 130.099C903.599 130.521 903.913 131.216 904.001 132.22L904.336 136.058C904.374 136.488 904.295 136.82 904.167 137.012C903.971 137.246 903.726 137.34 903.403 137.368C903.045 137.399 902.787 137.35 902.625 137.147C902.466 136.98 902.366 136.664 902.328 136.233L901.992 132.396ZM909.346 118.526L917.518 117.342C917.805 117.316 918.059 117.33 918.287 117.455C918.446 117.622 918.576 117.863 918.601 118.15C918.629 118.473 918.543 118.734 918.413 118.89C918.213 119.088 918.004 119.178 917.717 119.203L910.152 120.299C909.943 120.389 909.806 120.474 909.74 120.552C909.645 120.705 909.622 120.851 909.638 121.03L909.945 124.545C909.999 125.155 910.18 125.572 910.492 125.834C910.804 126.096 911.247 126.202 911.856 126.149C913.219 126.029 914.468 125.848 915.672 125.562C916.807 125.318 917.893 124.934 918.866 124.487C919.176 124.316 919.463 124.29 919.685 124.343C919.909 124.432 920.104 124.596 920.27 124.834C920.406 125.148 920.428 125.399 920.375 125.62C920.25 125.848 920.083 126.007 919.803 126.104C918.693 126.635 917.466 127.067 916.19 127.359L915.554 127.523L915.971 132.293L922.823 131.296C923.11 131.271 923.364 131.285 923.556 131.413C923.715 131.58 923.844 131.821 923.869 132.108C923.898 132.431 923.812 132.691 923.681 132.847C923.518 133.042 923.309 133.133 923.022 133.158L907.249 135.441C906.896 135.545 906.678 135.528 906.519 135.361C906.327 135.233 906.236 135.024 906.208 134.701C906.183 134.414 906.233 134.157 906.397 133.962C906.527 133.806 906.733 133.68 907.05 133.58L913.937 132.58L913.526 127.882C913.027 127.961 912.525 128.005 912.023 128.049C910.732 128.162 909.738 127.96 909.072 127.368C908.376 126.851 908.008 125.943 907.901 124.724L907.594 121.209C907.525 120.42 907.615 119.798 907.936 119.336C908.188 118.917 908.671 118.658 909.346 118.526ZM935.169 112.039C935.359 111.733 935.555 111.499 935.832 111.367C936.077 111.273 936.367 111.284 936.673 111.474C936.943 111.667 937.105 111.87 937.163 112.118C937.188 112.404 937.106 112.701 936.919 113.042L936.824 113.195L942.937 115.335C943.315 115.518 943.582 115.676 943.744 115.878C943.909 116.117 943.931 116.368 943.813 116.667C943.662 117.006 943.462 117.204 943.217 117.298C942.94 117.43 942.611 117.387 942.233 117.203L935.82 114.945L933.568 118.937C933.312 119.321 933.077 119.522 932.868 119.612C932.59 119.745 932.333 119.695 932.063 119.502C931.764 119.384 931.562 119.148 931.537 118.862C931.444 118.617 931.559 118.281 931.814 117.898L935.169 112.039ZM936.828 122.338L936.549 119.146C936.515 118.751 936.558 118.422 936.716 118.156C936.84 117.928 937.046 117.801 937.405 117.77C937.727 117.742 937.988 117.827 938.222 118.024C938.387 118.262 938.523 118.576 938.558 118.97L938.827 122.054L946.461 120.917C946.748 120.892 947.002 120.905 947.194 121.033C947.353 121.2 947.483 121.442 947.508 121.728C947.536 122.051 947.451 122.312 947.32 122.468C947.156 122.663 946.914 122.792 946.628 122.817L930.858 125.137C930.538 125.201 930.317 125.148 930.157 124.981C929.966 124.853 929.875 124.644 929.847 124.322C929.822 124.035 929.871 123.777 930.035 123.582C930.166 123.426 930.372 123.3 930.691 123.236L936.828 122.338ZM935.703 134.253C935.747 134.755 935.954 135.062 936.361 135.171C936.732 135.283 937.273 135.272 937.913 135.144C939.054 134.972 940.329 134.679 941.739 134.267C943.077 133.861 944.307 133.464 945.429 133.077C945.71 132.98 945.928 132.997 946.156 133.122C946.351 133.285 946.513 133.488 946.604 133.697C946.658 133.909 946.677 134.124 946.624 134.346C946.539 134.606 946.372 134.765 946.163 134.856C945.572 135.124 944.942 135.36 944.238 135.566C943.5 135.811 942.76 136.021 942.019 136.23C941.243 136.443 940.466 136.655 939.719 136.793C938.943 137.005 938.268 137.136 937.622 137.193C936.409 137.371 935.494 137.235 934.87 136.711C934.213 136.226 933.837 135.645 933.702 134.934C933.452 133.727 933.622 132.773 934.289 132.136C934.887 131.542 935.684 131.147 936.607 130.958L940.837 130.154C941.727 130.004 942.399 129.837 942.882 129.577C943.333 129.357 943.559 129.049 943.524 128.654C943.493 128.295 943.36 128.018 943.126 127.822C942.863 127.7 942.459 127.627 941.885 127.677L934.682 128.777C934.329 128.88 934.111 128.863 933.952 128.697C933.76 128.569 933.666 128.324 933.638 128.001C933.613 127.714 933.663 127.457 933.826 127.262C933.957 127.106 934.166 127.015 934.483 126.915L941.435 125.837C942.684 125.656 943.671 125.786 944.393 126.193C945.083 126.639 945.474 127.399 945.569 128.475C945.663 129.551 945.298 130.342 944.475 130.848C943.655 131.389 942.461 131.783 940.967 132.058L937.308 132.776C936.776 132.894 936.359 133.075 936.087 133.28C935.747 133.526 935.629 133.826 935.703 134.253ZM954.669 112.899C956.139 112.77 957.276 112.96 958.115 113.465C958.883 113.976 959.352 114.802 959.447 115.878C959.541 116.954 959.251 117.774 958.614 118.336C957.947 118.972 956.908 119.497 955.541 119.978L952.83 120.793C952.409 120.938 952.069 121.185 951.81 121.533C951.483 121.923 951.384 122.437 951.44 123.083C951.49 123.657 951.668 124.039 952.046 124.222C952.351 124.413 952.827 124.479 953.47 124.387C954.51 124.296 955.719 124.082 957.135 123.741C958.485 123.478 959.755 123.114 960.877 122.727C961.158 122.63 961.376 122.647 961.604 122.772C961.799 122.936 961.922 123.105 962.013 123.314C962.035 123.565 962.017 123.784 961.965 124.005C961.843 124.269 961.644 124.467 961.363 124.564C960.208 124.99 958.978 125.387 957.592 125.653L957.627 125.649L957.951 129.343L964.802 128.346C965.089 128.321 965.343 128.335 965.535 128.463C965.694 128.63 965.823 128.871 965.848 129.158C965.877 129.481 965.791 129.741 965.66 129.897C965.497 130.093 965.288 130.183 965.001 130.208L949.228 132.492C948.875 132.595 948.657 132.578 948.498 132.411C948.306 132.283 948.216 132.074 948.187 131.751C948.162 131.465 948.212 131.207 948.376 131.012C948.506 130.856 948.712 130.73 949.029 130.63L955.916 129.63L955.602 126.043C954.748 126.19 953.994 126.256 953.277 126.319C952.058 126.426 951.139 126.253 950.518 125.765C949.865 125.317 949.503 124.481 949.396 123.262C949.302 122.186 949.478 121.303 949.992 120.572C950.437 119.882 951.189 119.383 952.207 119.041L954.846 118.232C955.584 117.986 956.207 117.679 956.72 117.345C957.197 117.014 957.449 116.594 957.402 116.057C957.359 115.554 957.109 115.179 956.692 114.962C956.243 114.785 955.624 114.73 954.835 114.8C954.405 114.837 954.049 114.904 953.694 114.972C953.306 115.078 952.95 115.145 952.598 115.248C952.248 115.387 951.899 115.526 951.547 115.629C951.162 115.771 950.777 115.913 950.424 116.017C950.042 116.195 949.752 116.184 949.525 116.059C949.261 115.938 949.102 115.771 949.011 115.562C948.921 115.353 948.902 115.138 948.988 114.877C949.041 114.656 949.207 114.497 949.485 114.364C950.32 114.002 951.162 113.711 952.004 113.421C952.849 113.166 953.736 112.98 954.669 112.899ZM973.956 119.993C973.924 119.634 973.818 119.246 973.712 118.858C973.537 118.512 973.359 118.13 973.148 117.787C972.908 117.519 972.599 117.293 972.222 117.109C971.847 116.961 971.408 116.891 970.977 116.929C970.475 116.973 970.057 117.154 969.646 117.407C969.202 117.698 968.838 118.092 968.517 118.553C968.131 119.093 967.888 119.62 967.795 120.207C967.63 120.799 967.615 121.451 967.674 122.132C967.718 122.634 967.788 123.026 967.927 123.375C968.031 123.727 968.235 123.999 968.541 124.189C968.781 124.457 969.048 124.614 969.341 124.661C969.637 124.743 969.963 124.751 970.322 124.72C970.788 124.679 971.245 124.53 971.692 124.274C972.107 124.057 972.545 123.694 972.934 123.19C973.327 122.722 973.609 122.228 973.777 121.671C973.948 121.15 974.009 120.602 973.956 119.993ZM970.488 126.62C969.771 126.683 969.152 126.629 968.631 126.458C968.041 126.328 967.547 126.046 967.151 125.647C966.683 125.255 966.352 124.778 966.122 124.22C965.857 123.665 965.729 123.025 965.666 122.308C965.578 121.304 965.643 120.395 965.858 119.545C966.076 118.731 966.443 117.976 966.961 117.28C967.484 116.656 968.053 116.137 968.703 115.718C969.32 115.339 970.022 115.097 970.811 115.028C971.528 114.965 972.186 115.052 972.782 115.253C973.381 115.49 973.918 115.84 974.392 116.305C974.798 116.811 975.171 117.357 975.472 117.909C975.74 118.5 975.904 119.136 975.964 119.817C976.039 120.678 975.926 121.447 975.702 122.189C975.406 122.938 975.035 123.657 974.518 124.352C973.929 125.054 973.327 125.613 972.671 125.96C971.982 126.345 971.277 126.551 970.488 126.62ZM978.191 111.817C978.085 111.428 978.128 111.099 978.286 110.833C978.41 110.605 978.652 110.475 979.011 110.444C979.298 110.419 979.558 110.504 979.792 110.701C979.957 110.939 980.093 111.253 980.196 111.605L980.872 116.027L985.355 115.635C985.642 115.61 985.903 115.695 986.13 115.82C986.293 116.022 986.422 116.264 986.447 116.551C986.475 116.874 986.387 117.098 986.256 117.254C986.053 117.417 985.808 117.51 985.521 117.535L981.146 117.918L981.659 121.306L985.297 120.338C985.577 120.241 985.832 120.255 986.056 120.344C986.212 120.474 986.375 120.677 986.471 120.958C986.574 121.31 986.561 121.564 986.43 121.72C986.302 121.912 986.096 122.038 985.812 122.099L981.963 123.123L982.737 128.259C982.775 128.689 982.767 129.015 982.64 129.207C982.479 129.438 982.238 129.567 981.915 129.596C981.592 129.624 981.335 129.574 981.172 129.372C980.942 129.211 980.806 128.898 980.768 128.467L978.191 111.817ZM993.176 126.912C993.207 127.271 992.994 127.723 992.64 128.224C992.254 128.763 991.735 129.026 991.053 129.085C990.013 129.176 989.48 128.862 989.414 128.108C989.373 127.642 989.551 127.193 990.084 126.677C990.515 126.241 991.103 125.937 991.785 125.877C992.609 125.805 993.11 126.159 993.176 126.912ZM993.398 112.51C993.241 110.717 992.337 109.892 990.759 110.03C989.827 110.112 988.922 110.914 988.079 112.433C987.794 112.892 987.405 112.998 986.908 112.68C986.381 112.437 986.265 111.941 986.672 111.219C987.591 109.332 988.908 108.277 990.593 108.13C993.534 107.872 995.175 109.283 995.442 112.331C995.567 113.766 994.706 115.07 993.016 116.41C991.287 117.718 990.537 119.048 990.653 120.375C990.687 120.77 990.878 121.295 991.397 121.864C991.839 122.367 991.88 122.833 991.474 123.158C990.974 123.635 990.427 123.575 989.874 123.045C989.088 122.319 988.693 121.522 988.608 120.554C988.439 118.617 989.237 116.994 990.968 115.722C992.664 114.453 993.473 113.371 993.398 112.51Z" fill="#222222"/>
<path d="M973.613 147.382L1016.35 143.643L976.256 177.594L973.613 147.382Z" fill="#00E4FF"/>
<defs>
<filter id="filter0_d_460_3448" x="36.4126" y="43.7144" width="234.979" height="173.695" filterUnits="userSpaceOnUse" color-interpolation-filters="sRGB">
<feFlood flood-opacity="0" result="BackgroundImageFix"/>
<feColorMatrix in="SourceAlpha" type="matrix" values="0 0 0 0 0 0 0 0 0 0 0 0 0 0 0 0 0 0 127 0" result="hardAlpha"/>
<feOffset/>
<feGaussianBlur stdDeviation="4"/>
<feComposite in2="hardAlpha" operator="out"/>
<feColorMatrix type="matrix" values="0 0 0 0 0 0 0 0 0 0 0 0 0 0 0 0 0 0 0.2 0"/>
<feBlend mode="normal" in2="BackgroundImageFix" result="effect1_dropShadow_460_3448"/>
<feBlend mode="normal" in="SourceGraphic" in2="effect1_dropShadow_460_3448" result="shape"/>
</filter>
<filter id="filter1_d_460_3448" x="228.293" y="165.458" width="659.39" height="163.316" filterUnits="userSpaceOnUse" color-interpolation-filters="sRGB">
<feFlood flood-opacity="0" result="BackgroundImageFix"/>
<feColorMatrix in="SourceAlpha" type="matrix" values="0 0 0 0 0 0 0 0 0 0 0 0 0 0 0 0 0 0 127 0" result="hardAlpha"/>
<feOffset/>
<feGaussianBlur stdDeviation="4"/>
<feComposite in2="hardAlpha" operator="out"/>
<feColorMatrix type="matrix" values="0 0 0 0 0 0 0 0 0 0 0 0 0 0 0 0 0 0 0.2 0"/>
<feBlend mode="normal" in2="BackgroundImageFix" result="effect1_dropShadow_460_3448"/>
<feBlend mode="normal" in="SourceGraphic" in2="effect1_dropShadow_460_3448" result="shape"/>
</filter>
<filter id="filter2_d_460_3448" x="576.238" y="272.548" width="448.135" height="149.735" filterUnits="userSpaceOnUse" color-interpolation-filters="sRGB">
<feFlood flood-opacity="0" result="BackgroundImageFix"/>
<feColorMatrix in="SourceAlpha" type="matrix" values="0 0 0 0 0 0 0 0 0 0 0 0 0 0 0 0 0 0 127 0" result="hardAlpha"/>
<feOffset/>
<feGaussianBlur stdDeviation="4"/>
<feComposite in2="hardAlpha" operator="out"/>
<feColorMatrix type="matrix" values="0 0 0 0 0 0 0 0 0 0 0 0 0 0 0 0 0 0 0.2 0"/>
<feBlend mode="normal" in2="BackgroundImageFix" result="effect1_dropShadow_460_3448"/>
<feBlend mode="normal" in="SourceGraphic" in2="effect1_dropShadow_460_3448" result="shape"/>
</filter>
</defs>
</svg>
