<svg width="624" height="338" viewBox="0 0 624 338" fill="none" xmlns="http://www.w3.org/2000/svg">
<g filter="url(#filter0_d_344_2557)">
<path d="M40.5101 153.639C34.5816 152.594 31.1181 148.856 33.728 138.085C36.4595 126.625 41.1111 101.857 43.1522 83.0252C43.379 80.9327 42.6976 79.9596 40.8001 81.0466C38.9025 82.1336 35.8533 83.3019 32.9663 84.3566C30.0793 85.4113 27.2162 83.9114 26.4859 80.7972C25.7556 77.6831 25.6254 74.3905 29.7366 70.4241C36.4264 63.9271 47.4389 57.9079 58.533 55.4572C64.1612 54.175 68.9791 58.2942 67.0096 67.0452C61.2146 93.4602 55.0227 122.933 52.7545 141.44C51.6042 151.188 45.7493 154.563 40.5101 153.639ZM85.6705 163.735C82.3206 160.159 83.0579 155.171 92.0183 147.084C100.817 139.111 147.427 97.289 166.459 80.4581C173.165 74.6747 180.528 72.4191 184.308 76.7818C188.202 81.3066 185.542 87.5192 180.993 91.5505C160.98 109.914 121.198 147.68 103.188 161.137C96.8139 165.842 88.9068 167.148 85.6705 163.735ZM83.8507 82.9513C86.379 68.6124 98.697 60.8333 112.622 63.2886C126.547 65.744 135.462 77.2671 132.934 91.6059C130.43 105.807 118.112 113.586 104.186 111.131C90.2612 108.675 81.3467 97.1522 83.8507 82.9513ZM100.12 85.8199C99.2445 90.7833 101.548 95.4544 106.788 96.3782C112.027 97.302 115.789 93.7006 116.665 88.7372C117.564 83.6359 115.26 78.9649 110.021 78.0411C104.782 77.1173 101.019 80.7186 100.12 85.8199ZM140.24 146.915C142.769 132.576 155.087 124.797 169.012 127.252C182.937 129.708 191.851 141.231 189.323 155.57C186.819 169.77 174.501 177.55 160.576 175.094C146.651 172.639 137.736 161.116 140.24 146.915ZM156.509 149.784C155.634 154.747 157.938 159.418 163.177 160.342C168.416 161.266 172.179 157.664 173.054 152.701C173.954 147.6 171.65 142.929 166.41 142.005C161.171 141.081 157.409 144.682 156.509 149.784Z" fill="white"/>
</g>
<g filter="url(#filter1_d_344_2557)">
<path d="M130.141 220.644C119.384 221.637 88.4878 223.637 74.1118 224.482C69.8765 224.698 67.6715 224.13 67.4427 220.858C67.253 218.145 68.8971 216.426 74.0158 216.228C79.2143 216.025 86.7958 215.495 94.8561 214.932L94.5938 211.181C88.2038 211.547 82.378 211.955 78.3822 212.154C74.945 212.314 73.2485 210.989 73.0755 208.515C72.9136 206.201 74.3925 204.413 78.0636 204.157L83.4903 203.777L83.3731 202.101C83.228 200.026 84.3191 198.426 85.9392 197.511C83.0606 197.632 80.5069 197.811 78.4263 197.876C75.0689 198.031 73.0588 196.808 72.8858 194.334C72.7239 192.02 74.5109 190.05 77.9425 189.81C88.2374 189.09 110.913 187.665 121.846 186.9C125.278 186.661 126.849 188.475 127.005 190.71C127.155 192.865 125.91 194.556 122.484 194.875C120.335 195.106 117.781 195.284 114.988 195.48C116.481 196.177 117.704 197.616 117.855 199.77L117.977 201.526L123.085 201.169C127.075 200.89 128.618 202.306 128.785 204.7C128.958 207.174 127.702 208.705 123.717 209.064C119.892 209.412 114.226 209.808 108.081 210.238C108.085 211.44 108.174 212.717 108.263 213.994C116.478 213.339 124.054 212.729 128.831 212.235C134.246 211.696 135.863 213.026 136.064 215.899C136.276 218.932 134.205 220.28 130.141 220.644ZM75.7592 231.985C75.5248 228.633 77.6126 227.525 81.9165 227.144C93.7851 225.993 113.024 224.728 123.517 224.556C128.887 224.501 129.815 225.158 130.203 228.419C130.586 231.6 130.677 235.202 130.57 238.257C130.4 241.557 129.476 242.103 125.816 242.519C115.874 243.695 96.4811 245.052 88.6435 245.359C88.2444 245.387 87.9364 245.569 87.9699 246.048L88.0815 247.644C88.1205 248.202 88.5363 248.414 89.3344 248.358C98.2781 247.813 118.144 246.344 127.954 245.577C132.583 245.254 133.521 247.193 133.655 249.108C133.794 251.103 132.571 253.114 129.071 253.519C116.022 254.993 97.7412 256.191 82.4929 257.177C80.1785 257.339 78.9201 256.545 78.5523 254.726C77.9021 251.162 77.5338 245.895 77.444 241.17C77.362 238.85 78.4346 238.134 80.9085 237.961L117.624 235.473C118.981 235.378 119.198 235.042 119.148 234.324L119.081 233.367C119.036 232.728 118.712 232.671 117.754 232.738C109.038 233.106 93.8811 234.247 82.9701 235.33C79.3844 235.661 75.9991 235.417 75.7592 231.985ZM92.2438 197.07C93.7361 197.768 94.9538 199.126 95.1101 201.361L95.2273 203.037L106.24 202.267L106.118 200.511C105.978 198.516 106.989 196.921 108.53 196.012C103.183 196.386 97.5165 196.782 92.2438 197.07ZM152.183 242.359C144.967 242.383 143.014 240.835 142.423 235.824C141.81 230.494 140.968 221.892 140.735 217.417C140.569 213.9 142.453 212.165 146.746 211.624C149.927 211.241 157.172 210.494 163.716 210.036C164.833 209.958 165.136 209.696 165.063 208.659C164.992 206.499 164.842 204.344 164.65 202.753C164.362 200.929 164.026 200.712 161.621 200.72C158.731 200.681 153.943 201.016 147.039 202.06C141.959 202.816 139.563 200.658 139.318 197.147C139.072 193.635 141.086 192.612 145.373 191.992C153.468 190.784 156.005 190.366 166.436 190.439C173.657 190.495 175.645 191.399 176.316 196.404C177.139 202.441 177.654 208.661 177.811 214.343C177.91 216.903 176.772 218.987 171.921 219.567C166.75 220.169 157.812 220.794 155.179 220.978C153.822 221.073 153.531 221.495 153.614 222.692C153.743 224.527 153.979 226.756 154.101 228.512C154.258 230.746 154.753 230.952 157.159 230.945C160.926 230.922 169.311 230.415 176.215 229.371C181.295 228.615 183.595 230.539 183.92 234.045C184.251 237.631 182.219 239.537 177.932 240.158C169.836 241.366 160.123 242.366 152.183 242.359ZM184.353 192.073C183.887 187.695 184.963 184.732 190.15 184.37C193.741 184.119 196.754 185.913 197.432 193.324C197.808 197.548 197.848 201.555 198.223 205.779C200.138 205.645 202.379 205.568 204.22 205.52C206.705 205.506 209.112 207.824 209.302 210.537C209.497 213.331 208.468 215.808 205.662 216.967C204.025 217.643 201.323 217.992 199.253 218.217C199.75 225.32 200.336 233.699 200.437 238.584C200.555 243.708 198.623 247.051 194.633 247.33C190.643 247.609 188.042 244.824 188.067 239.449C188.063 234.798 186.842 212.75 185.346 199.381C185.115 197.232 184.573 194.062 184.353 192.073ZM217.452 241.164C213.263 240.895 211.346 238.704 211.367 235.574C211.389 232.445 212.675 230.19 217.794 229.993C224.434 229.769 231.468 229.437 238.576 229.02C238.435 228.148 238.374 227.27 238.324 226.552C238.229 225.195 238.305 223.987 238.551 222.927C234.481 223.212 230.719 223.315 227.755 223.361C219.821 223.435 217.835 221.409 216.932 215.377C216.475 212.281 216.064 208.701 216.104 204.689C216.178 201.155 217.828 199.516 222.115 198.895C226.083 198.297 245.305 196.793 256.728 196.154C257.446 196.104 257.6 196.013 257.55 195.295C257.505 194.656 257.366 192.661 257.242 192.028C257.128 191.555 256.963 191.486 256.404 191.525C250.807 191.756 234.156 193.322 222.601 194.37C216.706 194.943 215.199 192.883 214.976 189.691C214.769 186.738 216.214 184.472 221.151 183.966C225.529 183.5 257.503 180.863 262.553 180.83C266.88 180.769 268.747 182.242 269.312 185.731C269.633 188.034 270.366 197.366 270.396 200.09C270.46 203.294 269.408 205.452 264.534 205.713C252.951 206.362 235.086 207.772 230.32 208.426C228.969 208.601 228.672 208.942 228.722 209.661L228.873 211.815C228.923 212.534 229.589 212.888 230.792 212.884C241.109 212.483 253.462 211.379 264.573 209.72C269.653 208.964 273.128 210.485 273.373 213.997C273.619 217.508 271.678 219.568 267.385 220.109C262.459 220.774 256.73 221.416 250.99 221.897C251.461 222.907 251.705 224.093 251.805 225.529L251.984 228.083C258.916 227.438 265.757 226.639 272.107 225.713C277.506 224.935 279.639 227.913 279.868 231.185C280.086 234.298 278.761 235.994 274.719 236.678C264.018 238.469 233.159 242.15 217.452 241.164ZM302.535 223.987C291.282 224.773 281.513 216.956 280.732 205.783C279.923 194.211 289.17 185.385 300.662 184.581C311.754 183.806 321.342 191.315 322.151 202.887C322.994 214.937 314.585 223.144 302.535 223.987ZM293.564 204.645C293.927 209.833 298.14 212.746 302.29 212.456C306.599 212.154 310.366 208.683 310.004 203.496C309.647 198.388 305.428 195.395 301.118 195.697C297.048 195.981 293.223 199.777 293.564 204.645ZM330.271 181.388C329.725 177.016 331.073 174.515 334.984 174.242C338.575 173.991 341.827 175.768 342.905 183.151C344.254 192.119 346.03 216.374 346.308 228.384C346.426 233.508 344.654 236.84 340.664 237.119C336.674 237.398 334.153 234.607 333.938 229.249C333.441 215.249 331.97 196.506 331.137 189.187C330.907 187.038 330.615 184.01 330.271 181.388ZM369.199 208.338C361.265 208.412 358.33 204.287 357.826 198.227C357.098 190.098 356.911 185.139 356.951 181.126C357.025 177.593 358.669 175.874 362.962 175.333C367.967 174.662 401.155 172.181 406.274 171.983C410.515 171.847 412.273 174.05 412.479 177.003C412.702 180.195 411.53 182.924 406.65 183.104C401.851 183.28 375.989 185.008 371.223 185.662C369.871 185.837 369.654 186.172 369.658 187.375C369.718 189.376 369.908 192.089 370.127 194.079C370.443 196.302 371.547 197.187 373.947 197.1C382.748 196.805 394.554 195.899 405.893 194.064C410.967 193.228 414.486 195.388 414.732 198.899C414.977 202.41 413.042 204.551 408.749 205.091C396.35 206.68 378.901 208.301 369.199 208.338ZM353.341 224.684C353.363 221.555 354.649 219.3 359.767 219.102C377.13 218.53 397.178 217.369 414.081 214.823C419.48 214.045 421.613 217.023 421.842 220.295C422.059 223.408 420.735 225.104 416.692 225.788C405.991 227.579 375.133 231.26 359.426 230.273C355.237 230.005 353.319 227.813 353.341 224.684ZM437.639 232.984C435.325 233.146 434.072 232.432 433.715 230.772C433.093 227.608 432.753 222.74 432.691 218.414C432.625 216.333 433.704 215.697 436.178 215.524L473.213 213.014C474.569 212.919 474.787 212.583 474.742 211.945L474.675 210.987C474.636 210.428 474.305 210.291 473.348 210.358C464.649 210.966 449.263 212.283 438.273 213.372C434.687 213.703 431.291 213.299 431.078 210.266C430.861 207.154 432.949 206.046 437.252 205.665C449.201 204.508 468.434 203.163 479.013 203.065C484.388 203.09 485.31 203.667 485.676 206.609C486.037 209.471 486.112 212.834 485.988 215.649C485.79 218.55 484.865 219.096 481.206 219.512C471.178 220.614 451.546 221.987 443.714 222.375C443.315 222.402 443.007 222.584 443.035 222.983L443.124 224.26C443.157 224.739 443.579 225.03 444.377 224.975C453.321 224.429 473.426 222.943 483.316 222.172C487.945 221.848 488.849 223.308 488.994 225.383C489.134 227.378 487.883 228.99 484.383 229.395C471.248 230.794 452.967 231.992 437.639 232.984ZM422.875 199.613C422.925 196.883 424.363 195.659 429.476 195.382C447.609 194.355 467.081 192.993 485.175 191.407C489.878 190.998 491.654 192.317 491.844 195.031C492.011 197.425 489.929 198.613 486.429 199.018C475.928 200.233 443.373 202.59 428.848 203.606C424.699 203.896 422.894 202.178 422.875 199.613ZM427.833 169.594C427.621 166.561 429.698 165.293 434.002 164.912C446.036 163.83 463.661 162.437 474.32 162.333C479.689 162.279 480.606 162.776 480.972 165.718C481.322 168.42 481.458 172.661 481.328 175.396C481.13 178.297 480.212 178.923 476.541 179.179C475.503 179.252 448.813 181.76 440.981 182.147C440.103 182.209 439.795 182.391 439.851 183.189C439.907 183.987 440.419 184.432 441.217 184.376C448.394 183.794 477.603 181.752 478.8 181.668C482.551 181.406 484.167 182.736 484.301 184.651C484.452 186.806 483.218 188.657 479.718 189.062C464.36 190.777 449.813 191.474 434.411 192.551C432.096 192.713 431.003 191.987 430.493 190.419C429.96 188.532 429.524 182.307 429.468 178.06C429.408 176.06 430.475 175.263 432.949 175.09L468.457 172.527C469.814 172.432 470.031 172.096 469.969 171.218C469.897 170.181 469.475 169.89 468.278 169.973C459.825 170.645 444.502 171.716 434.948 172.705C430.25 173.194 428.034 172.467 427.833 169.594Z" fill="white"/>
</g>
<g filter="url(#filter2_d_344_2557)">
<path d="M383.696 314.502C380.344 314.736 378.05 312.892 377.765 308.822C377.704 307.944 377.477 303.549 377.183 301.645C376.867 299.422 376.452 299.21 374.046 299.218C364.91 299.295 354.056 300.054 342.648 302.055C336.547 303.123 333.541 301.409 333.267 297.498C333.016 293.907 334.974 292.086 340.532 291.296C352.362 289.587 365.929 288.638 380.03 288.454C386.762 288.385 387.87 290.472 388.405 294.685C389.076 299.691 389.426 305.841 389.365 308.412C389.358 312.903 386.888 314.279 383.696 314.502ZM323.027 280.652C324.37 274.623 326.768 267.639 329.212 261.293C324.19 261.724 322.419 260.485 322.081 257.942C321.703 254.841 323.325 252.803 327.059 252.301C332.065 251.63 334.459 251.463 339.178 251.293C343.18 251.174 344.951 252.413 344.929 255.543C344.948 258.108 343.458 259.735 341.171 260.296L338.728 266.642C340.486 268.845 342.494 271.191 344.15 273.08C346.244 275.499 345.311 278.211 343.587 279.936C341.715 281.831 338.803 281.473 336.987 279.595C336.469 279.07 335.946 278.465 335.15 277.398C334.548 279.124 334.107 280.839 333.586 282.56C332.165 287.471 329.381 288.949 326.048 288.299C323.119 287.702 321.925 285.54 323.027 280.652ZM346.091 279.039C347.781 273.387 350.368 265.668 352.971 259.311C348.422 259.629 346.731 258.384 346.399 255.921C346.022 252.82 347.638 250.702 351.377 250.28C355.989 249.717 359.182 249.494 363.901 249.324C367.903 249.205 369.428 250.381 369.646 253.493C369.864 256.606 367.65 258.204 364.543 258.502C363.645 260.569 362.832 262.711 362.02 264.853C364.563 267.963 366.993 270.6 370.02 273.757C373.822 277.661 373.128 280.356 371.262 282.331C369.469 284.221 366.175 284.13 363.26 281.447C361.633 279.957 359.897 278.073 358.145 275.95C357.623 277.671 357.097 279.312 356.649 280.947C355.229 285.858 352.838 287.228 349.505 286.579C346.081 285.776 345.069 283.922 346.091 279.039ZM374.819 255.217C374.087 249.334 375.749 246.731 379.415 246.395C383.16 246.053 385.831 247.55 386.43 254.966C386.917 260.786 387.878 273.39 387.967 279.238C387.984 282.926 386.453 285.118 382.862 285.369C379.271 285.62 377.067 283.93 376.896 280.333C376.501 273.544 375.715 262.292 374.819 255.217ZM455.126 306.219C451.136 306.498 448.775 303.696 448.8 298.321C448.758 295.437 448.35 286.163 447.653 276.187C444.477 276.65 440.875 276.741 438.208 276.447C436.994 276.291 436.083 275.874 435.4 275.28C435.025 285.972 427.325 292.846 416.073 293.633C404.82 294.419 395.473 286.893 394.691 275.721C393.882 264.149 402.752 255.669 414.244 254.866C423.741 254.202 431.804 259.412 434.419 268.131C435.139 266.958 436.36 266.07 438.104 265.788C439.769 265.511 443.343 265.021 446.695 264.786C446.359 261.121 445.597 255.961 444.366 252.118C443.027 247.881 444.315 244.503 449.502 244.14C453.093 243.889 456.664 245.644 457.423 253.049C458.181 260.455 460.492 285.474 460.77 297.484C460.888 302.608 459.116 305.94 455.126 306.219ZM407.523 274.583C407.886 279.77 411.678 282.392 415.828 282.102C420.137 281.8 423.528 278.676 423.165 273.489C422.808 268.381 419.01 265.68 414.701 265.981C410.631 266.266 407.183 269.715 407.523 274.583ZM472.529 297.143C468.362 297.194 466.753 294.82 466.775 291.691C466.796 288.562 468.275 286.774 473.389 286.497C476.506 286.359 479.779 286.13 483.13 285.896C482.922 284.066 482.721 281.193 482.463 278.645C480.228 278.801 478.068 278.872 476.147 278.926C469.98 279.037 468.335 277.307 467.83 272.37C467.538 269.343 466.442 254.825 466.225 251.712C465.951 247.802 468.445 245.622 471.637 245.399C474.989 245.165 477.523 246.992 477.802 250.983L478.008 253.936C482.073 253.571 490.139 253.087 494.289 252.797L494.088 249.924C493.792 245.694 496.138 243.686 499.41 243.457C502.602 243.234 505.432 244.72 505.723 248.87C505.923 251.743 507.099 266.256 507.162 269.46C507.269 274.424 505.966 276.44 498.806 277.262C497.535 277.431 496.104 277.611 494.508 277.723C494.595 280.122 494.791 282.915 494.856 284.996C497.963 284.699 501.15 284.395 504.171 284.024C508.703 283.466 511.539 285.032 511.768 288.304C511.986 291.417 510.7 293.672 506.738 294.35C495.957 296.146 483.347 297.028 472.529 297.143ZM478.924 267.024C479.121 268.694 479.525 268.746 481.286 268.703C484.724 268.543 489.438 268.293 492.533 267.836C494.916 267.509 495.367 267.077 495.284 265.88L495.021 262.129C490.786 262.345 482.726 262.908 478.661 263.273L478.924 267.024ZM512.114 247.38C511.807 242.991 513.499 239.665 517.41 239.392C521.001 239.14 523.694 240.957 524.453 248.362L525.659 261.029C527.575 260.895 529.815 260.818 531.656 260.77C534.141 260.757 536.548 263.074 536.738 265.788C536.934 268.581 535.893 270.899 533.087 272.058C531.45 272.733 528.748 273.083 526.678 273.308C527.175 280.41 527.7 287.912 527.801 292.797C527.918 297.921 525.987 301.264 521.996 301.543C518.006 301.822 515.406 299.037 515.431 293.662C515.426 289.011 514.261 267.76 512.765 254.392C512.534 252.243 512.31 250.174 512.114 247.38ZM572.487 277.081C564.427 277.645 559.489 271.254 554.461 271.606C549.992 271.918 546.334 274.66 544.183 276.013C542.033 277.367 539.85 277.118 538.615 275.52C537.381 273.923 537.202 271.369 539.526 269.041C543.727 264.898 547.778 262.048 552.806 261.697C561.105 261.116 564.774 266.554 570.839 266.13C573.792 265.923 575.263 265.179 577.26 263.916C579.331 262.569 581.347 263.871 582.342 265.486C583.61 267.562 583.514 270.777 580.552 273.149C577.59 275.522 575.12 276.897 572.487 277.081ZM599.905 281.099C597.511 281.266 594.983 279.518 594.094 271.4C593.206 263.283 591.83 249.345 591.422 240.07C591.388 236.143 592.477 232.218 597.106 231.894C600.617 231.648 602.628 232.871 603.243 240.527C603.859 248.183 605.094 264.697 604.902 271.126C604.71 277.555 603.417 280.853 599.905 281.099ZM594.469 295.112C594.123 290.164 595.16 286.643 600.188 286.292C603.221 286.079 605.55 287.28 605.907 292.387C606.203 296.617 604.134 300.29 599.665 300.603C596.872 300.798 594.698 298.384 594.469 295.112Z" fill="white"/>
</g>
<rect x="181" y="2" width="324" height="65" rx="32.5" transform="rotate(2 181 2)" fill="#FFF720"/>
<path d="M212.69 45.3725C212.006 45.3486 211.433 45.2565 210.937 45.0231C210.403 44.8243 209.947 44.4842 209.602 44.0399C209.219 43.6663 208.948 43.1885 208.787 42.6426C208.588 42.1314 208.538 41.5172 208.562 40.8336C208.594 39.8982 208.768 39.0398 209.085 38.2223C209.365 37.4396 209.821 36.7351 210.456 36.1089C210.982 35.4788 211.61 35.0325 212.306 34.6966C212.964 34.4314 213.69 34.2766 214.481 34.3042C215.129 34.3269 215.737 34.4562 216.269 34.6909C216.729 34.9231 217.151 35.226 217.499 35.5623C217.608 35.5301 217.753 35.4992 217.934 35.4695L223.386 35.1195L223.3 32.4149C223.242 32.0166 223.325 31.6953 223.514 31.4498C223.666 31.2389 223.921 31.1398 224.281 31.1523C224.569 31.1624 224.817 31.2791 225.025 31.5025C225.16 31.7594 225.257 32.087 225.316 32.4493L225.682 44.6735C225.667 45.1052 225.584 45.4265 225.433 45.6014C225.246 45.8109 224.99 45.9101 224.667 45.8988C224.343 45.8875 224.093 45.8067 223.957 45.5858C223.748 45.3984 223.651 45.0708 223.666 44.6391L223.554 41.6454L217.743 41.9828C217.51 42.4789 217.205 42.9366 216.865 43.393C216.336 44.095 215.706 44.6133 215.011 44.9132C214.279 45.2479 213.517 45.4014 212.69 45.3725ZM218.41 37.3232C218.499 37.8666 218.588 38.4101 218.568 38.9857C218.556 39.3455 218.507 39.704 218.423 40.0613L223.512 39.7707L223.427 37.0301L218.41 37.3232ZM216.625 38.9179C216.64 38.4862 216.584 38.0519 216.488 37.6884C216.356 37.3595 216.222 37.0667 216.051 36.8085C215.841 36.6211 215.594 36.4684 215.347 36.3157C215.062 36.2337 214.741 36.1504 214.417 36.1391C213.913 36.1215 213.442 36.2131 213.003 36.4139C212.526 36.6494 212.119 36.9594 211.744 37.3786C211.333 37.7965 211.027 38.3261 210.863 38.8968C210.624 39.5368 210.53 40.1819 210.504 40.9015C210.489 41.3332 210.513 41.6943 210.647 41.9871C210.706 42.3494 210.877 42.6075 211.121 42.8322C211.328 43.0916 211.574 43.2803 211.859 43.3623C212.107 43.479 212.394 43.525 212.754 43.5376C213.257 43.5552 213.729 43.4636 214.205 43.2281C214.645 43.0273 215.054 42.6453 215.434 42.0822C215.812 41.5911 216.081 41.0962 216.317 40.5281C216.48 39.9935 216.607 39.4576 216.625 38.9179ZM229.556 32.7774C229.569 32.3816 229.653 32.0604 229.805 31.8135C229.957 31.6027 230.212 31.5036 230.572 31.5161C230.896 31.5274 231.144 31.6442 231.352 31.8676C231.487 32.1244 231.584 32.452 231.57 32.8478L231.059 47.4908C231.044 47.9226 230.925 48.2426 230.774 48.4175C230.551 48.6258 230.297 48.689 229.973 48.6777C229.613 48.6651 229.364 48.5843 229.227 48.3634C229.09 48.1785 229.029 47.8522 229.044 47.4205L229.556 32.7774ZM248.708 33.8425L248.518 39.2752C248.473 40.5704 248.151 41.5317 247.553 42.1592C246.918 42.8215 246.042 43.1511 244.924 43.1841L238.29 43.3487C237.099 43.4151 236.242 43.2051 235.72 42.6826C235.16 42.1948 234.899 41.4292 234.934 40.4218L235.169 33.6939C235.183 33.2981 235.266 32.9768 235.419 32.73C235.57 32.5192 235.826 32.42 236.186 32.4326C236.474 32.4426 236.722 32.5594 236.894 32.7815C237.029 33.0384 237.126 33.366 237.113 33.7257L236.986 37.3595L240.808 37.2768L240.916 34.1827C240.929 33.787 241.013 33.4657 241.201 33.2201C241.353 33.0093 241.572 32.9089 241.932 32.9214C242.22 32.9315 242.468 33.0482 242.676 33.2716C242.812 33.5285 242.908 33.8561 242.894 34.2518L242.79 37.238L246.649 37.1206L246.767 33.7386C246.779 33.3789 246.862 33.0576 247.015 32.8108C247.167 32.5999 247.386 32.4995 247.746 32.5121C248.034 32.5221 248.282 32.6389 248.49 32.8623C248.625 33.1191 248.722 33.4467 248.708 33.8425ZM236.92 39.2664L236.885 40.2737C236.869 40.7055 236.93 41.0318 237.141 41.1833C237.277 41.4041 237.563 41.4862 237.994 41.5012L240.662 41.4503L240.741 39.1837L236.92 39.2664ZM242.646 41.3755L244.664 41.3379C245.24 41.358 245.714 41.1944 246.049 40.882C246.347 40.6042 246.543 40.1427 246.563 39.5671L246.582 39.0274L242.725 39.1089L242.646 41.3755ZM233.427 49.5547C233.064 49.6141 232.85 49.5706 232.712 49.3857C232.537 49.2355 232.473 49.0171 232.484 48.6933C232.494 48.4055 232.575 48.1561 232.761 47.9825C232.91 47.8436 233.13 47.7433 233.456 47.6826L249.39 47.3385C249.677 47.3485 249.928 47.3933 250.103 47.5435C250.241 47.7284 250.34 47.984 250.33 48.2718C250.318 48.5957 250.202 48.8437 250.053 48.9826C249.866 49.1562 249.648 49.2206 249.36 49.2106L233.427 49.5547ZM261.757 41.3584L261.984 34.8464C261.994 34.5586 261.93 34.3402 261.792 34.1553C261.653 34.0064 261.44 33.9269 261.152 33.9168L254.267 34.0726C253.832 34.1295 253.51 34.0822 253.336 33.896C253.125 33.7446 253.025 33.5249 253.036 33.2011C253.046 32.9133 253.127 32.664 253.349 32.4916C253.534 32.354 253.862 32.2574 254.296 32.2005L261.182 32.0447C262.118 32.0414 262.83 32.2824 263.355 32.733C263.841 33.2542 264.068 33.9826 264.035 34.918L263.808 41.4301C263.793 41.8618 263.673 42.1818 263.487 42.3554C263.264 42.5638 263.009 42.6269 262.686 42.6156C262.326 42.6031 262.113 42.5236 261.976 42.3027C261.803 42.1165 261.742 41.7902 261.757 41.3584ZM255.839 47.8519L256.105 40.2245C256.119 39.8287 256.202 39.5075 256.391 39.2619C256.542 39.0511 256.762 38.9507 257.122 38.9632C257.446 38.9745 257.694 39.0913 257.902 39.3147C258.073 39.5728 258.17 39.9004 258.156 40.2961L257.895 47.7796L267.015 47.5937C267.302 47.6038 267.553 47.6486 267.728 47.7987C267.865 47.9837 267.965 48.2393 267.955 48.5271C267.943 48.8509 267.827 49.099 267.678 49.2379C267.491 49.4115 267.273 49.4759 266.985 49.4658L251.051 49.81C250.689 49.8694 250.475 49.8259 250.337 49.6409C250.162 49.4907 250.098 49.2724 250.109 48.9486C250.119 48.6607 250.2 48.4114 250.386 48.2378C250.535 48.0989 250.755 47.9985 251.081 47.9379L255.839 47.8519ZM276.989 32.4886C276.665 32.4773 276.452 32.3978 276.314 32.2129C276.175 32.064 276.111 31.8456 276.122 31.5218C276.132 31.234 276.213 30.9846 276.363 30.8098C276.512 30.6709 276.732 30.5705 277.056 30.5818L283.136 30.7941C284.287 30.8343 285.179 31.0816 285.776 31.5347C286.336 31.9865 286.637 32.6455 286.61 33.437C286.59 34.0126 286.392 34.51 286.052 34.9664C285.712 35.4228 285.266 35.8035 284.714 36.1445L287.382 38.1468C287.66 38.4447 287.867 38.704 287.966 38.9597C288.028 39.25 287.982 39.5366 287.828 39.8194C287.638 40.1009 287.417 40.2373 287.201 40.2297C286.913 40.2197 286.629 40.1017 286.315 39.8026L282.909 37.3062L278.929 39.8688C278.559 40.1441 278.267 40.242 278.018 40.1612C277.731 40.1152 277.486 39.9265 277.354 39.5617C277.182 39.3395 277.154 39.1224 277.27 38.8743C277.35 38.661 277.611 38.4179 277.98 38.1427L283.617 34.5572C283.912 34.3514 284.134 34.179 284.322 33.9694C284.472 33.7946 284.588 33.5825 284.595 33.3666C284.601 33.1867 284.462 33.0378 284.216 32.8851C283.93 32.8031 283.573 32.7186 283.069 32.701L276.989 32.4886ZM293.103 35.2487L296.808 35.3781C297.096 35.3881 297.344 35.5049 297.519 35.6551C297.655 35.8759 297.755 36.1316 297.745 36.4194C297.733 36.7432 297.618 36.9553 297.469 37.0942C297.284 37.2318 297.03 37.295 296.742 37.2849L293.18 37.1605L293.283 40.4061C293.304 40.8391 293.22 41.1604 293.07 41.3352C292.883 41.5448 292.627 41.644 292.303 41.6327C291.943 41.6201 291.694 41.5393 291.558 41.3185C291.348 41.131 291.288 40.8047 291.303 40.373L291.005 31.3571C290.947 30.9588 290.994 30.6363 291.183 30.3907C291.334 30.1799 291.554 30.0795 291.914 30.092C292.238 30.1033 292.486 30.2201 292.694 30.4435C292.829 30.7004 292.926 31.0279 292.985 31.3902L293.103 35.2487ZM282.538 51.0176C282.52 51.5213 282.688 51.8873 283.078 52.0451C283.431 52.2735 283.969 52.3283 284.619 52.279C285.773 52.2472 287.074 52.1126 288.524 51.875C289.901 51.6349 291.17 51.3911 292.331 51.1434C292.622 51.0815 292.836 51.125 293.047 51.2765C293.221 51.4627 293.357 51.6836 293.422 51.9019C293.45 52.1191 293.442 52.3349 293.363 52.5483C293.246 52.7964 293.061 52.934 292.843 52.9984C292.224 53.1929 291.57 53.3502 290.845 53.469C290.083 53.6225 289.323 53.74 288.562 53.8576C287.766 53.9738 286.969 54.0901 286.211 54.1357C285.415 54.2519 284.729 54.3 284.081 54.2774C282.855 54.3067 281.965 54.0234 281.41 53.3917C280.819 52.7947 280.516 52.1717 280.469 51.4497C280.368 50.2214 280.653 49.2947 281.394 48.7082C282.061 48.1552 282.901 47.8243 283.841 47.749L287.885 47.458C288.787 47.4175 289.549 47.264 290.135 46.9963C290.683 46.7633 290.984 46.4135 291 45.9458C291.013 45.586 290.843 45.2919 290.562 45.066C290.244 44.9108 289.816 44.7878 289.24 44.7677L282.208 44.9904C281.846 45.0498 281.631 45.0063 281.493 44.8213C281.319 44.6712 281.255 44.4168 281.267 44.093C281.277 43.8052 281.357 43.5558 281.544 43.3822C281.693 43.2433 281.911 43.1789 282.237 43.1183L289.269 42.8956C290.531 42.8676 291.495 43.1174 292.162 43.6089C292.792 44.1353 293.088 44.9381 293.051 46.0174C293.013 47.0968 292.552 47.9092 291.67 48.4187C290.786 48.9642 289.551 49.2813 288.035 49.3724L284.315 49.6388C283.773 49.6919 283.336 49.8207 283.041 50.0265C282.672 50.2658 282.517 50.5846 282.538 51.0176ZM305.54 33.3055C305.766 33.0253 306.061 32.8194 306.352 32.7575C306.606 32.6944 306.891 32.7764 307.172 33.0023C307.38 33.2257 307.515 33.4826 307.506 33.7344C307.496 34.0223 307.342 34.3051 307.116 34.5853L304.15 38.0479L308.142 41.3212C308.421 41.5831 308.628 41.8425 308.727 42.0981C308.789 42.3885 308.708 42.6378 308.521 42.8474C308.295 43.1277 308.038 43.2628 307.75 43.2527C307.461 43.2787 307.141 43.1594 306.827 42.8603L302.834 39.623L300.016 42.9466C299.716 43.2964 299.456 43.5034 299.203 43.5306C298.913 43.5925 298.664 43.5118 298.455 43.2884C298.174 43.0984 298.037 42.8775 298.047 42.5897C298.02 42.3366 298.175 42.0178 298.476 41.6681L305.54 33.3055ZM313.69 38.201L318.038 37.4883L318.154 34.1423C318.168 33.7465 318.252 33.4252 318.404 33.1784C318.556 32.9676 318.811 32.8684 319.171 32.881C319.495 32.8923 319.743 33.009 319.951 33.2325C320.086 33.4893 320.183 33.8169 320.169 34.2127L319.855 43.2072C319.84 43.6389 319.721 43.9589 319.571 44.1338C319.347 44.3421 319.093 44.4053 318.769 44.394C318.409 44.3814 318.16 44.3007 318.024 44.0798C317.886 43.8949 317.825 43.5685 317.84 43.1368L317.971 39.3951L313.767 40.1128L313.858 42.6736C313.879 43.1065 313.796 43.4278 313.646 43.6027C313.458 43.8123 313.203 43.9114 312.915 43.9014C312.555 43.8888 312.27 43.8068 312.133 43.5859C311.96 43.3997 311.863 43.0722 311.878 42.6404L311.559 34.2362C311.501 33.8379 311.548 33.5154 311.737 33.2698C311.888 33.059 312.144 32.9598 312.504 32.9724C312.792 32.9824 313.04 33.0992 313.248 33.3226C313.419 33.5807 313.516 33.9083 313.539 34.2693L313.69 38.201ZM316.881 49.9835C316.857 50.6671 316.692 51.2737 316.42 51.8405C316.111 52.4421 315.732 52.9692 315.283 53.4578C314.761 53.9439 314.136 54.3183 313.481 54.5116C312.751 54.7743 311.992 54.8558 311.128 54.8257C310.337 54.798 309.62 54.701 309.052 54.465C308.446 54.2637 307.953 53.9583 307.608 53.514C307.189 53.1392 306.88 52.6961 306.719 52.1502C306.521 51.6389 306.433 51.0595 306.456 50.4119C306.481 49.6924 306.611 49.0485 306.886 48.4097C307.123 47.8056 307.539 47.2438 308.061 46.7217C308.511 46.2331 309.1 45.8574 309.794 45.5935C310.45 45.3643 311.247 45.248 312.11 45.2781C312.83 45.3033 313.474 45.4338 314.078 45.671C314.645 45.943 315.137 46.2844 315.592 46.6605C316.009 47.1073 316.315 47.6223 316.585 48.1361C316.781 48.7192 316.903 49.3359 316.881 49.9835ZM314.902 49.9144C314.915 49.5546 314.854 49.2283 314.759 48.8648C314.625 48.5719 314.419 48.2765 314.213 47.9812C313.933 47.7553 313.651 47.5653 313.297 47.4088C312.941 47.2883 312.511 47.2013 312.044 47.185C311.468 47.1649 310.996 47.2565 310.56 47.3853C310.086 47.5489 309.717 47.7881 309.418 48.1019C309.046 48.4491 308.816 48.8373 308.695 49.1933C308.536 49.6201 308.449 50.0493 308.434 50.481C308.421 50.8768 308.445 51.2018 308.579 51.4947C308.64 51.821 308.811 52.0791 309.056 52.2678C309.265 52.4912 309.548 52.6452 309.905 52.7297C310.261 52.8502 310.691 52.9013 311.195 52.9188C311.735 52.9377 312.241 52.8833 312.715 52.7198C313.152 52.5909 313.52 52.3517 313.858 51.9672C314.156 51.6894 314.384 51.3372 314.613 50.9849C314.769 50.6302 314.89 50.2742 314.902 49.9144ZM323.546 37.7887C323.183 37.8481 322.897 37.802 322.723 37.6159C322.512 37.4644 322.376 37.2435 322.385 36.9917C322.32 36.7733 322.401 36.5239 322.554 36.2771C322.705 36.0663 322.962 35.9312 323.324 35.8718C324.048 35.789 324.807 35.7074 325.637 35.6644C326.431 35.62 327.188 35.6104 327.91 35.5636C328.99 35.5653 329.814 35.7022 330.38 36.0101C330.908 36.3527 331.253 36.797 331.415 37.307C331.541 37.8157 331.557 38.3926 331.392 38.9992C331.19 39.6406 330.915 40.2794 330.607 40.845C330.147 41.6574 329.505 42.4995 328.755 43.3379C327.968 44.2109 327.221 44.9773 326.551 45.6023C326.253 45.8801 325.997 45.9792 325.747 45.9344C325.459 45.9244 325.211 45.8077 325.037 45.6215C324.826 45.47 324.726 45.2504 324.736 44.9626C324.673 44.7082 324.789 44.4601 325.087 44.1824C325.759 43.5214 326.434 42.7525 327.184 41.9141C327.896 41.1105 328.538 40.2684 329.072 39.4225C329.454 38.7875 329.543 38.3223 329.375 37.9562C329.169 37.6609 328.599 37.4968 327.699 37.4654C327.015 37.4775 326.328 37.5256 325.642 37.5737C324.919 37.6565 324.196 37.7393 323.546 37.7887ZM337.662 34.8235C337.675 34.4277 337.759 34.1064 337.947 33.8609C338.099 33.65 338.318 33.5496 338.678 33.5622C339.002 33.5735 339.25 33.6902 339.458 33.9137C339.63 34.1718 339.726 34.4994 339.712 34.8951L339.313 46.3361C339.298 46.7679 339.179 47.0879 338.992 47.2615C338.769 47.4698 338.515 47.533 338.191 47.5217C337.831 47.5091 337.618 47.4296 337.481 47.2088C337.308 47.0226 337.247 46.6963 337.262 46.2645L337.662 34.8235ZM328.946 49.2161C328.854 49.7892 328.834 50.3649 328.851 50.9058C328.831 51.4815 328.815 51.9492 328.835 52.3822C328.825 52.67 328.891 52.8524 329.031 52.9654C329.134 53.113 329.419 53.195 329.852 53.1741C331.005 53.1784 332.305 53.0797 333.789 52.8794C335.236 52.7137 336.54 52.5071 337.7 52.2955C337.989 52.2696 338.202 52.349 338.413 52.5005C338.587 52.6867 338.724 52.8716 338.789 53.09C338.816 53.3431 338.808 53.5589 338.729 53.7723C338.612 54.0204 338.427 54.158 338.209 54.2224C337.554 54.4157 336.865 54.5357 336.105 54.6532C335.308 54.7695 334.476 54.8845 333.68 54.9648C332.812 55.0786 331.982 55.1216 331.189 55.13C330.359 55.173 329.602 55.1826 328.955 55.16C328.307 55.1374 327.772 54.9746 327.389 54.601C326.967 54.2981 326.769 53.7869 326.756 53.138C326.706 52.4879 326.693 51.8391 326.754 51.1208C326.778 50.4372 326.802 49.7536 326.897 49.1085C326.907 48.8207 327.023 48.5726 327.281 48.4015C327.502 48.2651 327.722 48.1647 328.01 48.1748C328.226 48.1823 328.474 48.2991 328.685 48.4505C328.857 48.6727 328.956 48.9283 328.946 49.2161ZM351.632 38.9136L351.33 47.5843C351.833 47.6019 352.446 47.5872 353.169 47.5044C353.856 47.4564 354.578 47.4095 355.302 47.2907C356.027 47.172 356.715 47.0519 357.404 46.9319C358.057 46.8106 358.637 46.6868 359.146 46.5604C359.508 46.5011 359.796 46.5111 360.008 46.6266C360.219 46.778 360.357 46.9629 360.421 47.1813C360.45 47.3984 360.405 47.649 360.325 47.8624C360.209 48.1105 360.022 48.2841 359.732 48.346C359.221 48.5443 358.603 48.7028 357.806 48.8191C357.007 49.0073 356.175 49.1223 355.344 49.2014C354.475 49.3151 353.644 49.3941 352.85 49.4385C352.055 49.5188 351.406 49.5321 350.974 49.517C350.326 49.4944 349.865 49.2982 349.663 48.8949C349.388 48.5251 349.292 48.1615 349.305 47.8017L349.616 38.8792C349.629 38.5194 349.746 38.2713 349.969 38.063C350.154 37.9254 350.374 37.825 350.661 37.835C350.877 37.8426 351.125 37.9593 351.336 38.1107C351.545 38.3341 351.644 38.5898 351.632 38.9136ZM364.979 37.3624C364.992 36.9666 365.076 36.6453 365.228 36.3985C365.38 36.1877 365.635 36.0885 365.995 36.1011C366.319 36.1124 366.567 36.2291 366.775 36.4525C366.911 36.7094 367.007 37.037 366.993 37.4328L366.461 52.6875C366.446 53.1192 366.326 53.4392 366.176 53.6141C365.953 53.8224 365.698 53.8856 365.375 53.8743C365.015 53.8617 364.766 53.781 364.629 53.5601C364.492 53.3752 364.431 53.0488 364.446 52.6171L364.774 43.2268L358.238 43.683C357.876 43.7424 357.661 43.6989 357.523 43.514C357.349 43.3638 357.284 43.1454 357.295 42.8216C357.305 42.5338 357.386 42.2844 357.572 42.1108C357.721 41.9719 357.941 41.8715 358.267 41.8109L364.84 41.32L364.979 37.3624ZM384.439 37.4656C384.445 37.2857 384.378 37.1393 384.31 37.0289C384.169 36.9519 384.027 36.8749 383.883 36.8699L379.259 37.2487C379.041 37.3131 378.895 37.3801 378.82 37.4495C378.707 37.5897 378.666 37.7323 378.66 37.9122L378.532 41.582C378.518 41.9777 378.58 42.2681 378.791 42.4195C378.927 42.6404 379.212 42.7224 379.647 42.6655L383.651 42.4812C383.831 42.4875 383.977 42.4565 384.124 42.3536C384.199 42.2842 384.276 42.1428 384.283 41.9269L384.439 37.4656ZM379.289 35.3766L383.913 34.9977C384.743 34.9547 385.384 35.1572 385.838 35.5693C386.255 36.0161 386.448 36.6712 386.418 37.5347L386.262 41.996C386.234 42.7875 385.998 43.3556 385.553 43.7363C385.07 44.1517 384.415 44.345 383.621 44.3893L379.617 44.5376C378.533 44.6439 377.749 44.4004 377.263 43.8791C376.739 43.3925 376.515 42.5922 376.553 41.5129L376.681 37.8431C376.706 37.1235 376.907 36.5182 377.354 36.1015C377.765 35.6836 378.422 35.4544 379.289 35.3766ZM393.472 38.7536L397.177 38.883C397.465 38.8931 397.713 39.0098 397.888 39.16C398.024 39.3809 398.124 39.6365 398.114 39.9243C398.102 40.2481 397.987 40.4602 397.838 40.5991C397.653 40.7368 397.399 40.7999 397.111 40.7899L393.549 40.6655L393.652 43.9111C393.673 44.3441 393.589 44.6653 393.439 44.8402C393.252 45.0498 392.996 45.1489 392.672 45.1376C392.312 45.1251 392.063 45.0443 391.927 44.8234C391.717 44.636 391.657 44.3097 391.672 43.8779L391.374 34.8621C391.316 34.4638 391.363 34.1412 391.552 33.8957C391.703 33.6848 391.923 33.5844 392.283 33.597C392.607 33.6083 392.855 33.725 393.063 33.9484C393.198 34.2053 393.295 34.5329 393.354 34.8952L393.472 38.7536ZM382.907 54.5225C382.889 55.0262 383.057 55.3923 383.447 55.55C383.799 55.7785 384.338 55.8333 384.988 55.7839C386.142 55.7522 387.443 55.6175 388.892 55.38C390.27 55.1399 391.539 54.896 392.7 54.6484C392.991 54.5865 393.205 54.63 393.416 54.7815C393.59 54.9676 393.726 55.1885 393.791 55.4069C393.819 55.624 393.811 55.8399 393.732 56.0533C393.615 56.3013 393.43 56.439 393.212 56.5034C392.593 56.6979 391.939 56.8552 391.214 56.974C390.452 57.1275 389.692 57.245 388.931 57.3625C388.135 57.4788 387.338 57.5951 386.58 57.6406C385.784 57.7569 385.098 57.805 384.45 57.7824C383.224 57.8116 382.334 57.5284 381.779 56.8966C381.188 56.2996 380.885 55.6767 380.838 54.9546C380.737 53.7263 381.022 52.7997 381.763 52.2132C382.43 51.6602 383.27 51.3293 384.21 51.254L388.254 50.963C389.156 50.9224 389.918 50.7689 390.504 50.5012C391.052 50.2682 391.353 49.9185 391.369 49.4508C391.381 49.091 391.212 48.7969 390.931 48.571C390.613 48.4157 390.185 48.2927 389.609 48.2726L382.577 48.4953C382.215 48.5547 382 48.5112 381.862 48.3263C381.688 48.1761 381.624 47.9218 381.636 47.598C381.646 47.3101 381.726 47.0608 381.913 46.8872C382.062 46.7483 382.28 46.6839 382.606 46.6232L389.638 46.4005C390.9 46.3725 391.864 46.6223 392.531 47.1139C393.161 47.6402 393.457 48.443 393.42 49.5224C393.382 50.6017 392.921 51.4141 392.039 51.9237C391.155 52.4692 389.92 52.7862 388.404 52.8774L384.684 53.1437C384.142 53.1968 383.705 53.3257 383.41 53.5315C383.041 53.7708 382.886 54.0895 382.907 54.5225ZM406.592 46.128C406.611 45.5884 406.555 45.1181 406.427 44.6814C406.261 44.2793 406.057 43.912 405.779 43.6141C405.464 43.351 405.148 43.1238 404.793 42.9673C404.439 42.8109 404.045 42.7251 403.686 42.7125C403.182 42.6949 402.745 42.8238 402.342 43.0258C401.901 43.2626 401.53 43.5738 401.191 43.9942C400.814 44.4854 400.579 45.0175 400.415 45.5881C400.215 46.1575 400.121 46.8026 400.098 47.4502C400.081 47.9539 400.101 48.3869 400.233 48.7517C400.292 49.114 400.462 49.4081 400.742 49.634C400.949 49.8934 401.231 50.0833 401.588 50.1679C401.907 50.3231 402.301 50.3729 402.733 50.3879C403.165 50.403 403.636 50.3114 404.076 50.1106C404.514 49.9458 404.921 49.6358 405.333 49.1819C405.708 48.7628 406.012 48.3051 406.247 47.773C406.444 47.2756 406.571 46.7397 406.592 46.128ZM402.667 52.2948C401.911 52.2684 401.267 52.1379 400.735 51.9031C400.167 51.6672 399.675 51.3258 399.258 50.879C398.84 50.4681 398.534 49.9531 398.338 49.3699C398.142 48.7868 398.057 48.1354 398.083 47.3798C398.117 46.4084 398.257 45.5127 398.573 44.6953C398.817 43.9113 399.238 43.2056 399.836 42.5781C400.36 42.02 400.952 41.5724 401.612 41.2352C402.271 40.9341 402.961 40.778 403.752 40.8057C404.472 40.8308 405.15 40.9986 405.753 41.2718C406.319 41.5797 406.847 41.9224 407.336 42.3717C407.75 42.8905 408.054 43.4774 408.321 44.0631C408.515 44.7183 408.635 45.4069 408.607 46.1984C408.577 47.0619 408.407 47.8124 408.094 48.5219C407.781 49.2314 407.325 49.8999 406.763 50.5287C406.164 51.1562 405.499 51.6372 404.842 51.9025C404.147 52.2024 403.422 52.3212 402.667 52.2948ZM413.863 39.0695C413.877 38.6737 413.96 38.3524 414.149 38.1069C414.3 37.896 414.52 37.7956 414.88 37.8082C415.203 37.8195 415.452 37.9362 415.66 38.1596C415.831 38.4178 415.928 38.7453 415.914 39.1411L415.381 54.3958C415.366 54.8275 415.247 55.1476 415.061 55.3212C414.837 55.5295 414.583 55.5927 414.259 55.5814C413.899 55.5688 413.686 55.4893 413.549 55.2684C413.376 55.0822 413.315 54.7559 413.33 54.3242L413.863 39.0695ZM426.399 46.3514C426.412 45.9916 426.354 45.5934 426.296 45.1951C426.164 44.8303 426.034 44.4295 425.867 44.0634C425.661 43.7681 425.382 43.5062 425.03 43.2778C424.676 43.0853 424.248 42.9623 423.817 42.9472C423.313 42.9296 422.876 43.0585 422.437 43.2592C421.96 43.4948 421.552 43.8407 421.177 44.2599C420.728 44.7485 420.422 45.2422 420.258 45.8128C420.022 46.3809 419.928 47.026 419.904 47.7096C419.886 48.2133 419.909 48.6103 420.004 48.9738C420.063 49.3361 420.233 49.6302 420.513 49.8561C420.719 50.1515 420.965 50.3402 421.25 50.4222C421.534 50.5402 421.857 50.5875 422.216 50.6C422.684 50.6164 423.156 50.5248 423.631 50.3252C424.069 50.1604 424.548 49.8529 424.996 49.4003C425.443 48.9836 425.783 48.5272 426.018 47.9951C426.251 47.499 426.378 46.963 426.399 46.3514ZM422.15 52.5069C421.43 52.4817 420.822 52.3524 420.326 52.119C419.757 51.919 419.301 51.5789 418.956 51.1346C418.539 50.6877 418.269 50.174 418.109 49.5921C417.913 49.0089 417.864 48.3588 417.889 47.6392C417.924 46.6318 418.1 45.7374 418.416 44.92C418.732 44.1385 419.189 43.434 419.787 42.8065C420.383 42.2509 421.011 41.8046 421.707 41.4687C422.366 41.1675 423.092 41.0127 423.883 41.0404C424.603 41.0655 425.245 41.232 425.812 41.504C426.378 41.8119 426.868 42.2253 427.282 42.744C427.623 43.2963 427.926 43.8832 428.158 44.4677C428.353 45.0868 428.438 45.7382 428.414 46.4218C428.384 47.2853 428.178 48.0345 427.865 48.744C427.48 49.451 427.024 50.1195 426.426 50.747C425.756 51.372 425.09 51.8531 424.397 52.1171C423.666 52.4157 422.941 52.5345 422.15 52.5069ZM431.6 38.7523C431.542 38.354 431.625 38.0327 431.813 37.7872C431.965 37.5763 432.221 37.4772 432.58 37.4897C432.868 37.4998 433.116 37.6165 433.325 37.8399C433.46 38.0968 433.556 38.4244 433.616 38.7867L433.748 43.258L438.245 43.415C438.533 43.4251 438.781 43.5418 438.992 43.6933C439.128 43.9142 439.227 44.1698 439.217 44.4576C439.206 44.7814 439.09 44.9935 438.941 45.1324C438.721 45.2688 438.466 45.3319 438.178 45.3219L433.789 45.1686L433.886 48.5941L437.614 48.0759C437.904 48.014 438.155 48.0587 438.367 48.1742C438.506 48.3231 438.642 48.544 438.704 48.8344C438.764 49.1967 438.719 49.4473 438.57 49.5861C438.42 49.761 438.2 49.8614 437.911 49.8873L433.965 50.434L434.108 55.6261C434.093 56.0579 434.046 56.3804 433.896 56.5553C433.708 56.7648 433.453 56.864 433.129 56.8527C432.805 56.8414 432.556 56.7606 432.419 56.5397C432.21 56.3523 432.113 56.0247 432.128 55.593L431.6 38.7523ZM449.12 42.3179L448.818 50.9886C449.321 51.0062 449.934 50.9916 450.657 50.9088C451.344 50.8607 452.066 50.8139 452.79 50.6951C453.515 50.5763 454.203 50.4563 454.892 50.3362C455.545 50.2149 456.125 50.0911 456.634 49.9648C456.996 49.9054 457.284 49.9155 457.496 50.0309C457.707 50.1824 457.845 50.3673 457.909 50.5857C457.938 50.8028 457.893 51.0534 457.813 51.2667C457.697 51.5148 457.51 51.6884 457.22 51.7503C456.709 51.9486 456.091 52.1072 455.294 52.2234C454.495 52.4117 453.663 52.5267 452.832 52.6057C451.963 52.7195 451.132 52.7985 450.338 52.8428C449.542 52.9231 448.894 52.9365 448.462 52.9214C447.814 52.8988 447.353 52.7026 447.151 52.2993C446.875 51.9294 446.78 51.5659 446.793 51.2061L447.104 42.2835C447.117 41.9238 447.234 41.6757 447.457 41.4673C447.642 41.3297 447.862 41.2293 448.149 41.2394C448.365 41.2469 448.613 41.3636 448.824 41.5151C449.032 41.7385 449.132 41.9941 449.12 42.3179ZM462.467 40.7667C462.48 40.371 462.564 40.0497 462.716 39.8029C462.868 39.592 463.123 39.4929 463.483 39.5055C463.807 39.5168 464.055 39.6335 464.263 39.8569C464.399 40.1138 464.495 40.4413 464.481 40.8371L463.949 56.0918C463.934 56.5235 463.814 56.8436 463.664 57.0184C463.441 57.2268 463.186 57.2899 462.863 57.2786C462.503 57.2661 462.253 57.1853 462.117 56.9644C461.979 56.7795 461.919 56.4532 461.934 56.0215L462.262 46.6312L455.726 47.0874C455.364 47.1467 455.149 47.1032 455.011 46.9183C454.836 46.7681 454.772 46.5497 454.783 46.2259C454.793 45.9381 454.874 45.6888 455.06 45.5152C455.209 45.3763 455.429 45.2759 455.755 45.2152L462.328 44.7243L462.467 40.7667ZM472.708 56.5418C472.696 56.9016 472.393 57.3233 471.909 57.7746C471.387 58.2607 470.804 58.4565 470.121 58.4326C468.861 58.3887 468.262 58.0075 468.289 57.252C468.305 56.7843 468.716 56.3664 469.452 55.9238C470.185 55.5531 470.985 55.3289 471.777 55.3566C472.425 55.3792 472.735 55.7862 472.708 56.5418ZM469.574 37.9891C469.603 37.1616 469.979 36.7064 470.626 36.7291C471.274 36.7517 471.64 37.629 471.583 39.248L471.206 50.0414C471.186 50.6171 471.207 51.05 471.414 51.3094C471.791 51.8629 471.775 52.3306 471.333 52.6034C470.778 53.0163 470.242 52.8895 469.759 52.2963C469.308 51.7762 469.118 51.0491 469.154 50.0058L469.574 37.9891Z" fill="#222222"/>
<path d="M255.023 62.0183L205.313 63.7543L256.333 99.5273L255.023 62.0183Z" fill="#FFF720"/>
<rect x="395" y="81" width="223" height="65" rx="32.5" transform="rotate(-5 395 81)" fill="#00E4FF"/>
<path d="M433.71 105.957C434.499 105.888 435.19 105.936 435.819 106.098C436.414 106.299 436.981 106.574 437.478 106.892C437.91 107.288 438.274 107.726 438.569 108.206C438.828 108.689 439.022 109.251 439.072 109.825C439.131 110.506 439.041 111.128 438.801 111.691C438.529 112.293 438.139 112.797 437.6 113.242C437.031 113.761 436.45 114.137 435.823 114.409C435.581 114.539 435.334 114.596 435.089 114.69L435.547 119.926L441.006 119.123C441.293 119.098 441.547 119.112 441.774 119.237C441.934 119.404 442.063 119.645 442.088 119.932C442.116 120.255 442.031 120.515 441.9 120.671C441.7 120.869 441.492 120.96 441.205 120.985L428.895 122.785C428.542 122.888 428.324 122.871 428.165 122.704C428.009 122.573 427.918 122.364 427.89 122.042C427.865 121.755 427.915 121.497 428.042 121.305C428.173 121.149 428.379 121.023 428.696 120.923L433.512 120.213L433.051 114.941C432.653 114.939 432.252 114.902 431.917 114.787C431.328 114.658 430.836 114.412 430.368 114.019C429.907 113.698 429.543 113.26 429.284 112.777C429.025 112.294 428.867 111.729 428.811 111.084C428.754 110.438 428.808 109.819 429.045 109.22C429.249 108.66 429.6 108.124 430.097 107.61C430.561 107.136 431.071 106.766 431.694 106.459C432.285 106.19 432.957 106.023 433.71 105.957ZM437.063 110C437.032 109.642 436.932 109.325 436.76 109.015C436.592 108.741 436.355 108.508 436.121 108.312C435.815 108.122 435.48 108.007 435.109 107.895C434.744 107.854 434.307 107.82 433.877 107.858C433.41 107.899 432.986 108.008 432.637 108.147C432.219 108.328 431.88 108.575 431.611 108.815C431.278 109.133 431.052 109.442 430.973 109.774C430.861 110.145 430.82 110.51 430.855 110.905C430.886 111.263 430.95 111.583 431.08 111.825C431.177 112.105 431.378 112.341 431.648 112.534C431.885 112.766 432.152 112.923 432.516 112.964C432.813 113.046 433.21 113.048 433.641 113.01C434.071 112.972 434.498 112.899 434.916 112.718C435.34 112.608 435.716 112.359 436.085 112.037C436.422 111.755 436.684 111.443 436.871 111.101C437.025 110.799 437.101 110.431 437.063 110ZM445.084 112.045L449.1 110.862L448.642 105.626C448.608 105.232 448.651 104.903 448.773 104.639C448.897 104.412 449.139 104.282 449.498 104.251C449.82 104.222 450.081 104.308 450.315 104.504C450.48 104.743 450.616 105.056 450.651 105.451L451.928 120.047C451.965 120.477 451.886 120.809 451.758 121.001C451.562 121.235 451.317 121.329 450.994 121.357C450.636 121.389 450.378 121.339 450.216 121.136C450.057 120.969 449.957 120.653 449.919 120.223L449.267 112.763L445.251 113.946L445.753 119.684C445.79 120.114 445.711 120.446 445.583 120.638C445.387 120.872 445.142 120.966 444.819 120.994C444.461 121.025 444.203 120.976 444.041 120.773C443.882 120.606 443.782 120.29 443.744 119.859L442.574 106.483C442.539 106.088 442.583 105.759 442.704 105.495C442.829 105.268 443.071 105.138 443.429 105.107C443.752 105.079 444.012 105.164 444.246 105.361C444.412 105.599 444.548 105.912 444.582 106.307L445.084 112.045ZM468.274 110.486C468.243 110.127 468.137 109.739 468.03 109.351C467.856 109.005 467.678 108.623 467.467 108.28C467.227 108.012 466.918 107.786 466.54 107.602C466.166 107.454 465.726 107.384 465.296 107.422C464.794 107.466 464.376 107.647 463.965 107.9C463.52 108.191 463.157 108.585 462.836 109.046C462.45 109.586 462.207 110.113 462.113 110.7C461.949 111.292 461.933 111.944 461.993 112.625C462.037 113.128 462.107 113.519 462.246 113.868C462.349 114.22 462.554 114.492 462.859 114.682C463.1 114.95 463.366 115.107 463.66 115.154C463.956 115.236 464.282 115.244 464.64 115.213C465.107 115.172 465.563 115.023 466.011 114.767C466.426 114.55 466.864 114.187 467.253 113.683C467.646 113.215 467.928 112.721 468.096 112.164C468.267 111.643 468.328 111.096 468.274 110.486ZM464.807 117.113C464.089 117.176 463.47 117.122 462.949 116.951C462.36 116.821 461.866 116.539 461.469 116.14C461.001 115.748 460.67 115.271 460.441 114.713C460.176 114.158 460.047 113.518 459.985 112.801C459.897 111.797 459.962 110.888 460.176 110.038C460.394 109.224 460.762 108.469 461.279 107.773C461.803 107.149 462.372 106.63 463.022 106.211C463.639 105.832 464.341 105.59 465.13 105.521C465.847 105.458 466.505 105.545 467.101 105.746C467.7 105.983 468.236 106.333 468.711 106.798C469.116 107.304 469.489 107.85 469.79 108.402C470.059 108.993 470.223 109.629 470.283 110.31C470.358 111.171 470.245 111.94 470.02 112.682C469.724 113.431 469.354 114.15 468.836 114.845C468.247 115.547 467.646 116.106 466.989 116.453C466.3 116.838 465.596 117.044 464.807 117.113ZM475.548 108.946L479.887 108.566C480.174 108.541 480.435 108.627 480.662 108.752C480.825 108.954 480.954 109.196 480.979 109.483C481.007 109.806 480.919 110.03 480.788 110.186C480.585 110.348 480.34 110.442 480.054 110.467L475.858 110.834L476.878 117.539C476.915 117.969 476.872 118.298 476.744 118.49C476.584 118.721 476.342 118.851 476.019 118.879C475.697 118.907 475.439 118.857 475.277 118.655C475.046 118.494 474.91 118.181 474.873 117.75L472.724 103.52C472.618 103.131 472.625 102.805 472.783 102.539C472.907 102.311 473.149 102.181 473.508 102.15C473.795 102.125 474.055 102.211 474.289 102.407C474.49 102.642 474.626 102.956 474.693 103.311L475.548 108.946ZM481.433 103.878C481.015 104.059 480.695 104.123 480.468 103.998C480.243 103.91 480.117 103.704 480.085 103.345C479.991 103.101 480.008 102.882 480.205 102.648C480.368 102.453 480.679 102.282 481.096 102.1L484.458 100.867C486.07 100.292 487.325 100.182 488.217 100.466C489.08 100.824 489.579 101.575 489.683 102.759C489.723 103.225 489.621 103.704 489.375 104.195C489.155 104.576 488.902 104.995 488.614 105.418L491.96 107.727C492.272 107.989 492.477 108.26 492.57 108.505C492.631 108.789 492.585 109.082 492.388 109.316C492.195 109.586 491.989 109.712 491.732 109.662C491.442 109.651 491.139 109.497 490.827 109.235L487.332 106.867L484.008 110.591C483.713 110.942 483.442 111.146 483.194 111.204C482.913 111.301 482.689 111.212 482.484 110.941C482.214 110.748 482.121 110.503 482.167 110.21C482.181 109.956 482.335 109.653 482.63 109.302L486.877 104.558C487.138 104.246 487.332 103.976 487.486 103.674C487.607 103.41 487.657 103.153 487.638 102.937C487.607 102.579 487.406 102.343 487.038 102.267C486.637 102.23 486.099 102.277 485.394 102.483L481.433 103.878ZM495.708 99.3405C495.673 98.946 495.717 98.6169 495.838 98.3534C495.963 98.1256 496.204 97.9961 496.563 97.9647C496.886 97.9365 497.146 98.0221 497.38 98.2184C497.546 98.4569 497.681 98.7703 497.716 99.1648L498.579 109.027C498.616 109.457 498.537 109.79 498.409 109.982C498.213 110.216 497.968 110.309 497.645 110.337C497.287 110.369 497.029 110.319 496.867 110.116C496.708 109.95 496.608 109.633 496.57 109.203L495.708 99.3405ZM496.674 114.108C496.649 113.822 496.562 113.648 496.406 113.518C496.217 113.426 495.996 113.373 495.709 113.398L485.172 116.054C484.751 116.2 484.425 116.192 484.233 116.064C484.009 115.975 483.882 115.77 483.854 115.447C483.829 115.16 483.879 114.903 484.075 114.669C484.239 114.474 484.549 114.302 484.973 114.193L495.51 111.536C496.43 111.311 497.198 111.425 497.738 111.811C498.281 112.233 498.595 112.929 498.683 113.933L499.018 117.77C499.056 118.2 498.977 118.533 498.849 118.724C498.653 118.958 498.408 119.052 498.085 119.08C497.726 119.112 497.469 119.062 497.307 118.859C497.148 118.693 497.048 118.376 497.01 117.946L496.674 114.108ZM504.028 100.239L512.2 99.054C512.487 99.0289 512.741 99.0428 512.969 99.1674C513.128 99.3342 513.258 99.5758 513.283 99.8627C513.311 100.185 513.225 100.446 513.094 100.602C512.895 100.8 512.686 100.891 512.399 100.916L504.834 102.011C504.625 102.102 504.488 102.186 504.422 102.264C504.327 102.417 504.304 102.564 504.32 102.743L504.627 106.257C504.68 106.867 504.862 107.285 505.174 107.547C505.486 107.808 505.928 107.914 506.538 107.861C507.901 107.742 509.15 107.56 510.354 107.274C511.489 107.03 512.575 106.646 513.548 106.2C513.858 106.028 514.145 106.003 514.367 106.056C514.591 106.145 514.786 106.308 514.952 106.547C515.087 106.86 515.109 107.111 515.057 107.333C514.932 107.56 514.765 107.719 514.485 107.816C513.375 108.347 512.148 108.78 510.872 109.072L510.236 109.236L510.653 114.006L517.505 113.009C517.791 112.984 518.046 112.998 518.238 113.125C518.397 113.292 518.526 113.534 518.551 113.821C518.58 114.143 518.494 114.404 518.363 114.56C518.199 114.755 517.99 114.845 517.704 114.87L501.931 117.154C501.578 117.257 501.36 117.24 501.201 117.073C501.009 116.945 500.918 116.737 500.89 116.414C500.865 116.127 500.915 115.87 501.078 115.675C501.209 115.519 501.415 115.392 501.732 115.292L508.619 114.292L508.208 109.594C507.709 109.674 507.207 109.718 506.704 109.762C505.413 109.875 504.42 109.672 503.754 109.08C503.058 108.563 502.69 107.656 502.583 106.436L502.275 102.922C502.206 102.133 502.297 101.51 502.618 101.049C502.87 100.629 503.353 100.37 504.028 100.239ZM529.85 93.7515C530.041 93.4457 530.237 93.2117 530.514 93.079C530.759 92.9854 531.049 92.9961 531.355 93.1862C531.625 93.3794 531.787 93.582 531.845 93.8299C531.87 94.1168 531.787 94.4132 531.601 94.7547L531.505 94.9076L537.619 97.0469C537.997 97.2307 538.263 97.3881 538.426 97.5907C538.591 97.8292 538.613 98.0802 538.495 98.3797C538.344 98.7181 538.144 98.9163 537.899 99.01C537.622 99.1427 537.293 99.0992 536.915 98.9154L530.502 96.6577L528.25 100.649C527.994 101.033 527.759 101.234 527.55 101.325C527.272 101.457 527.015 101.408 526.745 101.215C526.446 101.096 526.244 100.861 526.219 100.574C526.126 100.329 526.241 99.9938 526.496 99.6101L529.85 93.7515ZM531.51 104.05L531.231 100.858C531.197 100.464 531.24 100.135 531.397 99.8679C531.522 99.6402 531.728 99.5138 532.086 99.4824C532.409 99.4542 532.67 99.5398 532.904 99.7361C533.069 99.9746 533.205 100.288 533.239 100.682L533.509 103.767L541.143 102.629C541.43 102.604 541.684 102.618 541.876 102.746C542.035 102.912 542.165 103.154 542.19 103.441C542.218 103.764 542.132 104.024 542.002 104.18C541.838 104.375 541.596 104.505 541.309 104.53L525.54 106.849C525.22 106.913 524.998 106.86 524.839 106.693C524.647 106.566 524.557 106.357 524.529 106.034C524.504 105.747 524.553 105.49 524.717 105.295C524.848 105.139 525.054 105.012 525.373 104.948L531.51 104.05ZM530.385 115.965C530.428 116.468 530.636 116.775 531.043 116.884C531.414 116.996 531.955 116.984 532.595 116.856C533.736 116.684 535.011 116.392 536.421 115.979C537.758 115.573 538.989 115.177 540.111 114.789C540.392 114.692 540.61 114.709 540.838 114.834C541.033 114.998 541.195 115.2 541.286 115.409C541.34 115.621 541.359 115.836 541.306 116.058C541.221 116.318 541.054 116.478 540.845 116.568C540.254 116.837 539.624 117.072 538.919 117.279C538.182 117.524 537.441 117.733 536.701 117.942C535.924 118.155 535.148 118.367 534.401 118.505C533.625 118.718 532.95 118.849 532.304 118.905C531.091 119.084 530.176 118.947 529.552 118.423C528.895 117.939 528.519 117.357 528.384 116.646C528.134 115.44 528.304 114.485 528.971 113.849C529.569 113.254 530.366 112.859 531.289 112.67L535.519 111.866C536.409 111.716 537.081 111.549 537.564 111.29C538.015 111.07 538.241 110.761 538.206 110.366C538.175 110.008 538.042 109.73 537.808 109.534C537.545 109.412 537.141 109.339 536.567 109.39L529.363 110.49C529.011 110.593 528.793 110.576 528.634 110.409C528.442 110.281 528.348 110.036 528.32 109.714C528.295 109.427 528.344 109.169 528.508 108.974C528.639 108.818 528.848 108.728 529.164 108.628L536.117 107.55C537.366 107.368 538.353 107.499 539.075 107.905C539.765 108.351 540.156 109.112 540.251 110.188C540.345 111.263 539.98 112.054 539.157 112.56C538.337 113.101 537.143 113.495 535.649 113.77L531.99 114.488C531.458 114.607 531.04 114.788 530.769 114.992C530.429 115.239 530.311 115.538 530.385 115.965ZM549.351 94.6112C550.821 94.4825 551.958 94.6722 552.797 95.177C553.565 95.688 554.034 96.5142 554.129 97.5901C554.223 98.666 553.933 99.4864 553.296 100.048C552.629 100.685 551.59 101.209 550.223 101.69L547.512 102.505C547.091 102.651 546.751 102.897 546.492 103.245C546.165 103.635 546.066 104.15 546.122 104.795C546.172 105.369 546.35 105.751 546.728 105.935C547.033 106.125 547.509 106.192 548.151 106.099C549.191 106.008 550.401 105.794 551.817 105.453C553.167 105.191 554.436 104.827 555.559 104.439C555.84 104.343 556.058 104.36 556.286 104.484C556.481 104.648 556.604 104.818 556.694 105.027C556.716 105.278 556.699 105.496 556.646 105.718C556.525 105.981 556.325 106.179 556.045 106.276C554.89 106.702 553.659 107.099 552.273 107.365L552.309 107.362L552.632 111.056L559.484 110.059C559.771 110.034 560.025 110.048 560.217 110.175C560.376 110.342 560.505 110.584 560.53 110.871C560.559 111.193 560.473 111.454 560.342 111.61C560.178 111.805 559.97 111.895 559.683 111.921L543.91 114.204C543.557 114.307 543.339 114.29 543.18 114.123C542.988 113.995 542.897 113.787 542.869 113.464C542.844 113.177 542.894 112.92 543.057 112.725C543.188 112.569 543.394 112.442 543.711 112.342L550.598 111.342L550.284 107.756C549.429 107.903 548.676 107.969 547.959 108.032C546.74 108.138 545.821 107.966 545.2 107.478C544.547 107.029 544.185 106.194 544.078 104.974C543.984 103.898 544.159 103.016 544.674 102.284C545.119 101.595 545.871 101.095 546.889 100.753L549.528 99.944C550.266 99.6988 550.889 99.3913 551.402 99.0573C551.879 98.7265 552.131 98.3069 552.084 97.7689C552.04 97.2669 551.791 96.8912 551.374 96.6747C550.925 96.4971 550.306 96.4429 549.517 96.5119C549.087 96.5496 548.731 96.6168 548.376 96.684C547.987 96.7903 547.632 96.8575 547.28 96.9606C546.93 97.0996 546.581 97.2386 546.229 97.3417C545.844 97.4838 545.459 97.6259 545.106 97.729C544.724 97.9069 544.434 97.8962 544.207 97.7715C543.943 97.6501 543.784 97.4833 543.693 97.2744C543.603 97.0655 543.584 96.8503 543.67 96.5898C543.722 96.3684 543.889 96.2093 544.167 96.0766C545.002 95.7144 545.844 95.4239 546.686 95.1334C547.531 94.8788 548.418 94.6928 549.351 94.6112ZM568.638 101.705C568.606 101.347 568.5 100.958 568.394 100.57C568.219 100.224 568.041 99.8421 567.83 99.4992C567.59 99.2311 567.281 99.0052 566.904 98.8214C566.529 98.6734 566.089 98.6035 565.659 98.6411C565.157 98.6851 564.739 98.8662 564.328 99.119C563.883 99.4108 563.52 99.804 563.199 100.266C562.813 100.805 562.57 101.333 562.477 101.919C562.312 102.512 562.296 103.163 562.356 103.845C562.4 104.347 562.47 104.738 562.609 105.087C562.712 105.44 562.917 105.711 563.223 105.901C563.463 106.169 563.73 106.327 564.023 106.373C564.319 106.456 564.645 106.463 565.004 106.432C565.47 106.391 565.927 106.243 566.374 105.987C566.789 105.77 567.227 105.406 567.616 104.902C568.009 104.434 568.291 103.94 568.459 103.383C568.63 102.862 568.691 102.315 568.638 101.705ZM565.17 108.333C564.453 108.395 563.834 108.341 563.313 108.17C562.723 108.041 562.229 107.759 561.832 107.36C561.364 106.967 561.034 106.49 560.804 105.932C560.539 105.377 560.411 104.738 560.348 104.021C560.26 103.016 560.325 102.107 560.54 101.257C560.758 100.443 561.125 99.6883 561.642 98.9926C562.166 98.3685 562.735 97.849 563.385 97.4307C564.002 97.0515 564.704 96.8094 565.493 96.7404C566.21 96.6776 566.868 96.7646 567.464 96.9655C568.063 97.2022 568.599 97.5527 569.074 98.0172C569.479 98.5237 569.852 99.0693 570.154 99.6211C570.422 100.212 570.586 100.848 570.646 101.53C570.721 102.39 570.608 103.159 570.384 103.901C570.088 104.65 569.717 105.369 569.2 106.065C568.611 106.767 568.009 107.325 567.353 107.672C566.664 108.057 565.959 108.264 565.17 108.333ZM572.873 93.529C572.767 93.1407 572.81 92.8117 572.968 92.545C573.092 92.3172 573.334 92.1877 573.692 92.1563C573.979 92.1312 574.24 92.2168 574.474 92.4132C574.639 92.6517 574.775 92.965 574.878 93.3174L575.554 97.7393L580.037 97.3471C580.324 97.322 580.584 97.4076 580.812 97.5322C580.974 97.7349 581.104 97.9765 581.129 98.2634C581.157 98.5862 581.069 98.8108 580.938 98.9668C580.735 99.129 580.49 99.2227 580.203 99.2478L575.828 99.6306L576.341 103.019L579.979 102.05C580.259 101.953 580.514 101.967 580.738 102.056C580.894 102.187 581.056 102.389 581.153 102.67C581.256 103.022 581.242 103.277 581.112 103.433C580.984 103.624 580.778 103.751 580.494 103.812L576.645 104.835L577.419 109.971C577.457 110.402 577.449 110.728 577.322 110.919C577.161 111.15 576.919 111.28 576.597 111.308C576.274 111.336 576.017 111.287 575.854 111.084C575.624 110.923 575.488 110.61 575.45 110.18L572.873 93.529ZM587.858 108.624C587.889 108.983 587.676 109.435 587.322 109.936C586.936 110.476 586.417 110.738 585.735 110.798C584.695 110.889 584.162 110.574 584.096 109.821C584.055 109.355 584.233 108.905 584.766 108.389C585.197 107.954 585.785 107.649 586.466 107.59C587.291 107.518 587.792 107.871 587.858 108.624ZM588.08 94.2223C587.923 92.4291 587.019 91.6047 585.441 91.7427C584.509 91.8243 583.603 92.6263 582.761 94.1455C582.475 94.6041 582.087 94.7104 581.59 94.3925C581.062 94.1496 580.947 93.6537 581.353 92.9316C582.272 91.0443 583.59 89.9895 585.275 89.842C588.216 89.5847 589.857 90.9951 590.124 94.0434C590.249 95.4779 589.388 96.782 587.698 98.1224C585.969 99.43 585.218 100.76 585.335 102.087C585.369 102.482 585.56 103.007 586.079 103.576C586.521 104.08 586.562 104.546 586.156 104.87C585.656 105.348 585.109 105.287 584.556 104.757C583.77 104.031 583.375 103.235 583.29 102.266C583.121 100.33 583.918 98.706 585.65 97.4342C587.346 96.1656 588.155 95.083 588.08 94.2223Z" fill="#222222"/>
<path d="M563.676 123.777L606.417 120.037L566.319 153.988L563.676 123.777Z" fill="#00E4FF"/>
<defs>
<filter id="filter0_d_344_2557" x="3.6709" y="37.9885" width="207.606" height="153.983" filterUnits="userSpaceOnUse" color-interpolation-filters="sRGB">
<feFlood flood-opacity="0" result="BackgroundImageFix"/>
<feColorMatrix in="SourceAlpha" type="matrix" values="0 0 0 0 0 0 0 0 0 0 0 0 0 0 0 0 0 0 127 0" result="hardAlpha"/>
<feOffset/>
<feGaussianBlur stdDeviation="4"/>
<feComposite in2="hardAlpha" operator="out"/>
<feColorMatrix type="matrix" values="0 0 0 0 0 0 0 0 0 0 0 0 0 0 0 0 0 0 0.2 0"/>
<feBlend mode="normal" in2="BackgroundImageFix" result="effect1_dropShadow_344_2557"/>
<feBlend mode="normal" in="SourceGraphic" in2="effect1_dropShadow_344_2557" result="shape"/>
</filter>
<filter id="filter1_d_344_2557" x="57.3054" y="152.635" width="444.927" height="114.211" filterUnits="userSpaceOnUse" color-interpolation-filters="sRGB">
<feFlood flood-opacity="0" result="BackgroundImageFix"/>
<feColorMatrix in="SourceAlpha" type="matrix" values="0 0 0 0 0 0 0 0 0 0 0 0 0 0 0 0 0 0 127 0" result="hardAlpha"/>
<feOffset/>
<feGaussianBlur stdDeviation="4"/>
<feComposite in2="hardAlpha" operator="out"/>
<feColorMatrix type="matrix" values="0 0 0 0 0 0 0 0 0 0 0 0 0 0 0 0 0 0 0.2 0"/>
<feBlend mode="normal" in2="BackgroundImageFix" result="effect1_dropShadow_344_2557"/>
<feBlend mode="normal" in="SourceGraphic" in2="effect1_dropShadow_344_2557" result="shape"/>
</filter>
<filter id="filter2_d_344_2557" x="311.475" y="222.7" width="304.09" height="105.157" filterUnits="userSpaceOnUse" color-interpolation-filters="sRGB">
<feFlood flood-opacity="0" result="BackgroundImageFix"/>
<feColorMatrix in="SourceAlpha" type="matrix" values="0 0 0 0 0 0 0 0 0 0 0 0 0 0 0 0 0 0 127 0" result="hardAlpha"/>
<feOffset/>
<feGaussianBlur stdDeviation="4"/>
<feComposite in2="hardAlpha" operator="out"/>
<feColorMatrix type="matrix" values="0 0 0 0 0 0 0 0 0 0 0 0 0 0 0 0 0 0 0.2 0"/>
<feBlend mode="normal" in2="BackgroundImageFix" result="effect1_dropShadow_344_2557"/>
<feBlend mode="normal" in="SourceGraphic" in2="effect1_dropShadow_344_2557" result="shape"/>
</filter>
</defs>
</svg>
