<svg width="224" height="77" viewBox="0 0 224 77" fill="none" xmlns="http://www.w3.org/2000/svg">
<ellipse cx="38.3386" cy="29.3588" rx="38.3386" ry="29.3588" transform="matrix(0.996635 0.0819642 -0.254118 0.967173 15.1982 5.90527)" fill="#F05E97"/>
<ellipse cx="52.7156" cy="35.3393" rx="52.7156" ry="35.3393" transform="matrix(0.996635 0.0819642 -0.254118 0.967173 69.3979 0)" fill="#F05E97"/>
<ellipse cx="43.1818" cy="26.5362" rx="43.1818" ry="26.5362" transform="matrix(0.998506 0.0546339 -0.211653 0.977345 137.319 9.66309)" fill="#F05E97"/>
<path d="M47.3508 40.954C46.6228 40.85 45.9988 40.564 45.4788 40.122C44.7768 39.55 44.4388 38.744 44.4388 37.652C44.4388 36.716 44.7508 35.858 45.3748 35.104C45.9728 34.376 46.8048 34.012 47.8448 34.012C48.3128 34.012 48.7548 34.09 49.1968 34.246C49.6128 34.428 50.0028 34.662 50.3408 34.974C50.6528 35.286 50.9388 35.624 51.1468 36.04C51.3548 36.456 51.4588 36.924 51.4588 37.392C51.4588 38.328 51.1468 39.16 50.5748 39.888C50.1068 40.434 49.5088 40.772 48.8068 40.902V43.346L53.2008 43.06C53.4088 43.06 53.5908 43.112 53.7468 43.216C53.8508 43.346 53.9288 43.528 53.9288 43.736C53.9288 43.97 53.8508 44.152 53.7468 44.256C53.5908 44.386 53.4348 44.438 53.2268 44.438L43.3728 45.01C43.1128 45.062 42.9568 45.036 42.8528 44.906C42.7488 44.802 42.6968 44.646 42.6968 44.412C42.6968 44.204 42.7488 44.022 42.8528 43.892C42.9568 43.788 43.1128 43.71 43.3468 43.658L47.3508 43.424V40.954ZM45.9208 37.652C45.9208 38.12 46.0768 38.562 46.4148 38.978C46.7268 39.394 47.2468 39.602 48.0008 39.602C48.6508 39.602 49.1448 39.368 49.5088 38.9C49.8208 38.458 50.0028 37.964 50.0028 37.392C50.0028 36.768 49.7688 36.274 49.3528 35.91C48.8848 35.572 48.3908 35.39 47.8448 35.39C47.3508 35.39 46.9088 35.598 46.5188 35.988C46.1028 36.404 45.9208 36.95 45.9208 37.652ZM55.8528 34.22C55.8528 33.934 55.9048 33.7 56.0348 33.518C56.1388 33.362 56.2948 33.284 56.5548 33.284C56.7888 33.284 56.9708 33.362 57.1268 33.518C57.2568 33.7 57.3348 33.934 57.3348 34.22V45.244C57.3348 45.556 57.2568 45.79 57.1268 45.92C56.9708 46.076 56.7888 46.128 56.5548 46.128C56.2948 46.128 56.1388 46.076 56.0348 45.92C55.9048 45.79 55.8528 45.556 55.8528 45.244V34.22ZM67.4009 35.806C67.4009 35.39 67.2709 35.078 67.0629 34.87C66.8289 34.688 66.5169 34.61 66.1009 34.61L62.4609 35.026C62.2269 35.078 62.0709 35.156 61.9669 35.26C61.8629 35.39 61.8109 35.546 61.8109 35.754V38.64C61.8109 38.952 61.8629 39.16 62.0189 39.264C62.1229 39.394 62.3309 39.446 62.6429 39.394L66.0749 39.16C66.4909 39.16 66.8289 39.03 67.0629 38.796C67.2709 38.588 67.4009 38.25 67.4009 37.834V35.806ZM62.4349 33.674L66.0749 33.258C66.9589 33.154 67.6609 33.336 68.1289 33.752C68.5969 34.194 68.8309 34.87 68.8309 35.806V37.834C68.8309 38.692 68.5969 39.342 68.1289 39.758C67.6609 40.226 66.9849 40.46 66.1009 40.512L65.5549 40.564C65.5549 40.564 65.5809 40.564 65.5809 40.59V44.36L70.5729 44.074C70.7809 44.074 70.9629 44.1 71.0929 44.204C71.1969 44.334 71.2749 44.516 71.2749 44.724C71.2749 44.958 71.1969 45.14 71.0929 45.244C70.9629 45.374 70.8069 45.426 70.5989 45.426L59.1069 46.076C58.8469 46.128 58.6909 46.102 58.5869 45.972C58.4569 45.868 58.4049 45.712 58.4049 45.478C58.4049 45.27 58.4569 45.088 58.5869 44.958C58.6909 44.854 58.8469 44.776 59.0809 44.724L64.0989 44.438V40.668L62.6689 40.746C61.8889 40.85 61.3169 40.72 60.9529 40.356C60.5889 39.992 60.4069 39.42 60.4069 38.64V35.754C60.4069 35.156 60.5629 34.688 60.9009 34.324C61.2129 34.012 61.7329 33.778 62.4349 33.674ZM81.3696 32.79C81.5256 32.582 81.7336 32.426 81.9416 32.374C82.1236 32.322 82.3316 32.374 82.5396 32.53C82.6956 32.686 82.7996 32.868 82.7996 33.05C82.7996 33.258 82.6956 33.466 82.5396 33.674L80.4856 36.248L83.4496 38.484C83.6576 38.692 83.8136 38.874 83.8916 39.056C83.9436 39.264 83.8916 39.446 83.7616 39.602C83.6056 39.81 83.4236 39.914 83.2156 39.914C83.0076 39.914 82.7736 39.836 82.5396 39.654L79.5756 37.418L77.6256 39.888C77.4176 40.148 77.2356 40.304 77.0536 40.33C76.8456 40.382 76.6636 40.33 76.5076 40.174C76.2996 40.044 76.1956 39.862 76.1956 39.654C76.1696 39.472 76.2736 39.264 76.4816 39.004L81.3696 32.79ZM88.0256 35.988H90.6516C90.8596 35.988 91.0416 36.066 91.1976 36.17C91.3016 36.326 91.3796 36.508 91.3796 36.716C91.3796 36.95 91.3016 37.106 91.1976 37.21C91.0416 37.314 90.8596 37.366 90.6516 37.366H88.0256V40.018C88.0256 40.33 87.9476 40.564 87.8436 40.694C87.6876 40.85 87.5056 40.902 87.2716 40.902C87.0116 40.902 86.8296 40.85 86.7256 40.694C86.6216 40.564 86.5696 40.33 86.5696 40.018V32.868C86.5696 32.582 86.6216 32.348 86.7256 32.166C86.8296 32.01 87.0116 31.932 87.2716 31.932C87.5056 31.932 87.6876 32.01 87.8436 32.166C87.9476 32.348 88.0256 32.582 88.0256 32.868V35.988ZM88.2856 44.542C88.2856 45.036 88.1816 45.478 87.9996 45.894C87.7916 46.336 87.5316 46.726 87.2196 47.09C86.8556 47.454 86.4136 47.74 85.9456 47.896C85.4256 48.104 84.8796 48.182 84.2556 48.182C83.6836 48.182 83.1636 48.13 82.7476 47.974C82.3056 47.844 81.9416 47.636 81.6816 47.324C81.3696 47.064 81.1356 46.752 81.0056 46.362C80.8496 45.998 80.7716 45.582 80.7716 45.114C80.7716 44.594 80.8496 44.126 81.0316 43.658C81.1876 43.216 81.4736 42.8 81.8376 42.41C82.1496 42.046 82.5656 41.76 83.0596 41.552C83.5276 41.37 84.0996 41.266 84.7236 41.266C85.2436 41.266 85.7116 41.344 86.1536 41.5C86.5696 41.682 86.9336 41.916 87.2716 42.176C87.5836 42.488 87.8176 42.852 88.0256 43.216C88.1816 43.632 88.2856 44.074 88.2856 44.542ZM86.8556 44.542C86.8556 44.282 86.8036 44.048 86.7256 43.788C86.6216 43.58 86.4656 43.372 86.3096 43.164C86.1016 43.008 85.8936 42.878 85.6336 42.774C85.3736 42.696 85.0616 42.644 84.7236 42.644C84.3076 42.644 83.9696 42.722 83.6576 42.826C83.3196 42.956 83.0596 43.138 82.8516 43.372C82.5916 43.632 82.4356 43.918 82.3576 44.178C82.2536 44.49 82.2016 44.802 82.2016 45.114C82.2016 45.4 82.2276 45.634 82.3316 45.842C82.3836 46.076 82.5136 46.258 82.6956 46.388C82.8516 46.544 83.0596 46.648 83.3196 46.7C83.5796 46.778 83.8916 46.804 84.2556 46.804C84.6456 46.804 85.0096 46.752 85.3476 46.622C85.6596 46.518 85.9196 46.336 86.1536 46.05C86.3616 45.842 86.5176 45.582 86.6736 45.322C86.7776 45.062 86.8556 44.802 86.8556 44.542ZM100.125 35.286C100.125 34.87 99.9427 34.532 99.6307 34.298C99.2927 34.09 98.7987 33.96 98.1487 33.96C97.7327 33.96 97.3687 34.012 97.0307 34.116C96.6667 34.246 96.3547 34.402 96.0947 34.61C95.7827 34.844 95.5487 35.078 95.4187 35.312C95.2627 35.572 95.2107 35.806 95.2107 36.066C95.2107 36.508 95.3667 36.82 95.6787 37.028C95.9907 37.236 96.4587 37.34 97.1347 37.34C97.5247 37.34 97.8887 37.314 98.2527 37.21C98.5907 37.132 98.9287 36.976 99.2407 36.742C99.5007 36.534 99.7347 36.326 99.8907 36.066C100.047 35.832 100.125 35.572 100.125 35.286ZM97.1347 38.718C95.9907 38.718 95.1587 38.51 94.6127 38.042C94.0407 37.626 93.7807 36.95 93.7807 36.066C93.7807 35.598 93.8847 35.182 94.0927 34.766C94.3007 34.376 94.6127 33.986 95.0807 33.622C95.4967 33.31 95.9647 33.05 96.4847 32.842C97.0047 32.686 97.5507 32.582 98.1487 32.582C99.2407 32.582 100.099 32.816 100.697 33.258C101.269 33.726 101.555 34.402 101.555 35.286C101.555 35.754 101.425 36.196 101.217 36.586C100.983 37.002 100.671 37.392 100.255 37.704C99.7867 38.068 99.3187 38.328 98.7987 38.484C98.2787 38.64 97.7067 38.718 97.1347 38.718ZM98.1487 41.942V45.79C98.1487 46.102 98.0707 46.336 97.9667 46.466C97.8107 46.622 97.6287 46.674 97.4207 46.674C97.1607 46.674 96.9787 46.622 96.8747 46.466C96.7447 46.336 96.6927 46.102 96.6927 45.79V42.02L92.4807 42.254C92.2467 42.28 92.0907 42.228 91.9867 42.098C91.8827 41.994 91.8307 41.838 91.8307 41.604C91.8307 41.396 91.8827 41.214 91.9867 41.084C92.0907 40.98 92.2467 40.902 92.4807 40.876L102.881 40.278C103.089 40.278 103.271 40.304 103.401 40.408C103.505 40.538 103.583 40.72 103.583 40.928C103.583 41.162 103.505 41.344 103.401 41.448C103.271 41.578 103.089 41.656 102.881 41.656L98.1487 41.942ZM104.987 34.636C104.987 34.35 105.039 34.116 105.169 33.934C105.273 33.778 105.455 33.7 105.715 33.7C105.923 33.7 106.105 33.778 106.261 33.934C106.391 34.116 106.469 34.35 106.469 34.636V45.452C106.469 45.764 106.391 45.998 106.261 46.128C106.105 46.284 105.923 46.336 105.715 46.336C105.455 46.336 105.273 46.284 105.169 46.128C105.039 45.998 104.987 45.764 104.987 45.452V34.636ZM114.24 35.546C114.24 34.948 114.474 34.61 114.968 34.61C115.436 34.61 115.696 35.234 115.696 36.404V43.528C115.696 43.97 115.748 44.256 115.904 44.438C116.19 44.854 116.19 45.166 115.852 45.4C115.488 45.712 115.072 45.608 114.734 45.192C114.396 44.854 114.24 44.308 114.24 43.554V35.546ZM128.021 33.648C128.177 33.128 128.515 32.894 129.009 33.076C129.451 33.258 129.581 33.648 129.373 34.168L125.785 44.048C125.577 44.594 125.265 44.828 124.823 44.646C124.355 44.49 124.199 44.1 124.407 43.528L128.021 33.648ZM124.121 36.092C124.121 36.898 123.731 37.626 122.977 38.25C122.197 38.9 121.365 39.212 120.429 39.212C119.727 39.212 119.155 39.004 118.713 38.588C118.219 38.198 118.011 37.652 118.011 36.976C118.011 36.04 118.323 35.182 119.025 34.376C119.675 33.596 120.455 33.18 121.313 33.18C122.119 33.18 122.769 33.466 123.315 33.986C123.835 34.532 124.121 35.234 124.121 36.092ZM122.665 36.092C122.665 35.702 122.561 35.338 122.353 35C122.119 34.714 121.807 34.558 121.313 34.558C120.845 34.558 120.403 34.844 120.039 35.364C119.649 35.91 119.467 36.456 119.467 36.976C119.467 37.262 119.519 37.47 119.701 37.626C119.857 37.782 120.091 37.834 120.429 37.834C121.105 37.834 121.677 37.652 122.067 37.236C122.457 36.846 122.665 36.456 122.665 36.092ZM136.289 42.202C136.289 43.112 135.925 43.84 135.275 44.386C134.573 44.958 133.793 45.244 132.883 45.244C131.973 45.244 131.193 44.958 130.517 44.386C129.841 43.84 129.503 43.112 129.503 42.202C129.503 41.292 129.841 40.46 130.517 39.732C131.193 39.03 131.973 38.64 132.883 38.64C133.793 38.64 134.573 39.03 135.275 39.732C135.925 40.46 136.289 41.292 136.289 42.202ZM134.807 42.202C134.807 41.656 134.625 41.188 134.235 40.72C133.845 40.278 133.403 40.018 132.883 40.018C132.363 40.018 131.895 40.278 131.531 40.72C131.141 41.188 130.985 41.656 130.985 42.202C130.985 42.696 131.141 43.112 131.531 43.424C131.895 43.736 132.363 43.866 132.883 43.866C133.403 43.866 133.845 43.736 134.235 43.424C134.625 43.112 134.807 42.696 134.807 42.202ZM143.851 31.88C143.617 31.88 143.461 31.828 143.357 31.698C143.253 31.594 143.201 31.438 143.201 31.204C143.201 30.996 143.253 30.814 143.357 30.684C143.461 30.58 143.617 30.502 143.851 30.502H149.363C149.571 30.502 149.753 30.58 149.883 30.684C149.987 30.814 150.065 30.996 150.065 31.204C150.065 31.438 149.987 31.594 149.883 31.698C149.753 31.828 149.571 31.88 149.363 31.88H143.851ZM143.227 35.156C142.915 35.234 142.681 35.208 142.551 35.104C142.395 35 142.317 34.844 142.317 34.61C142.317 34.402 142.369 34.22 142.525 34.064C142.655 33.96 142.889 33.856 143.201 33.804L148.167 33.232C149.051 33.128 149.753 33.232 150.247 33.492C150.715 33.804 150.949 34.272 150.949 34.922C150.949 35.338 150.819 35.728 150.559 36.066C150.403 36.3 150.169 36.508 149.935 36.664L151.417 37.522C151.625 37.678 151.755 37.834 151.859 37.99C151.911 38.172 151.911 38.354 151.807 38.51C151.677 38.744 151.521 38.874 151.339 38.9C151.131 38.952 150.923 38.874 150.715 38.718L148.505 37.444L145.801 38.874C145.541 39.03 145.307 39.108 145.099 39.082C144.891 39.082 144.735 38.978 144.631 38.822C144.423 38.666 144.371 38.484 144.449 38.276C144.501 38.12 144.709 37.938 145.021 37.782L148.479 35.936C148.791 35.78 149.025 35.598 149.233 35.416C149.389 35.26 149.493 35.104 149.493 34.922C149.493 34.766 149.389 34.662 149.207 34.61C148.999 34.584 148.739 34.558 148.401 34.558L143.227 35.156ZM153.445 34.584L156.591 33.96V31.75C156.591 31.464 156.643 31.23 156.747 31.048C156.851 30.892 157.033 30.814 157.293 30.814C157.527 30.814 157.709 30.892 157.865 31.048C157.969 31.23 158.047 31.464 158.047 31.75V38.25C158.047 38.562 157.969 38.796 157.865 38.926C157.709 39.082 157.527 39.134 157.293 39.134C157.033 39.134 156.851 39.082 156.747 38.926C156.643 38.796 156.591 38.562 156.591 38.25V35.338L153.575 35.91L153.731 38.016C153.757 38.328 153.705 38.562 153.601 38.692C153.471 38.848 153.289 38.926 153.055 38.926C152.795 38.926 152.613 38.874 152.509 38.718C152.353 38.588 152.301 38.354 152.301 38.042L151.833 31.984C151.781 31.698 151.807 31.464 151.937 31.282C152.041 31.126 152.223 31.048 152.483 31.048C152.691 31.048 152.873 31.126 153.029 31.282C153.159 31.464 153.237 31.698 153.263 31.958L153.445 34.584ZM149.701 45.894C149.701 46.258 149.831 46.518 150.117 46.622C150.377 46.778 150.767 46.804 151.235 46.752C152.067 46.7 153.003 46.57 154.043 46.362C155.031 46.154 155.941 45.946 156.773 45.738C156.981 45.686 157.137 45.712 157.293 45.816C157.423 45.946 157.527 46.102 157.579 46.258C157.605 46.414 157.605 46.57 157.553 46.726C157.475 46.908 157.345 47.012 157.189 47.064C156.747 47.22 156.279 47.35 155.759 47.454C155.213 47.584 154.667 47.688 154.121 47.792C153.549 47.896 152.977 48 152.431 48.052C151.859 48.156 151.365 48.208 150.897 48.208C150.013 48.26 149.363 48.078 148.947 47.636C148.505 47.22 148.271 46.778 148.219 46.258C148.115 45.374 148.297 44.698 148.817 44.256C149.285 43.84 149.883 43.58 150.559 43.502L153.471 43.19C154.121 43.138 154.667 43.008 155.083 42.8C155.473 42.618 155.681 42.358 155.681 42.02C155.681 41.76 155.551 41.552 155.343 41.396C155.109 41.292 154.797 41.214 154.381 41.214L149.311 41.552C149.051 41.604 148.895 41.578 148.791 41.448C148.661 41.344 148.609 41.162 148.609 40.928C148.609 40.72 148.661 40.538 148.791 40.408C148.895 40.304 149.051 40.252 149.285 40.2L154.355 39.862C155.265 39.81 155.967 39.966 156.461 40.304C156.929 40.668 157.163 41.24 157.163 42.02C157.163 42.8 156.851 43.398 156.227 43.788C155.603 44.204 154.719 44.464 153.627 44.568L150.949 44.854C150.559 44.906 150.247 45.01 150.039 45.166C149.779 45.348 149.675 45.582 149.701 45.894ZM164.553 32.946C165.541 32.946 166.295 33.128 166.815 33.466C167.309 33.83 167.569 34.376 167.569 35.156C167.569 35.936 167.283 36.482 166.737 36.768C166.165 37.08 165.333 37.314 164.241 37.522L162.655 37.782C162.187 37.886 161.849 37.99 161.589 38.094C161.329 38.25 161.199 38.458 161.199 38.77C161.199 39.186 161.329 39.446 161.615 39.55C161.875 39.706 162.317 39.758 162.915 39.758C163.747 39.758 164.579 39.706 165.437 39.55C166.269 39.446 167.075 39.212 167.803 38.9C168.011 38.796 168.193 38.77 168.375 38.822C168.531 38.9 168.661 39.03 168.765 39.238C168.817 39.446 168.817 39.628 168.739 39.784C168.635 39.94 168.453 40.07 168.245 40.174C167.465 40.512 166.607 40.746 165.697 40.902C164.761 41.058 163.825 41.136 162.915 41.136C161.823 41.136 161.043 40.954 160.523 40.59C160.003 40.226 159.743 39.628 159.743 38.77C159.743 38.016 159.951 37.47 160.367 37.158C160.783 36.846 161.433 36.612 162.369 36.456L163.981 36.196C164.605 36.092 165.125 35.988 165.515 35.858C165.879 35.754 166.087 35.52 166.087 35.156C166.087 34.844 165.957 34.61 165.697 34.48C165.437 34.376 165.047 34.324 164.553 34.324C163.877 34.324 163.201 34.376 162.551 34.454C161.875 34.558 161.329 34.714 160.861 34.87C160.601 34.974 160.419 35 160.289 34.922C160.133 34.87 160.055 34.714 160.003 34.506C159.899 34.298 159.899 34.09 160.003 33.908C160.107 33.752 160.315 33.622 160.627 33.518C161.095 33.362 161.667 33.206 162.395 33.102C163.097 32.998 163.825 32.946 164.553 32.946ZM170.715 33.076C170.715 32.79 170.767 32.556 170.871 32.374C170.975 32.218 171.157 32.14 171.417 32.14C171.651 32.14 171.833 32.218 171.989 32.374C172.093 32.556 172.171 32.79 172.171 33.076V41.344C172.171 41.656 172.093 41.89 171.989 42.02C171.833 42.176 171.651 42.228 171.417 42.228C171.157 42.228 170.975 42.176 170.871 42.02C170.767 41.89 170.715 41.656 170.715 41.344V33.076ZM165.021 43.164C164.969 43.58 164.969 43.996 164.995 44.386C164.995 44.802 164.995 45.14 165.021 45.452C165.021 45.66 165.073 45.79 165.177 45.868C165.255 45.972 165.463 46.024 165.775 45.998C166.607 45.972 167.543 45.868 168.609 45.686C169.649 45.53 170.585 45.348 171.417 45.166C171.625 45.14 171.781 45.192 171.937 45.296C172.067 45.426 172.171 45.556 172.223 45.712C172.249 45.894 172.249 46.05 172.197 46.206C172.119 46.388 171.989 46.492 171.833 46.544C171.365 46.7 170.871 46.804 170.325 46.908C169.753 47.012 169.155 47.116 168.583 47.194C167.959 47.298 167.361 47.35 166.789 47.376C166.191 47.428 165.645 47.454 165.177 47.454C164.709 47.454 164.319 47.35 164.033 47.09C163.721 46.882 163.565 46.518 163.539 46.05C163.487 45.582 163.461 45.114 163.487 44.594C163.487 44.1 163.487 43.606 163.539 43.138C163.539 42.93 163.617 42.748 163.799 42.618C163.955 42.514 164.111 42.436 164.319 42.436C164.475 42.436 164.657 42.514 164.813 42.618C164.943 42.774 165.021 42.956 165.021 43.164ZM174.383 37.262C174.097 37.34 173.889 37.314 173.733 37.184C173.577 37.08 173.473 36.95 173.447 36.768C173.395 36.612 173.447 36.43 173.551 36.248C173.655 36.092 173.837 35.988 174.097 35.91C174.409 35.858 174.721 35.78 175.033 35.728C175.319 35.702 175.605 35.676 175.917 35.624C176.203 35.598 176.515 35.572 176.827 35.52C177.113 35.494 177.425 35.468 177.737 35.416C178.985 35.312 179.739 35.572 180.051 36.222C180.337 36.898 180.077 37.834 179.245 39.004C179.037 39.29 178.855 39.576 178.647 39.836L181.793 41.942C181.949 42.072 182.053 42.228 182.079 42.384C182.079 42.592 182.027 42.748 181.949 42.904C181.845 43.06 181.689 43.138 181.533 43.19C181.351 43.242 181.169 43.216 180.987 43.06L177.763 40.954C177.633 41.084 177.503 41.24 177.399 41.37C176.775 42.098 176.073 42.826 175.293 43.528C175.085 43.736 174.903 43.814 174.721 43.788C174.513 43.788 174.383 43.736 174.279 43.606C174.149 43.502 174.097 43.346 174.097 43.138C174.097 42.956 174.175 42.774 174.383 42.566C174.747 42.202 175.085 41.838 175.449 41.474C175.761 41.136 176.073 40.798 176.385 40.434C176.697 40.096 176.983 39.732 177.295 39.368C177.581 39.03 177.867 38.64 178.179 38.224C178.595 37.652 178.751 37.236 178.673 37.002C178.569 36.794 178.309 36.716 177.867 36.742C177.243 36.794 176.645 36.872 176.125 36.95C175.553 37.054 174.981 37.158 174.383 37.262ZM185.017 34.22C185.017 33.934 185.069 33.7 185.173 33.518C185.277 33.362 185.459 33.284 185.719 33.284C185.953 33.284 186.135 33.362 186.291 33.518C186.395 33.7 186.473 33.934 186.473 34.22V45.244C186.473 45.556 186.395 45.79 186.291 45.92C186.135 46.076 185.953 46.128 185.719 46.128C185.459 46.128 185.277 46.076 185.173 45.92C185.069 45.79 185.017 45.556 185.017 45.244V34.22Z" fill="white"/>
<circle cx="1" cy="1" r="1" transform="matrix(1 0 0 -1 51 27)" fill="white"/>
<circle cx="1" cy="1" r="1" transform="matrix(1 0 0 -1 82 27)" fill="white"/>
<circle cx="1" cy="1" r="1" transform="matrix(1 0 0 -1 114 27)" fill="white"/>
<circle cx="1" cy="1" r="1" transform="matrix(1 0 0 -1 149 27)" fill="white"/>
<circle cx="1" cy="1" r="1" transform="matrix(1 0 0 -1 64 27)" fill="white"/>
<circle cx="1" cy="1" r="1" transform="matrix(1 0 0 -1 126 27)" fill="white"/>
<circle cx="1" cy="1" r="1" transform="matrix(1 0 0 -1 98 27)" fill="white"/>
<circle cx="1" cy="1" r="1" transform="matrix(1 0 0 -1 165 27)" fill="white"/>
<circle cx="1" cy="1" r="1" transform="matrix(1 0 0 -1 179 27)" fill="white"/>
</svg>
