<svg width="108" height="140" viewBox="0 0 108 140" fill="none" xmlns="http://www.w3.org/2000/svg">
<g id="icon">
<path id="Vector" d="M55.0792 51.0346H31.0442C30.7044 51.0346 30.3898 50.8589 30.2262 50.5576C30.0626 50.2689 30.0626 49.9049 30.2262 49.6163L42.2437 28.856C42.4073 28.5673 42.7219 28.379 43.0617 28.379C43.4014 28.379 43.716 28.5547 43.8796 28.856L49.8821 39.2361C50.1464 39.688 49.9828 40.2653 49.5423 40.5164C49.0893 40.78 48.5105 40.6168 48.2588 40.1775L43.0743 31.2157L32.6926 49.1518H55.0918C55.6077 49.1518 56.0356 49.5786 56.0356 50.0932C56.0356 50.6078 55.6077 51.0346 55.0918 51.0346H55.0792Z" fill="#FD4A4D"/>
<path id="Vector_2" d="M79.6427 51.0346H55.6076C55.2679 51.0346 54.9533 50.8589 54.7897 50.5576C54.6261 50.2689 54.6261 49.9049 54.7897 49.6163L66.8072 28.856C66.9708 28.5673 67.2854 28.379 67.6252 28.379C67.9649 28.379 68.2795 28.5547 68.4431 28.856L74.4456 39.2361C74.7098 39.688 74.5462 40.2653 74.1058 40.5164C73.6528 40.78 73.0739 40.6168 72.8223 40.1775L67.6377 31.2157L57.2561 49.1518H79.6553C80.1712 49.1518 80.599 49.5786 80.599 50.0932C80.599 50.6078 80.1712 51.0346 79.6553 51.0346H79.6427Z" fill="#FD4A4D"/>
<path id="Vector_3" d="M104.672 51.0346H80.6369C80.2972 51.0346 79.9826 50.8589 79.819 50.5576C79.6554 50.2689 79.6554 49.9049 79.819 49.6163L91.8365 28.856C92.0001 28.5673 92.3147 28.379 92.6544 28.379C92.9942 28.379 93.3088 28.5547 93.4724 28.856L105.49 49.6163C105.654 49.9049 105.654 50.2689 105.49 50.5576C105.326 50.8463 105.012 51.0346 104.672 51.0346ZM82.2854 49.1518H103.049L92.667 31.2157L82.2854 49.1518Z" fill="#FD4A4D"/>
<path id="Vector_4" d="M92.6546 30.2743H43.0493C42.5333 30.2743 42.1055 29.8476 42.1055 29.333C42.1055 28.8184 42.5333 28.3916 43.0493 28.3916H92.6546C93.1705 28.3916 93.5984 28.8184 93.5984 29.333C93.5984 29.8476 93.1705 30.2743 92.6546 30.2743Z" fill="#FD4A4D"/>
<path id="Vector_5" d="M67.8642 94.7265C67.5873 94.7265 67.3231 94.601 67.1469 94.3876L30.3267 50.6831C29.987 50.2815 30.0373 49.6915 30.44 49.3526C30.8427 49.0137 31.4341 49.064 31.7739 49.4656L67.8642 92.304L103.954 49.4656C104.294 49.064 104.886 49.0137 105.288 49.3526C105.691 49.6915 105.741 50.2815 105.402 50.6831L68.5815 94.3876C68.4053 94.601 68.141 94.7265 67.8642 94.7265Z" fill="#FD4A4D"/>
<path id="Vector_6" d="M67.8643 94.7265C67.449 94.7265 67.0715 94.4378 66.9583 94.0362L54.7142 50.3317C54.5758 49.8296 54.8652 49.315 55.3686 49.1769C55.872 49.0388 56.3879 49.3275 56.5263 49.8296L67.8895 90.3586L79.756 49.817C79.907 49.315 80.4229 49.0263 80.9263 49.1769C81.4296 49.3275 81.7191 49.8421 81.5681 50.3442L68.7829 94.0487C68.6697 94.4504 68.2922 94.7265 67.8769 94.7265H67.8643Z" fill="#FD4A4D"/>
<path id="Vector_7" d="M67.8647 20.0448C67.3487 20.0448 66.9209 19.6181 66.9209 19.1035V0.941366C66.9209 0.426753 67.3487 0 67.8647 0C68.3806 0 68.8085 0.426753 68.8085 0.941366V19.1035C68.8085 19.6181 68.3806 20.0448 67.8647 20.0448Z" fill="#6840FD"/>
<path id="Vector_8" d="M62.189 24.2747C61.8744 24.2747 61.5598 24.1116 61.3836 23.8229L51.908 8.32171C51.6312 7.88241 51.7822 7.29249 52.2226 7.0289C52.663 6.76532 53.2545 6.90339 53.5187 7.34269L62.9943 22.8439C63.2712 23.2832 63.1202 23.8731 62.6797 24.1367C62.5287 24.2245 62.3526 24.2747 62.189 24.2747Z" fill="#6840FD"/>
<path id="Vector_9" d="M73.5268 24.2747C73.3633 24.2747 73.1871 24.2245 73.0361 24.1366C72.5956 23.8605 72.4446 23.2831 72.7215 22.8438L82.1971 7.34265C82.4739 6.90335 83.0528 6.75273 83.4932 7.02886C83.9336 7.305 84.0846 7.88237 83.8078 8.32167L74.3322 23.8228C74.156 24.1115 73.8414 24.2747 73.5268 24.2747Z" fill="#6840FD"/>
<path id="Vector_10" d="M74.3824 126.319H33.7368C33.2208 126.319 32.793 125.892 32.793 125.377C32.793 124.863 33.2208 124.436 33.7368 124.436H74.3824C76.2574 124.436 78.0317 123.708 79.353 122.378L103.627 98.1656C104.584 97.2117 105.112 95.9314 105.112 94.5759C105.112 93.2203 104.584 91.9526 103.627 90.9861C101.639 89.0155 98.4174 89.0155 96.4418 90.9861L79.8186 107.567C79.4537 107.931 78.8497 107.931 78.4847 107.567C78.1198 107.203 78.1198 106.6 78.4847 106.236L95.1079 89.6557C97.826 86.9445 102.256 86.9445 104.974 89.6557C107.692 92.3668 107.692 96.7849 104.974 99.4961L80.6995 123.708C79.0132 125.39 76.7733 126.319 74.395 126.319H74.3824Z" fill="#6840FD"/>
<path id="Vector_11" d="M73.3379 112.537H54.0721C53.5561 112.537 53.1283 112.11 53.1283 111.596C53.1283 111.081 53.5561 110.655 54.0721 110.655H73.3379C76.0434 110.655 78.2455 108.458 78.2455 105.759C78.2455 103.061 76.0434 100.864 73.3379 100.864H51.6937C51.1778 100.864 50.75 100.438 50.75 99.9229C50.75 97.2494 48.5604 95.0655 45.88 95.0655H29.735C27.86 95.0655 26.0983 95.7935 24.7644 97.1239L15.465 106.4C15.1001 106.764 14.496 106.764 14.1311 106.4C13.7662 106.036 13.7662 105.433 14.1311 105.069L23.4305 95.7935C25.1168 94.1116 27.3567 93.1827 29.735 93.1827H45.88C49.2902 93.1827 52.109 95.7056 52.5746 98.9816H73.3379C77.0878 98.9816 80.1331 102.019 80.1331 105.759C80.1331 109.5 77.0878 112.537 73.3379 112.537Z" fill="#6840FD"/>
<path id="Vector_12" d="M37.8898 128.39L11.6274 102.195C11.2625 101.831 10.6585 101.831 10.2935 102.195L0.276843 112.198C0.10067 112.374 0 112.613 0 112.864C0 113.115 0.10067 113.353 0.276843 113.529L26.5392 139.724C26.7154 139.9 26.9545 140 27.2062 140C27.4578 140 27.6969 139.9 27.8731 139.724L37.8898 129.733C38.2547 129.369 38.2547 128.766 37.8898 128.402V128.39ZM26.6021 125.202C26.4134 125.39 26.1743 125.478 25.9352 125.478C25.6961 125.478 25.457 125.39 25.2683 125.202L8.5444 108.521C8.17947 108.157 8.17947 107.554 8.5444 107.19C8.90933 106.826 9.51335 106.826 9.87828 107.19L26.6021 123.871C26.9671 124.235 26.9671 124.838 26.6021 125.202Z" fill="#6840FD"/>
</g>
</svg>
