<svg width="139" height="96" viewBox="0 0 139 96" fill="none" xmlns="http://www.w3.org/2000/svg">
<g id="icon">
<path id="Vector" d="M69.3946 96.0088C68.8474 96.0088 68.3936 95.555 68.3936 95.0077V45.7545C68.3936 45.2072 68.8474 44.7534 69.3946 44.7534C69.9419 44.7534 70.3957 45.2072 70.3957 45.7545V95.0077C70.3957 95.555 69.9419 96.0088 69.3946 96.0088Z" fill="#6840FD"/>
<path id="Vector_2" d="M56.7677 96.0088C56.2204 96.0088 55.7666 95.555 55.7666 95.0077V59.1023C55.7666 58.555 56.2204 58.1012 56.7677 58.1012C57.3149 58.1012 57.7688 58.555 57.7688 59.1023V95.0077C57.7688 95.555 57.3149 96.0088 56.7677 96.0088Z" fill="#6840FD"/>
<path id="Vector_3" d="M56.5146 46.7556H93.9151C94.4623 46.7556 94.9161 46.3018 94.9161 45.7545C94.9161 45.2072 94.4623 44.7534 93.9151 44.7534H56.875C56.7683 45.4342 56.6615 46.1015 56.5146 46.7556Z" fill="#6840FD"/>
<path id="Vector_4" d="M107.69 55.485C107.143 55.485 106.689 55.9388 106.689 56.4861V94.0066H19.4748V66.8973C18.7941 66.6437 18.1267 66.3768 17.4727 66.0831V95.0077C17.4727 95.5549 17.9265 96.0088 18.4737 96.0088H107.69C108.237 96.0088 108.691 95.5549 108.691 95.0077V56.4861C108.691 55.9388 108.237 55.485 107.69 55.485Z" fill="#6840FD"/>
<path id="Vector_5" d="M29.1115 69.6203C13.0675 69.6203 0 56.5528 0 40.5088C0 24.4648 13.0675 11.384 29.1115 11.384C45.1555 11.384 58.2229 24.4515 58.2229 40.4955C58.2229 56.5395 45.1555 69.6069 29.1115 69.6069V69.6203ZM29.1115 13.3862C14.162 13.3862 2.00216 25.5594 2.00216 40.5088C2.00216 55.4583 14.162 67.6181 29.1115 67.6181C44.0609 67.6181 56.2207 55.4583 56.2207 40.5088C56.2207 25.5594 44.0609 13.3995 29.1115 13.3995V13.3862Z" fill="#6840FD"/>
<path id="Vector_6" d="M6.6336 45.1805C6.15308 45.1805 5.72595 44.8335 5.64587 44.3396C5.44565 43.0849 5.33887 41.7902 5.33887 40.5088C5.33887 34.1553 7.8082 28.1888 12.3064 23.704C16.7912 19.2191 22.771 16.7365 29.1112 16.7365C29.6585 16.7365 30.1123 17.1903 30.1123 17.7375C30.1123 18.2848 29.6585 18.7386 29.1112 18.7386C23.2916 18.7386 17.8324 21.0077 13.7213 25.1188C9.61015 29.2299 7.34103 34.7025 7.34103 40.5088C7.34103 41.6834 7.43446 42.8714 7.62133 44.0193C7.71477 44.5665 7.34103 45.0737 6.79377 45.1672C6.74038 45.1672 6.68699 45.1672 6.6336 45.1672V45.1805Z" fill="#6840FD"/>
<path id="Vector_7" d="M13.0142 57.6073C12.7606 57.6073 12.507 57.5139 12.3067 57.3137C10.7584 55.7654 9.42363 54.0035 8.35581 52.0947C8.08885 51.6142 8.26237 51.0002 8.74289 50.7332C9.22341 50.4663 9.83741 50.6398 10.1044 51.1203C11.0788 52.8689 12.3067 54.484 13.7216 55.8988C14.1087 56.2859 14.1087 56.9266 13.7216 57.3137C13.5214 57.5139 13.2678 57.6073 13.0142 57.6073Z" fill="#6840FD"/>
<path id="Vector_8" d="M29.1111 23.2769L33.0487 35.3699H45.7691L35.478 42.858L39.4156 54.9511L29.1111 47.4763L18.82 54.9511L22.7576 42.858L12.4531 35.3699H25.1869L29.1111 23.2769Z" fill="#FD4A4D"/>
<path id="Vector_9" d="M96.8245 31.1787C88.282 31.1787 71.3303 27.8818 67.2459 19.6729C65.5507 16.2692 66.2849 12.5185 69.3949 8.52751C72.5049 4.53654 75.962 2.92146 79.686 3.70897C88.7758 5.67109 96.2239 21.7685 98.1726 29.9373C98.2394 30.231 98.1726 30.5513 97.9858 30.7916C97.7989 31.0318 97.5186 31.1787 97.2116 31.1787C97.0915 31.1787 96.958 31.1787 96.8245 31.1787ZM77.8974 5.51092C75.4815 5.51092 73.1589 6.92578 70.9699 9.74216C68.3671 13.0791 67.7264 16.1224 69.0345 18.7786C72.3848 25.5192 87.3743 28.9229 95.8902 29.1498C93.5677 20.9409 86.6135 7.24613 79.2455 5.65775C78.7917 5.56431 78.3379 5.51092 77.8974 5.51092Z" fill="#6840FD"/>
<path id="Vector_10" d="M136.187 61.5315C135.987 59.9164 135.16 58.4615 133.878 57.4605L124.842 50.4262C124.401 50.0925 123.774 50.1592 123.44 50.5997L123.36 50.533C123.36 50.533 123.28 50.6531 123.227 50.7198C111.788 65.4157 99.214 41.3631 96.3442 30.1643C84.5982 29.9908 58.8904 23.6773 70.2093 9.12823C70.4229 8.84793 70.6365 8.62102 70.85 8.36741C70.85 8.36741 70.8367 8.34071 70.8233 8.32737L61.7869 1.2931C60.4922 0.292018 58.8904 -0.161806 57.2754 0.0517584C55.6603 0.251975 54.2054 1.07954 53.2043 2.36092L47.5582 9.60875C47.2245 10.0492 47.2912 10.6766 47.7317 11.0103L127.925 73.4511C128.099 73.5845 128.312 73.6646 128.539 73.6646C128.579 73.6646 128.619 73.6646 128.659 73.6646C128.926 73.6379 129.166 73.4911 129.327 73.2909L134.973 66.0297C135.974 64.735 136.414 63.1333 136.214 61.5182L136.187 61.5315Z" fill="#6840FD"/>
<path id="Vector_11" d="M116.552 56.8331C115.952 56.8331 115.338 56.7663 114.724 56.6328C105.634 54.6707 98.1859 38.5733 96.2372 30.4045C96.1704 30.1109 96.2372 29.7905 96.424 29.5503C96.6109 29.31 96.8912 29.1632 97.1982 29.1632C105.621 29.0564 123.026 32.3266 127.164 40.6689C128.859 44.0726 128.125 47.8233 125.015 51.8143C122.425 55.1513 119.582 56.8197 116.552 56.8197V56.8331ZM98.5063 31.1787C100.829 39.3876 107.783 53.0823 115.151 54.6707C118.047 55.2981 120.837 53.9233 123.427 50.5863C126.029 47.2494 126.67 44.2061 125.362 41.5499C122.012 34.8093 107.022 31.4056 98.5063 31.1787Z" fill="#6840FD"/>
<path id="Vector_12" d="M129.5 39.4009C128.98 39.4009 128.539 38.9871 128.499 38.4532C128.472 37.906 128.886 37.4254 129.433 37.3988C133.024 37.1852 136.107 33.9684 136.615 29.8973C137.282 24.5716 133.611 20.0734 126.791 17.8843C116.366 14.5474 107.33 20.981 102.271 25.9063C107.556 23.437 115.992 21.3147 125.322 25.8529C125.816 26.0932 126.03 26.6939 125.79 27.1877C125.549 27.6816 124.949 27.8951 124.455 27.6549C110.066 20.6473 98.3465 30.5113 97.8527 30.9251C97.4656 31.2588 96.905 31.2454 96.5312 30.9117C96.1575 30.578 96.0908 30.0041 96.3844 29.5903C96.5179 29.4034 110.066 10.4096 127.418 15.9756C136.615 18.9255 139.231 25.2256 138.617 30.1376C137.976 35.2231 134.172 39.1073 129.567 39.3742C129.54 39.3742 129.527 39.3742 129.514 39.3742L129.5 39.4009Z" fill="#6840FD"/>
</g>
</svg>
