<svg width="140" height="113" viewBox="0 0 140 113" fill="none" xmlns="http://www.w3.org/2000/svg">
<g id="icon">
<path id="Vector" d="M95.6523 110.973C85.1139 110.973 75.493 107.122 68.0689 100.769H19.9924C20.5069 96.7785 23.9131 93.692 28.0423 93.692H61.4789C58.9763 90.2997 56.9604 86.5181 55.5562 82.4445H19.9924C20.5069 78.4544 23.9131 75.3679 28.0423 75.3679H53.7627C53.4012 73.1295 53.2066 70.8494 53.2066 68.5137C53.2066 67.0261 53.29 65.5663 53.429 64.1343H19.9924C20.5069 60.1442 23.9131 57.0577 28.0423 57.0577H54.7776C55.9038 53.0398 57.5999 49.2582 59.7827 45.8102H19.9924C20.5069 41.8201 23.927 38.7336 28.0423 38.7336H65.4134C70.6548 33.4088 77.2865 29.4743 84.7246 27.4861H2.15496C2.66937 23.496 6.07559 20.4095 10.2048 20.4095H76.786C80.9013 20.4095 84.2936 23.4821 84.8219 27.4444C85.4893 27.2637 86.1705 27.1108 86.8517 26.9717C86.4347 24.3024 85.0027 21.9806 82.945 20.4095H95.9026C101.533 20.4095 106.107 15.8355 106.107 10.2048C106.107 4.57407 101.533 0 95.9026 0H29.3074C23.6767 0 19.1027 4.57407 19.1027 10.2048C19.1027 13.5137 20.7015 16.4611 23.1484 18.3241H10.2048C4.57407 18.3241 0 22.8982 0 28.5289C0 34.1596 4.57407 38.7336 10.2048 38.7336H21.8832C19.4363 40.5966 17.8375 43.5301 17.8375 46.8529C17.8375 50.8709 20.1871 54.3466 23.5794 56.015C20.1871 57.6694 17.8375 61.1452 17.8375 65.177C17.8375 69.2089 20.1871 72.6707 23.5794 74.3391C20.1871 75.9935 17.8375 79.4693 17.8375 83.5011C17.8375 87.533 20.1871 90.9948 23.5794 92.6632C20.1871 94.3176 17.8375 97.7934 17.8375 101.825C17.8375 107.456 22.4116 112.03 28.0423 112.03H94.6235C96.3753 112.03 98.0158 111.585 99.4617 110.807C98.2105 110.918 96.9453 110.987 95.6662 110.987L95.6523 110.973ZM21.2576 9.20376C21.772 5.21361 25.1782 2.12715 29.3074 2.12715H95.8887C100.004 2.12715 103.424 5.21361 103.938 9.20376H21.2576Z" fill="#6840FD"/>
<path id="Vector_2" d="M95.6525 112.016C71.6699 112.016 52.1641 92.5102 52.1641 68.5276C52.1641 44.545 71.6699 25.0392 95.6525 25.0392C119.635 25.0392 139.141 44.545 139.141 68.5276C139.141 92.5102 119.635 112.016 95.6525 112.016ZM95.6525 27.1246C72.8239 27.1246 54.2495 45.699 54.2495 68.5276C54.2495 91.3563 72.8239 109.931 95.6525 109.931C118.481 109.931 137.055 91.3563 137.055 68.5276C137.055 45.699 118.481 27.1246 95.6525 27.1246Z" fill="#6840FD"/>
<path id="Vector_3" d="M59.4353 75.493C58.9348 75.493 58.4899 75.1316 58.4065 74.6172C58.0868 72.6151 57.9199 70.5714 57.9199 68.5277C57.9199 58.448 61.8406 48.9801 68.9728 41.8479C76.0911 34.7296 85.5729 30.795 95.6525 30.795C96.2226 30.795 96.6953 31.2677 96.6953 31.8378C96.6953 32.4078 96.2226 32.8805 95.6525 32.8805C86.129 32.8805 77.1894 36.5926 70.4604 43.3216C63.7314 50.0506 60.0193 59.0041 60.0193 68.5277C60.0193 70.4463 60.1722 72.3927 60.4781 74.2835C60.5754 74.8535 60.1861 75.3818 59.6161 75.4791C59.5605 75.4791 59.5049 75.4791 59.4492 75.4791L59.4353 75.493Z" fill="#6840FD"/>
<path id="Vector_4" d="M69.7094 95.5132C69.4453 95.5132 69.1811 95.4159 68.9726 95.2074C66.5117 92.7465 64.3985 89.966 62.7023 86.9212C62.4243 86.4207 62.605 85.7812 63.1055 85.5031C63.606 85.2251 64.2456 85.4058 64.5236 85.9063C66.1364 88.7703 68.1245 91.4119 70.4463 93.7337C70.8495 94.1368 70.8495 94.8042 70.4463 95.2074C70.2377 95.4159 69.9736 95.5132 69.7094 95.5132Z" fill="#6840FD"/>
<path id="Vector_5" d="M95.6524 42.5153L101.589 60.7837H120.789L105.245 72.0729L111.182 90.3553L95.6524 79.0522L80.1089 90.3553L86.0455 72.0729L70.502 60.7837H89.7158L95.6524 42.5153Z" fill="#FD4A4D"/>
</g>
</svg>
