<svg width="128" height="139" viewBox="0 0 128 139" fill="none" xmlns="http://www.w3.org/2000/svg">
<g id="icon">
<path id="Vector" d="M126.802 138.399H1.18197C0.535829 138.399 0 137.863 0 137.217V59.2696C0 58.6235 0.535829 58.0876 1.18197 58.0876C1.82812 58.0876 2.36395 58.6235 2.36395 59.2696V136.035H125.62V59.2696C125.62 58.6235 126.156 58.0876 126.802 58.0876C127.448 58.0876 127.984 58.6235 127.984 59.2696V137.217C127.984 137.863 127.448 138.399 126.802 138.399Z" fill="#6840FD"/>
<path id="Vector_2" d="M83.9045 105.241C83.6051 105.241 83.2899 105.115 83.0535 104.878L74.8584 96.5098C74.4014 96.037 74.4172 95.2963 74.8742 94.8392C75.3312 94.3822 76.0877 94.3822 76.5447 94.855L84.7397 103.223C85.1968 103.696 85.181 104.437 84.724 104.894C84.4876 105.115 84.2039 105.225 83.9045 105.225V105.241Z" fill="#6840FD"/>
<path id="Vector_3" d="M44.0799 105.241C43.7805 105.241 43.481 105.13 43.2604 104.91C42.7876 104.453 42.7876 103.712 43.2446 103.239L51.4397 94.8707C51.8967 94.398 52.6532 94.398 53.1102 94.855C53.583 95.312 53.583 96.0527 53.1259 96.5255L44.9309 104.894C44.6945 105.13 44.3951 105.256 44.0799 105.256V105.241Z" fill="#6840FD"/>
<path id="Vector_4" d="M63.9843 29.7203H89.4046L64.6935 11.1712C64.268 10.856 63.7006 10.856 63.2751 11.1712L38.564 29.7203H63.9843Z" fill="#6840FD"/>
<path id="Vector_5" d="M127.511 58.3241L112.587 47.119V69.4032L75.7094 95.7061H52.259L15.3814 69.4032V47.119L0.47279 58.3241C0.173356 58.5448 0 58.9072 0 59.2855C0 59.6637 0.189116 60.0104 0.48855 60.2311L51.5814 96.6674C51.7863 96.8092 52.0227 96.888 52.2748 96.888H75.7252C75.9773 96.888 76.2137 96.8092 76.4186 96.6674L127.511 60.2311C127.811 60.0104 128 59.6637 128 59.2855C128 58.9072 127.827 58.5605 127.527 58.3241H127.511Z" fill="#6840FD"/>
<path id="Vector_6" d="M75.7097 96.8723H52.2593C52.0071 96.8723 51.7707 96.7935 51.5659 96.6516L14.6883 70.3487C14.3731 70.1281 14.1997 69.7656 14.1997 69.3874V39.1604C14.1997 33.2978 18.9749 28.5226 24.8375 28.5226H103.131C108.994 28.5226 113.769 33.2978 113.769 39.1604V69.3874C113.769 69.7656 113.58 70.1281 113.281 70.3487L76.4031 96.6516C76.1982 96.7935 75.9618 96.8723 75.7097 96.8723ZM52.6533 94.5083H75.3472L111.421 68.7728V39.1446C111.421 34.5901 107.718 30.8708 103.147 30.8708H24.8375C20.2829 30.8708 16.5637 34.5743 16.5637 39.1446V68.7728L52.6375 94.5083H52.6533Z" fill="#6840FD"/>
<path id="Vector_7" d="M26.8544 129.589H9.99155C9.3454 129.589 8.80957 129.054 8.80957 128.407V100.97C8.80957 100.324 9.3454 99.7878 9.99155 99.7878C10.6377 99.7878 11.1735 100.324 11.1735 100.97V127.225H26.8544C27.5005 127.225 28.0364 127.761 28.0364 128.407C28.0364 129.054 27.5005 129.589 26.8544 129.589Z" fill="#6840FD"/>
<path id="Vector_8" d="M9.99155 93.8149C9.3454 93.8149 8.80957 93.2791 8.80957 92.6329V81.9321C8.80957 81.286 9.3454 80.7501 9.99155 80.7501C10.6377 80.7501 11.1735 81.286 11.1735 81.9321V92.6329C11.1735 93.2791 10.6377 93.8149 9.99155 93.8149Z" fill="#6840FD"/>
<path id="Vector_9" d="M63.984 38.3251L69.4053 54.983H86.9301L72.7464 65.2741L78.1677 81.9321L63.984 71.641L49.8161 81.9321L55.2374 65.2741L41.0537 54.983H58.5785L63.984 38.3251Z" fill="#FD4A4D"/>
<path id="Vector_10" d="M86.8515 20.1227C86.7254 20.1227 86.5993 20.1069 86.4732 20.0597C85.8586 19.8548 85.5276 19.1771 85.7325 18.5625L91.6897 0.801348C91.8945 0.186721 92.5722 -0.144232 93.1868 0.0606438C93.8015 0.265519 94.1324 0.943185 93.9275 1.55781L87.9704 19.319C87.8128 19.8075 87.34 20.1227 86.8515 20.1227Z" fill="#6840FD"/>
<path id="Vector_11" d="M92.2415 24.1729C91.8318 24.1729 91.4378 23.9681 91.2172 23.5898C90.8862 23.0225 91.0753 22.2975 91.6269 21.9666L107.749 12.432C108.316 12.101 109.041 12.2902 109.372 12.8417C109.703 13.4091 109.514 14.134 108.963 14.465L92.8404 23.9996C92.6513 24.1099 92.4464 24.1572 92.2415 24.1572V24.1729Z" fill="#6840FD"/>
<path id="Vector_12" d="M41.1328 20.1227C40.6443 20.1227 40.1715 19.8075 40.0139 19.319L34.0567 1.55781C33.8519 0.943185 34.1828 0.265519 34.7974 0.0606438C35.4121 -0.144232 36.0897 0.186721 36.2946 0.801348L42.2518 18.5625C42.4566 19.1771 42.1257 19.8548 41.5111 20.0597C41.385 20.1069 41.2589 20.1227 41.1328 20.1227Z" fill="#6840FD"/>
<path id="Vector_13" d="M35.7431 24.173C35.5382 24.173 35.3333 24.1257 35.1442 24.0154L19.0221 14.4808C18.4547 14.1498 18.2814 13.4249 18.6123 12.8575C18.9433 12.2902 19.6682 12.1168 20.2356 12.4478L36.3577 21.9824C36.9251 22.3133 37.0984 23.0383 36.7675 23.6056C36.5468 23.9839 36.1528 24.1887 35.7431 24.1887V24.173Z" fill="#6840FD"/>
</g>
</svg>
