<svg width="537" height="97" viewBox="0 0 537 97" fill="none" xmlns="http://www.w3.org/2000/svg">
<path d="M0.319844 53.56C0.319844 46.6 4.63984 39.52 6.79984 36.16C9.55984 31.36 16.3998 24.16 20.7198 17.68C21.6798 16.12 22.2798 13.96 24.1998 13.72C26.7198 13.6 29.1198 15.16 29.1198 17.68C29.1198 18.76 28.9998 19.48 28.3998 20.2C27.9198 20.68 26.5998 22 25.6398 23.08C25.6398 23.08 24.3198 24.88 23.7198 25.6C21.1998 28.96 16.0398 34.12 14.7198 38.32C20.9598 44.92 28.3998 47.8 36.3198 51.88C37.8798 52.6 38.1198 55.36 36.5598 55.36C28.9998 55.36 24.4398 53.08 18.1998 49.12C16.0398 47.8 12.7998 45.76 10.7598 44.08C9.55984 45.16 7.51984 49.12 6.79984 51.16C6.19984 52.6 5.11984 56.56 3.55984 56.56C1.15984 56.56 0.319844 55.48 0.319844 53.56ZM52.8798 31.24C53.8398 24.76 54.6798 21.52 56.3598 13.72C56.7198 12.04 57.1998 8.8 58.0398 7C58.2798 6.16 59.9598 5.92 60.5598 5.92C62.5998 5.92 64.2798 7.24 64.2798 9.15999C64.2798 10.6 64.0398 12.16 63.6798 13.48C62.2398 19.24 60.9198 26.32 59.8398 31.6C63.6798 30.28 70.5198 28.24 72.7998 27.88C75.4398 27.16 78.7998 26.68 82.8798 27.04C84.1998 27.16 84.5598 28.6 84.1998 29.56C83.9598 30.04 83.7198 30.28 83.3598 30.52C81.0798 31.24 79.2798 31.6 76.6398 32.32C70.6398 34.12 65.1198 35.8 59.2398 38.8C58.8798 43.6 58.6398 49.6 59.1199 53.32C59.2398 54.4 59.5998 56.08 59.7198 57.04V57.4C59.7198 58.96 57.1998 59.56 56.5998 59.56C55.2798 59.68 54.1998 58.36 53.5998 56.8C53.1198 55.72 52.7598 54.28 52.5198 52.36C52.2798 50.2 52.0398 47.8 52.0398 45.28C52.0398 44.56 52.3998 34.96 52.8798 31.24ZM38.2398 87.04C38.2398 85.48 38.3598 83.92 38.8398 82.36C40.7598 77.56 43.9998 71.92 47.7198 67.72C48.9198 66.4 49.8798 65.44 50.8398 64.6C52.1598 63.52 54.9198 63.52 55.9998 64.6C57.0798 65.56 57.1998 66.64 57.0798 67.72C56.9598 69.04 54.0798 70.84 51.9198 74.08C54.5598 75.76 55.5198 77.68 55.5198 80.32C55.5198 85.48 49.6398 93.4 44.4798 93.4C40.7598 93.4 38.2398 90.76 38.2398 87.04ZM49.2798 78.4C47.2398 78.4 44.4798 85.48 44.4798 87.04C47.7198 86.8 50.3598 82.48 50.3598 79.96C50.3598 79.48 50.3598 78.4 49.2798 78.4ZM103.524 83.08C103.524 78.52 104.004 74.32 104.844 69.64C105.804 63.88 106.404 56.68 107.964 51.04C108.324 49.72 109.524 44.44 109.764 42.76C103.524 44.08 101.364 44.92 94.6436 47.92C93.3236 48.52 92.2436 49.12 89.6036 50.32C87.0836 51.52 84.6836 48.28 85.6436 46C85.8836 45.4 87.5636 44.32 88.1636 43.96C89.9636 42.76 92.2436 41.92 96.0836 40.48C98.4836 39.64 100.044 39.16 106.044 37.72C108.204 37.24 110.484 36.64 112.884 36.28C118.644 35.08 120.684 34.96 126.924 34.6H131.484C132.804 34.72 134.844 34.72 134.844 36.64C134.844 37.96 133.044 38.44 131.844 38.56C126.804 39.16 122.844 39.64 116.724 41.2C116.244 43.48 113.844 53.44 113.364 56.68C112.524 62.32 111.204 70.48 110.364 76.12C110.004 78.16 109.884 79.96 109.644 81.88C109.404 83.56 109.044 91.12 108.924 92.8C108.804 94.48 108.444 96.16 107.244 96.16C105.084 96.16 104.124 94 103.884 92.2C103.404 89.2 103.524 86.32 103.524 83.08ZM141.084 56.68C141.084 51.64 141.444 46.84 141.924 41.92C142.284 37.6 142.884 33.4 143.484 28.84C143.964 25.12 144.324 21.76 144.924 18.64C145.524 15.76 145.884 12.4 148.524 12.4C150.444 12.4 152.124 13.48 151.884 15.76C151.284 22.36 150.204 30.04 149.124 37.24C148.764 39.88 148.524 42.4 148.284 45.28C147.564 52.84 147.324 60.16 147.684 67.72C147.804 70.12 147.084 71.92 144.804 71.92C143.604 71.92 142.044 70.48 142.044 69.16C141.324 64.96 141.084 60.88 141.084 56.68ZM101.004 19.72C101.004 12.52 106.644 5.56 110.004 2.55999C110.964 1.72 111.804 2.08 113.004 1.6C113.604 1.35999 113.964 0.759995 115.404 0.759995C118.764 0.759995 121.164 4.84 121.164 8.44C121.164 15.88 115.764 24.28 106.764 24.64C103.644 24.76 101.004 22.96 101.004 19.72ZM115.284 6.16C112.524 7.84 108.084 14.32 108.084 18.88C111.684 18.88 116.124 13 116.124 8.44C116.124 7.47999 115.764 6.76 115.284 6.16ZM194.763 51.76C194.763 50.56 194.883 45.28 194.883 45.28C194.883 43.84 195.363 32.68 195.603 31.24C196.203 26.44 197.043 22.96 197.523 20.44C198.003 17.56 199.083 14.2 201.363 14.2C202.803 14.2 204.123 15.4 204.123 16.96C204.123 18.88 203.883 21.04 203.643 22.48C202.803 27.4 201.603 40.24 201.363 47.2V54.76C201.363 59.08 201.723 63.64 201.963 68.08C202.083 70.12 202.563 72.76 202.683 75.52C202.803 78.16 202.083 79.84 199.923 78.04C197.883 76.36 197.283 73 196.803 70.96C195.243 64.72 194.763 57.88 194.763 51.76ZM220.734 89.8C219.534 88.96 219.534 86.8 220.014 84.16C220.734 80.68 222.414 75.28 224.094 72.04C229.254 62.32 237.654 46.72 242.934 37.12C248.094 27.64 252.534 17.44 258.054 8.32C259.014 6.76 260.214 5.79999 262.734 6.64C264.054 7.24 264.654 8.2 264.054 10.96C263.694 13 262.494 13.84 261.294 15.76C258.534 20.44 256.494 24.16 253.974 29.56C250.734 36.16 247.374 42.64 243.534 49.84C241.374 53.8 239.214 57.76 237.054 61.36C235.494 64 231.174 72.64 229.014 76.48C228.774 76.96 227.334 80.08 226.974 80.56C226.494 81.52 225.414 85.72 225.054 86.44C224.574 88.12 224.574 89.68 223.014 90.16C222.174 90.4 221.814 90.4 220.734 89.8ZM246.174 71.44C246.174 69.76 246.174 67.72 246.894 65.32C247.614 63.28 249.294 60.76 251.094 59.44C252.414 58.48 254.094 57.4 256.734 57.4C258.894 56.32 261.774 57.28 263.334 58.48C267.054 61.24 266.214 69.28 263.694 72.64C260.694 76.6 258.054 79.36 253.134 79.12C248.814 78.88 246.294 75.76 246.174 71.44ZM260.694 63.04C258.414 63.04 255.534 64.24 254.454 65.8C253.254 67.72 252.654 70.12 252.654 71.44C255.534 71.44 259.134 70 259.974 67.96C260.814 66.52 260.934 64.84 260.694 63.04ZM218.334 26.32C218.814 22.84 220.974 15.4 224.454 15.4C226.614 15.4 229.254 16.24 230.334 16.96C233.214 19.24 236.094 22.36 234.774 29.44C234.054 33.16 230.574 38.68 225.174 38.68C218.694 38.68 217.734 31.36 218.334 26.32ZM228.294 21.52C224.934 22.96 223.974 28.72 225.174 31.36C226.614 30.88 228.534 29.8 229.254 27.52C229.974 25.36 229.254 22.84 228.294 21.52ZM288.754 37C288.754 29.8 293.314 22.6 296.674 19.6C297.634 18.76 298.474 19.12 299.674 18.64C300.274 18.4 300.634 17.8 302.074 17.8C305.434 17.8 307.834 21.88 307.834 25.48C307.834 32.92 303.514 41.56 294.514 41.92C291.394 42.04 288.754 40.24 288.754 37ZM301.954 23.2C299.194 24.88 295.834 31.6 295.834 36.16C299.434 36.16 302.794 30.04 302.794 25.48C302.794 24.52 302.434 23.8 301.954 23.2ZM336.394 61.36C336.394 54.88 337.474 49.36 338.314 42.64C330.394 49 320.794 53.32 310.714 57.76C302.674 61.36 291.994 64.6 282.034 64.96C279.994 65.08 279.154 63.64 279.154 61.36C279.154 58.6 284.914 58.24 288.274 57.52C299.194 55 309.994 51.88 319.834 46.6C326.794 42.88 336.394 37.24 339.874 30.4C340.354 29.32 343.354 15.76 343.594 14.68C344.194 12.16 347.074 11.92 349.594 13.48C350.194 13.84 350.914 15.52 350.794 17.08C350.674 19.36 348.154 26.68 347.554 28.84C344.914 38.44 344.674 43.6 343.714 53.32C342.994 61 342.634 65.2 341.194 69.88C340.714 71.56 338.794 71.8 337.594 70.36C336.754 69.52 336.394 66.04 336.394 61.36ZM439.618 61.96C439.618 52.96 441.418 44.68 443.338 35.8C443.578 34.6 444.778 25.84 444.898 24.76C445.018 23.08 446.098 21.52 448.858 21.52C451.978 21.52 452.578 23.32 452.578 25.84C452.578 27.88 450.778 32.08 450.418 34.6C447.178 56.92 446.338 61.12 446.338 64.96C446.338 68.8 446.938 71.32 447.298 75.04V75.52C447.298 76.6 445.978 77.08 444.898 77.08C440.698 77.08 439.618 69.64 439.618 61.96ZM387.898 76.48C387.658 74.68 388.618 73.96 390.418 72.76C390.898 72.52 393.178 70.72 393.538 70.36C394.498 69.4 396.418 67.24 396.898 66.4C397.978 64.6 398.938 63.4 399.538 61.72C400.618 58.96 403.498 49.12 403.858 46.72C404.098 44.8 405.178 42.28 407.218 42.16C410.458 42.04 410.818 44.44 410.578 45.88C410.218 48.4 407.818 58.24 406.618 61.36C405.538 64.12 403.738 67.48 401.698 69.28C405.418 67.96 416.458 64.84 418.378 64.36C421.498 63.52 424.498 63.16 427.498 63.16C428.698 63.16 430.258 63.16 430.498 64.48C430.858 66.76 429.058 67.12 427.738 67.6C425.458 68.44 421.258 69.64 418.978 70.24C417.058 70.84 415.138 71.44 413.098 72.04C407.218 73.72 402.418 75.88 396.898 78.16C395.098 78.88 394.738 79.12 392.818 79.72C391.018 80.32 388.258 79.36 387.898 76.48ZM396.538 33.4C396.538 26.2 402.178 19.24 405.538 16.24C406.498 15.4 407.338 15.76 408.538 15.28C409.138 15.04 409.498 14.44 410.938 14.44C414.298 14.44 416.698 18.52 416.698 22.12C416.698 29.56 411.298 37.96 402.298 38.32C399.178 38.44 396.538 36.64 396.538 33.4ZM410.818 19.84C408.058 21.52 403.618 28 403.618 32.56C407.218 32.56 411.658 26.68 411.658 22.12C411.658 21.16 411.298 20.44 410.818 19.84ZM471.873 77.92C471.753 76.36 473.553 75.4 474.753 74.56C477.993 72.52 480.033 69.16 481.353 65.92C483.393 60.64 484.233 52.96 488.313 48.28C489.033 47.44 490.353 46.96 491.673 47.08C493.713 47.2 494.073 48.88 494.073 50.2C494.073 52.24 491.673 55.6 490.833 57.28C488.673 61.72 488.193 66.16 485.793 70.96C485.193 72.16 484.593 73.24 483.393 74.68C489.873 74.68 496.233 73.84 502.353 73.84C506.913 73.84 510.513 73.72 514.233 74.68C515.553 75.28 515.193 78.4 513.873 78.64C512.433 78.76 506.073 79.48 504.873 79.48C504.033 79.48 498.633 79.84 496.593 79.96C489.513 80.32 482.193 82 475.113 82C473.193 82 471.873 80.44 471.873 77.92ZM474.753 40.48C475.233 38.92 480.153 37 481.473 36.52C482.073 35.8 483.993 31.24 485.193 27.28C486.033 24.52 486.033 23.08 486.153 20.8C486.273 19.24 485.673 18.4 484.833 18.28C483.393 18.04 481.473 18.64 479.793 19.72C478.953 20.2 478.353 20.8 477.273 20.92C475.593 21.16 474.273 19.12 474.513 17.2C474.633 16.36 475.353 15.76 476.193 15.16C477.993 13.96 479.193 13.48 481.233 12.88C483.513 12.16 486.993 12.16 489.033 13C492.033 14.2 492.513 16.84 492.393 19.36C492.273 23.08 492.153 25.12 490.833 29.2C490.353 30.76 489.513 32.8 488.793 34.12C490.593 33.52 492.153 33.04 494.553 32.68C496.833 32.32 500.553 31.84 502.233 31.84C503.313 31.84 504.273 31.84 505.353 32.32C506.313 32.68 506.553 35.32 504.513 35.92C503.313 36.28 498.393 37 495.633 37.72C490.473 39.04 486.033 40.12 482.673 41.56C480.633 42.4 479.673 43.48 476.793 44.2C475.233 44.56 474.153 42.52 474.753 40.48ZM464.673 32.56C464.313 27.64 464.313 23.8 464.913 19C465.393 15.52 465.633 14.8 466.953 11.08C467.793 8.8 468.633 8.44 469.113 8.07999C470.313 7.12 474.153 7.72 474.513 9.28V9.88C474.513 11.08 474.153 11.56 473.553 12.88C470.913 19 470.793 24.16 470.793 31.24C470.793 32.44 470.913 33.64 470.913 34.6V35.8C470.913 36.76 470.433 37.36 469.593 37.72C468.993 37.96 466.833 38.32 465.753 36.52C465.033 35.32 464.793 33.64 464.673 32.56ZM524.115 90.52C523.635 87.64 524.715 83.68 525.555 81.28C526.275 78.4 528.435 73 529.275 71.08C530.475 68.44 531.555 67 534.555 67.6C535.635 67.84 536.835 69.04 536.835 70.6C536.835 72.64 535.995 74.08 535.275 75.64C533.595 79.12 531.435 82.96 529.635 86.56C528.555 88.72 527.715 90.76 526.275 91.6C525.315 92.2 524.355 92.08 524.115 90.52Z" fill="white" fill-opacity="0.4"/>
</svg>
