<svg width="663" height="745" viewBox="0 0 663 745" fill="none" xmlns="http://www.w3.org/2000/svg">
<g filter="url(#filter0_d_418_4153)">
<rect width="586" height="676" transform="translate(6 57.3228) rotate(-5)" fill="white"/>
<rect width="546" height="530" transform="translate(27.667 75.5035) rotate(-5)" fill="#6840FD"/>
<path opacity="0.3" d="M292.042 370.522C290.809 354.945 291.136 342.238 293.02 332.401C294.893 322.434 298.103 314.311 302.651 308.031C307.329 301.74 313.716 295.561 321.812 289.494C330.736 282.439 337.449 275.513 341.952 268.714C346.585 261.904 348.538 254.349 347.811 246.047C347.255 239.691 345.276 234.244 341.872 229.706C338.458 225.037 334.037 221.568 328.61 219.298C323.183 217.028 317.357 216.166 311.131 216.71C304.904 217.255 299.186 219.128 293.977 222.328C288.897 225.518 284.903 229.919 281.996 235.532C279.207 241.004 278.006 247.449 278.394 254.865L223.136 259.699C221.982 242.024 224.898 226.803 231.885 214.037C238.99 201.129 249.092 191.095 262.189 183.937C275.406 176.638 290.51 172.245 307.502 170.758C325.532 169.181 341.819 170.827 356.361 175.698C370.903 180.569 382.571 188.436 391.364 199.3C400.275 210.022 405.417 223.231 406.79 238.926C408.129 254.233 405.644 267.651 399.333 279.183C393.152 290.703 383.603 301.08 370.687 310.313C363.443 315.653 357.755 320.856 353.623 325.922C349.61 330.848 346.709 336.526 344.918 342.957C343.258 349.376 342.755 357.066 343.408 366.028L343.782 370.308L292.416 374.802L292.042 370.522ZM326.961 460.399C320.994 460.921 315.351 459.911 310.031 457.37C304.711 454.83 300.344 451.225 296.929 446.557C293.633 441.748 291.794 436.419 291.413 430.571C290.773 424.745 291.664 419.243 294.086 414.064C296.639 408.874 300.319 404.631 305.128 401.334C309.926 397.909 315.309 395.935 321.275 395.412C326.853 394.924 332.237 395.957 337.427 398.509C342.735 400.92 347.097 404.459 350.512 409.127C353.926 413.796 355.889 419.048 356.4 424.885C356.91 430.722 355.895 436.301 353.354 441.621C350.802 446.811 347.127 451.119 342.329 454.545C337.661 457.959 332.539 459.911 326.961 460.399Z" fill="white"/>
<path d="M107.544 452.838C102.607 451.021 99.76 445.789 103.988 436.285C110.565 421.515 122.345 405.166 131.854 393.373C135.787 388.531 142.68 385.399 148.346 389.119C153.114 392.215 154.779 398.394 149.815 404.309L145.615 409.314C153.248 416.235 162.013 421.652 171.221 427.311C179.241 432.23 178.838 438.871 176.341 442.462C173.5 446.927 168.31 448.646 158.544 443.035C151.471 439.298 141.972 433.524 133.339 426.409C129.352 432.239 125.91 437.88 123.281 443.169C118.356 452.735 113.063 454.884 107.544 452.838ZM144.731 479.518C143.254 462.643 155.067 451.491 174.035 449.831C191.468 448.306 204.887 457.11 206.375 474.125C207.693 489.187 197.573 502.018 178.745 503.666C159.917 505.313 146.049 494.581 144.731 479.518ZM165.348 477.433C165.811 482.733 170.476 486.26 176.752 485.711C183.307 485.137 187.289 480.854 186.826 475.554C186.301 469.557 181.824 466.576 175.13 467.162C168.854 467.711 164.798 471.157 165.348 477.433ZM185.177 397.28C183.437 387.033 186.837 382.519 193.368 381.667C199.898 380.814 205.048 383.456 206.601 396.389L207.649 405.151C211.857 405.064 215.422 404.05 219.2 403.86C223.536 403.621 226.212 406.9 226.614 411.503C226.981 415.687 225.443 420.599 221.053 421.827C217.488 422.841 213.304 423.207 209.083 423.155C209.425 427.06 209.822 433.209 209.927 436.01C210.216 444.136 206.677 448.662 200.401 449.211C194.125 449.76 189.981 445.766 189.303 436.409C188.674 427.611 186.941 407.806 185.177 397.28ZM276.127 489.243C270.828 489.707 264.641 486.454 263.727 479.226C263.258 475.472 262.558 469.069 261.996 462.654C254.592 463.161 247.328 463.656 241.015 463.787C233.726 464.003 230.419 459.935 230.362 454.46C230.304 448.984 232.497 445.138 241.448 444.636C258.22 443.59 280.105 441.535 300.381 438.777C308.294 437.663 313.026 440.341 313.805 446.035C314.621 452.147 312.161 456.157 305.249 457.464C299.021 458.571 292.085 459.6 284.717 460.525C285.095 464.849 285.359 469.463 285.725 473.647C286.591 483.55 281.706 488.755 276.127 489.243ZM235.052 413.294C233.514 395.721 246.83 382.47 265.798 380.811C283.51 379.261 298.367 390.047 299.904 407.62C301.161 421.985 291.351 436.757 270.849 438.55C248.674 440.49 236.284 427.38 235.052 413.294ZM255.808 411.197C256.272 416.497 261.847 420.787 269.239 420.141C276.072 419.543 280.928 415.605 280.354 409.05C279.781 402.495 274.382 398.61 266.99 399.257C260.017 399.867 255.222 404.503 255.808 411.197ZM315.296 387.583C314.207 379.948 316.909 375.496 323.743 374.898C330.019 374.349 336.042 377.335 338.153 390.22C340.787 405.87 344.479 449.675 345.333 470.681C345.696 479.643 342.697 485.527 335.724 486.137C328.75 486.747 324.673 481.904 323.855 472.56C321.629 448.723 320.139 417.233 318.392 405.3C317.139 397.399 315.978 392.161 315.296 387.583ZM417.819 472.069C411.822 472.593 407.509 469.879 407.242 458.8C406.915 447.024 404.997 421.895 402.095 403.177C401.772 401.097 400.862 400.333 399.311 401.875C397.759 403.416 395.116 405.333 392.6 407.099C390.085 408.865 386.931 408.157 385.42 405.338C383.908 402.519 382.93 399.373 385.875 394.477C390.655 386.47 399.734 377.806 409.816 372.567C414.921 369.872 420.641 372.604 421.003 381.567C422.242 408.581 423.89 438.652 426.489 457.116C427.901 466.83 423.119 471.605 417.819 472.069ZM464.053 470.132C459.892 467.544 459.313 462.536 465.875 452.405C472.31 442.427 506.508 389.966 520.535 368.783C525.516 361.461 532.045 357.377 536.825 360.612C541.757 363.975 540.796 370.665 537.445 375.736C522.867 398.654 494.215 445.429 480.301 463.089C475.362 469.283 468.063 472.592 464.053 470.132ZM441.387 392.572C440.118 378.067 450.003 367.365 464.089 366.133C478.176 364.9 489.769 373.724 491.038 388.228C492.294 402.593 482.41 413.295 468.323 414.528C454.237 415.76 442.644 406.937 441.387 392.572ZM457.844 391.132C458.284 396.153 461.718 400.069 467.018 399.605C472.318 399.141 475.02 394.689 474.581 389.668C474.129 384.508 470.695 380.592 465.395 381.056C460.095 381.519 457.393 385.972 457.844 391.132ZM512.41 439.761C511.141 425.257 521.026 414.555 535.112 413.322C549.199 412.09 560.792 420.913 562.061 435.418C563.318 449.783 553.433 460.485 539.346 461.717C525.26 462.95 513.667 454.127 512.41 439.761ZM528.868 438.322C529.307 443.342 532.741 447.258 538.041 446.794C543.341 446.331 546.043 441.878 545.604 436.857C545.152 431.697 541.718 427.782 536.418 428.245C531.118 428.709 528.416 433.161 528.868 438.322Z" fill="white"/>
<path d="M311.161 329.161C302.143 329.347 299.27 327.491 298.621 321.223C297.402 309.585 295.19 286.591 294.24 275.732C293.743 270.054 296.669 266.786 301.152 266.394C305.336 266.028 308.997 267.715 309.564 274.191L310.584 285.846L328.307 284.195C327.828 278.716 327.301 273.843 327.074 271.253C326.665 266.571 329.383 263.221 333.866 262.829C337.751 262.489 341.755 264.649 342.234 270.128C342.992 278.795 345.202 305.203 346.023 316.875C346.472 323.16 344.156 325.37 335.251 326.852C327.434 328.138 319.183 329.061 311.161 329.161ZM311.673 298.299C312.205 304.375 312.757 309.547 312.967 311.938C313.211 314.727 313.835 314.974 316.841 314.911C319.548 314.875 324.728 314.422 327.201 314.005C330.172 313.544 330.644 313.202 330.5 310.404C330.399 308.104 330.028 302.716 329.496 296.639L311.673 298.299ZM351.111 266.038C350.433 260.577 352.41 256.79 357.889 256.311C362.372 255.919 366.176 258.095 367.186 267.342C367.748 272.614 367.902 277.82 368.464 283.091C370.855 282.882 373.653 282.737 375.953 282.637C379.058 282.566 382.118 285.41 382.414 288.797C382.719 292.284 381.486 295.403 378.005 296.912C375.974 297.792 372.604 298.288 370.023 298.614C370.798 307.48 371.696 317.741 371.929 323.844C372.188 330.246 369.847 334.466 364.866 334.902C359.885 335.338 356.574 331.913 356.488 325.195C356.381 319.382 354.374 291.852 352.212 275.177L351.111 266.038ZM393.251 326.697C388.009 326.452 385.565 323.755 385.524 319.844C385.483 315.933 387.041 313.086 393.434 312.727C401.728 312.303 410.512 311.735 419.387 311.059C419.192 309.972 419.096 308.876 419.017 307.98C418.869 306.286 418.938 304.774 419.223 303.445C414.142 303.889 409.443 304.099 405.739 304.223C395.825 304.488 393.298 301.998 392.038 294.48C391.399 290.621 390.808 286.155 390.771 281.139C390.786 276.721 392.812 274.637 398.156 273.768C403.102 272.933 427.093 270.634 441.356 269.587C442.253 269.508 442.443 269.391 442.365 268.495C442.295 267.698 442.077 265.207 441.908 264.419C441.756 263.83 441.548 263.748 440.851 263.809C433.86 264.22 413.083 266.539 398.664 268.102C391.31 268.946 389.381 266.404 389.033 262.42C388.71 258.734 390.467 255.87 396.626 255.13C402.088 254.452 441.992 250.458 448.302 250.308C453.708 250.136 456.074 251.937 456.856 256.285C457.308 259.157 458.427 270.803 458.524 274.208C458.674 278.21 457.406 280.931 451.321 281.363C436.858 282.428 414.561 284.579 408.619 285.5C406.934 285.748 406.57 286.182 406.649 287.078L406.884 289.768C406.962 290.664 407.803 291.093 409.306 291.062C422.192 290.336 437.607 288.686 451.457 286.37C457.79 285.314 462.165 287.14 462.549 291.523C462.932 295.906 460.551 298.524 455.198 299.293C449.056 300.232 441.91 301.158 434.746 301.886C435.358 303.137 435.688 304.614 435.844 306.407L436.123 309.595C444.773 308.637 453.305 307.489 461.222 306.194C467.953 305.104 470.684 308.78 471.041 312.864C471.381 316.749 469.762 318.899 464.725 319.841C451.39 322.313 412.903 327.587 393.251 326.697Z" fill="white"/>
<path d="M248.308 233.776C243.825 234.168 240.714 230.726 240.528 224.017C240.449 220.811 239.876 210.823 238.908 199.765C236.535 200.174 233.148 200.47 230.458 200.706C231.199 209.173 231.823 217.45 232.146 223.445C232.505 229.838 229.566 234.11 225.083 234.503C220.6 234.895 217.688 231.435 217.204 224.752C215.878 207.301 214.676 187.832 212.254 170.477C211.476 165.024 213.964 160.189 218.148 159.823C222.133 159.474 226.149 160.629 227.258 169.867C227.663 173.345 228.429 179.803 229.182 187.266C231.664 186.948 235.042 186.552 237.74 186.416C236.996 179.053 236.195 172.197 235.378 167.45C234.153 160.33 236.902 156.174 241.086 155.808C245.17 155.451 249.074 157.619 250.084 166.866C251.193 176.105 254.562 207.731 255.272 222.727C255.531 229.128 252.791 233.383 248.308 233.776ZM175.141 216.688C173.333 205.201 171.977 188.556 171.883 176.017C171.859 169.996 175.019 167.11 179.727 166.999C183.73 166.849 186.655 169.304 187.079 177.598C187.582 186.789 188.491 201.767 189.878 211.885C190.23 214.765 191.088 215.393 195.164 214.936C198.841 214.514 201.323 214.196 205.888 213.596C210.055 213.031 212.629 214.914 213.194 219.08C213.82 223.944 211.521 226.354 205.895 227.448C200.269 228.543 192.842 229.694 187.111 229.593C180.375 229.48 176.77 227.286 175.141 216.688ZM299.003 222.414C294.992 222.464 292.132 219.602 292.102 212.377C292.117 199.929 290.601 182.595 288.673 174.331C288.031 171.577 287.805 171.295 284.799 171.358C281.187 171.373 275.582 171.562 266.976 173.017C260.644 174.073 257.585 171.229 257.201 166.846C256.818 162.463 259.251 160.443 264.595 159.574C274.687 157.888 278.347 157.266 291.384 157.13C300.411 157.043 302.387 158.978 303.725 165.084C307.059 180.251 308.589 198.889 307.955 212.295C307.737 217.835 305.314 222.263 299.003 222.414ZM315.85 159.105C313.504 154.09 315.918 149.563 322.393 148.996C326.876 148.604 331.577 150.702 332.686 159.941L334.549 176.642C336.94 176.433 339.24 176.332 341.54 176.231C344.646 176.16 347.705 179.004 348.001 182.391C348.306 185.878 347.074 188.997 343.592 190.506C341.561 191.387 338.689 191.839 336.108 192.165C336.884 201.031 337.694 210.296 337.927 216.399C338.186 222.801 335.845 227.021 330.864 227.456C325.883 227.892 322.572 224.468 322.486 217.75C322.379 211.937 320.372 184.407 318.21 167.732C317.875 165.051 316.955 161.417 315.85 159.105Z" fill="white"/>
<path d="M77.6213 634.652L96.082 633.037L96.4197 636.898L89.5086 637.502L91.1428 656.181L86.5043 656.587L84.8701 637.908L77.959 638.513L77.6213 634.652ZM105.066 655.308C103.385 655.455 101.89 655.22 100.581 654.602C99.2723 653.985 98.223 653.047 97.4332 651.788C96.6425 650.519 96.1714 649.017 96.0197 647.285C95.8681 645.552 96.0667 643.997 96.6156 642.621C97.1748 641.244 98.0457 640.143 99.2283 639.318C100.42 638.482 101.857 637.99 103.538 637.843C105.219 637.696 106.719 637.931 108.038 638.548C109.357 639.154 110.411 640.086 111.2 641.345C111.99 642.604 112.461 644.1 112.613 645.833C112.764 647.566 112.561 649.126 112.003 650.513C111.443 651.89 110.568 652.997 109.376 653.833C108.184 654.669 106.747 655.161 105.066 655.308ZM104.784 651.725C105.552 651.658 106.186 651.383 106.688 650.9C107.188 650.406 107.54 649.759 107.741 648.957C107.943 648.155 108 647.251 107.912 646.244C107.824 645.238 107.611 644.357 107.273 643.602C106.934 642.837 106.475 642.255 105.897 641.856C105.318 641.457 104.645 641.291 103.877 641.358C103.099 641.427 102.454 641.708 101.943 642.202C101.442 642.695 101.087 643.349 100.875 644.162C100.663 644.965 100.601 645.869 100.689 646.876C100.777 647.872 100.995 648.752 101.344 649.516C101.692 650.27 102.156 650.847 102.734 651.246C103.322 651.633 104.006 651.793 104.784 651.725ZM113.808 637.164L118.353 636.767L118.601 639.6L118.788 639.583C119.097 638.699 119.615 637.927 120.342 637.267C121.068 636.608 122.07 636.222 123.346 636.11C124.622 635.999 125.809 636.23 126.904 636.803C127.999 637.366 128.905 638.275 129.621 639.53C130.347 640.773 130.791 642.329 130.955 644.197C131.115 646.023 130.951 647.622 130.465 648.992C129.988 650.351 129.26 651.419 128.282 652.194C127.314 652.959 126.176 653.398 124.869 653.513C123.613 653.622 122.566 653.427 121.727 652.925C120.898 652.412 120.25 651.752 119.782 650.946L119.657 650.957L120.45 660.016L115.842 660.419L113.808 637.164ZM119.06 645.206C119.149 646.223 119.367 647.103 119.715 647.847C120.061 648.58 120.523 649.135 121.099 649.513C121.675 649.881 122.337 650.033 123.084 649.967C124.236 649.866 125.083 649.327 125.625 648.349C126.177 647.37 126.386 646.113 126.251 644.577C126.119 643.062 125.696 641.881 124.984 641.033C124.283 640.185 123.356 639.811 122.204 639.912C121.063 640.012 120.22 640.535 119.675 641.482C119.13 642.418 118.925 643.66 119.06 645.206ZM149.798 651.049L145.097 651.461L143.514 633.373L143.39 633.384L138.505 637.074L138.143 632.934L143.405 628.897L147.826 628.51L149.798 651.049ZM159 638.888C157.9 638.985 156.939 638.818 156.117 638.388C155.295 637.947 154.641 637.294 154.158 636.426C153.674 635.559 153.38 634.528 153.276 633.335C153.171 632.142 153.281 631.071 153.606 630.122C153.941 629.173 154.476 628.415 155.211 627.849C155.955 627.271 156.867 626.935 157.946 626.841C159.056 626.744 160.018 626.916 160.83 627.357C161.652 627.787 162.3 628.441 162.774 629.32C163.258 630.187 163.558 631.222 163.673 632.425C163.768 633.63 163.653 634.701 163.327 635.64C163.001 636.578 162.471 637.33 161.737 637.896C161.002 638.462 160.09 638.793 159 638.888ZM158.758 636.118C159.411 636.061 159.879 635.727 160.16 635.117C160.452 634.506 160.564 633.701 160.498 632.703C160.388 631.688 160.142 630.904 159.759 630.352C159.387 629.799 158.863 629.552 158.188 629.611C157.535 629.669 157.058 630.014 156.758 630.646C156.467 631.268 156.365 632.071 156.451 633.057C156.537 634.043 156.783 634.816 157.187 635.377C157.591 635.927 158.114 636.174 158.758 636.118ZM175.243 649.576C174.154 649.671 173.198 649.504 172.376 649.074C171.553 648.634 170.9 647.98 170.417 647.112C169.943 646.244 169.654 645.213 169.55 644.02C169.446 642.826 169.556 641.755 169.881 640.807C170.216 639.857 170.751 639.1 171.485 638.533C172.219 637.957 173.121 637.622 174.189 637.528C175.3 637.431 176.266 637.603 177.089 638.043C177.911 638.473 178.564 639.127 179.049 640.005C179.532 640.872 179.832 641.907 179.948 643.11C180.043 644.315 179.927 645.386 179.602 646.324C179.276 647.263 178.74 648.015 177.995 648.582C177.261 649.148 176.343 649.48 175.243 649.576ZM175.001 646.805C175.665 646.747 176.143 646.418 176.436 645.817C176.728 645.216 176.841 644.407 176.772 643.388C176.663 642.373 176.417 641.594 176.035 641.053C175.652 640.501 175.118 640.26 174.435 640.33C173.802 640.385 173.334 640.724 173.033 641.347C172.743 641.968 172.64 642.767 172.725 643.742C172.813 644.738 173.053 645.512 173.446 646.063C173.85 646.613 174.368 646.861 175.001 646.805ZM171.556 626.434L175.043 626.129L161.512 650.024L158.025 650.329L171.556 626.434ZM199.196 641.332L199.414 641.313L203.421 623.646L208.588 623.194L202.778 646.414L196.769 646.94L186.984 625.085L192.214 624.627L199.196 641.332ZM210.584 628.698L215.192 628.294L216.671 645.199L212.063 645.602L210.584 628.698ZM212.695 626.286C212.238 626.326 211.804 626.259 211.391 626.086C210.988 625.902 210.657 625.643 210.398 625.31C210.148 624.966 210.005 624.587 209.969 624.171C209.932 623.746 210.006 623.342 210.192 622.96C210.389 622.577 210.67 622.265 211.036 622.023C211.411 621.771 211.827 621.625 212.284 621.585C212.73 621.546 213.154 621.619 213.557 621.803C213.959 621.977 214.285 622.236 214.535 622.58C214.795 622.923 214.944 623.308 214.981 623.733C215.017 624.148 214.937 624.547 214.741 624.93C214.554 625.302 214.278 625.614 213.913 625.865C213.547 626.107 213.141 626.247 212.695 626.286ZM227.905 632.233C227.76 631.649 227.423 631.203 226.894 630.894C226.364 630.574 225.72 630.448 224.962 630.514C224.464 630.557 224.02 630.675 223.629 630.866C223.247 631.046 222.954 631.28 222.749 631.57C222.544 631.85 222.461 632.155 222.5 632.486C222.539 633.288 223.314 633.785 224.826 633.976L227.9 634.335C229.57 634.534 230.837 634.972 231.701 635.649C232.576 636.326 233.072 637.27 233.188 638.483C233.274 639.584 233.037 640.583 232.478 641.479C231.929 642.374 231.109 643.104 230.019 643.67C228.929 644.236 227.647 644.583 226.173 644.712C224.669 644.844 223.348 644.745 222.211 644.416C221.072 644.076 220.152 643.535 219.449 642.791C218.756 642.036 218.299 641.114 218.078 640.025L222.716 639.619C222.878 640.274 223.234 640.75 223.782 641.047C224.331 641.344 225.031 641.456 225.882 641.381C226.722 641.308 227.383 641.088 227.863 640.722C228.354 640.355 228.576 639.901 228.528 639.362C228.49 638.926 228.273 638.589 227.875 638.352C227.488 638.104 226.887 637.926 226.072 637.82L223.221 637.505C221.596 637.333 220.333 636.874 219.431 636.127C218.529 635.38 218.034 634.382 217.946 633.135C217.842 632.067 218.046 631.114 218.558 630.274C219.069 629.424 219.846 628.74 220.888 628.22C221.93 627.7 223.172 627.377 224.614 627.251C226.015 627.128 227.258 627.234 228.344 627.567C229.429 627.901 230.302 628.436 230.962 629.173C231.632 629.899 232.055 630.793 232.232 631.854L227.905 632.233ZM244.877 625.697L249.485 625.294L250.964 642.198L246.543 642.585L246.276 639.534L246.089 639.551C245.773 640.593 245.194 641.448 244.353 642.118C243.522 642.776 242.484 643.16 241.239 643.269C240.108 643.368 239.089 643.201 238.183 642.768C237.288 642.334 236.56 641.66 235.999 640.747C235.437 639.824 235.099 638.714 234.986 637.417L234.044 626.645L238.651 626.242L239.523 636.204C239.61 637.2 239.944 637.971 240.525 638.516C241.116 639.06 241.863 639.293 242.766 639.214C243.347 639.163 243.875 638.981 244.349 638.668C244.823 638.344 245.187 637.904 245.442 637.349C245.696 636.793 245.791 636.147 245.727 635.41L244.877 625.697ZM252.364 637.308C252.211 635.564 252.686 634.237 253.788 633.325C254.89 632.413 256.36 631.824 258.198 631.559C259.333 631.386 260.727 631.191 262.381 630.973L262.261 629.603C262.179 628.899 261.887 628.371 261.385 628.017C260.884 627.664 260.208 627.524 259.357 627.599C258.589 627.666 257.976 627.887 257.517 628.262C257.058 628.636 256.792 629.12 256.718 629.712L252.329 630.096C252.335 629.091 252.6 628.169 253.122 627.329C253.655 626.487 254.436 625.792 255.465 625.242C256.494 624.691 257.734 624.353 259.187 624.226C260.474 624.113 261.675 624.212 262.789 624.522C263.914 624.832 264.841 625.388 265.57 626.193C266.309 626.985 266.735 628.03 266.848 629.327L267.845 640.721L263.487 641.103L263.283 638.768L263.158 638.779C262.784 639.638 262.202 640.342 261.414 640.892C260.635 641.431 259.644 641.753 258.44 641.858C257.34 641.954 256.348 641.853 255.465 641.554C254.59 641.243 253.876 640.731 253.322 640.016C252.779 639.3 252.459 638.397 252.364 637.308ZM256.774 636.796C256.829 637.429 257.1 637.902 257.588 638.215C258.085 638.517 258.712 638.635 259.47 638.568C260.154 638.508 260.754 638.315 261.27 637.987C261.795 637.659 262.187 637.238 262.445 636.724C262.703 636.21 262.802 635.663 262.741 635.082L262.633 633.853C262.146 633.906 261.547 633.984 260.834 634.089C260.122 634.193 259.576 634.282 259.195 634.357C258.393 634.511 257.775 634.795 257.341 635.21C256.906 635.624 256.717 636.153 256.774 636.796ZM275.014 640.094L270.407 640.497L268.435 617.958L273.042 617.555L275.014 640.094Z" fill="#222222"/>
<rect width="32" height="32" transform="translate(80.3091 677.205) rotate(-5)" fill="white"/>
<path d="M96.4223 677.803L99.8305 679.341L103.559 679.061L105.742 682.098L109.111 683.72L109.483 687.44L111.589 690.53L110.051 693.938L110.331 697.666L107.295 699.849L105.673 703.218L101.952 703.59L98.8627 705.697L95.4545 704.158L91.7258 704.438L89.5434 701.402L86.1744 699.78L85.8024 696.059L83.6958 692.97L85.2339 689.562L84.9542 685.833L87.9903 683.651L89.6124 680.282L93.333 679.91L96.4223 677.803Z" fill="#00A2FF"/>
<g clip-path="url(#clip0_418_4153)">
<path d="M103.931 686.682C104.356 687.061 104.415 687.733 104.062 688.18L96.8335 697.345C96.4805 697.793 95.8485 697.848 95.4232 697.469L91.068 693.583C90.6427 693.204 90.584 692.533 90.937 692.085C91.2899 691.638 91.9219 691.582 92.3472 691.962L95.9331 695.158L102.524 686.805C102.877 686.358 103.509 686.302 103.934 686.682L103.931 686.682Z" fill="white"/>
</g>
<path d="M124.41 680.295C125.493 680.208 126.472 680.334 127.349 680.673C128.233 681.004 128.944 681.518 129.484 682.216C130.023 682.914 130.334 683.737 130.417 684.687C130.492 685.543 130.365 686.334 130.037 687.061C129.708 687.78 129.208 688.384 128.537 688.874C127.866 689.364 127.076 689.704 126.167 689.893L126.477 693.431C128.786 693.111 130.808 692.738 132.543 692.312L132.802 693.654C130.75 694.225 128.643 694.661 126.481 694.959C124.327 695.258 121.931 695.522 119.293 695.753L118.901 694.235C121.345 694.021 123.257 693.83 124.639 693.662L124.323 690.055C123.387 690.027 122.547 689.83 121.801 689.464C121.055 689.09 120.457 688.577 120.008 687.927C119.559 687.276 119.301 686.522 119.234 685.665C119.143 684.716 119.303 683.855 119.713 683.082C120.131 682.301 120.746 681.667 121.558 681.18C122.378 680.692 123.329 680.398 124.41 680.295ZM124.551 681.906C123.82 681.97 123.174 682.168 122.615 682.499C122.063 682.822 121.645 683.247 121.362 683.773C121.078 684.292 120.968 684.87 121.031 685.508C121.079 686.147 121.289 686.701 121.659 687.17C122.03 687.64 122.515 687.99 123.115 688.219C123.723 688.441 124.392 688.515 125.123 688.444C125.848 688.388 126.486 688.199 127.038 687.876C127.589 687.546 128.003 687.117 128.278 686.591C128.562 686.065 128.675 685.482 128.62 684.844C128.564 684.206 128.351 683.656 127.981 683.194C127.618 682.724 127.137 682.378 126.537 682.156C125.937 681.926 125.275 681.843 124.551 681.906ZM136.338 698.85L134.517 699.009L132.697 678.206L134.518 678.046L136.338 698.85ZM158.032 694.222L139.026 695.885L138.892 694.344L147.437 693.597L146.994 688.53L140.69 689.082L139.838 679.345L154.244 678.085L155.096 687.821L148.792 688.373L149.235 693.439L157.897 692.681L158.032 694.222ZM142.359 687.453L153.193 686.506L152.598 679.711L141.764 680.659L142.359 687.453ZM169.901 678.338C169.982 679.265 170.278 680.141 170.79 680.966C171.308 681.784 171.985 682.485 172.821 683.071C173.664 683.656 174.599 684.076 175.625 684.331L174.748 685.867C173.567 685.546 172.505 685.016 171.562 684.275C170.618 683.526 169.869 682.631 169.315 681.589C168.979 682.858 168.404 683.991 167.589 684.987C166.774 685.984 165.784 686.768 164.619 687.341L163.51 685.956C164.503 685.477 165.357 684.845 166.073 684.061C166.796 683.276 167.335 682.394 167.688 681.414C168.041 680.427 168.175 679.407 168.091 678.356L167.903 676.208L169.701 676.05L169.901 678.338ZM179.374 679.58L182.502 679.306L182.637 680.847L179.508 681.121L180.005 686.795L178.184 686.954L177.079 674.323L178.9 674.163L179.374 679.58ZM173.397 687.914C174.814 687.79 176.049 687.831 177.102 688.037C178.155 688.243 178.979 688.606 179.574 689.126C180.167 689.639 180.499 690.288 180.567 691.075C180.638 691.876 180.425 692.585 179.93 693.201C179.435 693.816 178.686 694.313 177.684 694.691C176.69 695.076 175.482 695.331 174.057 695.455C172.633 695.58 171.39 695.54 170.329 695.335C169.276 695.129 168.449 694.766 167.846 694.246C167.245 693.734 166.909 693.077 166.839 692.276C166.77 691.49 166.987 690.792 167.491 690.183C167.994 689.567 168.75 689.066 169.759 688.679C170.768 688.293 171.981 688.038 173.397 687.914ZM173.526 689.385C172.491 689.475 171.6 689.648 170.854 689.901C170.107 690.147 169.546 690.462 169.172 690.848C168.798 691.226 168.634 691.648 168.683 692.114C168.718 692.597 168.952 692.996 169.388 693.311C169.823 693.626 170.426 693.84 171.197 693.953C171.976 694.073 172.887 694.091 173.931 694.008C175.517 693.853 176.74 693.535 177.6 693.052C178.459 692.569 178.857 691.961 178.793 691.23C178.751 690.755 178.513 690.364 178.079 690.057C177.644 689.75 177.037 689.54 176.259 689.428C175.48 689.308 174.569 689.294 173.526 689.385ZM189.55 674.267C190.576 674.169 191.506 674.26 192.338 674.54C193.178 674.82 193.852 675.263 194.36 675.869C194.876 676.475 195.17 677.194 195.243 678.027C195.316 678.86 195.151 679.619 194.748 680.305C194.353 680.991 193.767 681.548 192.989 681.977C192.218 682.405 191.319 682.66 190.291 682.742C189.264 682.84 188.331 682.745 187.49 682.458C186.657 682.17 185.983 681.723 185.467 681.117C184.959 680.511 184.669 679.791 184.596 678.959C184.523 678.126 184.684 677.367 185.079 676.681C185.482 675.995 186.068 675.442 186.839 675.021C187.618 674.6 188.522 674.349 189.55 674.267ZM189.68 675.761C188.995 675.813 188.394 675.98 187.877 676.26C187.36 676.533 186.968 676.892 186.701 677.339C186.442 677.785 186.34 678.273 186.394 678.801C186.433 679.339 186.619 679.805 186.951 680.199C187.291 680.585 187.739 680.872 188.297 681.058C188.854 681.237 189.474 681.292 190.158 681.225C190.852 681.172 191.457 681.009 191.974 680.736C192.499 680.455 192.894 680.095 193.162 679.656C193.429 679.209 193.539 678.717 193.492 678.18C193.445 677.651 193.252 677.19 192.912 676.796C192.571 676.402 192.119 676.116 191.554 675.938C190.997 675.752 190.372 675.693 189.68 675.761ZM201.551 693.121L199.753 693.278L197.937 672.521L199.735 672.364L201.551 693.121ZM183.559 685.119C186.119 684.895 188.547 684.636 190.843 684.341C193.137 684.038 195.303 683.645 197.339 683.161L197.576 684.528C195.776 685.023 193.781 685.437 191.591 685.769L192.248 693.276L190.427 693.435L189.779 686.034C188.407 686.217 186.465 686.426 183.952 686.661L183.559 685.119ZM216.223 689.908L214.098 690.094L212.811 675.384L212.718 675.392L208.847 678.484L208.661 676.359L212.619 673.19L214.744 673.004L216.223 689.908ZM222.791 680.205C222.075 680.267 221.446 680.154 220.903 679.864C220.368 679.574 219.941 679.136 219.624 678.553C219.313 677.96 219.122 677.255 219.05 676.438C218.981 675.644 219.052 674.932 219.263 674.302C219.482 673.664 219.83 673.155 220.306 672.776C220.79 672.388 221.382 672.164 222.083 672.103C222.806 672.039 223.436 672.157 223.972 672.455C224.507 672.745 224.93 673.183 225.24 673.768C225.557 674.351 225.751 675.044 225.821 675.846C225.892 676.655 225.822 677.379 225.611 678.017C225.4 678.647 225.052 679.156 224.569 679.543C224.092 679.922 223.5 680.143 222.791 680.205ZM222.665 678.757C223.225 678.708 223.625 678.442 223.865 677.958C224.105 677.467 224.188 676.812 224.117 675.995C224.046 675.178 223.853 674.552 223.541 674.116C223.228 673.681 222.784 673.492 222.209 673.55C221.664 673.598 221.268 673.868 221.021 674.36C220.774 674.845 220.685 675.488 220.755 676.289C220.826 677.099 221.025 677.724 221.354 678.166C221.683 678.608 222.12 678.805 222.665 678.757ZM233.924 688.594C233.209 688.665 232.58 688.555 232.037 688.265C231.494 687.976 231.064 687.539 230.746 686.955C230.435 686.363 230.248 685.661 230.185 684.851C230.107 684.05 230.174 683.331 230.385 682.693C230.603 682.054 230.955 681.545 231.439 681.166C231.923 680.778 232.515 680.554 233.215 680.493C233.932 680.43 234.557 680.548 235.093 680.846C235.628 681.136 236.051 681.578 236.362 682.17C236.672 682.755 236.862 683.452 236.933 684.261C237.003 685.063 236.933 685.782 236.722 686.42C236.511 687.058 236.168 687.567 235.691 687.946C235.214 688.325 234.625 688.541 233.924 688.594ZM233.798 687.147C234.342 687.099 234.735 686.833 234.975 686.35C235.215 685.866 235.299 685.22 235.229 684.41C235.157 683.593 234.969 682.966 234.664 682.53C234.359 682.086 233.934 681.888 233.389 681.936C232.828 681.985 232.417 682.256 232.154 682.75C231.891 683.236 231.795 683.887 231.866 684.704C231.937 685.506 232.136 686.128 232.465 686.569C232.793 687.003 233.237 687.196 233.798 687.147ZM232.005 671.494L233.896 671.328L223.747 689.25L221.856 689.415L232.005 671.494ZM257.466 678.465L238.46 680.128L238.334 678.68L257.339 677.017L257.466 678.465ZM255.615 684.744L243.147 685.835L243.321 687.819L256.466 686.669L256.582 688L241.593 689.312L241.193 684.735L253.684 683.642L253.529 681.868L241.014 682.963L240.893 681.585L255.229 680.331L255.615 684.744ZM254.475 672.516L242.217 673.588L242.376 675.409L255.008 674.304L255.124 675.635L240.672 676.899L240.286 672.487L252.52 671.416L252.371 669.712L240.066 670.788L239.95 669.457L254.099 668.219L254.475 672.516ZM281.21 680.528L279.389 680.688L278.061 665.511L279.882 665.352L281.21 680.528ZM282.311 685.585L268.255 686.814L267.673 680.16L269.494 680.001L269.942 685.114L282.176 684.044L282.311 685.585ZM268.802 667.78C269.829 667.69 270.774 667.827 271.637 668.191C272.508 668.546 273.21 669.092 273.745 669.83C274.287 670.559 274.601 671.413 274.687 672.394C274.774 673.39 274.615 674.298 274.208 675.118C273.808 675.929 273.211 676.589 272.417 677.098C271.629 677.598 270.722 677.893 269.694 677.983C268.667 678.073 267.718 677.941 266.848 677.585C265.985 677.222 265.282 676.675 264.74 675.946C264.205 675.209 263.894 674.342 263.807 673.346C263.721 672.365 263.878 671.469 264.277 670.658C264.684 669.838 265.281 669.178 266.069 668.678C266.863 668.169 267.774 667.87 268.802 667.78ZM268.943 669.391C268.25 669.452 267.636 669.654 267.102 669.999C266.575 670.343 266.175 670.794 265.903 671.351C265.638 671.908 265.538 672.52 265.605 673.189C265.656 673.867 265.861 674.46 266.219 674.97C266.585 675.471 267.057 675.846 267.635 676.093C268.221 676.34 268.861 676.433 269.553 676.372C270.231 676.313 270.832 676.111 271.359 675.767C271.894 675.423 272.297 674.972 272.57 674.414C272.842 673.85 272.949 673.229 272.889 672.551C272.831 671.89 272.62 671.308 272.254 670.807C271.889 670.306 271.413 669.932 270.827 669.685C270.248 669.43 269.62 669.332 268.943 669.391ZM302.598 674.822L283.685 676.477L283.553 674.959L302.465 673.305L302.598 674.822ZM293.301 677.471C294.78 677.341 296.065 677.378 297.157 677.58C298.257 677.782 299.116 678.142 299.734 678.661C300.351 679.171 300.698 679.819 300.774 680.605C300.836 681.399 300.607 682.102 300.088 682.712C299.569 683.322 298.789 683.817 297.748 684.199C296.707 684.58 295.443 684.836 293.956 684.966C292.462 685.096 291.165 685.065 290.066 684.871C288.967 684.677 288.109 684.324 287.492 683.814C286.874 683.303 286.531 682.651 286.462 681.857C286.393 681.071 286.618 680.373 287.137 679.763C287.663 679.144 288.451 678.64 289.499 678.25C290.547 677.861 291.814 677.601 293.301 677.471ZM293.427 678.918C291.748 679.081 290.458 679.402 289.559 679.88C288.668 680.358 288.258 680.963 288.33 681.694C288.385 682.418 288.893 682.938 289.854 683.254C290.822 683.562 292.147 683.642 293.828 683.495C294.925 683.399 295.863 683.226 296.641 682.978C297.42 682.737 298.005 682.427 298.395 682.048C298.793 681.668 298.971 681.241 298.93 680.766C298.866 680.035 298.349 679.511 297.381 679.196C296.412 678.881 295.094 678.788 293.427 678.918ZM300.146 666.167L293.562 666.743C293.652 667.496 294.059 668.166 294.785 668.754C295.519 669.34 296.453 669.804 297.589 670.143C298.723 670.476 299.92 670.657 301.177 670.688L300.629 672.218C299.464 672.171 298.347 672.002 297.279 671.712C296.21 671.421 295.261 671.014 294.431 670.49C293.601 669.967 292.967 669.348 292.528 668.634C292.227 669.413 291.714 670.132 290.987 670.792C290.268 671.45 289.404 672.016 288.395 672.489C287.393 672.961 286.319 673.321 285.172 673.571L284.39 672.157C285.607 671.909 286.742 671.524 287.794 671C288.845 670.469 289.681 669.851 290.302 669.146C290.923 668.441 291.215 667.709 291.181 666.952L284.643 667.523L284.51 666.006L300.014 664.649L300.146 666.167ZM319.301 666.938L322.429 666.664L322.564 668.205L319.436 668.479L319.924 674.059L318.103 674.219L317.04 662.078L318.862 661.918L319.301 666.938ZM305.702 667.469L311.749 666.94L311.471 663.765L313.292 663.605L314.136 673.248L304.47 674.094L303.626 664.451L305.424 664.294L305.702 667.469ZM312.186 671.937L311.877 668.411L305.83 668.94L306.139 672.466L312.186 671.937ZM320.318 676.683L308.947 677.678L309.315 681.881L321.083 680.851L321.213 682.346L307.625 683.535L306.998 676.367L320.189 675.212L320.318 676.683ZM328.278 662.718C329.299 662.636 330.228 662.861 331.066 663.391C331.912 663.913 332.604 664.7 333.143 665.751C333.69 666.801 334.031 668.049 334.165 669.496C334.284 670.944 334.165 672.233 333.809 673.362C333.461 674.491 332.916 675.385 332.174 676.046C331.431 676.707 330.555 677.082 329.543 677.17C328.523 677.26 327.591 677.043 326.745 676.521C325.9 675.999 325.207 675.213 324.668 674.162C324.137 673.11 323.808 671.861 323.682 670.413C323.555 668.966 323.662 667.678 324.002 666.55C324.351 665.422 324.896 664.527 325.638 663.866C326.379 663.198 327.26 662.815 328.278 662.718ZM328.421 664.352C327.737 664.42 327.151 664.71 326.662 665.224C326.173 665.729 325.818 666.419 325.597 667.293C325.374 668.16 325.312 669.149 325.409 670.262C325.507 671.375 325.74 672.343 326.11 673.165C326.48 673.98 326.949 674.594 327.518 675.007C328.096 675.419 328.723 675.595 329.4 675.536C330.085 675.476 330.668 675.194 331.149 674.689C331.638 674.183 331.99 673.498 332.204 672.632C332.426 671.758 332.488 670.764 332.391 669.651C332.293 668.538 332.06 667.575 331.691 666.76C331.328 665.937 330.863 665.319 330.293 664.906C329.731 664.485 329.107 664.3 328.421 664.352ZM339.369 668.476L342.848 668.172L342.987 669.759L339.508 670.064L340.46 680.944L338.639 681.103L336.823 660.347L338.644 660.188L339.369 668.476ZM363.115 676.28L344.11 677.943L343.977 676.425L352.522 675.678L352.13 671.195L345.826 671.746L344.897 661.123L346.741 660.961L347.07 664.72L357.857 663.777L357.528 660.018L359.326 659.86L360.255 670.484L353.928 671.037L354.32 675.52L362.982 674.762L363.115 676.28ZM358.327 669.147L357.988 665.271L347.201 666.215L347.54 670.091L358.327 669.147ZM369.153 663.471C369.25 664.576 369.522 665.666 369.969 666.74C370.416 667.815 371.006 668.779 371.739 669.632C372.48 670.485 373.322 671.137 374.263 671.587L373.337 673.104C372.312 672.597 371.397 671.858 370.59 670.885C369.791 669.904 369.143 668.781 368.648 667.514C368.382 668.949 367.92 670.26 367.263 671.447C366.606 672.634 365.795 673.583 364.83 674.295L363.542 673.019C364.429 672.393 365.181 671.578 365.799 670.575C366.416 669.564 366.861 668.463 367.133 667.271C367.404 666.07 367.488 664.879 367.385 663.696L367.034 659.68L368.808 659.525L369.153 663.471ZM382.08 677.303L380.305 677.458L378.489 656.701L380.264 656.546L382.08 677.303ZM377.692 676.628L375.964 676.779L375.029 666.086L371.503 666.394L371.366 664.83L374.892 664.521L374.279 657.517L376.007 657.366L377.692 676.628ZM403.007 672.79L384.002 674.453L383.867 672.912L388.583 672.499L388.093 666.895C387.149 666.507 386.396 665.97 385.834 665.282C385.272 664.586 384.95 663.775 384.869 662.849C384.776 661.79 385.018 660.832 385.593 659.974C386.169 659.108 387.009 658.403 388.114 657.859C389.227 657.315 390.519 656.974 391.989 656.838C393.461 656.717 394.788 656.828 395.971 657.172C397.161 657.515 398.115 658.063 398.832 658.815C399.548 659.561 399.952 660.462 400.045 661.521C400.125 662.431 399.955 663.274 399.537 664.047C399.117 664.813 398.492 665.468 397.662 666.011L398.156 671.662L402.872 671.249L403.007 672.79ZM392.122 658.356C390.993 658.447 390.002 658.69 389.151 659.086C388.299 659.482 387.65 659.994 387.203 660.621C386.763 661.24 386.576 661.931 386.643 662.693C386.71 663.456 387.014 664.112 387.556 664.66C388.105 665.2 388.834 665.595 389.742 665.845C390.649 666.088 391.667 666.159 392.796 666.061C393.917 665.962 394.902 665.712 395.753 665.308C396.604 664.904 397.253 664.388 397.7 663.761C398.147 663.134 398.337 662.439 398.271 661.676C398.204 660.913 397.896 660.266 397.348 659.733C396.799 659.193 396.07 658.802 395.163 658.56C394.256 658.318 393.242 658.25 392.122 658.356ZM396.311 671.823L395.879 666.885C394.974 667.207 393.989 667.415 392.923 667.508C391.848 667.602 390.858 667.571 389.95 667.415L390.381 672.342L396.311 671.823ZM406.797 668.435L404.836 668.607L403.61 656.48L405.898 656.28L406.797 668.435ZM406.245 673.424C405.973 673.448 405.714 673.404 405.469 673.292C405.231 673.172 405.032 673.001 404.871 672.78C404.719 672.558 404.634 672.31 404.618 672.037C404.587 671.773 404.628 671.523 404.741 671.285C404.86 671.04 405.027 670.841 405.241 670.689C405.463 670.528 405.709 670.436 405.982 670.412C406.246 670.389 406.498 670.438 406.736 670.558C406.981 670.67 407.18 670.837 407.332 671.059C407.492 671.272 407.584 671.511 407.607 671.776C407.631 672.048 407.583 672.307 407.463 672.553C407.351 672.798 407.185 673.001 406.963 673.161C406.749 673.313 406.51 673.401 406.245 673.424Z" fill="#222222"/>
</g>
<defs>
<filter id="filter0_d_418_4153" x="0" y="0.249512" width="662.688" height="744.501" filterUnits="userSpaceOnUse" color-interpolation-filters="sRGB">
<feFlood flood-opacity="0" result="BackgroundImageFix"/>
<feColorMatrix in="SourceAlpha" type="matrix" values="0 0 0 0 0 0 0 0 0 0 0 0 0 0 0 0 0 0 127 0" result="hardAlpha"/>
<feOffset dx="4" dy="4"/>
<feGaussianBlur stdDeviation="5"/>
<feComposite in2="hardAlpha" operator="out"/>
<feColorMatrix type="matrix" values="0 0 0 0 0.407843 0 0 0 0 0.25098 0 0 0 0 0.992157 0 0 0 0.2 0"/>
<feBlend mode="normal" in2="BackgroundImageFix" result="effect1_dropShadow_418_4153"/>
<feBlend mode="normal" in="SourceGraphic" in2="effect1_dropShadow_418_4153" result="shape"/>
</filter>
<clipPath id="clip0_418_4153">
<rect width="14" height="17" fill="white" transform="translate(89.9722 684.39) rotate(-5)"/>
</clipPath>
</defs>
</svg>
