<svg width="360" height="360" viewBox="0 0 360 360" fill="none" xmlns="http://www.w3.org/2000/svg">
<rect x="180" y="100" width="180" height="260" fill="#D9D9D9"/>
<rect x="170" y="85" width="180" height="260" fill="#FAFAFA"/>
<path d="M204.932 200.656C204.924 201.961 205.108 203.227 205.483 204.453C205.858 205.672 206.424 206.766 207.182 207.734C207.94 208.703 208.87 209.453 209.971 209.984L208.167 212.375C207.057 211.82 206.108 211.047 205.319 210.055C204.53 209.055 203.909 207.891 203.456 206.562C202.971 207.992 202.311 209.242 201.475 210.312C200.639 211.375 199.635 212.195 198.463 212.773L196.612 210.359C197.776 209.828 198.756 209.059 199.553 208.051C200.35 207.035 200.944 205.891 201.335 204.617C201.733 203.336 201.932 202.016 201.932 200.656V197.469H204.932V200.656ZM210.909 195.828H213.909V204.055H217.049V206.586H213.909V217.156H210.909V195.828ZM223.296 196.742C224.187 196.734 225.011 196.891 225.769 197.211C226.534 197.531 227.175 197.98 227.69 198.559C228.214 199.137 228.573 199.805 228.769 200.562H232.343V195.828H235.319V207.289H232.343V202.953H228.78C228.601 203.727 228.249 204.414 227.726 205.016C227.21 205.609 226.569 206.07 225.804 206.398C225.038 206.727 224.202 206.891 223.296 206.891C222.218 206.891 221.245 206.672 220.378 206.234C219.511 205.797 218.831 205.191 218.339 204.418C217.855 203.637 217.616 202.758 217.624 201.781C217.616 200.82 217.855 199.957 218.339 199.191C218.831 198.418 219.511 197.816 220.378 197.387C221.245 196.949 222.218 196.734 223.296 196.742ZM220.46 201.781C220.46 202.305 220.577 202.766 220.812 203.164C221.054 203.555 221.39 203.855 221.819 204.066C222.249 204.277 222.741 204.383 223.296 204.383C223.835 204.383 224.315 204.277 224.737 204.066C225.159 203.848 225.487 203.543 225.722 203.152C225.964 202.762 226.085 202.305 226.085 201.781C226.085 201.258 225.964 200.805 225.722 200.422C225.487 200.031 225.159 199.734 224.737 199.531C224.315 199.328 223.835 199.227 223.296 199.227C222.741 199.227 222.249 199.328 221.819 199.531C221.39 199.734 221.054 200.031 220.812 200.422C220.577 200.805 220.46 201.258 220.46 201.781ZM221.093 208.227H224.046V210.289H232.343V208.227H235.319V216.922H221.093V208.227ZM232.343 214.508V212.586H224.046V214.508H232.343ZM245.48 201.641C245.472 202.758 245.667 203.879 246.066 205.004C246.464 206.129 247.054 207.156 247.835 208.086C248.625 209.016 249.582 209.742 250.707 210.266L249.042 212.609C247.894 212.078 246.894 211.309 246.042 210.301C245.191 209.285 244.515 208.113 244.015 206.785C243.523 208.238 242.835 209.523 241.953 210.641C241.078 211.75 240.042 212.586 238.847 213.148L237.113 210.781C238.253 210.25 239.226 209.496 240.031 208.52C240.835 207.543 241.441 206.457 241.847 205.262C242.261 204.059 242.472 202.852 242.48 201.641V200.328H237.957V197.891H249.769V200.328H245.48V201.641ZM251.433 195.828H254.433V203.961H257.574V206.469H254.433V217.156H251.433V195.828ZM282.418 208.016H262.918V205.578H282.418V208.016ZM265.145 213.219C265.145 212.391 265.442 211.684 266.036 211.098C266.637 210.512 267.497 210.066 268.614 209.762C269.731 209.457 271.067 209.305 272.622 209.305C274.161 209.305 275.485 209.457 276.594 209.762C277.704 210.059 278.555 210.504 279.149 211.098C279.743 211.684 280.043 212.391 280.051 213.219C280.043 214.055 279.743 214.766 279.149 215.352C278.555 215.945 277.704 216.395 276.594 216.699C275.485 217.004 274.161 217.156 272.622 217.156C271.075 217.156 269.739 217.004 268.614 216.699C267.497 216.395 266.637 215.945 266.036 215.352C265.442 214.766 265.145 214.055 265.145 213.219ZM265.286 196.391H280.075V198.805H268.262V201.711H280.192V204.078H265.286V196.391ZM268.192 213.219C268.184 214.328 269.661 214.883 272.622 214.883C275.567 214.883 277.043 214.328 277.051 213.219C277.043 212.68 276.665 212.273 275.915 212C275.165 211.719 274.067 211.578 272.622 211.578C271.145 211.578 270.036 211.719 269.293 212C268.551 212.273 268.184 212.68 268.192 213.219ZM302.681 209.656L283.157 209.656V207.266L291.431 207.266V205.719L285.595 205.719V199.859L297.313 199.859V198.547L285.548 198.547V196.227L300.313 196.227V202.016L288.571 202.016V203.422L300.712 203.422V205.719H294.407V207.266H302.681V209.656ZM285.337 210.875L300.431 210.875V217.063H297.407V213.219L285.337 213.219V210.875ZM322.896 208.063H303.443V205.648H322.896V208.063ZM304.31 202.531C305.591 202.414 306.705 202.191 307.65 201.863C308.603 201.535 309.357 201.141 309.912 200.68C310.466 200.219 310.83 199.727 311.001 199.203H305.224V196.813H321.138V199.203H315.314C315.478 199.719 315.837 200.207 316.392 200.668C316.955 201.129 317.712 201.527 318.665 201.863C319.626 202.191 320.763 202.414 322.076 202.531L321.021 204.875C319.052 204.688 317.392 204.246 316.04 203.551C314.697 202.848 313.732 201.965 313.146 200.902C312.568 201.965 311.607 202.848 310.263 203.551C308.927 204.246 307.271 204.688 305.294 204.875L304.31 202.531ZM305.669 213.219C305.669 212.391 305.966 211.68 306.56 211.086C307.162 210.492 308.021 210.039 309.138 209.727C310.263 209.414 311.599 209.258 313.146 209.258C314.685 209.258 316.009 209.414 317.119 209.727C318.228 210.039 319.08 210.492 319.673 211.086C320.267 211.68 320.568 212.391 320.576 213.219C320.568 214.055 320.267 214.766 319.673 215.352C319.08 215.945 318.228 216.395 317.119 216.699C316.009 217.004 314.685 217.156 313.146 217.156C311.599 217.156 310.263 217.004 309.138 216.699C308.021 216.395 307.162 215.945 306.56 215.352C305.966 214.766 305.669 214.055 305.669 213.219ZM308.716 213.219C308.708 213.766 309.072 214.172 309.806 214.438C310.548 214.703 311.662 214.836 313.146 214.836C316.091 214.836 317.568 214.297 317.576 213.219C317.568 212.125 316.091 211.578 313.146 211.578C311.662 211.578 310.548 211.715 309.806 211.988C309.072 212.254 308.708 212.664 308.716 213.219ZM209.713 245.531C209.721 241.422 210.924 237.68 213.323 234.305H216.627C216.073 235.109 215.542 236.133 215.034 237.375C214.526 238.609 214.112 239.945 213.792 241.383C213.479 242.812 213.323 244.195 213.323 245.531C213.323 246.867 213.479 248.254 213.792 249.691C214.112 251.121 214.526 252.457 215.034 253.699C215.542 254.941 216.073 255.969 216.627 256.781H213.323C212.159 255.141 211.268 253.391 210.651 251.531C210.034 249.672 209.721 247.672 209.713 245.531ZM223.296 233.742C224.187 233.734 225.011 233.891 225.769 234.211C226.534 234.531 227.175 234.98 227.69 235.559C228.214 236.137 228.573 236.805 228.769 237.562H232.343V232.828H235.319V244.289H232.343V239.953H228.78C228.601 240.727 228.249 241.414 227.726 242.016C227.21 242.609 226.569 243.07 225.804 243.398C225.038 243.727 224.202 243.891 223.296 243.891C222.218 243.891 221.245 243.672 220.378 243.234C219.511 242.797 218.831 242.191 218.339 241.418C217.855 240.637 217.616 239.758 217.624 238.781C217.616 237.82 217.855 236.957 218.339 236.191C218.831 235.418 219.511 234.816 220.378 234.387C221.245 233.949 222.218 233.734 223.296 233.742ZM220.46 238.781C220.46 239.305 220.577 239.766 220.812 240.164C221.054 240.555 221.39 240.855 221.819 241.066C222.249 241.277 222.741 241.383 223.296 241.383C223.835 241.383 224.315 241.277 224.737 241.066C225.159 240.848 225.487 240.543 225.722 240.152C225.964 239.762 226.085 239.305 226.085 238.781C226.085 238.258 225.964 237.805 225.722 237.422C225.487 237.031 225.159 236.734 224.737 236.531C224.315 236.328 223.835 236.227 223.296 236.227C222.741 236.227 222.249 236.328 221.819 236.531C221.39 236.734 221.054 237.031 220.812 237.422C220.577 237.805 220.46 238.258 220.46 238.781ZM221.093 245.227H224.046V247.289H232.343V245.227H235.319V253.922H221.093V245.227ZM232.343 251.508V249.586H224.046V251.508H232.343ZM244.261 239.32C244.261 241.07 244.601 242.668 245.281 244.113C245.96 245.551 247.019 246.656 248.457 247.43L246.816 249.609C245.886 249.133 245.093 248.488 244.437 247.676C243.781 246.855 243.257 245.906 242.867 244.828C242.484 246.008 241.964 247.051 241.308 247.957C240.652 248.855 239.855 249.578 238.917 250.125L237.207 247.875C238.652 247.039 239.714 245.855 240.394 244.324C241.082 242.793 241.433 241.125 241.449 239.32V238.828H238.003V236.438H241.449V233.555H244.238V236.438H247.613V238.828H244.261V239.32ZM246.371 240.914H248.878V233.18H251.691V253.172H248.878V243.352H246.371V240.914ZM253.214 232.828H256.05V254.156H253.214V232.828ZM274.098 243H282.372V245.391H262.918V243H271.145V240.375H274.098V243ZM263.926 239.32C265.442 239.125 266.739 238.754 267.817 238.207C268.895 237.66 269.708 237.008 270.254 236.25C270.809 235.492 271.09 234.703 271.098 233.883V233.18H274.145V233.883C274.137 234.734 274.403 235.539 274.942 236.297C275.489 237.047 276.301 237.691 277.379 238.23C278.465 238.762 279.786 239.125 281.34 239.32L280.192 241.641C278.403 241.375 276.856 240.883 275.551 240.164C274.254 239.438 273.266 238.535 272.586 237.457C271.899 238.535 270.903 239.438 269.598 240.164C268.293 240.891 266.754 241.383 264.981 241.641L263.926 239.32ZM265.145 250.383C265.145 249.578 265.442 248.891 266.036 248.32C266.629 247.75 267.485 247.316 268.602 247.02C269.727 246.715 271.067 246.562 272.622 246.562C274.161 246.562 275.485 246.715 276.594 247.02C277.711 247.316 278.563 247.75 279.149 248.32C279.743 248.891 280.043 249.578 280.051 250.383C280.043 251.188 279.743 251.871 279.149 252.434C278.563 253.004 277.715 253.434 276.606 253.723C275.497 254.012 274.168 254.156 272.622 254.156C271.067 254.156 269.727 254.012 268.602 253.723C267.485 253.434 266.629 253.004 266.036 252.434C265.442 251.871 265.145 251.188 265.145 250.383ZM268.192 250.383C268.184 250.906 268.547 251.297 269.282 251.555C270.016 251.805 271.129 251.93 272.622 251.93C275.567 251.93 277.043 251.414 277.051 250.383C277.043 249.859 276.672 249.473 275.938 249.223C275.204 248.973 274.098 248.844 272.622 248.836C271.114 248.844 269.997 248.973 269.27 249.223C268.543 249.465 268.184 249.852 268.192 250.383ZM302.681 247.477H294.337V254.156H291.384V247.477H283.157V245.133H302.681V247.477ZM285.454 233.648H288.407V236.109H297.36V233.648H300.36V243.07H285.454V233.648ZM297.36 240.68V238.453H288.407V240.68H297.36ZM310.287 245.531C310.279 247.672 309.966 249.672 309.349 251.531C308.732 253.391 307.841 255.141 306.677 256.781H303.372C303.927 255.969 304.458 254.941 304.966 253.699C305.474 252.457 305.884 251.121 306.197 249.691C306.517 248.254 306.677 246.867 306.677 245.531C306.677 244.195 306.517 242.813 306.197 241.383C305.884 239.945 305.474 238.609 304.966 237.375C304.458 236.133 303.927 235.109 303.372 234.305L306.677 234.305C309.076 237.68 310.279 241.422 310.287 245.531Z" fill="#222222"/>
</svg>
