<svg width="101" height="124" viewBox="0 0 101 124" fill="none" xmlns="http://www.w3.org/2000/svg">
<g filter="url(#filter0_d_153_30626)">
<g clip-path="url(#clip0_153_30626)">
<path d="M25.0325 38.5894C25.0325 53.8371 24.3701 69.2354 24.3701 84.2933H32.8933V44.3355C32.8933 28.4795 41.7807 21.2215 50.4905 21.1191C59.3118 21.0167 68.419 28.2777 68.419 44.3355V84.2933H77.9597C77.9597 69.2354 77.2974 53.8401 77.2974 38.5894C77.3004 19.7579 64.1107 11.6597 50.8067 12.0121C37.9873 12.3493 25.0325 20.4475 25.0325 38.5894Z" fill="url(#paint0_linear_153_30626)"/>
<path d="M25.0325 38.5894C25.0325 53.8371 24.3701 69.2354 24.3701 84.2933H32.8933V44.3355C32.8933 28.4795 41.7807 21.2215 50.4905 21.1191C59.3118 21.0167 68.419 28.2777 68.419 44.3355V84.2933H77.9597C77.9597 69.2354 77.2974 53.8401 77.2974 38.5894C77.3004 19.7579 64.1107 11.6597 50.8067 12.0121C37.9873 12.3493 25.0325 20.4475 25.0325 38.5894Z" fill="white" fill-opacity="0.3"/>
<path d="M23.485 51.7681H77.8333C83.9389 51.7681 88.8944 56.7252 88.8944 62.8327V100.935C88.8944 107.043 83.9389 112 77.8333 112H23.485C17.3794 112 12.4238 107.043 12.4238 100.935V62.8327C12.4238 56.7252 17.3794 51.7681 23.485 51.7681Z" fill="white"/>
<path d="M23.485 52.2681H77.8333C83.6626 52.2681 88.3944 57.0012 88.3944 62.8327V100.935C88.3944 106.767 83.6626 111.5 77.8333 111.5H23.485C17.6557 111.5 12.9238 106.767 12.9238 100.935V62.8327C12.9238 57.0012 17.6557 52.2681 23.485 52.2681Z" stroke="#6840FD" stroke-opacity="0.5"/>
<path d="M57.8485 76.5656C57.8485 72.7951 54.8258 69.7383 51.0564 69.7383C47.2871 69.7383 44.1831 72.7951 44.1831 76.5656C44.1831 79.2519 45.839 81.5709 47.9464 82.6851V94.6352C47.9464 96.2976 49.2952 97.6467 50.9571 97.6467C52.619 97.6467 53.9677 96.2976 53.9677 94.6352V82.6851C56.3763 81.5709 57.8454 79.2549 57.8454 76.5656H57.8485Z" fill="url(#paint1_linear_153_30626)"/>
<path d="M57.8485 76.5656C57.8485 72.7951 54.8258 69.7383 51.0564 69.7383C47.2871 69.7383 44.1831 72.7951 44.1831 76.5656C44.1831 79.2519 45.839 81.5709 47.9464 82.6851V94.6352C47.9464 96.2976 49.2952 97.6467 50.9571 97.6467C52.619 97.6467 53.9677 96.2976 53.9677 94.6352V82.6851C56.3763 81.5709 57.8454 79.2549 57.8454 76.5656H57.8485Z" fill="white" fill-opacity="0.3"/>
</g>
</g>
<defs>
<filter id="filter0_d_153_30626" x="0.423828" y="0" width="100.471" height="124" filterUnits="userSpaceOnUse" color-interpolation-filters="sRGB">
<feFlood flood-opacity="0" result="BackgroundImageFix"/>
<feColorMatrix in="SourceAlpha" type="matrix" values="0 0 0 0 0 0 0 0 0 0 0 0 0 0 0 0 0 0 127 0" result="hardAlpha"/>
<feOffset/>
<feGaussianBlur stdDeviation="6"/>
<feComposite in2="hardAlpha" operator="out"/>
<feColorMatrix type="matrix" values="0 0 0 0 0 0 0 0 0 0 0 0 0 0 0 0 0 0 0.08 0"/>
<feBlend mode="normal" in2="BackgroundImageFix" result="effect1_dropShadow_153_30626"/>
<feBlend mode="normal" in="SourceGraphic" in2="effect1_dropShadow_153_30626" result="shape"/>
</filter>
<linearGradient id="paint0_linear_153_30626" x1="70.3805" y1="12.001" x2="19.2735" y2="22.1335" gradientUnits="userSpaceOnUse">
<stop stop-color="#4144FD"/>
<stop offset="1" stop-color="#7F40FF"/>
</linearGradient>
<linearGradient id="paint1_linear_153_30626" x1="55.9158" y1="69.7383" x2="42.5996" y2="71.4821" gradientUnits="userSpaceOnUse">
<stop stop-color="#4144FD"/>
<stop offset="1" stop-color="#7F40FF"/>
</linearGradient>
<clipPath id="clip0_153_30626">
<rect x="12.4238" y="12" width="76.4706" height="100" rx="12" fill="white"/>
</clipPath>
</defs>
</svg>
