<svg width="360" height="360" viewBox="0 0 360 360" fill="none" xmlns="http://www.w3.org/2000/svg">
<g clip-path="url(#clip0_668_3036)">
<path d="M296.755 123.189H204.29C201.151 123.189 198.606 125.766 198.606 128.945V154.064C198.606 157.243 201.151 159.821 204.29 159.821H296.755C299.894 159.821 302.439 157.243 302.439 154.064V128.945C302.439 125.766 299.894 123.189 296.755 123.189Z" fill="white"/>
<path d="M231.516 143.987C232.932 137.94 229.239 131.875 223.267 130.441C217.296 129.007 211.307 132.747 209.891 138.795C208.475 144.842 212.168 150.907 218.14 152.341C224.111 153.775 230.1 150.035 231.516 143.987Z" fill="#EDD6CC"/>
<path d="M220.697 142.17C222.707 142.17 224.336 140.521 224.336 138.485C224.336 136.45 222.707 134.8 220.697 134.8C218.687 134.8 217.058 136.45 217.058 138.485C217.058 140.521 218.687 142.17 220.697 142.17Z" fill="white"/>
<path d="M226.357 150.885C226.357 154.853 223.826 158.083 220.71 158.083C217.594 158.083 215.062 154.866 215.062 150.885C215.062 146.903 217.594 143.687 220.71 143.687C223.826 143.687 226.357 146.903 226.357 150.885Z" fill="white"/>
<path d="M242.095 132.372V151.834" stroke="#6742FE" stroke-opacity="0.6" stroke-width="1.21712" stroke-miterlimit="10"/>
<path d="M272.059 139.286H253.157C252.037 139.286 251.137 138.362 251.137 137.24C251.137 136.106 252.05 135.194 253.157 135.194H272.059C273.179 135.194 274.079 136.119 274.079 137.24C274.079 138.374 273.167 139.286 272.059 139.286Z" fill="#6742FE" fill-opacity="0.6"/>
<path d="M253.072 143.366H284.024" stroke="#132148" stroke-width="1.21712" stroke-miterlimit="10" stroke-linecap="round"/>
<path d="M253.072 147.84H284.024" stroke="#132148" stroke-width="1.21712" stroke-miterlimit="10" stroke-linecap="round"/>
<path d="M348.057 79.3838H255.592C252.453 79.3838 249.908 81.9609 249.908 85.1398V110.259C249.908 113.438 252.453 116.015 255.592 116.015H348.057C351.196 116.015 353.741 113.438 353.741 110.259V85.1398C353.741 81.9609 351.196 79.3838 348.057 79.3838Z" fill="#E8E7FF"/>
<path d="M282.827 100.133C284.232 94.0833 280.527 88.0257 274.553 86.6033C268.579 85.1809 262.597 88.9324 261.193 94.9825C259.788 101.032 263.493 107.09 269.467 108.512C275.441 109.935 281.423 106.183 282.827 100.133Z" fill="#6840FD"/>
<path d="M272.011 98.3653C274.021 98.3653 275.65 96.7153 275.65 94.68C275.65 92.6446 274.021 90.9946 272.011 90.9946C270.001 90.9946 268.372 92.6446 268.372 94.68C268.372 96.7153 270.001 98.3653 272.011 98.3653Z" fill="#E8E7FF"/>
<path d="M277.658 107.079C277.658 111.048 275.127 114.278 272.011 114.278C268.895 114.278 266.363 111.061 266.363 107.079C266.363 103.098 268.895 99.8813 272.011 99.8813C275.127 99.8813 277.658 103.098 277.658 107.079Z" fill="#E8E7FF"/>
<path d="M293.408 88.5547V108.017" stroke="#6742FE" stroke-opacity="0.6" stroke-width="1.21712" stroke-miterlimit="10"/>
<path d="M323.374 91.3643H304.46C303.344 91.3643 302.439 92.2803 302.439 93.4103V93.4226C302.439 94.5526 303.344 95.4687 304.46 95.4687H323.374C324.49 95.4687 325.394 94.5526 325.394 93.4226V93.4103C325.394 92.2803 324.49 91.3643 323.374 91.3643Z" fill="#6742FE" fill-opacity="0.6"/>
<path d="M304.374 99.5488H335.325" stroke="#132148" stroke-width="1.21712" stroke-miterlimit="10" stroke-linecap="round"/>
<path d="M304.374 104.035H335.325" stroke="#132148" stroke-width="1.21712" stroke-miterlimit="10" stroke-linecap="round"/>
<mask id="mask0_668_3036" style="mask-type:luminance" maskUnits="userSpaceOnUse" x="147" y="108" width="83" height="94">
<path d="M201.75 200.303C223.27 193.872 234.828 168.452 227.565 143.524C220.301 118.597 196.967 103.602 175.447 110.033C153.926 116.464 142.369 141.884 149.632 166.812C156.895 191.739 180.229 206.734 201.75 200.303Z" fill="white"/>
</mask>
<g mask="url(#mask0_668_3036)">
<path d="M232.272 110.396H139.455V204.391H232.272V110.396Z" fill="#EBEBEB"/>
<path d="M290.902 118.692H175.665C171.76 118.692 168.594 121.898 168.594 125.853V157.185C168.594 161.14 171.76 164.346 175.665 164.346H290.902C294.807 164.346 297.973 161.14 297.973 157.185V125.853C297.973 121.898 294.807 118.692 290.902 118.692Z" fill="white"/>
<path d="M205.535 151.627C211.148 146.373 211.492 137.506 206.304 131.823C201.116 126.139 192.36 125.791 186.748 131.045C181.136 136.299 180.792 145.165 185.98 150.849C191.168 156.532 199.923 156.88 205.535 151.627Z" fill="#E8E7FF"/>
<path d="M200.664 137.746C200.664 140.285 198.631 142.331 196.136 142.331C193.641 142.331 191.608 140.273 191.608 137.746C191.608 135.22 193.641 133.161 196.136 133.161C198.631 133.161 200.664 135.22 200.664 137.746Z" fill="white"/>
<path d="M203.172 153.202C203.172 158.157 200.02 162.163 196.125 162.163C192.23 162.163 189.09 158.145 189.09 153.202C189.09 148.26 192.242 144.242 196.125 144.242C200.007 144.242 203.172 148.26 203.172 153.202Z" fill="white"/>
<path d="M222.791 130.117V154.373" stroke="#E8E7FF" stroke-width="1.21712" stroke-miterlimit="10"/>
</g>
<path d="M172.56 339.343C207.111 339.343 235.12 310.979 235.12 275.99C235.12 241.001 207.111 212.636 172.56 212.636C138.009 212.636 110 241.001 110 275.99C110 310.979 138.009 339.343 172.56 339.343Z" fill="#AFA6FF"/>
<path d="M238.284 253.372C238.284 253.372 309.315 308.393 293.408 341.499C277.5 374.606 210.644 326.253 210.644 326.253L194.748 284.9L247.924 306.593L221.196 272.55L238.297 253.372H238.284Z" fill="#EDD6CC"/>
<path d="M162.786 258.831L153.159 278.17L128.89 266.276L142.424 245.742L162.786 258.831Z" fill="#EDD6CC"/>
<path d="M162.871 258.758L147.548 253.619L158.624 267.214L162.871 258.758Z" fill="#685F52"/>
<path d="M191.125 240.397C196.764 225.155 189.135 208.17 174.084 202.46C159.034 196.749 142.262 204.475 136.623 219.717C130.984 234.958 138.613 251.943 153.663 257.653C168.714 263.364 185.486 255.638 191.125 240.397Z" fill="#EDD6CC"/>
<path d="M164.904 202.492C164.904 202.492 161.374 203.417 157.431 212.045C154.473 218.503 150.87 233.158 134.853 227.92C134.853 227.92 133.867 199.633 161.398 198.154C188.93 196.675 191.498 220.401 191.498 220.401C191.498 220.401 183.708 203.737 164.916 202.48L164.904 202.492Z" fill="#553222"/>
<path d="M163.321 219.982L163.735 222.989" stroke="#685F52" stroke-width="1.21712" stroke-linecap="round" stroke-linejoin="round"/>
<path d="M176.783 218.465L177.197 221.485" stroke="#685F52" stroke-width="1.21712" stroke-linecap="round" stroke-linejoin="round"/>
<path d="M171.16 215.002C171.16 215.002 171.258 225.097 175.81 224.777L171.963 231.161" stroke="#685F52" stroke-width="1.21712" stroke-linecap="round" stroke-linejoin="round"/>
<path d="M176.991 234.032C176.991 234.032 175.798 241.021 165.659 233.108" stroke="#685F52" stroke-width="1.21712" stroke-linecap="round" stroke-linejoin="round"/>
<path d="M213.431 246.236C213.431 246.236 209.67 243.918 205.13 251.153C200.603 258.389 210.972 279.293 226.831 279.749C242.69 280.205 213.419 246.236 213.419 246.236H213.431Z" fill="#EDD6CC"/>
<path d="M201.749 200.303C223.269 193.872 234.827 168.451 227.564 143.524C220.3 118.596 196.966 103.602 175.446 110.032C153.925 116.463 142.368 141.884 149.631 166.811C156.894 191.739 180.228 206.733 201.749 200.303Z" stroke="#6840FD" stroke-width="9.73694" stroke-miterlimit="10"/>
<path d="M202.258 202.023L209.013 225.195" stroke="#6840FD" stroke-width="9.73694" stroke-miterlimit="10"/>
<path d="M219.106 282.867L231.48 279.17L214.461 220.759L202.087 224.457L219.106 282.867Z" fill="#3D33A4"/>
<path d="M234.462 241.44C234.462 241.44 228.535 227.291 215.427 225.343C202.33 223.396 194.65 231.42 194.65 231.42C194.65 231.42 200.821 234.97 215.061 234.834L225.091 242.673L234.462 241.44Z" fill="#EDD6CC"/>
<path d="M237.676 246.839C237.676 246.839 234.828 229.978 218.263 235.758C206.08 240.011 213.066 249.649 213.066 249.649C213.066 249.649 209.743 255.245 216.498 259.522C216.498 259.522 213.808 270.122 225.809 267.706L230.154 279.046C237.031 277.049 247.109 264.464 237.676 246.839Z" fill="#EDD6CC"/>
<path d="M225.797 267.706L223.533 268.261" stroke="#685F52" stroke-width="1.21712" stroke-linecap="round" stroke-linejoin="round"/>
<path d="M216.486 259.521C216.486 259.521 224.434 252.163 237.762 256.613" stroke="#685F52" stroke-width="1.21712" stroke-linecap="round" stroke-linejoin="round"/>
<path d="M213.065 249.638C213.065 249.638 222.291 240.776 234.389 246.199" stroke="#685F52" stroke-width="1.21712" stroke-linecap="round" stroke-linejoin="round"/>
<path d="M110 275.989C110 272.218 110.329 268.508 110.949 264.921L128.877 266.289L155.691 273.068C155.691 273.068 189.271 261.692 247.899 306.606C247.899 306.606 263.905 346.787 295.72 326.265C295.72 326.265 301.331 345.961 288.454 357.757C275.589 369.553 203.426 331.097 203.426 331.097C194.322 336.347 183.782 339.343 172.548 339.343C138.006 339.343 110 310.982 110 275.989Z" fill="white"/>
<path d="M160.583 272.119L128.889 266.277L118.386 265.476C118.386 265.476 148.388 288.549 160.595 272.119H160.583Z" fill="#EDD6CC"/>
<path d="M116.22 84.3339C132.712 80.0816 134.769 62 134.769 62C134.769 62 136.826 80.0816 153.317 84.3339C136.826 88.5862 134.769 106.668 134.769 106.668C134.769 106.668 132.712 88.5862 116.22 84.3339Z" fill="#F4F5F7"/>
</g>
<path d="M56 260.5C68.8921 257.168 70.5 243 70.5 243C70.5 243 72.1079 257.168 85 260.5C72.1079 263.832 70.5 278 70.5 278C70.5 278 68.8921 263.832 56 260.5Z" fill="#F4F5F7"/>
<defs>
<clipPath id="clip0_668_3036">
<rect width="250" height="310" fill="white" transform="translate(110 50)"/>
</clipPath>
</defs>
</svg>
