<svg width="24" height="25" viewBox="0 0 24 25" fill="none" xmlns="http://www.w3.org/2000/svg">
<g filter="url(#filter0_b_6175_69375)">
<g clip-path="url(#clip0_6175_69375)">
<path d="M19.7686 9.42578C18.4545 11.3015 16.8065 13.395 14.9329 15.5261C13.0989 17.6117 11.2771 19.4717 9.62305 20.987C10.6155 21.4446 11.7162 21.7 12.8763 21.7C17.273 21.7 20.8358 18.0364 20.8358 13.5188C20.8358 12.0286 20.447 10.6308 19.7701 9.42735L19.7686 9.42578ZM18.0459 16.1842C17.5474 16.1842 17.1449 15.769 17.1449 15.2581C17.1449 14.7473 17.5489 14.332 18.0459 14.332C18.5429 14.332 18.9469 14.7473 18.9469 15.2581C18.9469 15.769 18.5429 16.1842 18.0459 16.1842Z" fill="url(#paint0_linear_6175_69375)"/>
<path d="M14.3477 14.8799C19.2916 9.25913 22.6577 3.90473 22.4961 2.08546C22.4779 1.87235 22.4108 1.70624 22.2903 1.59499C21.615 0.968192 19.438 2.20611 16.6253 4.63025C16.6558 4.65688 16.6863 4.68196 16.7168 4.7086C18.1041 3.63207 19.1072 3.13847 19.4502 3.45657C19.4593 3.46441 19.467 3.47381 19.4746 3.48321C19.5706 3.59447 19.5965 3.77937 19.5584 4.02852C19.4563 4.69763 18.8922 5.82742 17.9821 7.23771C16.5994 6.04837 14.8203 5.33226 12.8765 5.33226C8.47988 5.33226 4.91712 8.99588 4.91712 13.5135C4.91712 15.8076 5.83487 17.8791 7.31516 19.3646C5.98427 20.485 4.91255 21.187 4.28598 21.3155C4.07408 21.3594 3.91248 21.3375 3.81034 21.2435C3.48867 20.9442 3.80424 19.9726 4.59545 18.5843C4.55429 18.5655 4.51466 18.5451 4.47502 18.5216C2.54043 21.5004 1.63945 23.7287 2.29346 24.3367C2.3895 24.426 2.51756 24.4777 2.67306 24.4918C4.34849 24.6579 9.29702 20.6245 14.3523 14.8768L14.3477 14.8799ZM14.1602 10.5864C14.6572 10.5864 15.0612 11.0016 15.0612 11.5125C15.0612 12.0233 14.6572 12.4386 14.1602 12.4386C13.6632 12.4386 13.2592 12.0233 13.2592 11.5125C13.2592 11.0016 13.6632 10.5864 14.1602 10.5864ZM9.08816 11.2257V10.5221L11.0288 9.44874H11.5746V15.7621L10.1263 17.257V11.1975L9.08816 11.2241V11.2257Z" fill="url(#paint1_linear_6175_69375)"/>
<path d="M13.5046 2.52455C14.5245 2.61543 14.9041 3.13097 14.9879 4.28898C14.991 4.33129 15.0215 4.36576 15.058 4.36576H15.0611C15.0977 4.36576 15.1282 4.33129 15.1312 4.28898C15.212 3.17015 15.6694 2.64991 16.6161 2.53552C16.6527 2.53082 16.6801 2.49634 16.6801 2.45247V2.42896C16.6801 2.38665 16.6527 2.35061 16.6161 2.34591C15.6633 2.22996 15.209 1.70658 15.1297 0.576782C15.1266 0.532907 15.0962 0.5 15.0596 0.5C15.023 0.5 14.9925 0.534474 14.9894 0.576782C14.9086 1.74576 14.5275 2.26443 13.5031 2.35531C13.4665 2.35845 13.4375 2.39449 13.4375 2.43837V2.4415C13.4375 2.48537 13.4665 2.52142 13.5031 2.52455H13.5046Z" fill="url(#paint2_linear_6175_69375)"/>
<path d="M6.1564 4.25012C6.79516 4.30653 7.03146 4.62933 7.08482 5.35484C7.08634 5.38148 7.10616 5.40342 7.12903 5.40342H7.13055C7.15342 5.40342 7.17171 5.38305 7.17476 5.35484C7.22507 4.6544 7.51168 4.33003 8.10471 4.25638C8.12758 4.25325 8.14434 4.23131 8.14434 4.20467V4.19057C8.14434 4.16393 8.12605 4.14199 8.10471 4.13886C7.50863 4.06678 7.22355 3.73771 7.17476 3.031C7.17324 3.00436 7.15342 2.98242 7.13055 2.98242C7.10768 2.98242 7.08787 3.00436 7.08634 3.031C7.03603 3.76278 6.79669 4.08715 6.1564 4.14513C6.13353 4.14669 6.11523 4.1702 6.11523 4.19684C6.11523 4.22661 6.13353 4.24855 6.1564 4.25012Z" fill="url(#paint3_linear_6175_69375)"/>
<path d="M22.0949 20.4357C21.4989 20.3637 21.2138 20.0346 21.165 19.3279C21.1635 19.3012 21.1437 19.2793 21.1208 19.2793C21.0979 19.2793 21.0781 19.3012 21.0766 19.3279C21.0263 20.0597 20.7869 20.384 20.1466 20.442C20.1238 20.4436 20.1055 20.4671 20.1055 20.4937C20.1055 20.5235 20.1238 20.5454 20.1466 20.547C20.7854 20.6034 21.0217 20.9262 21.0751 21.6517C21.0766 21.6784 21.0964 21.7003 21.1193 21.7003H21.1208C21.1437 21.7003 21.1619 21.6799 21.165 21.6517C21.2153 20.9513 21.5019 20.6269 22.0949 20.5533C22.1178 20.5501 22.1346 20.5282 22.1346 20.5015V20.4874C22.1346 20.4608 22.1163 20.4389 22.0949 20.4357Z" fill="url(#paint4_linear_6175_69375)"/>
<path d="M2.46958 16.4193C2.47111 16.4459 2.49093 16.4679 2.51379 16.4679H2.51532C2.53819 16.4679 2.55648 16.4475 2.55953 16.4193C2.60984 15.7189 2.89644 15.3945 3.48947 15.3208C3.51234 15.3177 3.52911 15.2958 3.52911 15.2691V15.255C3.52911 15.2284 3.51082 15.2064 3.48947 15.2033C2.89339 15.1312 2.60831 14.8022 2.55953 14.0955C2.558 14.0688 2.53819 14.0469 2.51532 14.0469C2.49245 14.0469 2.47263 14.0688 2.47111 14.0955C2.4208 14.8272 2.18145 15.1516 1.54116 15.2096C1.51829 15.2111 1.5 15.2347 1.5 15.2613C1.5 15.2911 1.51829 15.313 1.54116 15.3146C2.17993 15.371 2.41623 15.6938 2.46958 16.4193Z" fill="url(#paint5_linear_6175_69375)"/>
</g>
</g>
<defs>
<filter id="filter0_b_6175_69375" x="-4" y="-3.5" width="32" height="32" filterUnits="userSpaceOnUse" color-interpolation-filters="sRGB">
<feFlood flood-opacity="0" result="BackgroundImageFix"/>
<feGaussianBlur in="BackgroundImageFix" stdDeviation="2"/>
<feComposite in2="SourceAlpha" operator="in" result="effect1_backgroundBlur_6175_69375"/>
<feBlend mode="normal" in="SourceGraphic" in2="effect1_backgroundBlur_6175_69375" result="shape"/>
</filter>
<linearGradient id="paint0_linear_6175_69375" x1="19.2499" y1="9.42578" x2="8.76238" y2="11.9881" gradientUnits="userSpaceOnUse">
<stop stop-color="#8A7EE2"/>
<stop offset="1" stop-color="#AA40D7"/>
</linearGradient>
<linearGradient id="paint1_linear_6175_69375" x1="19.6137" y1="1.43359" x2="0.449175" y2="5.97168" gradientUnits="userSpaceOnUse">
<stop stop-color="#8A7EE2"/>
<stop offset="1" stop-color="#AA40D7"/>
</linearGradient>
<linearGradient id="paint2_linear_6175_69375" x1="16.2215" y1="0.5" x2="13.1616" y2="1.18646" gradientUnits="userSpaceOnUse">
<stop stop-color="#8A7EE2"/>
<stop offset="1" stop-color="#AA40D7"/>
</linearGradient>
<linearGradient id="paint3_linear_6175_69375" x1="7.85737" y1="2.98242" x2="5.94241" y2="3.41167" gradientUnits="userSpaceOnUse">
<stop stop-color="#8A7EE2"/>
<stop offset="1" stop-color="#AA40D7"/>
</linearGradient>
<linearGradient id="paint4_linear_6175_69375" x1="21.8476" y1="19.2793" x2="19.9326" y2="19.7086" gradientUnits="userSpaceOnUse">
<stop stop-color="#8A7EE2"/>
<stop offset="1" stop-color="#AA40D7"/>
</linearGradient>
<linearGradient id="paint5_linear_6175_69375" x1="3.24213" y1="14.0469" x2="1.32718" y2="14.4761" gradientUnits="userSpaceOnUse">
<stop stop-color="#8A7EE2"/>
<stop offset="1" stop-color="#AA40D7"/>
</linearGradient>
<clipPath id="clip0_6175_69375">
<rect width="21" height="24" fill="white" transform="translate(1.5 0.5)"/>
</clipPath>
</defs>
</svg>
