<svg width="24" height="24" viewBox="0 0 24 24" fill="none" xmlns="http://www.w3.org/2000/svg">
<g clip-path="url(#clip0_6498_67530)">
<g filter="url(#filter0_b_6498_67530)">
<path fill-rule="evenodd" clip-rule="evenodd" d="M13.5056 2.02455C14.5254 2.11543 14.905 2.63097 14.9889 3.78898C14.9919 3.83129 15.0224 3.86576 15.059 3.86576H15.0621C15.0987 3.86576 15.1291 3.83129 15.1322 3.78898C15.213 2.67015 15.6703 2.14991 16.6171 2.03552C16.6536 2.03082 16.6811 1.99634 16.6811 1.95247V1.92896C16.6811 1.88665 16.6536 1.85061 16.6171 1.84591C15.6642 1.72996 15.2099 1.20658 15.1307 0.0767825C15.1276 0.0329068 15.0971 0 15.0605 0C15.024 0 14.9935 0.0344738 14.9904 0.0767825C14.9096 1.24576 14.5285 1.76443 13.504 1.85531C13.4674 1.85845 13.4385 1.89449 13.4385 1.93837V1.9415C13.4385 1.98537 13.4674 2.02142 13.504 2.02455H13.5056ZM22.4942 1.58643C22.6558 3.40571 19.2897 8.76011 14.3457 14.3809L14.3503 14.3778C9.29506 20.1255 4.34653 24.1589 2.67111 23.9928C2.51561 23.9787 2.38755 23.927 2.29151 23.8377C1.63749 23.2297 2.53847 21.0014 4.47307 18.0226C4.5127 18.0461 4.55234 18.0665 4.5935 18.0853C3.80229 19.4736 3.48671 20.4451 3.80838 20.7444C3.91053 20.8385 4.07212 20.8604 4.28403 20.8165C4.9106 20.688 5.98232 19.986 7.31321 18.8656C5.83292 17.3801 4.91517 15.3086 4.91517 13.0145C4.91517 8.49685 8.47793 4.83323 12.8746 4.83323C14.8183 4.83323 16.5974 5.54935 17.9801 6.73869C18.8903 5.3284 19.4543 4.1986 19.5565 3.5295C19.5946 3.28035 19.5687 3.09544 19.4726 2.98419C19.465 2.97478 19.4574 2.96538 19.4482 2.95755C19.1052 2.63945 18.1021 3.13305 16.7148 4.20957C16.6996 4.19625 16.6843 4.18332 16.6691 4.1704C16.6538 4.15747 16.6386 4.14454 16.6233 4.13122C19.436 1.70709 21.613 0.469169 22.2884 1.09596C22.4088 1.20722 22.4759 1.37332 22.4942 1.58643ZM15.0592 11.0134C15.0592 10.5026 14.6552 10.0873 14.1582 10.0873C13.6612 10.0873 13.2572 10.5026 13.2572 11.0134C13.2572 11.5243 13.6612 11.9395 14.1582 11.9395C14.6552 11.9395 15.0592 11.5243 15.0592 11.0134ZM9.08621 10.0231V10.7251L10.1244 10.6985V16.758L11.5727 15.2631V8.94971H11.0269L9.08621 10.0231ZM14.9309 15.027C16.8045 12.8959 18.4525 10.8024 19.7666 8.92676L19.7682 8.92832C20.445 10.1318 20.8338 11.5295 20.8338 13.0197C20.8338 17.5374 17.271 21.201 12.8744 21.201C11.7142 21.201 10.6135 20.9456 9.62109 20.488C11.2752 18.9727 13.097 17.1127 14.9309 15.027ZM17.143 14.7591C17.143 15.2699 17.5454 15.6852 18.044 15.6852C18.5409 15.6852 18.9449 15.2699 18.9449 14.7591C18.9449 14.2483 18.5409 13.833 18.044 13.833C17.547 13.833 17.143 14.2483 17.143 14.7591ZM7.08677 4.85387C7.03341 4.12835 6.79711 3.80555 6.15835 3.74914C6.13548 3.74757 6.11719 3.72563 6.11719 3.69586C6.11719 3.66922 6.13548 3.64572 6.15835 3.64415C6.79864 3.58617 7.03799 3.26181 7.08829 2.53002C7.08982 2.50338 7.10964 2.48145 7.1325 2.48145C7.15537 2.48145 7.17519 2.50338 7.17672 2.53002C7.2255 3.23673 7.51058 3.5658 8.10666 3.63788C8.128 3.64102 8.1463 3.66295 8.1463 3.68959V3.7037C8.1463 3.73034 8.12953 3.75227 8.10666 3.75541C7.51363 3.82906 7.22702 4.15342 7.17672 4.85387C7.17367 4.88207 7.15537 4.90244 7.1325 4.90244H7.13098C7.10811 4.90244 7.08829 4.88051 7.08677 4.85387ZM22.0959 19.9328C21.4998 19.8607 21.2148 19.5317 21.166 18.8249C21.1644 18.7983 21.1446 18.7764 21.1218 18.7764C21.0989 18.7764 21.0791 18.7983 21.0776 18.8249C21.0272 19.5567 20.7879 19.8811 20.1476 19.9391C20.1247 19.9406 20.1064 19.9641 20.1064 19.9908C20.1064 20.0206 20.1247 20.0425 20.1476 20.0441C20.7864 20.1005 21.0227 20.4233 21.076 21.1488C21.0776 21.1754 21.0974 21.1974 21.1202 21.1974H21.1218C21.1446 21.1974 21.1629 21.177 21.166 21.1488C21.2163 20.4483 21.5029 20.124 22.0959 20.0503C22.1188 20.0472 22.1356 20.0253 22.1356 19.9986V19.9845C22.1356 19.9579 22.1173 19.9359 22.0959 19.9328ZM2.51379 15.9679C2.49093 15.9679 2.47111 15.9459 2.46958 15.9193C2.41623 15.1938 2.17993 14.871 1.54116 14.8146C1.51829 14.813 1.5 14.7911 1.5 14.7613C1.5 14.7347 1.51829 14.7111 1.54116 14.7096C2.18145 14.6516 2.4208 14.3272 2.47111 13.5955C2.47263 13.5688 2.49245 13.5469 2.51532 13.5469C2.53819 13.5469 2.558 13.5688 2.55953 13.5955C2.60831 14.3022 2.89339 14.6312 3.48947 14.7033C3.51082 14.7064 3.52911 14.7284 3.52911 14.755V14.7691C3.52911 14.7958 3.51234 14.8177 3.48947 14.8208C2.89644 14.8945 2.60984 15.2189 2.55953 15.9193C2.55648 15.9475 2.53819 15.9679 2.51532 15.9679H2.51379Z" fill="url(#paint0_linear_6498_67530)"/>
</g>
</g>
<defs>
<filter id="filter0_b_6498_67530" x="-4" y="-4" width="32" height="32" filterUnits="userSpaceOnUse" color-interpolation-filters="sRGB">
<feFlood flood-opacity="0" result="BackgroundImageFix"/>
<feGaussianBlur in="BackgroundImageFix" stdDeviation="2"/>
<feComposite in2="SourceAlpha" operator="in" result="effect1_backgroundBlur_6498_67530"/>
<feBlend mode="normal" in="SourceGraphic" in2="effect1_backgroundBlur_6498_67530" result="shape"/>
</filter>
<linearGradient id="paint0_linear_6498_67530" x1="15.0049" y1="-0.877093" x2="-1.44976" y2="18.6201" gradientUnits="userSpaceOnUse">
<stop stop-color="#AE60A3"/>
<stop offset="1" stop-color="#F7E495"/>
</linearGradient>
<clipPath id="clip0_6498_67530">
<rect width="24" height="24" fill="white"/>
</clipPath>
</defs>
</svg>
