<svg width="40" height="40" viewBox="0 0 40 40" fill="none" xmlns="http://www.w3.org/2000/svg">
<g clip-path="url(#clip0_3635_62210)">
<rect width="40" height="40" rx="20" fill="#E4F3FF"/>
<g clip-path="url(#clip1_3635_62210)">
<path d="M16.3242 23.7343V30.1656L8.89697 32.8897L20.6449 42.8842L32.1027 32.8897L24.6754 30.1656V23.7343H16.3242Z" fill="#FBD8CF"/>
<path d="M16.2149 6.30761C18.9276 4.60539 22.3599 4.60539 25.0725 6.30761C28.031 8.16266 29.5532 11.672 28.9016 15.1304L27.7763 21.1121C27.3972 23.12 26.112 24.8312 24.2996 25.7332L22.964 26.3985C21.504 27.1268 19.7893 27.1268 18.3294 26.3985L16.9938 25.7332C15.1814 24.8312 13.8932 23.12 13.5171 21.1121L12.3917 15.1304C11.7402 11.672 13.2624 8.16266 16.2208 6.30761H16.2149Z" fill="#FBD8CF"/>
<path d="M24.2995 25.7332L22.9639 26.3985C21.5039 27.1268 19.7892 27.1268 18.3293 26.3985L16.9937 25.7332" stroke="#E0BAB7" stroke-linecap="round" stroke-linejoin="round"/>
<path d="M18.8207 7.79404C18.8207 7.79404 18.0152 12.0915 22.3567 13.1944C26.6981 14.2972 27.9982 17.0813 27.9982 17.0813C27.9982 17.0813 29.8342 15.5169 30.0149 11.5101C30.1955 7.50334 26.319 4.19481 21.258 4.021L18.8207 7.79404Z" fill="#642718"/>
<path d="M15.125 9.57712C15.125 9.57712 16.1082 7.791 18.8209 7.79399L19.582 6.12474L18.7172 5.5943L15.9483 6.31954L15.1221 9.57712H15.125Z" fill="#300021"/>
<path d="M18.8209 7.79399C18.8209 7.79399 18.5307 6.33153 17.1181 7.22159C15.7025 8.11166 14.7282 11.621 14.518 14.0334C14.3077 16.4459 12.6108 16.3111 12.6108 16.3111C12.6108 16.3111 11.367 15.397 11.3374 12.4331C11.3078 9.46924 12.6256 3.61338 21.2582 4.02095L20.8909 7.22159L18.8179 7.79399H18.8209Z" fill="#642718"/>
<path d="M14.9919 17.5488C15.214 19.0023 14.4588 20.3299 13.3009 20.5097C12.143 20.6925 11.0235 19.6616 10.8014 18.2081C10.5793 16.7546 11.3345 15.427 12.4924 15.2472C13.6503 15.0644 14.7697 16.0953 14.9919 17.5488Z" fill="#FBD8CF"/>
<path d="M13.1231 19.3679C13.0934 19.3739 13.0638 19.3739 13.0342 19.3739C12.6018 19.3739 12.0599 18.8614 11.9326 18.0313C11.8645 17.5938 11.9326 17.1592 12.1191 16.8326C12.2021 16.6887 12.3827 16.437 12.667 16.395C12.6966 16.389 12.7262 16.389 12.7558 16.389" stroke="#E0BAB7" stroke-linecap="round" stroke-linejoin="round"/>
<path d="M26.3014 17.5488C26.0793 19.0023 26.8345 20.3299 27.9924 20.5097C29.1503 20.6925 30.2697 19.6616 30.4919 18.2081C30.714 16.7546 29.9588 15.427 28.8009 15.2472C27.643 15.0644 26.5235 16.0953 26.3014 17.5488Z" fill="#FBD8CF"/>
<path d="M28.167 19.3679C28.1966 19.3739 28.2262 19.3739 28.2558 19.3739C28.6882 19.3739 29.2301 18.8614 29.3575 18.0313C29.4256 17.5938 29.3575 17.1592 29.1709 16.8326C29.088 16.6887 28.9073 16.437 28.6231 16.395C28.5934 16.389 28.5638 16.389 28.5342 16.389" stroke="#E0BAB7" stroke-linecap="round" stroke-linejoin="round"/>
<path d="M20.3193 7.82697C20.3193 7.82697 21.3203 10.2274 24.1751 11.2014" stroke="#91483A" stroke-width="1.5" stroke-miterlimit="10" stroke-linecap="round"/>
<path d="M13.5525 31.1815L20.5 32.1495L27.4475 31.1815L34.4957 32.7729C37.1284 33.3662 39 35.7307 39 38.4609V45H2V38.4609C2 35.7307 3.87162 33.3692 6.50432 32.7729L13.5525 31.1815Z" fill="#EFE6E4"/>
<path d="M20.4998 32.1495L17.8315 35.6468L20.4998 37.9784L23.168 35.6468L20.4998 32.1495Z" fill="#62A0D3"/>
<path d="M22.6117 44.8442H18.3887L18.9602 36.3511H22.0401L22.6117 44.8442Z" fill="#62A0D3"/>
<path d="M16.3246 27.7711L13.5527 31.1815L17.0028 37.2321L20.5002 32.1495L16.3246 29.1466V27.7711Z" fill="#EFE6E4"/>
<path d="M24.6756 27.7711L27.4475 31.1815L23.9974 37.2321L20.5 32.1495L24.6756 29.1466V27.7711Z" fill="#EFE6E4"/>
<path d="M13.7065 31.4512L17.0026 37.2322L17.8318 36.0244" stroke="#CCC2C0" stroke-linecap="round" stroke-linejoin="round"/>
<path d="M27.2937 31.4512L23.9977 37.2322L23.1685 36.0244" stroke="#CCC2C0" stroke-linecap="round" stroke-linejoin="round"/>
<path d="M19.3125 36.6178H21.6876" stroke="#3D7EAA" stroke-width="1.5" stroke-linecap="round" stroke-linejoin="round"/>
</g>
</g>
<defs>
<clipPath id="clip0_3635_62210">
<rect width="40" height="40" rx="20" fill="white"/>
</clipPath>
<clipPath id="clip1_3635_62210">
<rect width="37" height="41" fill="white" transform="translate(2 4)"/>
</clipPath>
</defs>
</svg>
