<svg width="40" height="40" viewBox="0 0 40 40" fill="none" xmlns="http://www.w3.org/2000/svg">
<g clip-path="url(#clip0_3635_62211)">
<rect width="40" height="40" rx="20" fill="#FFE4E6"/>
<g clip-path="url(#clip1_3635_62211)">
<path d="M17.1559 14.1597C16.9909 16.721 18.0112 17.2201 19.0464 19.3804C20.0846 21.541 21.0428 24.0999 20.4005 26.571C20.0973 27.7361 19.46 28.7589 19.2057 29.9367C18.6513 32.5025 20.0233 35.0319 19.9108 37.6647C19.7939 40.4064 17.9383 42.8711 15.777 43.5716C13.6161 44.2683 11.2906 43.3592 9.68339 41.5603C8.0762 39.7614 7.14361 37.166 6.77148 34.4853C6.39935 31.8046 6.55156 29.0234 6.86497 26.2933C7.25991 22.8643 7.90882 19.4682 8.80012 16.1585C9.28939 14.3478 9.89387 12.4822 11.058 11.2068C12.6934 9.41553 12.337 6.89264 13.9858 8.49257" fill="#642718"/>
<path d="M24.6583 14.7077C24.8513 17.267 23.8365 17.7772 22.825 19.9487C21.8104 22.1205 20.8803 24.6897 21.5496 27.1537C21.8655 28.3154 22.514 29.3312 22.7811 30.5061C23.3636 33.0656 22.0193 35.6099 22.1606 38.2413C22.3075 40.9816 24.1899 43.4259 26.3587 44.1027C28.5272 44.7757 30.8426 43.8412 32.43 42.0248C34.0174 40.2085 34.9216 37.603 35.2644 34.9184C35.6072 32.2339 35.4245 29.4545 35.0813 26.7279C34.6489 23.3035 33.9629 19.9147 33.0354 16.6149C32.5264 14.8097 31.9015 12.9508 30.7235 11.6882C29.0687 9.91494 29.3974 7.3883 27.7662 9.00616" fill="#642718"/>
<path d="M11.8813 22.4161C12.103 24.0662 13.1736 25.4666 14.0258 26.9067C14.878 28.3467 15.5429 30.1064 14.8936 31.6469" stroke="#300021" stroke-miterlimit="10" stroke-linecap="round"/>
<path d="M16.0987 23.3964V29.9298L8.27002 32.7003L20.653 42.8506L32.7301 32.7003L24.9014 29.9298V23.3964H16.0987Z" fill="#FBD8CF"/>
<path d="M16.0174 5.86628C18.8267 4.04872 22.4789 4.04872 25.2882 5.86628C28.0695 7.66252 29.496 10.8958 28.9185 14.0985L27.7604 20.5498C27.3734 22.7053 25.9812 24.5655 23.9897 25.5762C21.8983 26.6418 19.4042 26.6418 17.3128 25.5762C15.3244 24.5624 13.9291 22.7053 13.542 20.5498L12.3839 14.0985C11.8096 10.8927 13.2361 7.66252 16.0142 5.86628H16.0174Z" fill="#FBD8CF"/>
<path d="M14.7032 17.1156C14.8748 18.5922 14.2942 19.9409 13.4109 20.1235C12.5243 20.3093 11.6691 19.262 11.4974 17.7854C11.3257 16.3088 11.9063 14.9601 12.7897 14.7774C13.6762 14.5917 14.5315 15.639 14.7032 17.1156Z" fill="#FBD8CF"/>
<path d="M13.277 18.9606C13.2551 18.9667 13.2302 18.9667 13.2083 18.9667C12.8774 18.9667 12.4623 18.4461 12.3655 17.6028C12.3156 17.1583 12.3655 16.7168 12.5091 16.385C12.5715 16.2388 12.712 15.9831 12.9274 15.9405C12.9492 15.9344 12.9742 15.9344 12.9961 15.9344" stroke="#E0BAB7" stroke-linecap="round" stroke-linejoin="round"/>
<path d="M26.2156 17.1156C26.044 18.5922 26.6246 19.9409 27.5079 20.1235C28.3944 20.3093 29.2497 19.262 29.4214 17.7854C29.5931 16.3088 29.0125 14.9601 28.1291 14.7774C27.2426 14.5917 26.3873 15.639 26.2156 17.1156Z" fill="#FBD8CF"/>
<path d="M27.645 18.9606C27.6669 18.9667 27.6918 18.9667 27.7137 18.9667C28.0446 18.9667 28.4597 18.4461 28.5565 17.6028C28.6064 17.1583 28.5565 16.7168 28.4129 16.385C28.3505 16.2388 28.21 15.9831 27.9946 15.9405C27.9728 15.9344 27.9478 15.9344 27.926 15.9344" stroke="#E0BAB7" stroke-linecap="round" stroke-linejoin="round"/>
<path d="M13.177 30.965L20.5 35.5104L27.823 30.965L35.2522 32.5816C38.0272 33.1844 40 35.5865 40 38.36V45.0031H1V38.36C1 35.5865 2.97279 33.1874 5.7478 32.5816L13.177 30.965Z" fill="#EFE6E4"/>
<path d="M24.7297 25.1013C24.3739 25.36 23.9868 25.5823 23.5685 25.768C22.6539 26.1729 21.655 26.3799 20.6499 26.3799C19.6448 26.3799 18.649 26.176 17.7344 25.768C17.313 25.5823 16.926 25.36 16.5732 25.1013" stroke="#E0BAB7" stroke-linecap="round" stroke-linejoin="round"/>
<path d="M5.7478 32.5785C2.97279 33.1813 1 35.5834 1 38.357V45H16.6668L13.177 30.965L5.7478 32.5816V32.5785Z" fill="#FDA9AD"/>
<path d="M16.0987 28.9404C16.0987 28.9404 12.3435 30.2373 10.1147 31.6286L13.5203 34.9776L11.919 37.9794L14.978 44.9969H18.0808L16.0987 28.9373V28.9404Z" fill="#FDA9AD"/>
<path d="M10.6675 32.1736L13.5205 34.9775L11.9223 37.9825L14.791 44.5646" stroke="#DD7C81" stroke-miterlimit="10"/>
<path d="M35.252 32.5785C38.027 33.1813 39.9998 35.5834 39.9998 38.357V45H24.333L27.8228 30.965L35.252 32.5816V32.5785Z" fill="#FDA9AD"/>
<path d="M24.9011 28.9404C24.9011 28.9404 28.6563 30.2373 30.885 31.6286L27.4795 34.9776L29.0808 37.9794L26.0217 44.9969H22.9189L24.9011 28.9373V28.9404Z" fill="#FDA9AD"/>
<path d="M30.3296 32.1736L27.4765 34.9775L29.0778 37.9825L26.2061 44.5646" stroke="#DD7C81" stroke-miterlimit="10"/>
<path d="M11.2541 18.924C10.5081 19.8495 10.1117 21.0369 10.1522 22.212C10.1928 23.3872 10.6704 24.5441 11.4758 25.4209" stroke="#300021" stroke-miterlimit="10" stroke-linecap="round"/>
<path d="M30.0519 18.924C30.7979 19.8495 31.1944 21.0369 31.1538 22.212C31.1132 23.3872 30.6356 24.5441 29.8271 25.4209" stroke="#300021" stroke-miterlimit="10" stroke-linecap="round"/>
<path d="M8.70704 27.686C8.07962 28.5537 8.12644 29.8293 8.82253 30.6483" stroke="#91483A" stroke-miterlimit="10" stroke-linecap="round"/>
<path d="M29.9798 14.1351C30.1421 11.9065 30.1702 3.55244 20.6528 4.01825C11.1353 3.55244 11.1634 11.9065 11.3257 14.1351C11.4974 16.4763 10.7607 18.9666 10.7607 18.9666C15.3337 18.921 15.3181 13.9098 15.3181 13.9098C20.4998 13.0238 20.6559 9.22126 20.6559 9.22126C20.6559 9.22126 20.812 13.0238 25.9937 13.9098C25.9937 13.9098 25.9749 18.921 30.551 18.9666C30.551 18.9666 29.8144 16.4763 29.986 14.1351H29.9798Z" fill="#642718"/>
<path d="M23.5029 9.36438C23.9493 10.6248 25.0793 11.6295 26.4059 11.9461" stroke="#91483A" stroke-miterlimit="10" stroke-linecap="round"/>
<path d="M25.1572 9.90631C25.6411 10.4878 26.2498 10.9719 26.9302 11.3189" stroke="#91483A" stroke-miterlimit="10" stroke-linecap="round"/>
<path d="M17.8063 9.36438C17.3599 10.6248 16.23 11.6295 14.9033 11.9461" stroke="#91483A" stroke-miterlimit="10" stroke-linecap="round"/>
<path d="M16.1485 9.90631C15.6647 10.4878 15.056 10.9719 14.3755 11.3189" stroke="#91483A" stroke-miterlimit="10" stroke-linecap="round"/>
</g>
</g>
<defs>
<clipPath id="clip0_3635_62211">
<rect width="40" height="40" rx="20" fill="white"/>
</clipPath>
<clipPath id="clip1_3635_62211">
<rect width="39" height="41" fill="white" transform="translate(1 4)"/>
</clipPath>
</defs>
</svg>
