<svg width="32" height="32" viewBox="0 0 32 32" fill="none" xmlns="http://www.w3.org/2000/svg">
<g id="copy_all">
<mask id="mask0_6551_29975" style="mask-type:alpha" maskUnits="userSpaceOnUse" x="0" y="0" width="32" height="32">
<rect id="Bounding box" width="32" height="32" fill="#D9D9D9"/>
</mask>
<g mask="url(#mask0_6551_29975)">
<path id="copy_all_2" d="M4.66675 23.9474V21.7937H6.82075V23.9474H4.66675ZM4.66675 19.2294V17.0757H6.82075V19.2294H4.66675ZM4.66675 14.5114V12.3577H6.82075V14.5114H4.66675ZM9.38475 28.6654V26.5114H11.5384V28.6654H9.38475ZM12.2051 23.537C11.5317 23.537 10.9617 23.3037 10.4951 22.837C10.0284 22.3704 9.79508 21.8004 9.79508 21.127V5.74236C9.79508 5.06881 10.0284 4.4987 10.4951 4.03203C10.9617 3.56536 11.5317 3.33203 12.2051 3.33203H23.5897C24.2633 3.33203 24.8334 3.56536 25.3001 4.03203C25.7667 4.4987 26.0001 5.06881 26.0001 5.74236V21.127C26.0001 21.8004 25.7667 22.3704 25.3001 22.837C24.8334 23.3037 24.2633 23.537 23.5897 23.537H12.2051ZM12.2051 21.537H23.5897C23.6924 21.537 23.7864 21.4944 23.8717 21.409C23.9573 21.3235 24.0001 21.2295 24.0001 21.127V5.74236C24.0001 5.6397 23.9573 5.5457 23.8717 5.46036C23.7864 5.37481 23.6924 5.33203 23.5897 5.33203H12.2051C12.1026 5.33203 12.0086 5.37481 11.9231 5.46036C11.8377 5.5457 11.7951 5.6397 11.7951 5.74236V21.127C11.7951 21.2295 11.8377 21.3235 11.9231 21.409C12.0086 21.4944 12.1026 21.537 12.2051 21.537ZM14.1027 28.6654V26.5114H16.2564V28.6654H14.1027ZM6.82075 28.6654C6.2283 28.6654 5.72119 28.4545 5.29941 28.0327C4.87764 27.6109 4.66675 27.1038 4.66675 26.5114H6.82075V28.6654ZM18.8207 28.6654V26.5114H20.9744C20.9744 27.108 20.7635 27.6161 20.3417 28.0357C19.92 28.4555 19.413 28.6654 18.8207 28.6654ZM4.66675 9.79337C4.66675 9.20114 4.87764 8.69414 5.29941 8.27237C5.72119 7.85059 6.2283 7.6397 6.82075 7.6397V9.79337H4.66675Z" fill="#DDDDDD"/>
</g>
</g>
</svg>
