<svg width="172" height="32" viewBox="0 0 172 32" fill="none" xmlns="http://www.w3.org/2000/svg">
<path d="M20.5949 22.9795C20.5949 18.418 17.8697 15.5961 12.536 14.475L8.60394 13.6633C5.139 12.9288 3.34814 11.3439 3.34814 8.48328C3.34814 5.3521 5.64511 3.22598 9.73296 3.22598C13.8208 3.22598 16.0788 5.3521 16.0788 8.48328V9.06313H19.4659V8.48328C19.4659 3.99912 16.0788 0.288086 9.73296 0.288086C3.34814 0.288086 0 3.99912 0 8.48328C0 12.9674 2.80309 15.5574 7.55278 16.5238L11.4849 17.3356C15.4559 18.1474 17.2468 20.1962 17.2468 23.0181C17.2468 26.304 14.6384 28.7007 10.3169 28.7007C5.91764 28.7007 3.34814 26.304 3.34814 23.0181V22.1677H0V22.9795C0 27.8889 3.69852 31.5999 10.3169 31.5999C16.8964 31.5999 20.5949 27.8889 20.5949 22.9795Z" fill="#222222"/>
<path d="M32.2419 0.790622L21.5357 31.0974H25.0785L27.5312 23.9073H40.8459L43.2986 31.0974H46.8024L36.1351 0.790622H32.2419ZM39.7947 20.9694H28.5045L34.1885 4.26971L39.7947 20.9694Z" fill="#222222"/>
<path d="M68.5769 22.9795C68.5769 18.418 65.8517 15.5961 60.518 14.475L56.5859 13.6633C53.121 12.9288 51.3301 11.3439 51.3301 8.48328C51.3301 5.3521 53.6271 3.22598 57.7149 3.22598C61.8028 3.22598 64.0608 5.3521 64.0608 8.48328V9.06313H67.4479V8.48328C67.4479 3.99912 64.0608 0.288086 57.7149 0.288086C51.3301 0.288086 47.982 3.99912 47.982 8.48328C47.982 12.9674 50.785 15.5574 55.5347 16.5238L59.4668 17.3356C63.4379 18.1474 65.2288 20.1962 65.2288 23.0181C65.2288 26.304 62.6203 28.7007 58.2989 28.7007C53.8996 28.7007 51.3301 26.304 51.3301 23.0181V22.1677H47.982V22.9795C47.982 27.8889 51.6805 31.5999 58.2989 31.5999C64.8784 31.5999 68.5769 27.8889 68.5769 22.9795Z" fill="#222222"/>
<path d="M94.8912 15.944C94.8912 7.28493 92.3995 0.288086 83.2505 0.288086C74.2184 0.288086 71.6489 7.32358 71.6489 15.944C71.6489 24.6804 74.2573 31.5999 83.2505 31.5999C92.3217 31.5999 94.8912 24.719 94.8912 15.944ZM91.543 15.944C91.543 23.7526 89.6743 28.662 83.2505 28.662C76.8657 28.662 75.0359 23.7913 75.0359 15.944C75.0359 8.13537 76.9047 3.22598 83.2505 3.22598C89.6354 3.22598 91.543 8.17403 91.543 15.944Z" fill="#222222"/>
<path d="M116.578 31.0974H119.965V0.790622H116.578V14.0885H102.641V0.790622H99.2537V31.0974H102.641V17.065H116.578V31.0974Z" fill="#222222"/>
<path d="M133.262 0.790622L122.556 31.0974H126.099L128.552 23.9073H141.866L144.319 31.0974H147.823L137.156 0.790622H133.262ZM140.815 20.9694H129.525L135.209 4.26971L140.815 20.9694Z" fill="#222222"/>
<path d="M171.645 31.0974V0.790622H168.258V24.9896L153.892 0.790622H150.505V31.0974H153.892V6.89836L168.258 31.0974H171.645Z" fill="#222222"/>
</svg>
