<svg width="177" height="46" viewBox="0 0 177 46" fill="none" xmlns="http://www.w3.org/2000/svg">
<g clip-path="url(#clip0_6320_17500)">
<path d="M4.4413 27.3511C4.69347 27.3511 4.87716 27.4071 4.99857 27.5192C5.11688 27.6313 5.1916 27.843 5.21962 28.1543C5.32236 29.2658 5.62746 30.0628 6.13181 30.5453C6.63616 31.0279 7.26816 31.2676 8.02469 31.2676C8.41073 31.2676 8.76876 31.2147 9.105 31.112C9.43812 31.0092 9.72765 30.8442 9.9736 30.6232C10.2196 30.4021 10.4064 30.1219 10.5402 29.7888C10.6741 29.4557 10.7395 29.051 10.7395 28.5746C10.7395 27.9364 10.6243 27.4071 10.3939 26.9837C10.1635 26.5603 9.86775 26.2054 9.5035 25.9159C9.13924 25.6263 8.71584 25.3866 8.23639 25.1936C7.75383 25.0006 7.25259 24.8076 6.73579 24.6145C6.00728 24.3468 5.25075 24.0386 4.4662 23.6899C3.67854 23.3412 2.95626 22.9116 2.29624 22.3979C1.63623 21.8873 1.0914 21.2709 0.661768 20.5517C0.232134 19.8325 0.0173177 18.9764 0.0173177 17.9832C0.0173177 16.2336 0.661768 14.8793 1.95378 13.9235C3.24579 12.9677 5.13556 12.4883 7.6293 12.4883C10.123 12.4883 11.882 12.8619 13.1367 13.6122C14.3914 14.3625 15.1136 15.4552 15.3067 16.8936C15.3347 17.1302 15.3035 17.3512 15.207 17.5505C15.1105 17.7497 14.8988 17.8494 14.5719 17.8494H10.9014C10.7239 17.8494 10.5776 17.8182 10.4686 17.7591C10.3565 17.6999 10.2725 17.6283 10.2133 17.5474C10.1542 17.4664 10.1137 17.3761 10.0919 17.2796C10.0701 17.1831 10.0514 17.0991 10.0359 17.0243C9.94558 16.2242 9.71209 15.6327 9.33538 15.256C8.95867 14.8793 8.41074 14.6894 7.70091 14.6894C6.99108 14.6894 6.40267 14.8762 5.9886 15.2467C5.57453 15.6171 5.36594 16.2336 5.36594 17.0928C5.36594 17.6408 5.44377 18.1171 5.59944 18.5156C5.7551 18.9172 5.99483 19.2721 6.32172 19.5835C6.64862 19.8948 7.0658 20.1781 7.57949 20.4303C8.09007 20.6824 8.69404 20.9191 9.39142 21.1432C11.5271 21.8406 13.1678 22.6812 14.3104 23.6681C15.453 24.655 16.0227 25.9128 16.0227 27.4383C16.0227 29.4277 15.3502 30.9314 14.0084 31.9557C12.6666 32.9799 10.6585 33.4905 7.99044 33.4905C6.59569 33.4905 5.40953 33.3566 4.42884 33.0889C3.45127 32.8211 2.64493 32.4538 2.01605 31.9868C1.38405 31.5198 0.910831 30.9625 0.593275 30.3181C0.27572 29.6736 0.0764701 28.9638 0.00486451 28.1917C-0.0107019 28.0142 0.0110911 27.8274 0.0702435 27.6344C0.129396 27.4414 0.337986 27.3449 0.692901 27.3449H4.45375L4.4413 27.3511Z" fill="url(#paint0_linear_6320_17500)"/>
<path d="M35.9253 32.3992C36.0156 32.6514 36.0094 32.8319 35.9129 32.944C35.8164 33.0561 35.6483 33.1121 35.4116 33.1121H34.0543C33.8457 33.1121 33.7118 33.0903 33.6526 33.0467C33.5935 33.0032 33.525 32.8911 33.4534 32.7136L32.0742 28.8189H23.4411L22.1273 32.558C22.009 32.9284 21.7412 33.1152 21.3271 33.1152H17.7438C17.4604 33.1152 17.2799 33.0343 17.1989 32.8693C17.118 32.7074 17.1211 32.4988 17.2114 32.2466L23.9081 13.3988C24.0264 13.0719 24.1758 12.8695 24.3533 12.7855C24.5307 12.7045 24.7673 12.6641 25.0662 12.6641H27.9584C28.2542 12.6641 28.4939 12.7045 28.6714 12.7855C28.8488 12.8664 28.9983 13.0719 29.1166 13.3988L35.9253 32.4023V32.3992ZM24.2225 26.5929H31.299L27.7623 16.5121L24.2256 26.5929H24.2225Z" fill="url(#paint1_linear_6320_17500)"/>
<path d="M41.2906 27.3492C41.5428 27.3492 41.7265 27.4052 41.8479 27.5173C41.9662 27.6293 42.0409 27.8411 42.0689 28.1524C42.1717 29.2638 42.4768 30.0608 42.9811 30.5434C43.4855 31.0259 44.1175 31.2657 44.874 31.2657C45.26 31.2657 45.6181 31.2127 45.9543 31.11C46.2874 31.0073 46.577 30.8423 46.8229 30.6212C47.0689 30.4002 47.2557 30.12 47.3895 29.7869C47.5234 29.4537 47.5888 29.049 47.5888 28.5727C47.5888 27.9344 47.4736 27.4052 47.2432 26.9818C47.0128 26.5584 46.7171 26.2035 46.3528 25.9139C45.9885 25.6244 45.5651 25.3847 45.0857 25.1916C44.6031 24.9986 44.1019 24.8056 43.5851 24.6126C42.8566 24.3448 42.1001 24.0366 41.3155 23.6879C40.5278 23.3392 39.8056 22.9096 39.1455 22.3959C38.4855 21.8853 37.9407 21.2689 37.5111 20.5497C37.0814 19.8306 36.8666 18.9744 36.8666 17.9813C36.8666 16.2316 37.5111 14.8773 38.8031 13.9216C40.0951 12.9658 41.9849 12.4863 44.4786 12.4863C46.9723 12.4863 48.7314 12.8599 49.986 13.6102C51.2407 14.3605 51.9629 15.4533 52.156 16.8916C52.184 17.1282 52.1529 17.3493 52.0563 17.5485C51.9598 17.7478 51.7481 17.8474 51.4212 17.8474H47.7507C47.5732 17.8474 47.4269 17.8163 47.3179 17.7571C47.2058 17.698 47.1218 17.6264 47.0626 17.5454C47.0035 17.4645 46.963 17.3742 46.9412 17.2777C46.9194 17.1812 46.9007 17.0971 46.8852 17.0224C46.7949 16.2223 46.5614 15.6307 46.1847 15.254C45.808 14.8773 45.26 14.6874 44.5502 14.6874C43.8404 14.6874 43.252 14.8742 42.8379 15.2447C42.4238 15.6152 42.2152 16.2316 42.2152 17.0909C42.2152 17.6388 42.2931 18.1151 42.4487 18.5136C42.6044 18.9153 42.8441 19.2702 43.171 19.5815C43.4979 19.8928 43.9151 20.1761 44.4288 20.4283C44.9394 20.6805 45.5434 20.9171 46.2407 21.1413C48.3764 21.8386 50.0171 22.6792 51.1597 23.6661C52.3023 24.653 52.872 25.9108 52.872 27.4363C52.872 29.4257 52.1996 30.9294 50.8577 31.9537C49.5159 32.978 47.5078 33.4886 44.8397 33.4886C43.445 33.4886 42.2588 33.3547 41.2781 33.0869C40.3006 32.8192 39.4942 32.4518 38.8654 31.9848C38.2334 31.5178 37.7601 30.9606 37.4426 30.3161C37.125 29.6717 36.9258 28.9618 36.8542 28.1897C36.8386 28.0123 36.8604 27.8255 36.9195 27.6325C36.9787 27.4394 37.1873 27.3429 37.5422 27.3429H41.3031L41.2906 27.3492Z" fill="url(#paint2_linear_6320_17500)"/>
<path d="M63.3422 12.4844C64.8553 12.4844 66.1504 12.7023 67.2245 13.1413C68.2986 13.5803 69.1796 14.234 69.8614 15.112C70.5433 15.9868 71.0445 17.0765 71.362 18.3841C71.6796 19.6885 71.8415 21.2171 71.8415 22.9668C71.8415 24.7165 71.6827 26.2762 71.362 27.5963C71.0445 28.9163 70.5433 30.0153 69.8614 30.8901C69.1796 31.765 68.2986 32.4219 67.2245 32.8608C66.1473 33.2967 64.8553 33.5177 63.3422 33.5177C61.8292 33.5177 60.534 33.2967 59.46 32.8515C58.3828 32.4063 57.5048 31.7432 56.823 30.859C56.1412 29.9748 55.64 28.8758 55.3224 27.5558C55.0049 26.2358 54.843 24.7009 54.843 22.9512C54.843 21.2016 55.0017 19.6698 55.3224 18.356C55.64 17.0422 56.1443 15.9526 56.8355 15.084C57.5266 14.2154 58.4077 13.5678 59.4849 13.1382C60.5589 12.7085 61.8478 12.4937 63.3453 12.4937L63.3422 12.4844ZM66.8353 22.945C66.8353 21.3137 66.7575 19.9563 66.6018 18.8728C66.4462 17.7894 66.2189 16.9208 65.9231 16.2701C65.6274 15.6163 65.26 15.1587 64.821 14.8909C64.3821 14.6232 63.8902 14.4893 63.3422 14.4893C62.7943 14.4893 62.2993 14.6232 61.8634 14.8909C61.4244 15.1587 61.054 15.6132 60.752 16.2608C60.4469 16.9052 60.2134 17.7738 60.0515 18.8635C59.8896 19.9531 59.8055 21.3137 59.8055 22.9481C59.8055 24.5826 59.8865 25.9462 60.0515 27.0421C60.2134 28.1411 60.4469 29.019 60.752 29.679C61.0571 30.3391 61.4276 30.8092 61.8634 31.0925C62.2993 31.3727 62.7943 31.5159 63.3422 31.5159C63.8902 31.5159 64.3852 31.3758 64.821 31.0925C65.26 30.8092 65.6243 30.3391 65.9231 29.679C66.2189 29.019 66.4462 28.1411 66.6018 27.0421C66.7575 25.9431 66.8353 24.5795 66.8353 22.9481V22.945Z" fill="url(#paint3_linear_6320_17500)"/>
<path d="M90.4643 31.868C90.4643 32.2696 90.3677 32.5747 90.1747 32.7926C89.9817 33.0074 89.6641 33.1164 89.2189 33.1164H86.5042C86.059 33.1164 85.7414 33.0074 85.5484 32.7926C85.3553 32.5778 85.2588 32.2696 85.2588 31.868V23.6115H79.3187V31.868C79.3187 32.2696 79.2222 32.5747 79.0292 32.7926C78.8361 33.0074 78.5186 33.1164 78.0734 33.1164H75.3586C74.9134 33.1164 74.5927 33.0074 74.4028 32.7926C74.2098 32.5778 74.1133 32.2696 74.1133 31.868V13.9105C74.1133 13.5089 74.2098 13.2038 74.4028 12.9859C74.5958 12.7711 74.9134 12.6621 75.3586 12.6621H78.0734C78.5186 12.6621 78.8361 12.7711 79.0292 12.9859C79.2222 13.2007 79.3187 13.5089 79.3187 13.9105V21.3886H85.2588V13.9105C85.2588 13.5089 85.3553 13.2038 85.5484 12.9859C85.7414 12.7711 86.059 12.6621 86.5042 12.6621H89.2189C89.6641 12.6621 89.9817 12.7711 90.1747 12.9859C90.3677 13.2007 90.4643 13.5089 90.4643 13.9105V31.868Z" fill="url(#paint4_linear_6320_17500)"/>
<path d="M110.713 32.3992C110.803 32.6514 110.797 32.8319 110.7 32.944C110.604 33.0561 110.436 33.1121 110.199 33.1121H108.842C108.633 33.1121 108.499 33.0903 108.44 33.0467C108.381 33.0032 108.312 32.8911 108.241 32.7136L106.862 28.8189H98.2285L96.9147 32.558C96.7964 32.9284 96.5287 33.1152 96.1146 33.1152H92.5312C92.2479 33.1152 92.0673 33.0343 91.9864 32.8693C91.9055 32.7074 91.9086 32.4988 91.9989 32.2466L98.6955 13.3988C98.8138 13.0719 98.9633 12.8695 99.1407 12.7855C99.3182 12.7045 99.5548 12.6641 99.8537 12.6641H102.746C103.042 12.6641 103.281 12.7045 103.459 12.7855C103.636 12.8664 103.786 13.0719 103.904 13.3988L110.713 32.4023V32.3992ZM99.01 26.5929H106.086L102.55 16.5121L99.0131 26.5929H99.01Z" fill="url(#paint5_linear_6320_17500)"/>
<path d="M127.624 31.868C127.624 32.2696 127.528 32.5747 127.335 32.7926C127.142 33.0074 126.824 33.1164 126.379 33.1164H124.044C123.835 33.1164 123.624 33.079 123.409 33.0043C123.194 32.9296 122.998 32.7459 122.82 32.447L114.654 18.4061V32.5373C114.654 32.6992 114.617 32.8362 114.542 32.9483C114.467 33.0604 114.312 33.1164 114.075 33.1164H112.696C112.475 33.1164 112.322 33.0604 112.238 32.9483C112.157 32.8362 112.117 32.6992 112.117 32.5373V13.9137C112.117 13.512 112.213 13.2069 112.406 12.989C112.599 12.7742 112.917 12.6652 113.362 12.6652H115.697C115.906 12.6652 116.117 12.6995 116.332 12.7648C116.547 12.8302 116.743 13.0201 116.921 13.3315L125.087 27.3942V13.2412C125.087 13.0793 125.124 12.9423 125.199 12.8302C125.274 12.7181 125.429 12.6621 125.666 12.6621H127.045C127.266 12.6621 127.419 12.7181 127.5 12.8302C127.581 12.9423 127.621 13.0793 127.621 13.2412V31.8649L127.624 31.868Z" fill="url(#paint6_linear_6320_17500)"/>
<path d="M171.087 17.1094C168.498 20.7048 165.251 24.7178 161.559 28.8029C157.946 32.8008 154.356 36.3663 151.097 39.2709C153.053 40.148 155.221 40.6376 157.507 40.6376C166.17 40.6376 173.19 33.6149 173.19 24.9551C173.19 22.0986 172.424 19.4192 171.09 17.1124L171.087 17.1094ZM167.693 30.0614C166.711 30.0614 165.918 29.2655 165.918 28.2862C165.918 27.307 166.714 26.511 167.693 26.511C168.672 26.511 169.468 27.307 169.468 28.2862C169.468 29.2655 168.672 30.0614 167.693 30.0614Z" fill="url(#paint7_linear_6320_17500)"/>
<path d="M160.406 27.566C170.147 16.7916 176.78 6.52788 176.461 3.04056C176.425 2.63205 176.293 2.31365 176.056 2.10039C174.725 0.898898 170.436 3.27184 164.894 7.91861C164.954 7.96967 165.014 8.01773 165.074 8.06879C167.807 6.00523 169.784 5.05906 170.46 5.66882C170.478 5.68384 170.493 5.70186 170.508 5.71988C170.697 5.93314 170.748 6.28758 170.673 6.76518C170.472 8.04777 169.36 10.2135 167.567 12.9168C164.843 10.637 161.337 9.26428 157.508 9.26428C148.845 9.26428 141.825 16.287 141.825 24.9467C141.825 29.3442 143.633 33.3151 146.55 36.1627C143.928 38.3103 141.816 39.656 140.582 39.9023C140.164 39.9864 139.846 39.9443 139.644 39.7641C139.011 39.1904 139.632 37.3281 141.191 34.6668C141.11 34.6308 141.032 34.5917 140.954 34.5466C137.142 40.2567 135.367 44.528 136.656 45.6935C136.845 45.8647 137.097 45.9638 137.404 45.9908C140.705 46.3092 150.455 38.5776 160.415 27.56L160.406 27.566ZM160.04 19.3358C161.019 19.3358 161.815 20.1318 161.815 21.111C161.815 22.0902 161.019 22.8862 160.04 22.8862C159.061 22.8862 158.265 22.0902 158.265 21.111C158.265 20.1318 159.061 19.3358 160.04 19.3358ZM150.043 20.5613V19.2126L153.867 17.1551H154.942V29.2571L152.089 32.1226V20.5072L150.043 20.5583V20.5613Z" fill="url(#paint8_linear_6320_17500)"/>
<path d="M158.75 3.88081C160.76 4.05503 161.507 5.04326 161.673 7.26301C161.679 7.34411 161.739 7.41019 161.811 7.41019H161.817C161.889 7.41019 161.949 7.34411 161.955 7.26301C162.114 5.11835 163.015 4.12111 164.881 3.90184C164.953 3.89283 165.007 3.82675 165.007 3.74264V3.69759C165.007 3.61649 164.953 3.5474 164.881 3.53839C163.003 3.31611 162.108 2.31287 161.952 0.147183C161.946 0.0630783 161.886 0 161.814 0C161.742 0 161.682 0.066082 161.676 0.147183C161.517 2.38796 160.766 3.3822 158.747 3.55641C158.675 3.56242 158.618 3.63151 158.618 3.71561V3.72162C158.618 3.80572 158.675 3.87481 158.747 3.88081H158.75Z" fill="url(#paint9_linear_6320_17500)"/>
<path d="M144.271 7.18783C145.53 7.29596 145.995 7.91473 146.101 9.30545C146.104 9.35652 146.143 9.39857 146.188 9.39857H146.191C146.236 9.39857 146.272 9.35952 146.278 9.30545C146.377 7.96279 146.942 7.34102 148.11 7.19984C148.155 7.19383 148.188 7.15178 148.188 7.10072V7.07369C148.188 7.02262 148.152 6.98057 148.11 6.97456C146.936 6.83639 146.374 6.20561 146.278 4.85093C146.275 4.79986 146.236 4.75781 146.191 4.75781C146.146 4.75781 146.107 4.79986 146.104 4.85093C146.004 6.25367 145.533 6.87544 144.271 6.98658C144.226 6.98958 144.19 7.03464 144.19 7.0857C144.19 7.14277 144.226 7.18482 144.271 7.18783Z" fill="url(#paint10_linear_6320_17500)"/>
<path d="M175.669 38.2128C174.494 38.0747 173.933 37.4439 173.837 36.0892C173.834 36.0381 173.795 35.9961 173.749 35.9961C173.704 35.9961 173.665 36.0381 173.662 36.0892C173.563 37.492 173.092 38.1137 171.83 38.2249C171.785 38.2279 171.749 38.2729 171.749 38.324C171.749 38.3811 171.785 38.4231 171.83 38.4261C173.089 38.5342 173.554 39.153 173.659 40.5437C173.662 40.5948 173.701 40.6369 173.746 40.6369H173.749C173.795 40.6369 173.831 40.5978 173.837 40.5437C173.936 39.2011 174.5 38.5793 175.669 38.4381C175.714 38.4321 175.747 38.3901 175.747 38.339V38.312C175.747 38.2609 175.711 38.2189 175.669 38.2128Z" fill="url(#paint11_linear_6320_17500)"/>
<path d="M137.006 30.5144C137.009 30.5655 137.048 30.6076 137.093 30.6076H137.096C137.141 30.6076 137.177 30.5685 137.183 30.5144C137.282 29.1718 137.847 28.55 139.016 28.4088C139.061 28.4028 139.094 28.3608 139.094 28.3097V28.2827C139.094 28.2316 139.058 28.1896 139.016 28.1835C137.841 28.0454 137.279 27.4146 137.183 26.0599C137.18 26.0089 137.141 25.9668 137.096 25.9668C137.051 25.9668 137.012 26.0089 137.009 26.0599C136.91 27.4627 136.438 28.0844 135.177 28.1956C135.132 28.1986 135.096 28.2436 135.096 28.2947C135.096 28.3518 135.132 28.3938 135.177 28.3968C136.435 28.5049 136.901 29.1237 137.006 30.5144Z" fill="url(#paint12_linear_6320_17500)"/>
</g>
<defs>
<linearGradient id="paint0_linear_6320_17500" x1="106.646" y1="-112.614" x2="-37.7387" y2="43.1256" gradientUnits="userSpaceOnUse">
<stop stop-color="#AE60A3"/>
<stop offset="1" stop-color="#F7E495"/>
</linearGradient>
<linearGradient id="paint1_linear_6320_17500" x1="142.595" y1="-109.156" x2="6.39588" y2="68.3207" gradientUnits="userSpaceOnUse">
<stop stop-color="#AE60A3"/>
<stop offset="1" stop-color="#F7E495"/>
</linearGradient>
<linearGradient id="paint2_linear_6320_17500" x1="143.495" y1="-112.616" x2="-0.889374" y2="43.1237" gradientUnits="userSpaceOnUse">
<stop stop-color="#AE60A3"/>
<stop offset="1" stop-color="#F7E495"/>
</linearGradient>
<linearGradient id="paint3_linear_6320_17500" x1="167.983" y1="-112.804" x2="24.2504" y2="51.4326" gradientUnits="userSpaceOnUse">
<stop stop-color="#AE60A3"/>
<stop offset="1" stop-color="#F7E495"/>
</linearGradient>
<linearGradient id="paint4_linear_6320_17500" x1="182.944" y1="-109.177" x2="42.9734" y2="49.0226" gradientUnits="userSpaceOnUse">
<stop stop-color="#AE60A3"/>
<stop offset="1" stop-color="#F7E495"/>
</linearGradient>
<linearGradient id="paint5_linear_6320_17500" x1="217.382" y1="-109.156" x2="81.1834" y2="68.3207" gradientUnits="userSpaceOnUse">
<stop stop-color="#AE60A3"/>
<stop offset="1" stop-color="#F7E495"/>
</linearGradient>
<linearGradient id="paint6_linear_6320_17500" x1="215.332" y1="-109.177" x2="74.6505" y2="41.6216" gradientUnits="userSpaceOnUse">
<stop stop-color="#AE60A3"/>
<stop offset="1" stop-color="#F7E495"/>
</linearGradient>
<linearGradient id="paint7_linear_6320_17500" x1="179.912" y1="13.2706" x2="148.532" y2="51.499" gradientUnits="userSpaceOnUse">
<stop stop-color="#AE60A3"/>
<stop offset="1" stop-color="#F7E495"/>
</linearGradient>
<linearGradient id="paint8_linear_6320_17500" x1="167.771" y1="3.30488" x2="136.388" y2="41.5303" gradientUnits="userSpaceOnUse">
<stop stop-color="#AE60A3"/>
<stop offset="1" stop-color="#F7E495"/>
</linearGradient>
<linearGradient id="paint9_linear_6320_17500" x1="164.421" y1="0.552687" x2="133.038" y2="38.7811" gradientUnits="userSpaceOnUse">
<stop stop-color="#AE60A3"/>
<stop offset="1" stop-color="#F7E495"/>
</linearGradient>
<linearGradient id="paint10_linear_6320_17500" x1="156.737" y1="-5.75523" x2="125.354" y2="32.4703" gradientUnits="userSpaceOnUse">
<stop stop-color="#AE60A3"/>
<stop offset="1" stop-color="#F7E495"/>
</linearGradient>
<linearGradient id="paint11_linear_6320_17500" x1="188.522" y1="20.3407" x2="157.139" y2="58.5661" gradientUnits="userSpaceOnUse">
<stop stop-color="#AE60A3"/>
<stop offset="1" stop-color="#F7E495"/>
</linearGradient>
<linearGradient id="paint12_linear_6320_17500" x1="161.706" y1="-1.67651" x2="130.323" y2="36.549" gradientUnits="userSpaceOnUse">
<stop stop-color="#AE60A3"/>
<stop offset="1" stop-color="#F7E495"/>
</linearGradient>
<clipPath id="clip0_6320_17500">
<rect width="176.472" height="46.0003" fill="white"/>
</clipPath>
</defs>
</svg>
