<svg width="177" height="46" viewBox="0 0 177 46" fill="none" xmlns="http://www.w3.org/2000/svg">
<g clip-path="url(#clip0_6307_1928)">
<path d="M4.4413 27.3511C4.69347 27.3511 4.87716 27.4071 4.99857 27.5192C5.11688 27.6313 5.1916 27.843 5.21962 28.1543C5.32236 29.2658 5.62746 30.0628 6.13181 30.5453C6.63616 31.0279 7.26816 31.2676 8.02469 31.2676C8.41074 31.2676 8.76876 31.2147 9.105 31.112C9.43812 31.0092 9.72765 30.8442 9.9736 30.6232C10.2196 30.4021 10.4064 30.1219 10.5402 29.7888C10.6741 29.4557 10.7395 29.051 10.7395 28.5746C10.7395 27.9364 10.6243 27.4071 10.3939 26.9837C10.1635 26.5603 9.86775 26.2054 9.5035 25.9159C9.13924 25.6263 8.71584 25.3866 8.23639 25.1936C7.75383 25.0006 7.25259 24.8076 6.73579 24.6145C6.00728 24.3468 5.25075 24.0386 4.4662 23.6899C3.67854 23.3412 2.95626 22.9116 2.29624 22.3979C1.63623 21.8873 1.0914 21.2709 0.661768 20.5517C0.232134 19.8325 0.0173177 18.9764 0.0173177 17.9832C0.0173177 16.2336 0.661768 14.8793 1.95378 13.9235C3.24579 12.9677 5.13556 12.4883 7.6293 12.4883C10.123 12.4883 11.882 12.8619 13.1367 13.6122C14.3914 14.3625 15.1136 15.4552 15.3067 16.8936C15.3347 17.1302 15.3035 17.3512 15.207 17.5505C15.1105 17.7497 14.8988 17.8494 14.5719 17.8494H10.9014C10.7239 17.8494 10.5776 17.8182 10.4686 17.7591C10.3565 17.6999 10.2725 17.6283 10.2133 17.5474C10.1542 17.4664 10.1137 17.3761 10.0919 17.2796C10.0701 17.1831 10.0514 17.0991 10.0359 17.0243C9.94558 16.2242 9.71209 15.6327 9.33538 15.256C8.95867 14.8793 8.41074 14.6894 7.70091 14.6894C6.99108 14.6894 6.40267 14.8762 5.9886 15.2467C5.57453 15.6171 5.36594 16.2336 5.36594 17.0928C5.36594 17.6408 5.44377 18.1171 5.59944 18.5156C5.7551 18.9172 5.99483 19.2721 6.32172 19.5835C6.64862 19.8948 7.0658 20.1781 7.57949 20.4303C8.09007 20.6824 8.69404 20.9191 9.39142 21.1432C11.5271 21.8406 13.1678 22.6812 14.3104 23.6681C15.453 24.655 16.0227 25.9128 16.0227 27.4383C16.0227 29.4277 15.3502 30.9314 14.0084 31.9557C12.6666 32.9799 10.6585 33.4905 7.99044 33.4905C6.59569 33.4905 5.40953 33.3566 4.42884 33.0889C3.45127 32.8211 2.64493 32.4538 2.01605 31.9868C1.38405 31.5198 0.910831 30.9625 0.593275 30.3181C0.27572 29.6736 0.0764701 28.9638 0.00486451 28.1917C-0.0107019 28.0142 0.0110911 27.8274 0.0702435 27.6344C0.129396 27.4414 0.337986 27.3449 0.692901 27.3449H4.45375L4.4413 27.3511Z" fill="white"/>
<path d="M35.9252 32.3992C36.0154 32.6514 36.0092 32.8319 35.9127 32.944C35.8162 33.0561 35.6481 33.1121 35.4115 33.1121H34.0541C33.8455 33.1121 33.7116 33.0903 33.6525 33.0467C33.5933 33.0032 33.5248 32.8911 33.4532 32.7136L32.074 28.8189H23.4409L22.1271 32.558C22.0088 32.9284 21.741 33.1152 21.327 33.1152H17.7436C17.4603 33.1152 17.2797 33.0343 17.1987 32.8693C17.1178 32.7074 17.1209 32.4988 17.2112 32.2466L23.9079 13.3988C24.0262 13.0719 24.1756 12.8695 24.3531 12.7855C24.5305 12.7045 24.7671 12.6641 25.066 12.6641H27.9583C28.254 12.6641 28.4937 12.7045 28.6712 12.7855C28.8487 12.8664 28.9981 13.0719 29.1164 13.3988L35.9252 32.4023V32.3992ZM24.2223 26.5929H31.2988L27.7621 16.5121L24.2254 26.5929H24.2223Z" fill="white"/>
<path d="M41.2909 27.3492C41.5431 27.3492 41.7268 27.4052 41.8482 27.5173C41.9665 27.6293 42.0412 27.8411 42.0692 28.1524C42.172 29.2638 42.4771 30.0608 42.9814 30.5434C43.4858 31.0259 44.1178 31.2657 44.8743 31.2657C45.2603 31.2657 45.6184 31.2127 45.9546 31.11C46.2877 31.0073 46.5773 30.8423 46.8232 30.6212C47.0692 30.4002 47.256 30.12 47.3898 29.7869C47.5237 29.4537 47.5891 29.049 47.5891 28.5727C47.5891 27.9344 47.4739 27.4052 47.2435 26.9818C47.0131 26.5584 46.7174 26.2035 46.3531 25.9139C45.9889 25.6244 45.5654 25.3847 45.086 25.1916C44.6034 24.9986 44.1022 24.8056 43.5854 24.6126C42.8569 24.3448 42.1004 24.0366 41.3158 23.6879C40.5282 23.3392 39.8059 22.9096 39.1459 22.3959C38.4858 21.8853 37.941 21.2689 37.5114 20.5497C37.0817 19.8306 36.8669 18.9744 36.8669 17.9813C36.8669 16.2316 37.5114 14.8773 38.8034 13.9216C40.0954 12.9658 41.9852 12.4863 44.4789 12.4863C46.9727 12.4863 48.7317 12.8599 49.9863 13.6102C51.241 14.3605 51.9633 15.4533 52.1563 16.8916C52.1843 17.1282 52.1532 17.3493 52.0566 17.5485C51.9601 17.7478 51.7484 17.8474 51.4215 17.8474H47.751C47.5735 17.8474 47.4272 17.8163 47.3182 17.7571C47.2061 17.698 47.1221 17.6264 47.0629 17.5454C47.0038 17.4645 46.9633 17.3742 46.9415 17.2777C46.9197 17.1812 46.901 17.0971 46.8855 17.0224C46.7952 16.2223 46.5617 15.6307 46.185 15.254C45.8083 14.8773 45.2603 14.6874 44.5505 14.6874C43.8407 14.6874 43.2523 14.8742 42.8382 15.2447C42.4241 15.6152 42.2156 16.2316 42.2156 17.0909C42.2156 17.6388 42.2934 18.1151 42.449 18.5136C42.6047 18.9153 42.8444 19.2702 43.1713 19.5815C43.4982 19.8928 43.9154 20.1761 44.4291 20.4283C44.9397 20.6805 45.5437 20.9171 46.241 21.1413C48.3767 21.8386 50.0174 22.6792 51.16 23.6661C52.3026 24.653 52.8723 25.9108 52.8723 27.4363C52.8723 29.4257 52.1999 30.9294 50.858 31.9537C49.5162 32.978 47.5081 33.4886 44.8401 33.4886C43.4453 33.4886 42.2591 33.3547 41.2785 33.0869C40.3009 32.8192 39.4945 32.4518 38.8657 31.9848C38.2337 31.5178 37.7604 30.9606 37.4429 30.3161C37.1253 29.6717 36.9261 28.9618 36.8545 28.1897C36.8389 28.0123 36.8607 27.8255 36.9199 27.6325C36.979 27.4394 37.1876 27.3429 37.5425 27.3429H41.3034L41.2909 27.3492Z" fill="white"/>
<path d="M63.343 12.4844C64.8561 12.4844 66.1512 12.7023 67.2253 13.1413C68.2994 13.5803 69.1804 14.234 69.8622 15.112C70.544 15.9868 71.0453 17.0765 71.3628 18.3841C71.6804 19.6885 71.8423 21.2171 71.8423 22.9668C71.8423 24.7165 71.6835 26.2762 71.3628 27.5963C71.0453 28.9163 70.544 30.0153 69.8622 30.8901C69.1804 31.7649 68.2994 32.4219 67.2253 32.8608C66.1481 33.2967 64.8561 33.5177 63.343 33.5177C61.83 33.5177 60.5348 33.2967 59.4608 32.8515C58.3836 32.4063 57.5056 31.7432 56.8238 30.859C56.142 29.9748 55.6408 28.8758 55.3232 27.5558C55.0056 26.2358 54.8438 24.7009 54.8438 22.9512C54.8438 21.2016 55.0025 19.6698 55.3232 18.356C55.6408 17.0422 56.1451 15.9526 56.8363 15.084C57.5274 14.2154 58.4085 13.5678 59.4857 13.1382C60.5597 12.7085 61.8486 12.4937 63.3461 12.4937L63.343 12.4844ZM66.8361 22.945C66.8361 21.3137 66.7583 19.9563 66.6026 18.8728C66.447 17.7894 66.2197 16.9208 65.9239 16.2701C65.6282 15.6163 65.2608 15.1587 64.8218 14.8909C64.3829 14.6232 63.891 14.4893 63.343 14.4893C62.7951 14.4893 62.3001 14.6232 61.8642 14.8909C61.4252 15.1587 61.0548 15.6132 60.7528 16.2608C60.4477 16.9052 60.2142 17.7738 60.0523 18.8635C59.8904 19.9531 59.8063 21.3137 59.8063 22.9481C59.8063 24.5826 59.8873 25.9462 60.0523 27.0421C60.2142 28.1411 60.4477 29.019 60.7528 29.6791C61.0579 30.3391 61.4283 30.8092 61.8642 31.0925C62.3001 31.3727 62.7951 31.5159 63.343 31.5159C63.891 31.5159 64.386 31.3758 64.8218 31.0925C65.2608 30.8092 65.6251 30.3391 65.9239 29.6791C66.2197 29.019 66.447 28.1411 66.6026 27.0421C66.7583 25.9431 66.8361 24.5795 66.8361 22.9481V22.945Z" fill="white"/>
<path d="M90.4643 31.868C90.4643 32.2696 90.3677 32.5747 90.1747 32.7926C89.9817 33.0074 89.6641 33.1164 89.2189 33.1164H86.5042C86.059 33.1164 85.7414 33.0074 85.5484 32.7926C85.3553 32.5778 85.2588 32.2696 85.2588 31.868V23.6115H79.3187V31.868C79.3187 32.2696 79.2222 32.5747 79.0292 32.7926C78.8361 33.0074 78.5186 33.1164 78.0734 33.1164H75.3586C74.9134 33.1164 74.5927 33.0074 74.4028 32.7926C74.2098 32.5778 74.1133 32.2696 74.1133 31.868V13.9105C74.1133 13.5089 74.2098 13.2038 74.4028 12.9859C74.5958 12.7711 74.9134 12.6621 75.3586 12.6621H78.0734C78.5186 12.6621 78.8361 12.7711 79.0292 12.9859C79.2222 13.2007 79.3187 13.5089 79.3187 13.9105V21.3886H85.2588V13.9105C85.2588 13.5089 85.3553 13.2038 85.5484 12.9859C85.7414 12.7711 86.059 12.6621 86.5042 12.6621H89.2189C89.6641 12.6621 89.9817 12.7711 90.1747 12.9859C90.3677 13.2007 90.4643 13.5089 90.4643 13.9105V31.868Z" fill="white"/>
<path d="M110.712 32.3992C110.803 32.6514 110.796 32.8319 110.7 32.944C110.603 33.0561 110.435 33.1121 110.199 33.1121H108.841C108.633 33.1121 108.499 33.0903 108.44 33.0467C108.38 33.0032 108.312 32.8911 108.24 32.7136L106.861 28.8189H98.228L96.9142 32.558C96.7959 32.9284 96.5281 33.1152 96.1141 33.1152H92.5307C92.2474 33.1152 92.0668 33.0343 91.9859 32.8693C91.9049 32.7074 91.908 32.4988 91.9983 32.2466L98.695 13.3988C98.8133 13.0719 98.9627 12.8695 99.1402 12.7855C99.3176 12.7045 99.5542 12.6641 99.8531 12.6641H102.745C103.041 12.6641 103.281 12.7045 103.458 12.7855C103.636 12.8664 103.785 13.0719 103.904 13.3988L110.712 32.4023V32.3992ZM99.0094 26.5929H106.086L102.549 16.5121L99.0125 26.5929H99.0094Z" fill="white"/>
<path d="M127.624 31.868C127.624 32.2696 127.528 32.5747 127.335 32.7926C127.142 33.0074 126.824 33.1164 126.379 33.1164H124.044C123.836 33.1164 123.624 33.079 123.409 33.0043C123.194 32.9296 122.998 32.7459 122.821 32.447L114.655 18.4061V32.5373C114.655 32.6992 114.617 32.8362 114.542 32.9483C114.468 33.0604 114.312 33.1164 114.075 33.1164H112.696C112.475 33.1164 112.323 33.0604 112.239 32.9483C112.158 32.8362 112.117 32.6992 112.117 32.5373V13.9137C112.117 13.512 112.214 13.2069 112.407 12.989C112.6 12.7742 112.917 12.6652 113.363 12.6652H115.697C115.906 12.6652 116.118 12.6995 116.333 12.7648C116.547 12.8302 116.744 13.0201 116.921 13.3315L125.087 27.3942V13.2412C125.087 13.0793 125.124 12.9423 125.199 12.8302C125.274 12.7181 125.43 12.6621 125.666 12.6621H127.045C127.266 12.6621 127.419 12.7181 127.5 12.8302C127.581 12.9423 127.621 13.0793 127.621 13.2412V31.8649L127.624 31.868Z" fill="white"/>
<path d="M171.087 17.1094C168.498 20.7048 165.251 24.7178 161.56 28.8029C157.946 32.8008 154.357 36.3663 151.098 39.2709C153.053 40.148 155.222 40.6376 157.508 40.6376C166.17 40.6376 173.19 33.6149 173.19 24.9551C173.19 22.0986 172.424 19.4192 171.09 17.1124L171.087 17.1094ZM167.693 30.0614C166.711 30.0614 165.918 29.2655 165.918 28.2862C165.918 27.307 166.714 26.511 167.693 26.511C168.672 26.511 169.468 27.307 169.468 28.2862C169.468 29.2655 168.672 30.0614 167.693 30.0614Z" fill="url(#paint0_linear_6307_1928)"/>
<path d="M160.405 27.566C170.146 16.7916 176.779 6.52788 176.46 3.04056C176.424 2.63205 176.292 2.31365 176.055 2.10039C174.724 0.898898 170.435 3.27184 164.893 7.91861C164.953 7.96967 165.013 8.01773 165.073 8.06879C167.807 6.00523 169.783 5.05906 170.459 5.66882C170.477 5.68384 170.492 5.70186 170.507 5.71988C170.696 5.93314 170.747 6.28758 170.672 6.76518C170.471 8.04777 169.359 10.2135 167.566 12.9168C164.842 10.637 161.336 9.26428 157.507 9.26428C148.844 9.26428 141.824 16.287 141.824 24.9467C141.824 29.3442 143.633 33.3151 146.549 36.1627C143.927 38.3103 141.815 39.656 140.581 39.9023C140.163 39.9864 139.845 39.9443 139.644 39.7641C139.01 39.1904 139.632 37.3281 141.19 34.6668C141.109 34.6308 141.031 34.5917 140.953 34.5466C137.141 40.2567 135.366 44.528 136.655 45.6935C136.844 45.8647 137.096 45.9638 137.403 45.9908C140.704 46.3092 150.454 38.5776 160.414 27.56L160.405 27.566ZM160.039 19.3358C161.018 19.3358 161.814 20.1318 161.814 21.111C161.814 22.0902 161.018 22.8862 160.039 22.8862C159.06 22.8862 158.264 22.0902 158.264 21.111C158.264 20.1318 159.06 19.3358 160.039 19.3358ZM150.042 20.5613V19.2126L153.866 17.1551H154.942V29.2571L152.088 32.1226V20.5072L150.042 20.5583V20.5613Z" fill="url(#paint1_linear_6307_1928)"/>
<path d="M158.749 3.88081C160.759 4.05503 161.507 5.04326 161.672 7.26301C161.678 7.34411 161.738 7.41019 161.81 7.41019H161.816C161.888 7.41019 161.948 7.34411 161.954 7.26301C162.114 5.11835 163.015 4.12111 164.88 3.90184C164.952 3.89283 165.006 3.82675 165.006 3.74264V3.69759C165.006 3.61649 164.952 3.5474 164.88 3.53839C163.003 3.31611 162.108 2.31287 161.951 0.147183C161.945 0.0630783 161.885 0 161.813 0C161.741 0 161.681 0.066082 161.675 0.147183C161.516 2.38796 160.765 3.3822 158.746 3.55641C158.674 3.56242 158.617 3.63151 158.617 3.71561V3.72162C158.617 3.80572 158.674 3.87481 158.746 3.88081H158.749Z" fill="url(#paint2_linear_6307_1928)"/>
<path d="M144.271 7.18783C145.529 7.29596 145.995 7.91473 146.1 9.30545C146.103 9.35652 146.142 9.39857 146.187 9.39857H146.19C146.235 9.39857 146.271 9.35952 146.277 9.30545C146.376 7.96279 146.941 7.34102 148.109 7.19984C148.154 7.19383 148.187 7.15178 148.187 7.10072V7.07369C148.187 7.02262 148.151 6.98057 148.109 6.97456C146.935 6.83639 146.373 6.20561 146.277 4.85093C146.274 4.79986 146.235 4.75781 146.19 4.75781C146.145 4.75781 146.106 4.79986 146.103 4.85093C146.004 6.25367 145.532 6.87544 144.271 6.98658C144.226 6.98958 144.189 7.03464 144.189 7.0857C144.189 7.14277 144.226 7.18482 144.271 7.18783Z" fill="url(#paint3_linear_6307_1928)"/>
<path d="M175.668 38.2128C174.493 38.0747 173.932 37.4439 173.836 36.0892C173.833 36.0381 173.794 35.9961 173.749 35.9961C173.703 35.9961 173.664 36.0381 173.661 36.0892C173.562 37.492 173.091 38.1137 171.829 38.2249C171.784 38.2279 171.748 38.2729 171.748 38.324C171.748 38.3811 171.784 38.4231 171.829 38.4261C173.088 38.5342 173.553 39.153 173.658 40.5437C173.661 40.5948 173.7 40.6369 173.746 40.6369H173.749C173.794 40.6369 173.83 40.5978 173.836 40.5437C173.935 39.2011 174.499 38.5793 175.668 38.4381C175.713 38.4321 175.746 38.3901 175.746 38.339V38.312C175.746 38.2609 175.71 38.2189 175.668 38.2128Z" fill="url(#paint4_linear_6307_1928)"/>
<path d="M137.006 30.5144C137.009 30.5655 137.048 30.6076 137.093 30.6076H137.096C137.141 30.6076 137.177 30.5685 137.183 30.5144C137.282 29.1718 137.847 28.55 139.016 28.4088C139.061 28.4028 139.094 28.3608 139.094 28.3097V28.2827C139.094 28.2316 139.058 28.1896 139.016 28.1835C137.841 28.0454 137.279 27.4146 137.183 26.0599C137.18 26.0089 137.141 25.9668 137.096 25.9668C137.051 25.9668 137.012 26.0089 137.009 26.0599C136.91 27.4627 136.438 28.0844 135.177 28.1956C135.132 28.1986 135.096 28.2436 135.096 28.2947C135.096 28.3518 135.132 28.3938 135.177 28.3968C136.435 28.5049 136.901 29.1237 137.006 30.5144Z" fill="url(#paint5_linear_6307_1928)"/>
</g>
<defs>
<linearGradient id="paint0_linear_6307_1928" x1="179.912" y1="13.2706" x2="148.532" y2="51.499" gradientUnits="userSpaceOnUse">
<stop stop-color="#AE60A3"/>
<stop offset="1" stop-color="#F7E495"/>
</linearGradient>
<linearGradient id="paint1_linear_6307_1928" x1="167.77" y1="3.30488" x2="136.388" y2="41.5303" gradientUnits="userSpaceOnUse">
<stop stop-color="#AE60A3"/>
<stop offset="1" stop-color="#F7E495"/>
</linearGradient>
<linearGradient id="paint2_linear_6307_1928" x1="164.42" y1="0.552687" x2="133.037" y2="38.7811" gradientUnits="userSpaceOnUse">
<stop stop-color="#AE60A3"/>
<stop offset="1" stop-color="#F7E495"/>
</linearGradient>
<linearGradient id="paint3_linear_6307_1928" x1="156.736" y1="-5.75523" x2="125.353" y2="32.4703" gradientUnits="userSpaceOnUse">
<stop stop-color="#AE60A3"/>
<stop offset="1" stop-color="#F7E495"/>
</linearGradient>
<linearGradient id="paint4_linear_6307_1928" x1="188.521" y1="20.3407" x2="157.138" y2="58.5661" gradientUnits="userSpaceOnUse">
<stop stop-color="#AE60A3"/>
<stop offset="1" stop-color="#F7E495"/>
</linearGradient>
<linearGradient id="paint5_linear_6307_1928" x1="161.706" y1="-1.67651" x2="130.323" y2="36.549" gradientUnits="userSpaceOnUse">
<stop stop-color="#AE60A3"/>
<stop offset="1" stop-color="#F7E495"/>
</linearGradient>
<clipPath id="clip0_6307_1928">
<rect width="176.472" height="46.0003" fill="white"/>
</clipPath>
</defs>
</svg>
