<svg width="99" height="19" viewBox="0 0 99 19" fill="none" xmlns="http://www.w3.org/2000/svg">
<path d="M11.7685 13.678C11.7685 11.0529 10.2113 9.42886 7.16346 8.7837L4.91653 8.31652C2.93657 7.89383 1.91322 6.98171 1.91322 5.33545C1.91322 3.53347 3.22578 2.30989 5.56169 2.30989C7.8976 2.30989 9.18791 3.53347 9.18791 5.33545V5.66916H11.1234V5.33545C11.1234 2.75483 9.18791 0.619141 5.56169 0.619141C1.91322 0.619141 0 2.75483 0 5.33545C0 7.91608 1.60177 9.40661 4.31587 9.96278L6.56279 10.43C8.83196 10.8971 9.85532 12.0762 9.85532 13.7002C9.85532 15.5912 8.36478 16.9705 5.89539 16.9705C3.38151 16.9705 1.91322 15.5912 1.91322 13.7002V13.2108H0V13.678C0 16.5033 2.11344 18.639 5.89539 18.639C9.65509 18.639 11.7685 16.5033 11.7685 13.678Z" fill="white"/>
<path d="M18.424 0.908349L12.3061 18.3498H14.3306L15.7321 14.2119H23.3405L24.742 18.3498H26.7443L20.6486 0.908349H18.424ZM22.7398 12.5212H16.2883L19.5363 2.91056L22.7398 12.5212Z" fill="white"/>
<path d="M39.1868 13.678C39.1868 11.0529 37.6295 9.42886 34.5817 8.7837L32.3348 8.31652C30.3548 7.89383 29.3315 6.98171 29.3315 5.33545C29.3315 3.53347 30.644 2.30989 32.9799 2.30989C35.3159 2.30989 36.6062 3.53347 36.6062 5.33545V5.66916H38.5416V5.33545C38.5416 2.75483 36.6062 0.619141 32.9799 0.619141C29.3315 0.619141 27.4183 2.75483 27.4183 5.33545C27.4183 7.91608 29.02 9.40661 31.7341 9.96278L33.9811 10.43C36.2502 10.8971 37.2736 12.0762 37.2736 13.7002C37.2736 15.5912 35.783 16.9705 33.3137 16.9705C30.7998 16.9705 29.3315 15.5912 29.3315 13.7002V13.2108H27.4183V13.678C27.4183 16.5033 29.5317 18.639 33.3137 18.639C37.0734 18.639 39.1868 16.5033 39.1868 13.678Z" fill="white"/>
<path d="M54.2235 9.62908C54.2235 4.6458 52.7997 0.619141 47.5717 0.619141C42.4105 0.619141 40.9422 4.66805 40.9422 9.62908C40.9422 14.6568 42.4327 18.639 47.5717 18.639C52.7552 18.639 54.2235 14.6791 54.2235 9.62908ZM52.3103 9.62908C52.3103 14.1229 51.2425 16.9483 47.5717 16.9483C43.9233 16.9483 42.8777 14.1452 42.8777 9.62908C42.8777 5.13523 43.9455 2.30989 47.5717 2.30989C51.2202 2.30989 52.3103 5.15748 52.3103 9.62908Z" fill="white"/>
<path d="M66.6162 18.3498H68.5517V0.908349H66.6162V8.56123H58.6518V0.908349H56.7164V18.3498H58.6518V10.2742H66.6162V18.3498Z" fill="white"/>
<path d="M76.15 0.908349L70.0321 18.3498H72.0566L73.4581 14.2119H81.0665L82.468 18.3498H84.4703L78.3746 0.908349H76.15ZM80.4658 12.5212H74.0143L77.2623 2.91056L80.4658 12.5212Z" fill="white"/>
<path d="M98.083 18.3498V0.908349H96.1475V14.8348L87.9385 0.908349H86.003V18.3498H87.9385V4.42334L96.1475 18.3498H98.083Z" fill="white"/>
</svg>
