<svg width="231" height="45" viewBox="0 0 231 45" fill="none" xmlns="http://www.w3.org/2000/svg">
<path d="M27.6461 32.4365C27.6461 26.0717 23.9878 22.1341 16.8281 20.5699L11.5497 19.4371C6.89847 18.4123 4.49445 16.2008 4.49445 12.2093C4.49445 7.84017 7.57786 4.8735 13.0653 4.8735C18.5527 4.8735 21.5838 7.84017 21.5838 12.2093V13.0184H26.1305V12.2093C26.1305 5.95229 21.5838 0.774109 13.0653 0.774109C4.49445 0.774109 0 5.95229 0 12.2093C0 18.4662 3.7628 22.0802 10.1387 23.4287L15.417 24.5614C20.7477 25.6941 23.1517 28.5529 23.1517 32.4905C23.1517 37.0753 19.6502 40.4196 13.8492 40.4196C7.94369 40.4196 4.49445 37.0753 4.49445 32.4905V31.3038H0V32.4365C0 39.2868 4.9648 44.465 13.8492 44.465C22.6813 44.465 27.6461 39.2868 27.6461 32.4365Z" fill="white"/>
<path d="M43.2808 1.47532L28.909 43.7638H33.6647L36.9572 33.7311H54.8305L58.1229 43.7638H62.8264L48.5069 1.47532H43.2808ZM53.4194 29.6317H38.2637L45.8938 6.32987L53.4194 29.6317Z" fill="white"/>
<path d="M92.0559 32.4365C92.0559 26.0717 88.3976 22.1341 81.2378 20.5699L75.9595 19.4371C71.3082 18.4123 68.9042 16.2008 68.9042 12.2093C68.9042 7.84017 71.9876 4.8735 77.475 4.8735C82.9625 4.8735 85.9936 7.84017 85.9936 12.2093V13.0184H90.5403V12.2093C90.5403 5.95229 85.9936 0.774109 77.475 0.774109C68.9042 0.774109 64.4098 5.95229 64.4098 12.2093C64.4098 18.4662 68.1726 22.0802 74.5484 23.4287L79.8268 24.5614C85.1574 25.6941 87.5614 28.5529 87.5614 32.4905C87.5614 37.0753 84.0599 40.4196 78.259 40.4196C72.3535 40.4196 68.9042 37.0753 68.9042 32.4905V31.3038H64.4098V32.4365C64.4098 39.2868 69.3746 44.465 78.259 44.465C87.0911 44.465 92.0559 39.2868 92.0559 32.4365Z" fill="white"/>
<path d="M127.379 22.6196C127.379 10.5371 124.035 0.774109 111.753 0.774109C99.6288 0.774109 96.1796 10.5911 96.1796 22.6196C96.1796 34.8099 99.6811 44.465 111.753 44.465C123.93 44.465 127.379 34.8638 127.379 22.6196ZM122.885 22.6196C122.885 33.5153 120.377 40.3656 111.753 40.3656C103.183 40.3656 100.726 33.5693 100.726 22.6196C100.726 11.7238 103.235 4.8735 111.753 4.8735C120.324 4.8735 122.885 11.7777 122.885 22.6196Z" fill="white"/>
<path d="M156.492 43.7638H161.038V1.47532H156.492V20.0305H137.782V1.47532H133.236V43.7638H137.782V24.1838H156.492V43.7638Z" fill="white"/>
<path d="M178.888 1.47532L164.516 43.7638H169.272L172.565 33.7311H190.438L193.73 43.7638H198.434L184.114 1.47532H178.888ZM189.027 29.6317H173.871L181.501 6.32987L189.027 29.6317Z" fill="white"/>
<path d="M230.412 43.7638V1.47532H225.866V35.2414L206.581 1.47532H202.034V43.7638H206.581V9.99775L225.866 43.7638H230.412Z" fill="white"/>
</svg>
