<svg width="127" height="24" viewBox="0 0 127 24" fill="none" xmlns="http://www.w3.org/2000/svg">
<path d="M15.2181 17.5663C15.2181 14.1717 13.2044 12.0717 9.26319 11.2374L6.35766 10.6333C3.79733 10.0867 2.47402 8.90724 2.47402 6.77844C2.47402 4.44825 4.17131 2.86603 7.19192 2.86603C10.2125 2.86603 11.8811 4.44825 11.8811 6.77844V7.20995H14.3838V6.77844C14.3838 3.44138 11.8811 0.679688 7.19192 0.679688C2.47402 0.679688 0 3.44138 0 6.77844C0 10.1155 2.07127 12.0429 5.58093 12.7621L8.48647 13.3662C11.4208 13.9704 12.7441 15.495 12.7441 17.5951C12.7441 20.0403 10.8166 21.8239 7.62344 21.8239C4.37269 21.8239 2.47402 20.0403 2.47402 17.5951V16.9622H0V17.5663C0 21.2198 2.73293 23.9815 7.62344 23.9815C12.4852 23.9815 15.2181 21.2198 15.2181 17.5663Z" fill="#222222"/>
<path d="M23.8244 1.05367L15.9132 23.6075H18.5311L20.3435 18.2567H30.182L31.9944 23.6075H34.5835L26.7011 1.05367H23.8244ZM29.4053 16.0704H21.0627L25.2627 3.64276L29.4053 16.0704Z" fill="#222222"/>
<path d="M50.6731 17.5663C50.6731 14.1717 48.6594 12.0717 44.7182 11.2374L41.8127 10.6333C39.2524 10.0867 37.9291 8.90724 37.9291 6.77844C37.9291 4.44825 39.6264 2.86603 42.647 2.86603C45.6676 2.86603 47.3361 4.44825 47.3361 6.77844V7.20995H49.8389V6.77844C49.8389 3.44138 47.3361 0.679688 42.647 0.679688C37.9291 0.679688 35.455 3.44138 35.455 6.77844C35.455 10.1155 37.5263 12.0429 41.036 12.7621L43.9415 13.3662C46.8758 13.9704 48.1991 15.495 48.1991 17.5951C48.1991 20.0403 46.2717 21.8239 43.0785 21.8239C39.8277 21.8239 37.9291 20.0403 37.9291 17.5951V16.9622H35.455V17.5663C35.455 21.2198 38.188 23.9815 43.0785 23.9815C47.9402 23.9815 50.6731 21.2198 50.6731 17.5663Z" fill="#222222"/>
<path d="M70.1174 12.3306C70.1174 5.88664 68.2763 0.679688 61.5159 0.679688C54.8418 0.679688 52.9431 5.9154 52.9431 12.3306C52.9431 18.8321 54.8705 23.9815 61.5159 23.9815C68.2187 23.9815 70.1174 18.8609 70.1174 12.3306ZM67.6434 12.3306C67.6434 18.1417 66.2625 21.7952 61.5159 21.7952C56.798 21.7952 55.4459 18.1704 55.4459 12.3306C55.4459 6.51953 56.8267 2.86603 61.5159 2.86603C66.2338 2.86603 67.6434 6.54829 67.6434 12.3306Z" fill="#222222"/>
<path d="M86.1426 23.6075H88.6453V1.05367H86.1426V10.9497H75.8437V1.05367H73.3409V23.6075H75.8437V13.1649H86.1426V23.6075Z" fill="#222222"/>
<path d="M98.4709 1.05367L90.5597 23.6075H93.1776L94.99 18.2567H104.829L106.641 23.6075H109.23L101.348 1.05367H98.4709ZM104.052 16.0704H95.7092L99.9092 3.64276L104.052 16.0704Z" fill="#222222"/>
<path d="M126.833 23.6075V1.05367H124.33V19.0622L113.715 1.05367H111.212V23.6075H113.715V5.59896L124.33 23.6075H126.833Z" fill="#222222"/>
</svg>
