<svg width="99" height="19" viewBox="0 0 99 19" fill="none" xmlns="http://www.w3.org/2000/svg">
<path d="M11.7685 13.6775C11.7685 11.0524 10.2113 9.42837 7.16346 8.78321L4.91653 8.31603C2.93657 7.89334 1.91322 6.98123 1.91322 5.33497C1.91322 3.53298 3.22578 2.30941 5.56169 2.30941C7.8976 2.30941 9.18791 3.53298 9.18791 5.33497V5.66867H11.1234V5.33497C11.1234 2.75434 9.18791 0.618652 5.56169 0.618652C1.91322 0.618652 0 2.75434 0 5.33497C0 7.91559 1.60177 9.40612 4.31587 9.96229L6.56279 10.4295C8.83196 10.8967 9.85532 12.0757 9.85532 13.6997C9.85532 15.5907 8.36478 16.97 5.89539 16.97C3.38151 16.97 1.91322 15.5907 1.91322 13.6997V13.2103H0V13.6775C0 16.5028 2.11344 18.6385 5.89539 18.6385C9.65509 18.6385 11.7685 16.5028 11.7685 13.6775Z" fill="#222222"/>
<path d="M18.424 0.90786L12.3061 18.3493H14.3306L15.7321 14.2114H23.3405L24.742 18.3493H26.7443L20.6486 0.90786H18.424ZM22.7398 12.5207H16.2883L19.5363 2.91007L22.7398 12.5207Z" fill="#222222"/>
<path d="M39.1868 13.6775C39.1868 11.0524 37.6295 9.42837 34.5817 8.78321L32.3348 8.31603C30.3548 7.89334 29.3315 6.98123 29.3315 5.33497C29.3315 3.53298 30.644 2.30941 32.9799 2.30941C35.3159 2.30941 36.6062 3.53298 36.6062 5.33497V5.66867H38.5416V5.33497C38.5416 2.75434 36.6062 0.618652 32.9799 0.618652C29.3315 0.618652 27.4183 2.75434 27.4183 5.33497C27.4183 7.91559 29.02 9.40612 31.7341 9.96229L33.9811 10.4295C36.2502 10.8967 37.2736 12.0757 37.2736 13.6997C37.2736 15.5907 35.783 16.97 33.3137 16.97C30.7998 16.97 29.3315 15.5907 29.3315 13.6997V13.2103H27.4183V13.6775C27.4183 16.5028 29.5317 18.6385 33.3137 18.6385C37.0734 18.6385 39.1868 16.5028 39.1868 13.6775Z" fill="#222222"/>
<path d="M54.2235 9.62859C54.2235 4.64532 52.7997 0.618652 47.5717 0.618652C42.4105 0.618652 40.9422 4.66756 40.9422 9.62859C40.9422 14.6564 42.4327 18.6385 47.5717 18.6385C52.7552 18.6385 54.2235 14.6786 54.2235 9.62859ZM52.3103 9.62859C52.3103 14.1224 51.2425 16.9478 47.5717 16.9478C43.9233 16.9478 42.8777 14.1447 42.8777 9.62859C42.8777 5.13475 43.9455 2.30941 47.5717 2.30941C51.2202 2.30941 52.3103 5.15699 52.3103 9.62859Z" fill="#222222"/>
<path d="M66.6162 18.3493H68.5517V0.90786H66.6162V8.56075H58.6518V0.90786H56.7164V18.3493H58.6518V10.2737H66.6162V18.3493Z" fill="#222222"/>
<path d="M76.15 0.90786L70.0321 18.3493H72.0566L73.4581 14.2114H81.0665L82.468 18.3493H84.4703L78.3746 0.90786H76.15ZM80.4658 12.5207H74.0143L77.2623 2.91007L80.4658 12.5207Z" fill="#222222"/>
<path d="M98.083 18.3493V0.90786H96.1475V14.8343L87.9385 0.90786H86.003V18.3493H87.9385V4.42285L96.1475 18.3493H98.083Z" fill="#222222"/>
</svg>
