<svg width="257" height="271" viewBox="0 0 257 271" fill="none" xmlns="http://www.w3.org/2000/svg">
<g clip-path="url(#clip0_6216_49742)">
<path d="M190.511 90C176.806 108.913 159.62 130.023 140.081 151.511C120.955 172.542 101.957 191.297 84.707 206.576C95.0569 211.19 106.535 213.765 118.634 213.765C164.485 213.765 201.64 176.824 201.64 131.271C201.64 116.245 197.585 102.151 190.527 90.0158L190.511 90ZM172.546 158.147C167.347 158.147 163.15 153.96 163.15 148.809C163.15 143.658 167.363 139.471 172.546 139.471C177.728 139.471 181.941 143.658 181.941 148.809C181.941 153.96 177.728 158.147 172.546 158.147Z" fill="#F8F8F8"/>
<path d="M133.976 145.002C185.534 88.3255 220.638 34.3353 218.953 15.9909C218.762 13.842 218.062 12.1672 216.806 11.0454C209.763 4.72517 187.06 17.2075 157.728 41.6509C158.046 41.9195 158.364 42.1723 158.682 42.4409C173.149 31.586 183.61 26.6088 187.188 29.8163C187.283 29.8953 187.362 29.9901 187.442 30.0849C188.444 31.2068 188.714 33.0712 188.316 35.5835C187.251 42.3303 181.369 53.7224 171.877 67.9429C157.458 55.9503 138.904 48.7295 118.634 48.7295C72.783 48.7295 35.6285 85.671 35.6285 131.224C35.6285 154.356 45.1993 175.244 60.6366 190.223C46.7573 201.52 35.5808 208.599 29.0465 209.894C26.8367 210.337 25.1514 210.115 24.0863 209.167C20.7317 206.15 24.0227 196.353 32.2739 182.354C31.8447 182.164 31.4313 181.959 31.0179 181.722C10.8429 211.759 1.44698 234.227 8.26738 240.358C9.26898 241.258 10.6044 241.78 12.2261 241.922C29.6984 243.597 81.3045 202.926 134.023 144.97L133.976 145.002ZM132.02 101.708C137.203 101.708 141.416 105.896 141.416 111.047C141.416 116.197 137.203 120.385 132.02 120.385C126.837 120.385 122.624 116.197 122.624 111.047C122.624 105.896 126.837 101.708 132.02 101.708ZM79.1264 108.155V101.061L99.365 90.2373H105.057V153.897L89.9532 168.971V107.871L79.1264 108.139V108.155Z" fill="#F8F8F8"/>
<path d="M125.2 20.4142C135.836 21.3306 139.794 26.529 140.669 38.2055C140.7 38.6321 141.018 38.9798 141.4 38.9798H141.432C141.813 38.9798 142.131 38.6321 142.163 38.2055C143.006 26.924 147.775 21.6782 157.648 20.5248C158.03 20.4774 158.316 20.1298 158.316 19.6874V19.4504C158.316 19.0238 158.03 18.6604 157.648 18.613C147.712 17.4437 142.974 12.1664 142.147 0.774223C142.115 0.33181 141.797 0 141.416 0C141.034 0 140.716 0.34761 140.685 0.774223C139.842 12.5614 135.867 17.7913 125.184 18.7078C124.802 18.7394 124.5 19.1028 124.5 19.5452V19.5768C124.5 20.0192 124.802 20.3826 125.184 20.4142H125.2Z" fill="#F8F8F8"/>
<path d="M48.5699 37.8099C55.2313 38.3787 57.6955 41.6336 58.252 48.9493C58.2679 49.2179 58.4746 49.4391 58.713 49.4391H58.7289C58.9674 49.4391 59.1582 49.2337 59.19 48.9493C59.7146 41.8864 62.7035 38.6157 68.888 37.8731C69.1265 37.8415 69.3013 37.6203 69.3013 37.3517V37.2095C69.3013 36.9409 69.1106 36.7197 68.888 36.6881C62.6717 35.9613 59.6987 32.6432 59.19 25.5172C59.1741 25.2485 58.9674 25.0273 58.7289 25.0273C58.4905 25.0273 58.2838 25.2485 58.2679 25.5172C57.7432 32.896 55.2472 36.1667 48.5699 36.7513C48.3314 36.7671 48.1406 37.0041 48.1406 37.2727C48.1406 37.5729 48.3314 37.7941 48.5699 37.8099Z" fill="#F8F8F8"/>
<path d="M214.771 201.014C208.555 200.287 205.582 196.969 205.073 189.843C205.057 189.575 204.85 189.354 204.612 189.354C204.373 189.354 204.167 189.575 204.151 189.843C203.626 197.222 201.13 200.493 194.453 201.077C194.214 201.093 194.023 201.33 194.023 201.599C194.023 201.899 194.214 202.12 194.453 202.136C201.114 202.705 203.578 205.96 204.135 213.275C204.151 213.544 204.357 213.765 204.596 213.765H204.612C204.85 213.765 205.041 213.56 205.073 213.275C205.597 206.213 208.586 202.942 214.771 202.199C215.009 202.168 215.184 201.946 215.184 201.678V201.536C215.184 201.267 214.993 201.046 214.771 201.014Z" fill="#F8F8F8"/>
<path d="M10.1114 160.518C10.1273 160.786 10.3339 161.007 10.5724 161.007H10.5883C10.8268 161.007 11.0176 160.802 11.0494 160.518C11.574 153.455 14.5629 150.184 20.7474 149.441C20.9858 149.41 21.1607 149.189 21.1607 148.92V148.778C21.1607 148.509 20.9699 148.288 20.7474 148.256C14.5311 147.53 11.5581 144.212 11.0494 137.086C11.0335 136.817 10.8268 136.596 10.5883 136.596C10.3498 136.596 10.1432 136.817 10.1273 137.086C9.60261 144.464 7.10657 147.735 0.429256 148.32C0.19078 148.335 0 148.572 0 148.841C0 149.141 0.19078 149.362 0.429256 149.378C7.09067 149.947 9.55492 153.202 10.1114 160.518Z" fill="#F8F8F8"/>
</g>
<defs>
<clipPath id="clip0_6216_49742">
<rect width="219" height="242" fill="white"/>
</clipPath>
</defs>
</svg>
