<svg width="447" height="270" viewBox="0 0 447 270" fill="none" xmlns="http://www.w3.org/2000/svg">
<path fill-rule="evenodd" clip-rule="evenodd" d="M112.895 0.000757884C115.354 0.036939 117.619 1.36552 118.884 3.51314L219.017 173.479L206.832 180.925L112.597 20.9697L11.9687 181.102L0 173.301L106.808 3.33544C108.133 1.22594 110.436 -0.0354232 112.895 0.000757884Z" fill="#F8F8F8"/>
<path fill-rule="evenodd" clip-rule="evenodd" d="M213.03 0.000757884C215.489 0.036939 217.755 1.36552 219.02 3.51314L319.152 173.479L306.967 180.925L212.733 20.9697L112.104 181.102L100.136 173.301L206.943 3.33544C208.269 1.22594 210.571 -0.0354232 213.03 0.000757884Z" fill="#F8F8F8"/>
<path fill-rule="evenodd" clip-rule="evenodd" d="M212.925 0H433.216V14.4721H212.925V0Z" fill="#F8F8F8"/>
<path fill-rule="evenodd" clip-rule="evenodd" d="M239.624 40.7925L439.888 40.7925V55.2646L239.624 55.2646V40.7925Z" fill="#F8F8F8"/>
<path fill-rule="evenodd" clip-rule="evenodd" d="M259.228 81.5815L447 81.5816L447 96.0537L259.228 96.0537L259.228 81.5815Z" fill="#F8F8F8"/>
<path fill-rule="evenodd" clip-rule="evenodd" d="M446.996 81.5815L446.996 177.637L432.786 177.637L432.786 81.5815L446.996 81.5815Z" fill="#F8F8F8"/>
<path fill-rule="evenodd" clip-rule="evenodd" d="M446.996 177.638L305.952 177.638L305.952 163.166L446.996 163.166L446.996 177.638Z" fill="#F8F8F8"/>
<path d="M112.233 260.486C112.233 251.873 107.174 246.544 97.2725 244.428L89.9727 242.895C83.5403 241.508 80.2156 238.515 80.2156 233.114C80.2156 227.201 84.4798 223.187 92.0687 223.187C99.6575 223.187 103.849 227.201 103.849 233.114V234.209H110.137V233.114C110.137 224.647 103.849 217.639 92.0687 217.639C80.2156 217.639 74 224.647 74 233.114C74 241.581 79.2038 246.471 88.0213 248.296L95.3211 249.829C102.693 251.362 106.018 255.231 106.018 260.559C106.018 266.764 101.175 271.289 93.1528 271.289C84.9858 271.289 80.2156 266.764 80.2156 260.559V258.953H74V260.486C74 269.756 80.8661 276.764 93.1528 276.764C105.367 276.764 112.233 269.756 112.233 260.486Z" fill="#F8F8F8"/>
<path d="M133.855 218.588L113.98 275.815H120.557L125.11 262.238H149.828L154.381 275.815H160.886L141.083 218.588H133.855ZM147.877 256.691H126.917L137.469 225.157L147.877 256.691Z" fill="#F8F8F8"/>
<path d="M201.309 260.486C201.309 251.873 196.25 246.544 186.348 244.428L179.049 242.895C172.616 241.508 169.291 238.515 169.291 233.114C169.291 227.201 173.556 223.187 181.144 223.187C188.733 223.187 192.925 227.201 192.925 233.114V234.209H199.213V233.114C199.213 224.647 192.925 217.639 181.144 217.639C169.291 217.639 163.076 224.647 163.076 233.114C163.076 241.581 168.28 246.471 177.097 248.296L184.397 249.829C191.769 251.362 195.094 255.231 195.094 260.559C195.094 266.764 190.251 271.289 182.229 271.289C174.062 271.289 169.291 266.764 169.291 260.559V258.953H163.076V260.486C163.076 269.756 169.942 276.764 182.229 276.764C194.443 276.764 201.309 269.756 201.309 260.486Z" fill="#F8F8F8"/>
<path d="M250.16 247.201C250.16 230.851 245.535 217.639 228.55 217.639C211.782 217.639 207.012 230.924 207.012 247.201C207.012 263.698 211.854 276.764 228.55 276.764C245.39 276.764 250.16 263.771 250.16 247.201ZM243.944 247.201C243.944 261.946 240.475 271.216 228.55 271.216C216.697 271.216 213.3 262.019 213.3 247.201C213.3 232.457 216.769 223.187 228.55 223.187C240.403 223.187 243.944 232.53 243.944 247.201Z" fill="#F8F8F8"/>
<path d="M290.421 275.815H296.709V218.588H290.421V243.698H264.547V218.588H258.259V275.815H264.547V249.318H290.421V275.815Z" fill="#F8F8F8"/>
<path d="M321.394 218.588L301.519 275.815H308.096L312.649 262.238H337.367L341.92 275.815H348.425L328.622 218.588H321.394ZM335.415 256.691H314.456L325.008 225.157L335.415 256.691Z" fill="#F8F8F8"/>
<path d="M392.65 275.815V218.588H386.362V264.282L359.692 218.588H353.405V275.815H359.692V230.121L386.362 275.815H392.65Z" fill="#F8F8F8"/>
</svg>
