<svg width="879" height="179" viewBox="0 0 879 179" fill="none" xmlns="http://www.w3.org/2000/svg">
<path d="M0.0453126 7.99999L70.6053 7.99999C115.725 7.99999 142.365 18.08 142.365 55.76C142.365 96.56 110.925 107.12 64.3653 107.12H62.4453L62.4453 171.44L92.4453 171.44V176L0.0453126 176L0.0453126 171.44H15.6453L15.6453 12.56L0.0453126 12.56L0.0453126 7.99999ZM62.4453 12.56L62.4453 102.56H67.4853C87.6453 102.56 92.9253 88.64 92.9253 60.8V49.28C92.9253 22.16 87.1653 12.56 68.9253 12.56H62.4453ZM231.115 68.48C219.595 68.48 208.795 85.76 208.795 107.36V171.68H225.835V176H150.955V171.68H164.155L164.155 66.08H150.955V61.76H208.795L208.795 84.8C213.115 67.76 226.555 59.36 240.955 59.36C255.115 59.36 266.395 66.8 266.395 85.04C266.395 98.72 259.195 107.84 246.235 107.84C230.155 107.84 222.475 97.76 227.515 80.72H236.155C240.955 70.88 236.155 68.48 231.115 68.48ZM346.131 128.72V108.32C346.131 82.4 345.411 63.68 331.971 63.68C317.331 63.68 316.611 82.4 316.611 109.52V128.24C316.611 156.08 317.091 174.08 331.731 174.08C345.411 174.08 346.131 159.92 346.131 128.72ZM270.531 119.36C270.531 80 294.051 59.36 332.691 59.36C373.011 59.36 392.211 78.32 392.211 117.2C392.211 156.56 373.971 178.4 331.251 178.4C290.931 178.4 270.531 156.8 270.531 119.36ZM398.923 61.76H456.763V83.84C460.603 71.84 468.523 59.36 490.603 59.36C507.643 59.36 520.363 66.8 524.443 85.28C528.283 73.28 538.123 59.36 559.723 59.36C580.603 59.36 595.003 70.4 595.003 99.44V171.68H608.443V176H541.963V171.68H550.363V93.68C550.363 73.28 547.723 70.88 543.403 70.88C534.763 70.88 525.883 83.84 525.883 104V171.68H534.523V176H472.843L472.843 171.68H481.243V93.68C481.243 73.28 478.603 70.88 474.283 70.88C465.403 70.88 456.763 86 456.763 105.44V171.68H465.403L465.403 176L398.923 176L398.923 171.68H412.123V66.08H398.923V61.76ZM623.73 22.88C623.73 11.12 630.21 0.559999 648.21 0.559999C663.09 0.559999 671.97 7.99999 671.97 22.64C671.97 35.36 665.01 45.2 647.73 45.2C628.29 45.2 623.73 32.96 623.73 22.88ZM611.01 61.76L669.81 61.76V171.68H683.25V176L611.97 176V171.68L625.17 171.68V66.08H611.01V61.76ZM693.662 178.4V135.44H696.542C705.422 164.72 720.062 173.12 739.742 173.12C757.502 173.12 764.222 166.64 764.222 157.52C764.222 146.72 752.462 144.32 734.222 139.28C715.022 134 693.662 126.56 693.662 99.92C693.662 75.44 710.462 59.36 735.902 59.36C746.462 59.36 753.662 62 760.142 64.88C763.022 66.08 763.982 66.8 766.862 66.8C770.462 66.8 772.142 64.88 775.262 58.88H777.902V95.6H775.022C766.382 73.52 754.142 64.4 737.102 64.4C721.262 64.4 714.782 70.88 714.782 78.32C714.782 89.36 729.182 92 745.022 96.32C763.982 101.36 785.102 109.04 785.102 137.36C785.102 164.72 767.342 178.4 740.222 178.4C728.702 178.4 720.542 176 711.422 171.44C709.982 170.48 707.822 169.52 706.862 169.52C703.742 169.52 700.382 171.68 696.542 178.4H693.662ZM793.405 119.12C793.405 77.6 821.725 59.36 855.085 59.36C892.765 59.36 908.845 78.32 907.405 114.08H839.725V123.44C839.725 151.76 844.765 170.96 868.045 170.96C885.805 170.96 897.805 159.68 903.085 141.2L907.405 141.92C901.885 162.56 889.405 178.4 855.325 178.4C812.605 178.4 793.405 153.92 793.405 119.12ZM839.965 109.28H864.685V97.52C864.685 72.32 862.765 63.92 852.925 63.92C844.525 63.92 839.965 72.08 839.965 97.52V109.28Z" fill="#F8F8F8"/>
</svg>
