<svg width="100" height="124" viewBox="0 0 100 124" fill="none" xmlns="http://www.w3.org/2000/svg">
<g opacity="0.8" filter="url(#filter0_d_153_30609)">
<path d="M74.351 19.2848H25.3444C18.7608 19.2848 13.4238 24.6218 13.4238 31.2053V100.079C13.4238 106.663 18.7608 112 25.3444 112H74.351C80.9345 112 86.2715 106.663 86.2715 100.079V31.2053C86.2715 24.6218 80.9345 19.2848 74.351 19.2848Z" fill="white"/>
<path d="M25.3444 19.7848H74.351C80.6584 19.7848 85.7715 24.8979 85.7715 31.2053V100.079C85.7715 106.387 80.6584 111.5 74.351 111.5H25.3444C19.037 111.5 13.9238 106.387 13.9238 100.079V31.2053C13.9238 24.8979 19.037 19.7848 25.3444 19.7848Z" stroke="#6840FD" stroke-opacity="0.5"/>
<path d="M66.5463 49.0862H34.0959C32.2681 49.0862 30.7847 47.6028 30.7847 45.775C30.7847 43.9471 32.2681 42.4637 34.0959 42.4637H66.5463C68.3741 42.4637 69.8575 43.9471 69.8575 45.775C69.8575 47.6028 68.3741 49.0862 66.5463 49.0862Z" fill="url(#paint0_linear_153_30609)"/>
<path d="M66.5463 49.0862H34.0959C32.2681 49.0862 30.7847 47.6028 30.7847 45.775C30.7847 43.9471 32.2681 42.4637 34.0959 42.4637H66.5463C68.3741 42.4637 69.8575 43.9471 69.8575 45.775C69.8575 47.6028 68.3741 49.0862 66.5463 49.0862Z" fill="white" fill-opacity="0.4"/>
<path d="M66.5463 68.9536H34.0959C32.2681 68.9536 30.7847 67.4701 30.7847 65.6423C30.7847 63.8145 32.2681 62.3311 34.0959 62.3311H66.5463C68.3741 62.3311 69.8575 63.8145 69.8575 65.6423C69.8575 67.4701 68.3741 68.9536 66.5463 68.9536Z" fill="url(#paint1_linear_153_30609)"/>
<path d="M66.5463 68.9536H34.0959C32.2681 68.9536 30.7847 67.4701 30.7847 65.6423C30.7847 63.8145 32.2681 62.3311 34.0959 62.3311H66.5463C68.3741 62.3311 69.8575 63.8145 69.8575 65.6423C69.8575 67.4701 68.3741 68.9536 66.5463 68.9536Z" fill="white" fill-opacity="0.4"/>
<path d="M66.5463 88.8215H34.0959C32.2681 88.8215 30.7847 87.3381 30.7847 85.5103C30.7847 83.6824 32.2681 82.199 34.0959 82.199H66.5463C68.3741 82.199 69.8575 83.6824 69.8575 85.5103C69.8575 87.3381 68.3741 88.8215 66.5463 88.8215Z" fill="url(#paint2_linear_153_30609)"/>
<path d="M66.5463 88.8215H34.0959C32.2681 88.8215 30.7847 87.3381 30.7847 85.5103C30.7847 83.6824 32.2681 82.199 34.0959 82.199H66.5463C68.3741 82.199 69.8575 83.6824 69.8575 85.5103C69.8575 87.3381 68.3741 88.8215 66.5463 88.8215Z" fill="white" fill-opacity="0.4"/>
<path d="M63.0926 12.0002H36.6025C32.945 12.0002 29.98 14.9652 29.98 18.6228V20.6095C29.98 24.267 32.945 27.232 36.6025 27.232H63.0926C66.7501 27.232 69.7151 24.267 69.7151 20.6095V18.6228C69.7151 14.9652 66.7501 12.0002 63.0926 12.0002Z" fill="url(#paint3_linear_153_30609)"/>
<path d="M63.0926 12.0002H36.6025C32.945 12.0002 29.98 14.9652 29.98 18.6228V20.6095C29.98 24.267 32.945 27.232 36.6025 27.232H63.0926C66.7501 27.232 69.7151 24.267 69.7151 20.6095V18.6228C69.7151 14.9652 66.7501 12.0002 63.0926 12.0002Z" fill="white" fill-opacity="0.3"/>
</g>
<defs>
<filter id="filter0_d_153_30609" x="1.42383" y="0.000244141" width="96.8477" height="124" filterUnits="userSpaceOnUse" color-interpolation-filters="sRGB">
<feFlood flood-opacity="0" result="BackgroundImageFix"/>
<feColorMatrix in="SourceAlpha" type="matrix" values="0 0 0 0 0 0 0 0 0 0 0 0 0 0 0 0 0 0 127 0" result="hardAlpha"/>
<feOffset/>
<feGaussianBlur stdDeviation="6"/>
<feComposite in2="hardAlpha" operator="out"/>
<feColorMatrix type="matrix" values="0 0 0 0 0 0 0 0 0 0 0 0 0 0 0 0 0 0 0.08 0"/>
<feBlend mode="normal" in2="BackgroundImageFix" result="effect1_dropShadow_153_30609"/>
<feBlend mode="normal" in="SourceGraphic" in2="effect1_dropShadow_153_30609" result="shape"/>
</filter>
<linearGradient id="paint0_linear_153_30609" x1="64.3314" y1="42.4637" x2="53.2346" y2="59.974" gradientUnits="userSpaceOnUse">
<stop stop-color="#4144FD"/>
<stop offset="1" stop-color="#7F40FF"/>
</linearGradient>
<linearGradient id="paint1_linear_153_30609" x1="64.3314" y1="62.3311" x2="53.2346" y2="79.8414" gradientUnits="userSpaceOnUse">
<stop stop-color="#4144FD"/>
<stop offset="1" stop-color="#7F40FF"/>
</linearGradient>
<linearGradient id="paint2_linear_153_30609" x1="64.3314" y1="82.199" x2="53.2346" y2="99.7093" gradientUnits="userSpaceOnUse">
<stop stop-color="#4144FD"/>
<stop offset="1" stop-color="#7F40FF"/>
</linearGradient>
<linearGradient id="paint3_linear_153_30609" x1="64.0953" y1="12.0002" x2="37.606" y2="30.4818" gradientUnits="userSpaceOnUse">
<stop stop-color="#4144FD"/>
<stop offset="1" stop-color="#7F40FF"/>
</linearGradient>
</defs>
</svg>
