<svg width="130" height="49" viewBox="0 0 130 49" fill="none" xmlns="http://www.w3.org/2000/svg">
<path d="M0.74 26.78C0.74 23.3 2.9 19.76 3.98 18.08C5.36 15.68 8.78 12.08 10.94 8.84C11.42 8.06 11.72 6.98 12.68 6.86C13.94 6.8 15.14 7.58 15.14 8.84C15.14 9.38 15.08 9.74 14.78 10.1C14.54 10.34 13.88 11 13.4 11.54C13.4 11.54 12.74 12.44 12.44 12.8C11.18 14.48 8.6 17.06 7.94 19.16C11.06 22.46 14.78 23.9 18.74 25.94C19.52 26.3 19.64 27.68 18.86 27.68C15.08 27.68 12.8 26.54 9.68 24.56C8.6 23.9 6.98 22.88 5.96 22.04C5.36 22.58 4.34 24.56 3.98 25.58C3.68 26.3 3.14 28.28 2.36 28.28C1.16 28.28 0.74 27.74 0.74 26.78ZM27.02 15.62C27.5 12.38 27.92 10.76 28.76 6.86C28.94 6.02 29.18 4.4 29.6 3.5C29.72 3.08 30.56 2.96 30.86 2.96C31.88 2.96 32.72 3.62 32.72 4.58C32.72 5.3 32.6 6.08 32.42 6.74C31.7 9.62 31.04 13.16 30.5 15.8C32.42 15.14 35.84 14.12 36.98 13.94C38.3 13.58 39.98 13.34 42.02 13.52C42.68 13.58 42.86 14.3 42.68 14.78C42.56 15.02 42.44 15.14 42.26 15.26C41.12 15.62 40.22 15.8 38.9 16.16C35.9 17.06 33.14 17.9 30.2 19.4C30.02 21.8 29.9 24.8 30.14 26.66C30.2 27.2 30.38 28.04 30.44 28.52V28.7C30.44 29.48 29.18 29.78 28.88 29.78C28.22 29.84 27.68 29.18 27.38 28.4C27.14 27.86 26.96 27.14 26.84 26.18C26.72 25.1 26.6 23.9 26.6 22.64C26.6 22.28 26.78 17.48 27.02 15.62ZM19.7 43.52C19.7 42.74 19.76 41.96 20 41.18C20.96 38.78 22.58 35.96 24.44 33.86C25.04 33.2 25.52 32.72 26 32.3C26.66 31.76 28.04 31.76 28.58 32.3C29.12 32.78 29.18 33.32 29.12 33.86C29.06 34.52 27.62 35.42 26.54 37.04C27.86 37.88 28.34 38.84 28.34 40.16C28.34 42.74 25.4 46.7 22.82 46.7C20.96 46.7 19.7 45.38 19.7 43.52ZM25.22 39.2C24.2 39.2 22.82 42.74 22.82 43.52C24.44 43.4 25.76 41.24 25.76 39.98C25.76 39.74 25.76 39.2 25.22 39.2ZM51.1419 41.54C51.1419 39.26 51.3819 37.16 51.8019 34.82C52.2819 31.94 52.5819 28.34 53.3619 25.52C53.5419 24.86 54.1419 22.22 54.2619 21.38C51.1419 22.04 50.0619 22.46 46.7019 23.96C46.0419 24.26 45.5019 24.56 44.1819 25.16C42.9219 25.76 41.7219 24.14 42.2019 23C42.3219 22.7 43.1619 22.16 43.4619 21.98C44.3619 21.38 45.5019 20.96 47.4219 20.24C48.6219 19.82 49.4019 19.58 52.4019 18.86C53.4819 18.62 54.6219 18.32 55.8219 18.14C58.7019 17.54 59.7219 17.48 62.8419 17.3H65.1219C65.7819 17.36 66.8019 17.36 66.8019 18.32C66.8019 18.98 65.9019 19.22 65.3019 19.28C62.7819 19.58 60.8019 19.82 57.7419 20.6C57.5019 21.74 56.3019 26.72 56.0619 28.34C55.6419 31.16 54.9819 35.24 54.5619 38.06C54.3819 39.08 54.3219 39.98 54.2019 40.94C54.0819 41.78 53.9019 45.56 53.8419 46.4C53.7819 47.24 53.6019 48.08 53.0019 48.08C51.9219 48.08 51.4419 47 51.3219 46.1C51.0819 44.6 51.1419 43.16 51.1419 41.54ZM69.9219 28.34C69.9219 25.82 70.1019 23.42 70.3419 20.96C70.5219 18.8 70.8219 16.7 71.1219 14.42C71.3619 12.56 71.5419 10.88 71.8419 9.32C72.1419 7.88 72.3219 6.2 73.6419 6.2C74.6019 6.2 75.4419 6.74 75.3219 7.88C75.0219 11.18 74.4819 15.02 73.9419 18.62C73.7619 19.94 73.6419 21.2 73.5219 22.64C73.1619 26.42 73.0419 30.08 73.2219 33.86C73.2819 35.06 72.9219 35.96 71.7819 35.96C71.1819 35.96 70.4019 35.24 70.4019 34.58C70.0419 32.48 69.9219 30.44 69.9219 28.34ZM49.8819 9.86C49.8819 6.26 52.7019 2.78 54.3819 1.28C54.8619 0.859998 55.2819 1.04 55.8819 0.799999C56.1819 0.679997 56.3619 0.379997 57.0819 0.379997C58.7619 0.379997 59.9619 2.42 59.9619 4.22C59.9619 7.94 57.2619 12.14 52.7619 12.32C51.2019 12.38 49.8819 11.48 49.8819 9.86ZM57.0219 3.08C55.6419 3.92 53.4219 7.16 53.4219 9.44C55.2219 9.44 57.4419 6.5 57.4419 4.22C57.4419 3.74 57.2619 3.38 57.0219 3.08ZM106.147 44.9C105.547 44.48 105.547 43.4 105.787 42.08C106.147 40.34 106.987 37.64 107.827 36.02C110.407 31.16 114.607 23.36 117.247 18.56C119.827 13.82 122.047 8.72 124.807 4.16C125.287 3.38 125.887 2.9 127.147 3.32C127.807 3.62 128.107 4.1 127.807 5.48C127.627 6.5 127.027 6.92 126.427 7.88C125.047 10.22 124.027 12.08 122.767 14.78C121.147 18.08 119.467 21.32 117.547 24.92C116.467 26.9 115.387 28.88 114.307 30.68C113.527 32 111.367 36.32 110.287 38.24C110.167 38.48 109.447 40.04 109.267 40.28C109.027 40.76 108.487 42.86 108.307 43.22C108.067 44.06 108.067 44.84 107.287 45.08C106.867 45.2 106.687 45.2 106.147 44.9ZM118.867 35.72C118.867 34.88 118.867 33.86 119.227 32.66C119.587 31.64 120.427 30.38 121.327 29.72C121.987 29.24 122.827 28.7 124.147 28.7C125.227 28.16 126.667 28.64 127.447 29.24C129.307 30.62 128.887 34.64 127.627 36.32C126.127 38.3 124.807 39.68 122.347 39.56C120.187 39.44 118.927 37.88 118.867 35.72ZM126.127 31.52C124.987 31.52 123.547 32.12 123.007 32.9C122.407 33.86 122.107 35.06 122.107 35.72C123.547 35.72 125.347 35 125.767 33.98C126.187 33.26 126.247 32.42 126.127 31.52ZM104.947 13.16C105.187 11.42 106.267 7.7 108.007 7.7C109.087 7.7 110.407 8.12 110.947 8.48C112.387 9.62 113.827 11.18 113.167 14.72C112.807 16.58 111.067 19.34 108.367 19.34C105.127 19.34 104.647 15.68 104.947 13.16ZM109.927 10.76C108.247 11.48 107.767 14.36 108.367 15.68C109.087 15.44 110.047 14.9 110.407 13.76C110.767 12.68 110.407 11.42 109.927 10.76Z" fill="#1B171E"/>
<path d="M94.3616 25.88C94.3616 25.28 94.4216 22.64 94.4216 22.64C94.4216 21.92 94.6616 16.34 94.7816 15.62C95.0816 13.22 95.5016 11.48 95.7416 10.22C95.9816 8.78 96.5216 7.1 97.6616 7.1C98.3816 7.1 99.0416 7.7 99.0416 8.48C99.0416 9.44 98.9216 10.52 98.8016 11.24C98.3816 13.7 97.7816 20.12 97.6616 23.6V27.38C97.6616 29.54 97.8416 31.82 97.9616 34.04C98.0216 35.06 98.2616 36.38 98.3216 37.76C98.3816 39.08 98.0216 39.92 96.9416 39.02C95.9216 38.18 95.6216 36.5 95.3816 35.48C94.6016 32.36 94.3616 28.94 94.3616 25.88Z" fill="#6840FD"/>
</svg>
