<svg width="91" height="33" viewBox="0 0 91 33" fill="none" xmlns="http://www.w3.org/2000/svg">
<path d="M0.16 18.52C0.16 16.2 1.6 13.84 2.32 12.72C3.24 11.12 5.52 8.72 6.96 6.56C7.28 6.04 7.48 5.32 8.12 5.24C8.96 5.2 9.76 5.72 9.76 6.56C9.76 6.92 9.72 7.16 9.52 7.4C9.36 7.56 8.92 8 8.6 8.36C8.6 8.36 8.16 8.96 7.96 9.2C7.12 10.32 5.4 12.04 4.96 13.44C7.04 15.64 9.52 16.6 12.16 17.96C12.68 18.2 12.76 19.12 12.24 19.12C9.72 19.12 8.2 18.36 6.12 17.04C5.4 16.6 4.32 15.92 3.64 15.36C3.24 15.72 2.56 17.04 2.32 17.72C2.12 18.2 1.76 19.52 1.24 19.52C0.44 19.52 0.16 19.16 0.16 18.52ZM17.68 11.08C18 8.92 18.28 7.84 18.84 5.24C18.96 4.68 19.12 3.6 19.4 3C19.48 2.72 20.04 2.64 20.24 2.64C20.92 2.64 21.48 3.08 21.48 3.72C21.48 4.2 21.4 4.72 21.28 5.16C20.8 7.08 20.36 9.44 20 11.2C21.28 10.76 23.56 10.08 24.32 9.96C25.2 9.72 26.32 9.56 27.68 9.68C28.12 9.72 28.24 10.2 28.12 10.52C28.04 10.68 27.96 10.76 27.84 10.84C27.08 11.08 26.48 11.2 25.6 11.44C23.6 12.04 21.76 12.6 19.8 13.6C19.68 15.2 19.6 17.2 19.76 18.44C19.8 18.8 19.92 19.36 19.96 19.68V19.8C19.96 20.32 19.12 20.52 18.92 20.52C18.48 20.56 18.12 20.12 17.92 19.6C17.76 19.24 17.64 18.76 17.56 18.12C17.48 17.4 17.4 16.6 17.4 15.76C17.4 15.52 17.52 12.32 17.68 11.08ZM12.8 29.68C12.8 29.16 12.84 28.64 13 28.12C13.64 26.52 14.72 24.64 15.96 23.24C16.36 22.8 16.68 22.48 17 22.2C17.44 21.84 18.36 21.84 18.72 22.2C19.08 22.52 19.12 22.88 19.08 23.24C19.04 23.68 18.08 24.28 17.36 25.36C18.24 25.92 18.56 26.56 18.56 27.44C18.56 29.16 16.6 31.8 14.88 31.8C13.64 31.8 12.8 30.92 12.8 29.68ZM16.48 26.8C15.8 26.8 14.88 29.16 14.88 29.68C15.96 29.6 16.84 28.16 16.84 27.32C16.84 27.16 16.84 26.8 16.48 26.8ZM33.7613 28.36C33.7613 26.84 33.9213 25.44 34.2013 23.88C34.5213 21.96 34.7213 19.56 35.2413 17.68C35.3613 17.24 35.7613 15.48 35.8413 14.92C33.7613 15.36 33.0413 15.64 30.8013 16.64C30.3613 16.84 30.0013 17.04 29.1213 17.44C28.2813 17.84 27.4813 16.76 27.8013 16C27.8813 15.8 28.4413 15.44 28.6413 15.32C29.2413 14.92 30.0013 14.64 31.2813 14.16C32.0813 13.88 32.6013 13.72 34.6013 13.24C35.3213 13.08 36.0813 12.88 36.8813 12.76C38.8013 12.36 39.4813 12.32 41.5613 12.2H43.0813C43.5213 12.24 44.2013 12.24 44.2013 12.88C44.2013 13.32 43.6013 13.48 43.2013 13.52C41.5213 13.72 40.2013 13.88 38.1613 14.4C38.0013 15.16 37.2013 18.48 37.0413 19.56C36.7613 21.44 36.3213 24.16 36.0413 26.04C35.9213 26.72 35.8813 27.32 35.8013 27.96C35.7213 28.52 35.6013 31.04 35.5613 31.6C35.5213 32.16 35.4013 32.72 35.0013 32.72C34.2813 32.72 33.9613 32 33.8813 31.4C33.7213 30.4 33.7613 29.44 33.7613 28.36ZM46.2813 19.56C46.2813 17.88 46.4013 16.28 46.5613 14.64C46.6813 13.2 46.8813 11.8 47.0813 10.28C47.2413 9.04 47.3613 7.92 47.5613 6.88C47.7613 5.92 47.8813 4.8 48.7613 4.8C49.4013 4.8 49.9613 5.16 49.8813 5.92C49.6813 8.12 49.3213 10.68 48.9613 13.08C48.8413 13.96 48.7613 14.8 48.6813 15.76C48.4413 18.28 48.3613 20.72 48.4813 23.24C48.5213 24.04 48.2813 24.64 47.5213 24.64C47.1213 24.64 46.6013 24.16 46.6013 23.72C46.3613 22.32 46.2813 20.96 46.2813 19.56ZM32.9213 7.24C32.9213 4.84 34.8013 2.52 35.9213 1.52C36.2413 1.24 36.5213 1.36 36.9213 1.2C37.1213 1.12 37.2413 0.919998 37.7213 0.919998C38.8413 0.919998 39.6413 2.28 39.6413 3.48C39.6413 5.96 37.8413 8.76 34.8413 8.88C33.8013 8.92 32.9213 8.32 32.9213 7.24ZM37.6813 2.72C36.7613 3.28 35.2813 5.44 35.2813 6.96C36.4813 6.96 37.9613 5 37.9613 3.48C37.9613 3.16 37.8413 2.92 37.6813 2.72ZM75.1578 30.6C74.7578 30.32 74.7578 29.6 74.9178 28.72C75.1578 27.56 75.7178 25.76 76.2778 24.68C77.9978 21.44 80.7978 16.24 82.5578 13.04C84.2778 9.88 85.7578 6.48 87.5978 3.44C87.9178 2.92 88.3178 2.6 89.1578 2.88C89.5978 3.08 89.7978 3.4 89.5978 4.32C89.4778 5 89.0778 5.28 88.6778 5.92C87.7578 7.48 87.0778 8.72 86.2378 10.52C85.1578 12.72 84.0378 14.88 82.7578 17.28C82.0378 18.6 81.3178 19.92 80.5978 21.12C80.0778 22 78.6378 24.88 77.9178 26.16C77.8378 26.32 77.3578 27.36 77.2378 27.52C77.0778 27.84 76.7178 29.24 76.5978 29.48C76.4378 30.04 76.4378 30.56 75.9178 30.72C75.6378 30.8 75.5178 30.8 75.1578 30.6ZM83.6378 24.48C83.6378 23.92 83.6378 23.24 83.8778 22.44C84.1178 21.76 84.6778 20.92 85.2778 20.48C85.7178 20.16 86.2778 19.8 87.1578 19.8C87.8778 19.44 88.8378 19.76 89.3578 20.16C90.5978 21.08 90.3178 23.76 89.4778 24.88C88.4778 26.2 87.5978 27.12 85.9578 27.04C84.5178 26.96 83.6778 25.92 83.6378 24.48ZM88.4778 21.68C87.7178 21.68 86.7578 22.08 86.3978 22.6C85.9978 23.24 85.7978 24.04 85.7978 24.48C86.7578 24.48 87.9578 24 88.2378 23.32C88.5178 22.84 88.5578 22.28 88.4778 21.68ZM74.3578 9.44C74.5178 8.28 75.2378 5.8 76.3978 5.8C77.1178 5.8 77.9978 6.08 78.3578 6.32C79.3178 7.08 80.2778 8.12 79.8378 10.48C79.5978 11.72 78.4378 13.56 76.6378 13.56C74.4778 13.56 74.1578 11.12 74.3578 9.44ZM77.6778 7.84C76.5578 8.32 76.2378 10.24 76.6378 11.12C77.1178 10.96 77.7578 10.6 77.9978 9.84C78.2378 9.12 77.9978 8.28 77.6778 7.84Z" fill="#1B171E"/>
<path d="M61.7744 31.56C61.7744 31.12 62.1744 30.72 62.4544 30.48C64.1744 28.76 67.7744 25.52 68.8944 22.88C69.0144 22.6 69.1344 22.04 69.1344 21.84C69.0144 20.2 65.4144 19.76 63.8144 18C62.7744 16.84 62.2144 14.68 61.9744 13.24C61.9344 12.96 61.8144 11.28 61.6944 11C61.4944 10.56 61.3344 9.96 61.3344 9.52C61.3344 9.16 61.5744 9 61.6144 8.6C61.6944 7.92 61.6544 7.2 61.6544 6.52C61.6544 5.76 61.7344 4.36 61.8544 3.52C61.9744 2.56 62.2544 1.64 63.0144 1.44C63.5744 1.28 64.1744 1.48 64.4944 2C64.6544 2.24 64.5344 2.84 64.4144 3.16C63.9744 4.44 64.0144 6.08 64.0144 7.44C64.0144 7.56 64.0144 8.2 64.0544 8.64C64.4944 8.72 66.0944 8.72 66.6544 8.72C67.3744 8.72 70.6544 8.92 71.6544 9.04C72.0944 9.08 72.3344 9.44 72.3344 9.84C72.3344 10.32 72.0544 10.64 71.4544 10.64C69.4144 10.64 66.1344 10.8 64.0944 10.84C64.2544 13.04 64.5344 15.48 65.5744 16.56C66.3344 17.36 67.2144 18.04 68.4944 18.6C70.0144 19.28 71.6544 20.4 71.5344 22.28C71.4144 24.12 69.8544 26.04 68.3344 27.84C67.6944 28.6 65.6544 30.44 64.9344 31.08C64.3744 31.56 63.5344 32.12 62.8144 32.2C62.2144 32.28 61.7744 32.2 61.7744 31.56Z" fill="#6840FD"/>
</svg>
