<svg width="28" height="28" viewBox="0 0 28 28" fill="none" xmlns="http://www.w3.org/2000/svg">
<g id="check_circle">
<mask id="mask0_345_1500" style="mask-type:alpha" maskUnits="userSpaceOnUse" x="0" y="0" width="28" height="28">
<rect id="Bounding box" width="28" height="28" fill="#D9D9D9"/>
</mask>
<g mask="url(#mask0_345_1500)">
<path id="check_circle_2" d="M12.3663 19.3673L20.5913 11.1423L18.958 9.50899L12.3663 16.1007L9.04134 12.7757L7.40801 14.409L12.3663 19.3673ZM13.9997 25.6673C12.3858 25.6673 10.8691 25.3611 9.44968 24.7486C8.03023 24.1361 6.79551 23.3048 5.74551 22.2548C4.69551 21.2048 3.86426 19.9701 3.25176 18.5507C2.63926 17.1312 2.33301 15.6145 2.33301 14.0007C2.33301 12.3868 2.63926 10.8701 3.25176 9.45065C3.86426 8.03121 4.69551 6.79648 5.74551 5.74648C6.79551 4.69648 8.03023 3.86523 9.44968 3.25273C10.8691 2.64023 12.3858 2.33398 13.9997 2.33398C15.6136 2.33398 17.1302 2.64023 18.5497 3.25273C19.9691 3.86523 21.2038 4.69648 22.2538 5.74648C23.3038 6.79648 24.1351 8.03121 24.7476 9.45065C25.3601 10.8701 25.6663 12.3868 25.6663 14.0007C25.6663 15.6145 25.3601 17.1312 24.7476 18.5507C24.1351 19.9701 23.3038 21.2048 22.2538 22.2548C21.2038 23.3048 19.9691 24.1361 18.5497 24.7486C17.1302 25.3611 15.6136 25.6673 13.9997 25.6673Z" fill="#F85C83"/>
</g>
</g>
</svg>
