<svg width="28" height="28" viewBox="0 0 28 28" fill="none" xmlns="http://www.w3.org/2000/svg">
<mask id="mask0_524_3976" style="mask-type:alpha" maskUnits="userSpaceOnUse" x="0" y="0" width="28" height="28">
<rect width="28" height="28" fill="#D9D9D9"/>
</mask>
<g mask="url(#mask0_524_3976)">
<path d="M19.5708 22.8375C19.3569 22.9736 19.143 23.1 18.9292 23.2166C18.7153 23.3333 18.4917 23.4402 18.2583 23.5375C17.9667 23.6736 17.6701 23.6736 17.3687 23.5375C17.0673 23.4013 16.8583 23.1777 16.7417 22.8666C16.625 22.575 16.6396 22.2881 16.7854 22.0062C16.9312 21.7243 17.15 21.5152 17.4417 21.3791C17.5778 21.3208 17.7042 21.2576 17.8208 21.1895C17.9375 21.1215 18.0542 21.0486 18.1708 20.9708L14 17.2666V20.5041C14 21.0291 13.7618 21.3937 13.2854 21.5979C12.809 21.802 12.3861 21.7194 12.0167 21.35L8.16665 17.5H4.66665C4.33609 17.5 4.05901 17.3881 3.8354 17.1645C3.61179 16.9409 3.49998 16.6638 3.49998 16.3333V11.6666C3.49998 11.3361 3.61179 11.059 3.8354 10.8354C4.05901 10.6118 4.33609 10.5 4.66665 10.5H7.23332L2.44998 5.71662C2.23609 5.50273 2.12915 5.23051 2.12915 4.89995C2.12915 4.5694 2.23609 4.29717 2.44998 4.08328C2.66387 3.8694 2.93609 3.76245 3.26665 3.76245C3.59721 3.76245 3.86943 3.8694 4.08332 4.08328L23.9167 23.9166C24.1305 24.1305 24.2375 24.4027 24.2375 24.7333C24.2375 25.0638 24.1305 25.3361 23.9167 25.55C23.7028 25.7638 23.4305 25.8708 23.1 25.8708C22.7694 25.8708 22.4972 25.7638 22.2833 25.55L19.5708 22.8375ZM22.1667 13.9708C22.1667 12.3569 21.7389 10.884 20.8833 9.55203C20.0278 8.22009 18.8805 7.22356 17.4417 6.56245C17.15 6.42634 16.9361 6.21731 16.8 5.93537C16.6639 5.65342 16.6444 5.36662 16.7417 5.07495C16.8583 4.76384 17.0673 4.54023 17.3687 4.40412C17.6701 4.26801 17.9764 4.26801 18.2875 4.40412C20.1736 5.24023 21.6805 6.51384 22.8083 8.22495C23.9361 9.93606 24.5 11.8513 24.5 13.9708C24.5 14.6125 24.4417 15.2493 24.325 15.8812C24.2083 16.5131 24.043 17.1208 23.8292 17.7041C23.6736 18.1319 23.4354 18.3993 23.1146 18.5062C22.7937 18.6131 22.4972 18.618 22.225 18.5208C21.9528 18.4236 21.734 18.2486 21.5687 17.9958C21.4035 17.743 21.3986 17.4513 21.5542 17.1208C21.768 16.6152 21.9236 16.1048 22.0208 15.5895C22.118 15.0743 22.1667 14.5347 22.1667 13.9708ZM17.2375 9.82912C17.8792 10.2375 18.375 10.85 18.725 11.6666C19.075 12.4833 19.25 13.2611 19.25 14V14.2916C19.25 14.3888 19.2403 14.4861 19.2208 14.5833C19.1819 14.8361 19.0458 15.0013 18.8125 15.0791C18.5792 15.1569 18.3653 15.0986 18.1708 14.9041L16.6833 13.4166C16.5667 13.3 16.4792 13.1687 16.4208 13.0229C16.3625 12.877 16.3333 12.7263 16.3333 12.5708V10.325C16.3333 10.0916 16.4354 9.92148 16.6396 9.81453C16.8437 9.70759 17.043 9.71245 17.2375 9.82912ZM11.375 8.10828C11.2583 7.99162 11.2 7.85551 11.2 7.69995C11.2 7.5444 11.2583 7.40828 11.375 7.29162L12.0167 6.64995C12.3861 6.28051 12.809 6.19787 13.2854 6.40203C13.7618 6.6062 14 6.97078 14 7.49578V9.33328C14 9.60551 13.8833 9.79023 13.65 9.88745C13.4167 9.98467 13.2028 9.93606 13.0083 9.74162L11.375 8.10828Z" fill="white"/>
</g>
</svg>
