<svg width="28" height="28" viewBox="0 0 28 28" fill="none" xmlns="http://www.w3.org/2000/svg">
<g id="jt-tiktok">
<path id="Vector" d="M24.2131 8.1706V11.9812C24.2131 11.9812 20.9198 12.1607 18.3125 9.98618V18.7157C18.3125 19.0535 18.2809 19.3807 18.2175 19.7185C17.9008 21.2702 16.5814 25.1969 11.388 25.6508C11.1241 25.6719 10.8602 25.6719 10.5963 25.6508C9.11852 25.5241 4.69569 24.7008 3.81957 19.3807C3.71401 18.7685 3.70346 18.1457 3.79846 17.5335C4.06235 15.7179 5.94126 10.7251 12.1163 11.3268V15.1162C12.1163 15.1162 9.46686 14.4829 8.17907 16.5307C7.5035 17.6074 7.42961 18.9585 7.99962 20.088C8.4324 20.9535 9.30852 21.8402 11.0185 21.9035C11.7363 21.9035 14.0164 21.6502 14.523 18.8318V2.33331H18.3125C18.3125 2.33331 18.3125 7.80116 24.2237 8.1706H24.2131Z" fill="#CFDCE6"/>
</g>
</svg>
