<svg width="28" height="20" viewBox="0 0 28 20" fill="none" xmlns="http://www.w3.org/2000/svg">
<g id="Lozenge">
<path id="Vector" d="M27.7211 4.40004C27.7211 4.40004 27.4477 2.46957 26.6055 1.62191C25.5391 0.506287 24.3469 0.500818 23.8 0.435193C19.8844 0.150818 14.0055 0.150818 14.0055 0.150818H13.9945C13.9945 0.150818 8.11562 0.150818 4.2 0.435193C3.65313 0.500818 2.46094 0.506287 1.39453 1.62191C0.552344 2.46957 0.284375 4.40004 0.284375 4.40004C0.284375 4.40004 0 6.66957 0 8.93363V11.0555C0 13.3196 0.278906 15.5891 0.278906 15.5891C0.278906 15.5891 0.552344 17.5196 1.38906 18.3672C2.45547 19.4829 3.85547 19.4446 4.47891 19.5649C6.72109 19.7782 14 19.8438 14 19.8438C14 19.8438 19.8844 19.8329 23.8 19.5539C24.3469 19.4883 25.5391 19.4829 26.6055 18.3672C27.4477 17.5196 27.7211 15.5891 27.7211 15.5891C27.7211 15.5891 28 13.325 28 11.0555V8.93363C28 6.66957 27.7211 4.40004 27.7211 4.40004ZM11.107 13.6313V5.76176L18.6703 9.71019L11.107 13.6313Z" fill="#CFDCE6"/>
</g>
</svg>
