<svg width="264" height="46" viewBox="0 0 264 46" fill="none" xmlns="http://www.w3.org/2000/svg">
<path d="M33.6588 34.684L29.7348 16.972L25.8108 34.684H21.5988L27.7908 7.72H31.6428L37.8708 34.684H33.6588ZM44.4588 16.216H47.4108V20.14H44.4588V34.828H40.4988V7.576H44.4588V16.216ZM67.7356 24.82L61.5076 12.76L55.2796 24.82H49.9516L58.7716 7.684H64.2436L73.0636 24.82H67.7356ZM59.3476 31.048V23.308H63.6676V31.048H73.8916V34.828H49.1236V31.048H59.3476ZM82.7324 31.192H95.6924V7.576H99.7244V14.776H102.676V18.7H99.7244V34.828H78.7004V27.016H82.7324V31.192ZM86.6924 8.548H91.9484V12.328H89.2484C89.8004 12.808 90.2444 13.36 90.5804 13.984C90.9164 14.584 91.0844 15.232 91.0844 15.928V18.124C91.0844 18.844 90.9044 19.528 90.5444 20.176C90.2084 20.8 89.7404 21.352 89.1404 21.832C88.5404 22.288 87.8444 22.648 87.0524 22.912C86.2604 23.176 85.4324 23.308 84.5684 23.308C83.6804 23.308 82.8524 23.176 82.0844 22.912C81.3164 22.648 80.6444 22.288 80.0684 21.832C79.4924 21.352 79.0364 20.8 78.7004 20.176C78.3644 19.528 78.1964 18.844 78.1964 18.124V16.036C78.1964 15.268 78.3524 14.572 78.6644 13.948C79.0004 13.324 79.4444 12.784 79.9964 12.328H77.3324V8.548H82.6604V6.604H86.6924V8.548ZM87.3764 16.684C87.3764 16.372 87.3044 16.072 87.1604 15.784C87.0164 15.472 86.8244 15.208 86.5844 14.992C86.3444 14.752 86.0564 14.572 85.7204 14.452C85.3844 14.332 85.0364 14.272 84.6764 14.272C84.2924 14.272 83.9324 14.332 83.5964 14.452C83.2844 14.572 82.9964 14.752 82.7324 14.992C82.4924 15.208 82.3004 15.472 82.1564 15.784C82.0124 16.072 81.9404 16.372 81.9404 16.684V17.296C81.9404 17.632 82.0124 17.944 82.1564 18.232C82.3004 18.52 82.4924 18.784 82.7324 19.024C82.9964 19.24 83.2844 19.408 83.5964 19.528C83.9324 19.648 84.2924 19.708 84.6764 19.708C85.0364 19.708 85.3844 19.648 85.7204 19.528C86.0564 19.408 86.3444 19.24 86.5844 19.024C86.8244 18.784 87.0164 18.52 87.1604 18.232C87.3044 17.944 87.3764 17.632 87.3764 17.296V16.684Z" fill="black"/>
<path d="M146.991 17.1094C144.402 20.7048 141.155 24.7178 137.463 28.8029C133.85 32.8008 130.261 36.3663 127.001 39.2709C128.957 40.148 131.126 40.6376 133.411 40.6376C142.074 40.6376 149.094 33.6149 149.094 24.9551C149.094 22.0986 148.328 19.4192 146.994 17.1124L146.991 17.1094ZM143.597 30.0614C142.615 30.0614 141.822 29.2655 141.822 28.2862C141.822 27.307 142.618 26.511 143.597 26.511C144.576 26.511 145.372 27.307 145.372 28.2862C145.372 29.2655 144.576 30.0614 143.597 30.0614Z" fill="url(#paint0_linear_345_1640)"/>
<path d="M136.31 27.5657C146.052 16.7914 152.684 6.52764 152.365 3.04031C152.329 2.6318 152.197 2.31341 151.96 2.10014C150.629 0.898654 146.34 3.2716 140.798 7.91836C140.858 7.96943 140.918 8.01749 140.978 8.06855C143.712 6.00499 145.688 5.05882 146.364 5.66857C146.382 5.68359 146.397 5.70161 146.412 5.71964C146.601 5.9329 146.652 6.28734 146.577 6.76493C146.376 8.04752 145.265 10.2132 143.471 12.9166C140.747 10.6367 137.242 9.26403 133.412 9.26403C124.749 9.26403 117.729 16.2867 117.729 24.9465C117.729 29.3439 119.538 33.3149 122.454 36.1624C119.832 38.3101 117.72 39.6557 116.486 39.902C116.068 39.9861 115.75 39.9441 115.549 39.7639C114.915 39.1902 115.537 37.3279 117.096 34.6666C117.014 34.6305 116.936 34.5915 116.858 34.5464C113.047 40.2565 111.271 44.5278 112.56 45.6932C112.749 45.8644 113.002 45.9636 113.308 45.9906C116.609 46.309 126.359 38.5774 136.319 27.5597L136.31 27.5657ZM135.944 19.3355C136.923 19.3355 137.719 20.1315 137.719 21.1107C137.719 22.0899 136.923 22.8859 135.944 22.8859C134.965 22.8859 134.169 22.0899 134.169 21.1107C134.169 20.1315 134.965 19.3355 135.944 19.3355ZM125.948 20.561V19.2124L129.771 17.1548H130.847V29.2568L127.993 32.1224V20.507L125.948 20.558V20.561Z" fill="url(#paint1_linear_345_1640)"/>
<path d="M134.654 3.88057C136.664 4.05479 137.412 5.04301 137.577 7.26277C137.583 7.34387 137.643 7.40995 137.715 7.40995H137.721C137.793 7.40995 137.853 7.34387 137.859 7.26277C138.018 5.11811 138.92 4.12087 140.785 3.9016C140.857 3.89259 140.911 3.8265 140.911 3.7424V3.69734C140.911 3.61624 140.857 3.54716 140.785 3.53815C138.908 3.31587 138.012 2.31263 137.856 0.146938C137.85 0.0628341 137.79 -0.000244141 137.718 -0.000244141C137.646 -0.000244141 137.586 0.0658378 137.58 0.146938C137.421 2.38772 136.67 3.38195 134.651 3.55617C134.579 3.56218 134.522 3.63126 134.522 3.71537V3.72137C134.522 3.80548 134.579 3.87456 134.651 3.88057H134.654Z" fill="url(#paint2_linear_345_1640)"/>
<path d="M120.175 7.18783C121.434 7.29596 121.9 7.91473 122.005 9.30545C122.008 9.35652 122.047 9.39857 122.092 9.39857H122.095C122.14 9.39857 122.176 9.35952 122.182 9.30545C122.281 7.96279 122.846 7.34102 124.014 7.19984C124.059 7.19383 124.092 7.15178 124.092 7.10072V7.07369C124.092 7.02262 124.056 6.98057 124.014 6.97456C122.84 6.83639 122.278 6.20561 122.182 4.85093C122.179 4.79986 122.14 4.75781 122.095 4.75781C122.05 4.75781 122.011 4.79986 122.008 4.85093C121.909 6.25367 121.437 6.87544 120.175 6.98658C120.13 6.98958 120.094 7.03464 120.094 7.0857C120.094 7.14277 120.13 7.18482 120.175 7.18783Z" fill="url(#paint3_linear_345_1640)"/>
<path d="M151.573 38.2124C150.399 38.0742 149.837 37.4434 149.741 36.0887C149.738 36.0377 149.699 35.9956 149.654 35.9956C149.609 35.9956 149.57 36.0377 149.567 36.0887C149.467 37.4915 148.996 38.1132 147.734 38.2244C147.689 38.2274 147.653 38.2724 147.653 38.3235C147.653 38.3806 147.689 38.4226 147.734 38.4256C148.993 38.5338 149.458 39.1525 149.564 40.5432C149.567 40.5943 149.606 40.6364 149.651 40.6364H149.654C149.699 40.6364 149.735 40.5973 149.741 40.5432C149.84 39.2006 150.405 38.5788 151.573 38.4376C151.618 38.4316 151.651 38.3896 151.651 38.3385V38.3115C151.651 38.2604 151.615 38.2184 151.573 38.2124Z" fill="url(#paint4_linear_345_1640)"/>
<path d="M112.91 30.5135C112.913 30.5645 112.952 30.6066 112.997 30.6066H113C113.045 30.6066 113.081 30.5675 113.087 30.5135C113.187 29.1708 113.751 28.549 114.92 28.4079C114.965 28.4018 114.998 28.3598 114.998 28.3087V28.2817C114.998 28.2306 114.962 28.1886 114.92 28.1826C113.745 28.0444 113.184 27.4136 113.087 26.0589C113.084 26.0079 113.045 25.9658 113 25.9658C112.955 25.9658 112.916 26.0079 112.913 26.0589C112.814 27.4617 112.343 28.0834 111.081 28.1946C111.036 28.1976 111 28.2426 111 28.2937C111 28.3508 111.036 28.3928 111.081 28.3958C112.34 28.504 112.805 29.1227 112.91 30.5135Z" fill="url(#paint5_linear_345_1640)"/>
<path d="M180.479 24.82L174.251 12.76L168.023 24.82H162.695L171.515 7.684H176.987L185.807 24.82H180.479ZM172.091 31.048V23.308H176.411V31.048H186.635V34.828H161.867V31.048H172.091ZM203.144 34.828V7.576H207.212V17.08H209.732V7.576H213.8V34.828H209.732V20.968H207.212V34.828H203.144ZM196.592 11.608H189.284V7.72H200.84V11.608L197.6 34.684H193.208L196.592 11.608ZM219.005 29.716C219.005 28.996 219.137 28.324 219.401 27.7C219.665 27.076 220.025 26.536 220.481 26.08C220.961 25.624 221.513 25.264 222.137 25C222.761 24.712 223.421 24.568 224.117 24.568H235.853C236.573 24.568 237.245 24.712 237.869 25C238.493 25.264 239.033 25.624 239.489 26.08C239.945 26.536 240.305 27.076 240.569 27.7C240.833 28.324 240.965 28.996 240.965 29.716C240.965 30.412 240.833 31.072 240.569 31.696C240.305 32.32 239.945 32.872 239.489 33.352C239.033 33.808 238.493 34.168 237.869 34.432C237.245 34.696 236.573 34.828 235.853 34.828H224.117C223.421 34.828 222.761 34.696 222.137 34.432C221.513 34.168 220.961 33.808 220.481 33.352C220.025 32.872 219.665 32.32 219.401 31.696C219.137 31.072 219.005 30.412 219.005 29.716ZM217.709 7.72H231.029V11.464H222.389V13.48H230.561V16.936H222.389V18.844H231.533V22.552H217.709V7.72ZM240.893 22.804H236.897V7.576H240.893V22.804ZM222.893 29.716C222.893 30.1 223.013 30.448 223.253 30.76C223.493 31.048 223.805 31.192 224.189 31.192H235.781C236.165 31.192 236.477 31.048 236.717 30.76C236.957 30.448 237.077 30.1 237.077 29.716C237.077 29.332 236.957 28.984 236.717 28.672C236.477 28.36 236.165 28.204 235.781 28.204H224.189C223.805 28.204 223.493 28.36 223.253 28.672C223.013 28.984 222.893 29.332 222.893 29.716Z" fill="black"/>
<defs>
<linearGradient id="paint0_linear_345_1640" x1="155.816" y1="13.2706" x2="124.436" y2="51.499" gradientUnits="userSpaceOnUse">
<stop stop-color="#AE60A3"/>
<stop offset="1" stop-color="#F7E495"/>
</linearGradient>
<linearGradient id="paint1_linear_345_1640" x1="143.676" y1="3.30464" x2="112.293" y2="41.5301" gradientUnits="userSpaceOnUse">
<stop stop-color="#AE60A3"/>
<stop offset="1" stop-color="#F7E495"/>
</linearGradient>
<linearGradient id="paint2_linear_345_1640" x1="140.325" y1="0.552442" x2="108.942" y2="38.7808" gradientUnits="userSpaceOnUse">
<stop stop-color="#AE60A3"/>
<stop offset="1" stop-color="#F7E495"/>
</linearGradient>
<linearGradient id="paint3_linear_345_1640" x1="132.641" y1="-5.75523" x2="101.258" y2="32.4703" gradientUnits="userSpaceOnUse">
<stop stop-color="#AE60A3"/>
<stop offset="1" stop-color="#F7E495"/>
</linearGradient>
<linearGradient id="paint4_linear_345_1640" x1="164.426" y1="20.3402" x2="133.043" y2="58.5656" gradientUnits="userSpaceOnUse">
<stop stop-color="#AE60A3"/>
<stop offset="1" stop-color="#F7E495"/>
</linearGradient>
<linearGradient id="paint5_linear_345_1640" x1="137.61" y1="-1.67749" x2="106.227" y2="36.548" gradientUnits="userSpaceOnUse">
<stop stop-color="#AE60A3"/>
<stop offset="1" stop-color="#F7E495"/>
</linearGradient>
</defs>
</svg>
