<svg width="371" height="160" viewBox="0 0 371 160" fill="none" xmlns="http://www.w3.org/2000/svg">
<path d="M191.52 17.16H191.36C191.36 17.96 192 18.6 192.32 19.56C192 21.32 191.04 21.48 189.12 21C188 20.84 186.4 20.52 185.12 20.36C182.4 20.36 179.68 20.04 176.64 19.88C174.4 19.88 172.32 20.04 170.24 20.04C169.12 20.04 168.16 20.2 167.2 19.88C165.44 20.04 163.36 20.2 161.6 20.04H161.12C158.4 20.36 159.04 20.52 156.32 20.52C153.28 21.16 152.16 21 149.28 21.16C148.8 21.16 148.48 21 148.16 21C147.36 21.16 146.24 21.16 145.6 21.32C144.48 21.16 143.52 21.48 142.4 21.64C140.16 21.96 143.52 21.8 141.12 21.96C139.84 22.12 138.24 22.6 137.28 22.76C135.52 22.76 123.04 24.84 119.84 25.32C118.56 25.32 117.44 25.32 116.16 25.48C114.24 25.8 112.64 26.28 112.16 28.84C112 29.32 111.04 29.8 110.24 30.44C110.4 30.92 110.4 31.24 110.88 31.72C110.4 32.04 109.92 32.2 109.6 32.36C109.92 33.64 109.44 34.28 108.96 35.08C108.16 35.88 107.84 37.32 107.2 38.28C107.2 38.44 106.88 38.92 106.72 39.08C105.28 39.72 104.96 40.52 104.96 41.96C104.8 42.6 104.48 43.08 104.16 43.88C103.84 46.28 102.88 46.76 100.48 46.12C100.48 45.16 100.96 44.68 101.76 44.52C102.56 44.36 103.04 44.36 103.2 43.24C102.56 43.56 101.92 43.56 101.28 43.72C102.88 42.6 102.56 40.84 103.2 39.72C103.52 39.08 103.68 38.76 104.16 38.28C104.16 38.12 104.48 37.96 104.48 37.64C104.48 36.36 105.44 35.56 105.76 34.44C105.92 33.96 106.24 33.64 106.4 33.32C107.04 32.68 107.52 32.36 107.68 31.56C107.68 30.92 108.8 30.28 109.28 29.8C108.32 29 108.16 28.36 109.28 27.56C107.84 26.92 107.04 27.24 105.92 27.4C104.64 27.4 103.52 27.72 102.08 27.72C100.64 27.72 98.88 28.04 97.28 28.36C95.84 28.84 94.08 28.84 92.48 29.16C91.36 29.32 90.4 29.48 89.44 29.48C88.96 29.64 88.64 29.64 88.16 29.8C87.36 29.96 86.72 30.12 86.08 30.12C84 30.44 81.76 31.24 79.68 31.4C79.36 31.56 78.88 31.4 78.56 31.4C78.24 31.56 77.76 31.56 77.6 31.56C75.52 32.68 73.28 33.16 70.88 33.16C70.08 33.32 69.28 33.64 68.32 33.8C67.04 33.96 65.44 34.12 64 34.28C62.08 34.44 60.16 34.44 58.72 35.72C58.4 36.04 57.76 36.04 57.28 36.04C54.88 36.52 52.96 36.84 50.88 37.32C48.16 37.96 45.44 38.76 42.88 39.56C41.76 39.88 40.16 40.04 38.88 40.2C38.88 40.36 38.56 40.36 38.56 40.36C36.64 40.84 35.2 41.48 33.76 41.96C39.52 40.68 38.24 41 36.64 41.48C34.56 42.12 32.32 42.76 29.92 43.72C29.44 44.04 28.96 44.2 28.16 44.52C27.36 44.84 26.56 45.16 25.76 45.32C24.96 45.8 24.16 45.96 23.52 46.28C21.92 46.76 20.64 47.08 19.04 48.04C17.28 49.32 14.88 49.96 13.28 52.2C13.12 52.36 12.64 52.68 12.32 52.84C10.56 53 9.6 54.44 8.48 55.24C7.52 55.88 7.52 57 8.32 57.96C9.12 59.4 9.92 60.84 10.56 61.8C13.12 65.16 15.36 68.36 18.4 71.4C19.84 72.68 21.44 74.44 23.52 75.24C24.96 75.88 25.28 77.8 24.32 78.92C23.2 80.84 22.72 81 20.96 80.52C19.04 79.72 17.12 78.92 15.52 78.28C14.72 77.8 13.92 77.32 13.28 76.68C13.12 76.36 12.8 76.04 12.64 75.88C9.44 73.16 7.2 69.8 5.44 66.12C4.48 63.72 2.88 61.32 2.08 58.92C0.32 54.76 1.19209e-07 50.12 0.800001 45.64C1.12 44.52 1.76 44.04 2.24 43.24C4 42.12 5.12 40.84 6.88 39.4C7.2 39.08 7.36 38.6 7.52 38.44C11.04 36.68 14.56 35.08 18.4 33.8C18.72 33.96 18.88 33.96 19.2 33.96C19.84 33.96 20.64 34.12 21.28 34.12C21.92 34.12 22.72 33.96 23.2 33.16C23.36 32.68 23.68 32.52 24.16 32.36C24.8 32.36 24.8 32.68 24.96 33.32C24.96 33.48 25.12 33.64 24.96 33.96C26.24 33.48 27.2 33.32 28 33C28 31.56 26.08 33 26.24 31.56C27.68 31.08 29.44 31.08 30.56 29.96C32.64 29.16 34.4 29.48 36.16 29.16C36.8 29.16 37.28 29.16 37.76 29.16C37.44 28.84 37.44 28.36 37.6 27.88C38.4 26.92 39.68 27.4 40 28.36C40.32 29.32 40.8 29.96 42.24 29.96C42.72 29.96 43.2 30.92 43.36 31.56C41.6 32.68 40.32 32.36 39.36 30.6C39.2 30.28 39.04 29.8 38.56 29.48C38.4 29.8 38.24 29.96 38.08 30.28C38.24 30.28 38.4 30.44 38.4 30.6C38.08 30.6 37.12 30.92 36.32 31.08C36.64 31.08 36.8 31.24 36.96 31.72C37.28 31.88 37.92 31.88 38.4 32.04C38.08 32.68 38.08 32.68 35.2 33C35.2 33 34.88 33.16 34.88 33.32C34.88 33.64 34.88 33.8 34.88 33.96C36.16 33.64 38.08 33 38.56 32.84C38.56 33.32 38.56 33.8 38.72 33.8C39.52 34.28 32.96 36.36 33.92 36.2C35.52 35.88 36.8 35.24 38.4 34.44C38.88 34.28 39.2 34.12 39.84 34.44C40.8 34.44 42.08 34.44 42.88 33.96C43.52 33.8 44.48 33.96 45.12 33.8C47.04 33.32 48.8 32.68 50.88 32.36C51.2 32.2 51.84 32.2 52.64 32.2C55.2 32.04 57.92 31.4 60.32 30.92C62.72 30.12 65.12 29.64 67.36 29.32C68.48 29.16 69.92 29.16 71.04 29.32C72.16 29.48 73.28 29.64 74.08 29.16C74.4 29 74.72 29 75.04 29C76.32 29 77.44 28.84 78.24 27.72C78.88 26.92 79.84 26.28 80.8 26.76C82.72 27.72 84.8 26.76 86.56 26.12C87.84 25.96 88.96 25.48 90.4 25.64C92.96 25.96 95.36 25.8 97.76 25.48C98.72 25.48 99.36 25 100.16 24.36C101.28 23.88 102.08 23.72 103.2 23.72C104.16 23.88 105.12 23.88 105.92 23.88C106.56 23.88 107.2 23.4 107.84 23.24C108.64 23.08 109.44 22.76 110.08 22.92C111.2 22.28 112 21.64 112 20.2C111.04 20.2 110.08 20.2 109.28 20.04C109.76 19.24 110.08 19.56 110.56 19.56C112.48 19.4 112.48 19.4 113.12 17.64C113.44 16.84 114.24 15.88 114.24 14.76C114.24 14.6 114.56 14.6 114.72 14.6C115.52 13.64 116.16 13 116.48 12.2C119.36 6.75999 122.24 1.79999 124.96 -3.32001C127.2 -5.56001 128.8 -8.12001 130.08 -10.68C131.52 -13.08 132.64 -15.64 134.24 -17.88C135.36 -19.8 136.48 -21.88 137.6 -23.32C138.72 -25.4 140.16 -27.64 141.44 -29.56C141.92 -30.36 142.08 -30.84 142.56 -31.48C142.88 -32.44 143.36 -32.92 143.84 -33.24C145.12 -34.68 146.24 -35.96 147.68 -37.24C148 -37.56 148.32 -37.72 148.8 -37.88C149.44 -38.36 149.76 -38.2 150.08 -37.56C150.4 -36.76 150.24 -35.96 149.6 -35.48C148.96 -34.52 148 -33.4 147.04 -32.76C146.88 -32.6 146.72 -32.12 146.72 -31.8C145.92 -30.52 145.12 -29.24 144.16 -27.8C143.68 -26.84 142.88 -25.4 142.08 -24.28C141.28 -22.84 140.64 -21.88 140 -20.6C138.4 -17.88 136.96 -15.16 135.36 -12.6C135.04 -11.8 134.56 -10.68 133.76 -10.04C132.64 -7.96001 131.52 -5.88001 130.4 -3.64001C130.08 -3.16 129.6 -2.36 129.12 -1.88001C128.48 -0.600008 127.2 0.519997 127.04 2.12C126.56 3.4 125.92 4.51999 124.96 5.8C123.84 7.88 122.24 10.28 120.8 12.68C121.12 13 121.44 13.16 121.44 13.48C121.76 14.28 121.76 14.6 120.8 14.76C120.16 14.92 120.16 14.92 119.68 15.56C120.16 15.88 120.32 16.36 120.8 16.84C118.72 17.48 117.76 19.24 116.32 21C116.8 21.64 117.44 22.12 118.08 21.8C119.36 21.48 120.48 21.8 121.76 21.8C122.56 21.8 123.36 21.8 124.16 21.48C124.96 21 125.76 20.84 126.56 21C127.04 21 127.36 20.84 128 20.84C128.32 21 128.8 20.84 129.12 21C131.52 21.64 128.16 20.68 130.56 20.2C131.2 20.04 132 20.04 132.64 20.2C133.44 20.36 134.08 20.2 134.88 19.56C135.04 19.24 135.2 19.08 135.68 18.76C136 19.24 135.84 20.2 136.8 20.2C137.76 20.36 137.92 19.56 138.08 18.44C139.68 18.44 141.12 18.28 142.88 18.28H141.28C140.32 17.96 139.52 17.96 144 18.12C143.68 18.28 143.36 18.28 143.04 18.28H145.28C145.44 18.44 145.6 18.28 145.76 18.28C146.72 17.16 148.48 17.32 149.92 17.16C150.56 17.16 151.36 16.84 151.84 16.68C152.32 16.36 152.8 16.04 153.6 16.04C152.32 16.84 153.12 16.68 154.08 16.2C154.88 15.88 155.68 15.72 156.16 16.68C156.48 17.48 157.28 17.64 157.92 17.32C158.08 17.16 158.4 17 158.72 16.84C159.52 17.32 160.48 17.48 161.44 17.48C162.4 17.8 164.16 16.68 164.8 15.72C164.8 15.56 164.32 15.08 164 14.92C163.68 14.92 163.2 14.6 162.88 14.6H160.48C159.68 14.44 158.88 13.64 158.88 13C158.88 12.52 159.2 12.04 159.36 11.88C160 11.72 160.8 11.72 161.76 11.56C161.12 12.36 160.8 13 160.16 13.48C162.08 13.96 162.24 13.96 163.52 13C164.16 13.16 165.12 13.32 165.6 13.8C166.24 14.12 166.88 14.6 166.88 15.56C166.56 17 166.88 17 168.16 16.68C169.6 16.04 171.04 16.04 171.84 15.24C172.32 14.6 172.8 15.24 173.28 15.72C173.76 16.36 174.24 16.36 175.36 16.04C176 15.88 176.8 15.88 177.6 15.88C179.04 15.88 180.48 15.56 182.24 15.72C182.56 15.72 182.88 15.72 183.36 15.56H184.8C184.8 15.4 184.8 15.24 184.96 15.24C184.48 14.92 184 14.44 183.36 14.12C183.68 13.32 184.32 13.32 184.8 13.16C185.92 12.52 186.24 12.2 185.28 11.08C185.28 10.92 185.12 10.44 184.64 10.12C186.4 10.12 187.84 10.76 188.64 11.88C188.96 12.36 189.28 13 189.92 13.16C191.04 14.12 191.2 15.72 191.52 17.16ZM165.76 9.95999C165.28 10.12 164.32 9.95999 163.52 9.63999C163.68 9.32 163.84 9.15999 164.16 8.99999C167.52 8.83999 171.04 8.83999 174.24 8.99999C174.56 8.99999 175.2 8.99999 175.68 9.15999L176 9.48C175.36 9.63999 174.56 9.79999 174.08 9.95999C173.76 10.12 173.44 10.12 173.12 10.12C170.56 9.63999 168.32 9.79999 165.76 9.95999ZM157.76 9.79999C157.76 9.79999 157.6 9.79999 157.6 9.63999C157.92 9.63999 158.24 9.32 158.56 9.32C158.24 9.32 158.24 9.32 158.56 9.32V9.15999C159.2 9.15999 160.48 9.15999 161.76 9.48C160.8 10.28 159.36 10.12 158.24 10.12C156.96 10.28 159.04 9.95999 157.76 9.79999ZM147.68 10.92C147.52 10.92 147.36 10.76 146.88 10.44C150.4 9.32 151.84 9.48 155.04 9.15999C155.36 9.15999 155.84 9.32 156.16 9.48C156 9.63999 156 9.79999 156 9.79999C155.84 9.79999 155.68 9.95999 155.52 9.95999C152 10.12 150.88 10.6 147.68 10.92ZM181.44 9.48C180.32 10.12 180.32 10.12 179.68 9.32C180.16 9.32 180.64 9.48 181.44 9.48ZM142.24 10.6C140.96 10.76 139.84 10.6 143.84 10.44C143.68 10.6 143.36 10.76 143.04 10.92C142.88 10.76 142.72 10.6 142.24 10.6ZM142.24 11.56C142.56 11.24 142.72 11.08 143.04 10.92C143.04 11.08 143.04 11.24 142.88 11.4C142.72 11.56 142.4 11.56 142.24 11.56ZM142.24 11.56C140.48 12.04 143.68 11.88 142.24 11.56V11.56ZM135.52 12.04C135.36 12.2 135.2 12.52 135.04 12.52C135.04 12.52 135.04 12.2 134.88 12.04C135.04 11.88 135.04 11.72 135.2 11.72L135.52 12.04ZM130.88 13.16C130.72 13.16 130.56 12.84 130.4 12.68C130.56 12.52 130.72 12.36 130.88 12.04C131.2 12.36 131.36 12.52 131.36 12.68C131.36 12.84 131.04 13.16 130.88 13.16ZM100.96 17.48C99.68 17.64 98.56 17.96 96.96 18.44C96.64 18.44 96.32 18.28 95.84 17.8C96.32 17.16 97.12 17 97.76 16.84C99.52 16.52 101.44 16.36 103.2 15.88C103.68 15.88 104.16 16.2 104.64 16.2C104.8 16.36 104.8 16.68 104.8 16.68C104.16 16.84 103.84 17 103.36 17C102.56 16.84 101.6 17.16 100.96 17.48ZM158.24 16.52C157.44 16.04 156.96 16.2 159.2 16.2C159.04 16.52 158.88 16.68 158.72 16.84C158.56 16.68 158.4 16.68 158.24 16.52ZM103.84 18.6C104.8 17.48 105.12 17.64 106.08 18.76C105.28 19.08 104.64 19.24 103.84 18.6ZM92.32 18.44C90.4 19.08 88.8 19.88 86.72 19.08C88.64 18.28 90.56 17.64 92.32 18.44ZM101.44 19.72C101.28 18.92 101.44 18.6 102.4 18.92C101.76 19.24 101.44 19.56 101.44 19.72ZM82.56 20.2H81.12C80.8 19.4 81.44 19.24 81.76 19.4C82.08 19.4 82.24 19.72 82.56 19.88V20.2ZM69.44 25.96C70.88 25 71.04 23.56 71.84 22.28C71.04 22.28 69.6 23.24 69.44 21.64C69.76 21.64 70.08 21.32 70.4 21.32C72.96 21.48 75.36 20.84 77.6 20.04C77.76 20.04 77.92 19.88 78.08 19.88C78.4 19.88 78.56 20.04 78.88 20.2C78.72 20.2 78.72 20.84 78.56 21C77.6 21.32 76.48 21.48 75.68 21.48C74.72 21.64 74.08 21.8 73.44 22.28C73.76 23.24 74.24 23.72 75.2 24.84C73.6 24.84 72.96 25.48 72.32 26.12C72.16 26.76 71.2 26.76 70.4 26.76C70.24 26.76 69.92 26.12 69.44 25.96ZM86.4 20.68C88 20.52 89.44 20.04 91.36 20.68C89.92 21.96 88 21.32 86.08 21.64C86.24 21.16 86.24 20.68 86.4 20.68ZM83.84 21.8C83.68 21.96 83.52 22.12 83.04 22.28C83.04 22.12 82.88 21.96 82.72 21.8C83.04 21.64 83.52 21.48 83.68 21.32C83.84 21.48 83.84 21.64 83.84 21.8ZM97.76 21.64C98.72 21.32 99.2 21 99.68 21.96C98.88 22.6 98.56 22.12 97.76 21.64ZM65.28 22.92C64.96 22.92 64.64 22.76 64.96 21.8C65.44 21.8 65.92 21.64 66.72 21.64C66.4 22.6 65.76 22.92 65.28 22.92ZM93.76 21.96C93.76 22.12 93.6 22.12 93.44 22.28L93.28 22.12C93.28 21.96 93.44 21.8 93.6 21.8L93.76 21.96ZM78.72 24.36C78.24 23.88 77.76 23.56 77.28 23.08C78.56 21.96 79.52 21.8 80.64 22.28C80.16 23.24 79.36 23.56 78.72 24.36ZM85.92 23.56C85.76 23.24 85.6 23.24 85.12 22.92C85.76 22.76 86.08 22.76 86.08 22.92C86.24 22.92 86.4 23.24 86.4 23.4C86.24 23.4 86.08 23.56 85.92 23.56ZM62.24 23.72C62.08 23.72 61.76 24.2 61.6 24.2C61.12 24.2 60.64 23.88 59.84 23.56C60 23.4 60 23.24 60 23.24C60.64 23.24 61.12 22.92 61.6 23.08C61.92 23.08 62.08 23.24 62.24 23.72ZM56.96 25C55.2 25.48 53.6 25.64 52 25.96C52 25.96 51.68 25.8 51.36 25.48C52.8 24.36 54.24 24.36 55.68 24.2C56.32 24.04 56.64 24.04 56.96 25ZM66.08 24.68C66.4 23.88 67.2 24.2 68 25C67.68 25.48 67.2 25.96 66.88 25.96C65.92 25.8 65.76 25.32 66.08 24.68ZM46.56 26.92C46.08 27.08 45.44 26.92 45.12 26.76C45.76 25.48 46.72 25.48 47.84 25.16C48.16 25 48.64 25.16 49.12 25.16C49.92 24.84 50.4 24.84 50.56 25.48C50.88 25.96 50.4 26.44 49.6 26.76C48.48 26.92 47.52 26.92 46.56 26.92ZM64.96 26.44C63.68 27.4 62.88 27.4 62.88 26.92C62.56 25.96 63.2 25.8 63.68 25.16C64.16 25.8 64.8 25.96 64.96 26.44ZM53.28 29.16C53.12 28.84 52.96 28.2 52.64 27.24C54.24 27.08 55.84 25.96 57.44 25.8C59.36 25.96 59.52 25.96 60.48 27.88C59.2 28.52 58.4 29.48 57.12 29.64C56.16 30.12 54.56 30.28 53.28 29.16ZM43.2 27.56C42.88 27.72 42.72 28.04 42.4 28.52C42.24 28.2 42.08 27.88 42.08 27.72C42.24 27.56 42.4 27.24 42.56 27.24C42.72 27.08 42.88 27.4 43.2 27.56ZM47.04 30.92C46.4 31.56 44.96 31.56 44.64 31.24C44 30.44 44.16 29.8 44.32 29.16C45.12 29.16 45.92 29.48 46.72 29.16C47.36 29 47.84 28.2 48.64 28.84C48.64 29 48.64 29.32 48.48 29.64C48 29.96 47.52 30.44 47.04 30.92ZM35.36 31.24C33.28 30.6 33.12 30.76 32.64 31.88C33.6 32.2 34.56 32.04 35.68 31.24H35.52C34.56 31.4 33.76 31.56 34.08 31.4C34.56 31.4 34.88 31.24 35.36 31.24ZM30.24 32.68C30.56 32.52 30.72 32.36 30.56 32.2C30.56 32.04 30.4 31.88 30.4 31.72C30.24 31.88 30.08 31.88 30.08 32.04C30.08 32.2 30.08 32.36 30.24 32.68ZM22.24 33.16C21.76 33.48 21.44 33.48 21.12 32.68C21.44 32.52 21.76 32.52 22.08 32.36C22.24 32.68 22.24 33 22.24 33.16ZM65.92 90.76C65.76 92.2 64.96 93.48 64.16 94.6C63.2 95.56 63.04 96.84 62.08 98.12C61.76 99.08 61.6 100.36 61.28 101.48C60.8 101.96 60.48 102.44 60 102.76C59.36 103.4 59.2 103.88 59.2 104.84C58.88 106.28 58.72 107.88 57.6 109.32C56.8 110.12 56.48 111.72 55.84 113.16C55.68 113.48 55.52 113.96 55.2 114.12C54.88 114.44 54.56 114.92 54.72 115.56C54.56 115.72 54.4 116.04 54.08 116.2C53.6 116.84 53.12 117.64 53.44 118.44C53.6 118.6 53.44 118.76 53.28 118.92C52.48 119.72 52 120.84 51.68 121.64C51.52 122.28 51.2 122.92 50.88 123.72C50.88 123.88 50.88 124.04 50.72 124.2C50.24 126.76 48.48 128.84 47.52 131.24C47.36 132.36 47.36 133.32 46.56 133.64C45.76 136.68 44 139.24 43.36 142.28C43.2 142.44 43.2 142.6 43.2 142.76C42.08 143.4 42.24 144.84 42.08 146.12C41.6 147.56 40.8 149.32 40 150.76C39.52 152.2 39.04 153.8 38.72 155.4C38.56 155.88 38.4 156.52 37.92 157.32C37.6 158.28 37.28 159.08 36.8 160.2C36.32 161.8 35.68 163.72 34.88 165.64C34.56 166.44 33.12 166.92 32.16 166.6C30.08 165.8 28.16 164.52 27.04 162.12C26.4 160.84 26.08 159.4 24.8 158.44C23.84 158.28 23.68 156.36 24.16 155.4C24.96 153.64 25.44 151.88 26.08 150.12C26.08 149.8 26.08 149.8 26.24 149.64C28 147.88 28 145.64 28.32 143.72C29.76 140.84 31.04 138.12 32 135.08C32.48 133.64 33.12 132.52 33.6 131.4C33.92 130.28 34.56 129.16 35.36 128.2C35.52 127.72 36 127.24 36.32 127.24C37.28 126.6 37.6 125.96 36.8 124.84C36.64 124.2 36.8 123.72 37.6 123.4C38.88 123.4 39.04 122.12 39.52 121.32C39.68 120.52 39.84 120.04 40.32 119.24C40.8 119.72 40.96 120.2 41.6 120.52C42.24 120.2 42.08 119.56 42.4 118.76C42.24 118.76 42.24 118.76 42.08 118.6C40 117.96 39.84 117.8 40.48 115.72C40.8 115.08 40.96 114.28 41.44 113.64C41.6 113.32 41.76 112.52 42.24 112.36C42.4 112.04 43.04 112.04 43.68 112.36C44 112.36 44.32 113 44.8 113.32C45.12 113 45.28 112.36 45.76 111.72C44.96 111.56 44.32 111.4 43.68 111.08C43.36 110.76 43.2 110.12 43.36 109.96C43.84 108.68 44.16 107.4 45.12 106.28C45.28 106.12 45.44 105.8 45.76 105.8C46.4 105.64 46.88 105.64 47.04 105.8C47.2 105.8 47.04 106.6 46.88 106.92C46.88 107.24 46.88 107.56 46.72 107.88C48 107.24 48.96 105.96 48.64 104.52C48.16 104.68 48 104.84 47.36 104.84C46.08 102.92 47.84 102.12 48.8 101C48.8 101.8 48.96 102.12 49.12 102.92C50.24 102.44 50.56 101.64 50.4 101.16C50.08 100.52 49.28 100.04 48.8 99.4C49.12 98.92 49.92 99.08 50.4 99.24C52 99.56 52.32 99.08 51.68 97.32C51.36 97.48 51.2 97.64 51.04 97.64C50.88 97.8 50.72 98.12 50.4 98.12C50.08 96.52 50.88 95.56 51.52 94.28C52 94.92 52.32 95.24 52.48 95.72C52.64 96.04 52.96 95.72 52.96 95.72C53.6 94.44 54.24 93.16 55.2 91.88C55.84 90.44 56.48 88.68 57.28 87.4C57.44 87.08 57.6 86.92 57.6 86.6C57.6 86.44 57.44 86.12 57.28 86.12C57.28 85.96 56.8 85.8 56.8 85.96C56.48 86.28 56.32 86.6 56.32 86.92C55.84 87.88 55.36 88.04 54.4 87.88C54.88 87.72 54.88 87.24 54.88 86.92C55.84 84.04 57.12 81.32 58.56 78.76V78.6C59.2 76.84 60 75.72 60.64 74.12C61.28 73 62.08 71.88 62.08 70.92C62.24 69.64 63.2 69.48 64.64 69.64L63.52 68.52C64.64 64.52 65.92 60.84 67.68 57C69.44 54.12 70.4 51.08 71.84 48.04C73.44 44.84 74.88 41.48 76.32 38.28C76.48 37.8 76.48 37.32 76.64 36.68C77.28 35.56 77.92 35.08 79.04 35.56H80.16C83.04 35.72 85.76 36.68 88 37.96C89.12 38.44 89.92 39.56 90.24 40.52C90.56 42.12 90.56 43.72 89.92 45.16C88.96 46.28 88.64 47.72 87.68 48.52C85.76 50.44 84.64 52.84 83.68 54.92C82.4 56.68 81.6 57.96 80.96 59.72C80.16 61 79.84 62.44 78.72 62.92C78.56 62.92 78.56 63.08 78.56 63.08C78.4 65.8 76.16 67.88 75.52 70.44C75.2 71.88 74.08 73.16 73.6 74.6C73.44 75.24 73.12 75.72 72.48 76.36C72.48 76.52 72.32 76.52 72.32 76.52C71.84 78.44 70.56 79.88 70.24 81.64C70.08 82.28 69.92 83.08 68.96 83.88C68.8 84.04 68.48 84.52 68.48 85C68.16 85.32 68.16 86.28 67.68 86.92C66.88 88.2 66.08 89.32 65.92 90.76ZM99.52 48.2C100.48 48.04 101.44 47.72 102.08 47.08C102.4 48.52 101.6 49.8 101.44 50.92C100.96 52.2 99.52 52.36 98.72 53V53.48C99.52 54.92 99.52 54.92 98.4 56.52C98.24 56.68 97.92 56.84 97.6 57C97.28 58.44 97.12 59.72 96.64 61C96.64 61.32 96.48 61.48 96.16 61.8C95.68 62.6 95.52 62.6 94.56 61.8C94.56 61.64 94.24 61.64 94.24 61.48C93.44 61.96 93.76 62.44 94.24 62.6C95.52 65 94.56 66.28 92.48 66.76C91.2 67.08 91.04 67.88 90.56 68.52C91.36 69.96 91.68 70.92 89.44 71.08C89.76 71.24 89.92 71.56 90.08 71.72C90.88 72.68 90.88 73.64 89.76 73.96C89.44 74.12 88.96 74.28 88.64 74.44C88 74.76 87.36 75.24 87.36 76.2H88.16C88.48 76.2 88.64 76.2 89.28 76.04C88.8 76.52 88.64 76.68 88.48 77.16C88.16 77.48 87.84 77.8 87.84 78.12C87.84 79.4 87.36 80.04 86.4 80.52C86.24 80.52 86.24 81.32 86.24 81.48C86.4 82.76 86.4 82.76 84.96 82.92C84.64 82.92 84.64 83.08 84.48 83.08C84.48 83.08 84.48 83.24 84 83.72C84.32 84.04 84.64 84.2 84.8 84.52C84.96 84.84 85.12 85.16 84.96 85.64C84.8 85.96 84.48 85.96 84 86.12C83.52 86.28 82.72 86.44 82.08 86.44C81.76 85.8 82.08 85 82.4 84.68C82.88 84.04 83.52 83.24 83.68 82.6C84.32 80.84 84.96 78.92 85.92 77.32C86.24 76.52 86.56 76.04 86.72 75.4C87.2 74.28 87.68 73.48 88.96 73.48C89.12 73.48 89.28 73.16 89.76 72.68C88.96 72.52 88.64 72.36 88.16 72.2C88.16 71.88 88.16 71.4 88.32 71.24C89.76 69.8 89.92 68.04 90.4 66.6C90.88 65.8 91.2 65.32 91.68 64.68C92 63.88 92.32 63.4 92.48 62.92C92.96 61.32 93.76 59.72 94.4 58.28C95.68 55.72 96.64 53.32 97.92 50.92C98.4 50.12 98.72 49.16 99.2 48.52C99.2 48.36 99.36 48.2 99.52 48.2ZM60.48 79.56C60.64 79.24 60.64 78.76 60.96 78.44C60.96 78.44 60.8 78.44 60.8 78.28C60.64 78.44 60 78.6 60 78.76C60 78.92 60.16 79.4 60.16 79.56H60.48ZM80.32 89.16C81.6 87.88 82.24 87.88 83.52 89.32C82.88 89.96 82.56 90.44 82.08 90.76C82.24 91.56 82.72 92.52 81.76 93.16C80.96 93.48 80.8 92.84 80 92.52C80 93 79.84 93.32 79.84 93.48C80.8 94.12 80.8 94.92 80.48 96.04C80 95.56 79.52 95.56 78.72 95.4C78.88 96.04 78.88 96.36 78.88 96.36C79.84 97.8 79.84 97.8 77.92 98.6C77.6 98.76 77.44 99.08 76.96 99.08C78.4 101 78.4 101 77.44 102.12C76.96 102.12 76.64 101.96 76.16 101.96C76.16 101.96 76 102.12 76 102.44C76.16 102.92 76.32 103.24 76.48 103.72C76.64 104.04 76.48 104.52 76.32 104.84H73.76C73.76 104.68 73.6 104.04 73.76 103.88C73.92 103.24 74.4 102.44 74.88 101.96C76.32 99.24 76.96 96.36 78.4 93.48C79.36 92.68 79.52 91.08 80 90.12C80 89.8 80.16 89.32 80.32 89.16ZM53.44 91.4C53.28 91.08 53.12 90.92 53.12 90.76C52.96 90.6 52.8 90.44 52.8 90.12C53.28 89.48 53.76 89.16 54.56 88.84C55.36 89.96 55.04 90.76 53.44 91.4ZM73.28 107.24C73.76 107.56 73.12 108.36 73.28 109.16C73.44 109.32 73.6 109.48 73.92 109.64C73.76 110.28 73.44 111.24 73.28 111.88C73.12 112.04 72.96 112.04 72.64 112.04C72.64 111.72 72.96 111.24 72.64 110.92C71.36 111.08 71.68 112.84 70.56 113C70.4 111.56 71.52 108.68 73.28 107.24ZM69.12 115.24C69.6 115.56 69.92 115.56 70.24 115.72C70.56 116.52 70.88 117.32 70.4 117.64C70.24 118.12 69.92 118.12 68.32 117.32C68.48 116.52 68.96 116.04 69.12 115.24ZM42.88 117.16C43.04 117.16 43.2 116.84 43.36 117.16C43.36 116.84 43.2 116.68 43.2 116.52C43.04 116.52 43.04 116.68 42.88 116.68V117.16ZM65.44 123.56C65.6 122.92 65.92 122.6 66.08 122.12C66.24 123.08 66.24 123.08 65.44 123.56ZM40.32 123.72C40.32 123.56 40.48 123.4 40.64 123.08C40.64 123.08 40.32 122.76 40.32 122.92C40.16 122.92 40 123.08 39.84 123.4C40 123.56 40.16 123.72 40.32 123.72ZM67.2 123.88L67.68 123.4L67.84 123.72C67.68 123.88 67.68 124.04 67.52 124.2L67.2 123.88ZM64.64 126.92C63.84 125.8 63.84 125.64 65.44 124.84C64.96 125.8 64.8 126.44 64.64 126.92ZM62.88 130.12C62.88 128.84 63.52 127.56 64.64 126.92C64.32 127.24 64.16 128.04 64 128.52C63.84 129 63.52 129.64 62.88 130.12ZM65.44 127.24C65.6 127.24 65.76 127.08 65.92 127.24H66.08C66.08 127.56 65.92 127.56 65.92 127.72C65.76 127.56 65.76 127.24 65.44 127.24ZM63.2 132.36C63.36 132.2 63.68 132.04 63.84 131.88C63.84 132.04 64 132.36 64 132.36C64 132.52 63.84 132.68 63.68 132.84C63.52 132.68 63.2 132.52 63.2 132.36ZM34.72 135.72C35.68 135.08 36 134.6 35.84 133.96C35.68 133.64 35.36 133.32 35.2 133.32C34.72 133.48 34.4 133.96 34.4 134.12C34.24 134.6 34.56 135.08 34.72 135.72ZM59.84 136.04C60.48 135.08 60 133.96 61.6 133.48C62.08 134.12 61.76 134.6 61.12 135.08C60.96 135.24 60.8 135.72 60.48 136.2C60.16 136.2 60 136.2 59.84 136.04ZM58.72 140.68C57.92 139.24 59.2 138.6 59.36 137.64C59.68 138.6 59.68 138.92 58.72 140.68ZM56.48 145.96C56.48 146.12 56.48 146.12 56.32 146.6C56.16 145.96 55.84 145.64 55.84 145.48C56.16 145.64 56.32 145.48 56.48 145.64V145.96ZM55.68 147.24C56.48 147.4 56.64 148.2 56.48 149.48C55.68 149.32 55.04 149 54.4 148.84C54.72 148.04 54.72 147.24 55.68 147.24ZM53.28 152.84C53.44 152.52 53.76 152.52 54.56 153C54.4 154.92 53.44 155.72 51.52 156.04C51.68 154.92 52.48 153.8 53.28 152.84ZM51.36 158.12C52 158.28 52 158.76 51.68 159.4C51.52 159.72 51.2 160.04 51.36 160.52C51.68 161.64 51.2 162.6 50.4 163.4C50.24 163.4 50.24 163.88 50.08 164.04C50.08 164.36 49.92 164.68 49.6 165C49.44 165.64 49.28 165.96 49.12 166.44C48.32 167.08 48 168.04 47.52 168.84C47.52 169 48 169.16 48 169.32V169.64C46.56 171.4 46.24 173.32 45.76 175.4C45.28 176.2 45.12 176.84 44.32 177C43.84 177.32 43.36 178.12 43.04 178.6C43.2 178.92 43.36 179.24 43.68 179.72C43.84 179.88 43.84 180.52 43.84 180.52C42.4 180.84 42.88 182.76 41.76 182.92C41.92 183.4 42.24 183.72 42.08 184.36C41.44 185.64 40.8 187.24 40.48 188.84C40.16 189.48 39.68 190.6 39.52 191.24C38.88 193 38.24 193.16 36.64 191.88C36.8 190.6 37.6 189.16 38.08 187.56C38.24 186.92 38.88 186.6 39.52 186.44C39.84 185.96 40.16 185.8 40.32 185C39.68 183.08 40.48 181.64 41.44 180.2C41.76 178.92 42.24 177.64 42.72 176.2C43.04 175.88 42.88 175.08 43.2 174.92C44.64 172.52 45.28 170.28 46.08 168.04C47.04 166.44 47.84 164.52 48.32 162.76C49.12 161.32 49.92 159.88 50.4 158.44C50.72 158.28 50.88 157.8 51.36 158.12ZM36.8 193.48C37.92 193.64 38.24 194.44 37.76 195.4C37.6 195.88 37.28 196.52 36.8 197.16C36.64 197.48 36.16 197.64 35.84 198.28C35.52 198.44 35.36 199.08 35.36 199.4C35.68 200.36 35.36 201.16 34.56 202.12C34.4 202.28 34.4 202.76 34.4 203.24C34.08 204.36 33.92 205.64 33.44 206.6C33.28 206.92 32.8 207.56 32.48 207.72C32.16 207.88 31.68 207.56 31.36 207.72V206.12C32.8 205.64 32.8 204.52 32 203.4C33.76 201.48 33.76 199.24 34.4 197.16C34.72 196.36 34.72 195.4 35.36 194.76C35.68 193.64 36.32 193.16 36.8 193.48ZM28.96 212.52C29.6 211.88 29.76 210.6 31.04 209.96C31.84 211.72 30.56 212.52 30.08 213.96C30.08 215.24 29.44 216.68 28.96 217.96C28.64 217.96 28.48 217.64 28.32 217.96C28.32 217.48 27.84 217.32 28.16 217C28.16 215.4 28.16 214.12 28.96 212.52ZM28.32 218.92C28.48 218.92 28.64 219.4 28.64 219.56C28.32 220.2 28.16 220.2 27.52 219.72C27.52 218.92 28 218.76 28.32 218.92ZM25.92 223.4C26.4 224.84 25.92 225.8 26.08 227.24C25.44 227.08 24.96 227.08 24.16 227.08C24.16 226.44 24.64 225.8 24.64 225.32C24.64 224.52 25.28 223.72 25.92 223.4ZM173.858 81L173.698 81.16C179.778 77.64 171.138 90.6 162.178 96.2C159.778 99.24 156.418 101.32 153.058 103.24C150.658 104.68 148.098 106.44 144.898 106.6C145.218 106.6 142.818 107.56 140.578 107.4C139.458 107.4 138.658 107.72 138.178 108.84C136.418 112.36 134.498 115.56 132.258 118.76C130.177 121.8 127.938 124.36 126.498 127.56C126.338 128.52 125.378 129 124.578 129.8C122.338 132.36 119.778 134.92 117.538 137.48C115.298 140.2 113.058 142.76 109.858 143.72C108.578 144.2 107.458 145.48 106.018 146.28C104.578 146.92 103.138 147.4 101.538 146.92C99.9375 146.6 98.6575 146.76 97.3775 146.44C90.4975 144.68 87.7775 139.72 85.6975 133.8C84.5775 130.92 85.0575 127.88 85.5375 125C85.8575 121.8 86.4975 118.6 87.6175 115.72C88.8975 112.2 89.3775 108.52 90.9775 105C91.9375 102.28 93.6975 99.88 94.1775 97C94.8175 94.92 96.4175 93.8 97.5375 92.2C100.578 87.08 104.098 82.6 107.938 78.44C110.338 75.24 112.898 72.36 116.098 69.8C118.018 68.2 120.098 67.08 122.178 66.28C122.178 66.28 122.178 66.44 122.178 66.6C122.178 66.76 122.178 66.76 122.338 67.08L122.658 66.6C122.658 66.44 122.498 66.28 122.498 66.12C124.738 65.32 127.298 65 129.858 65C131.298 65 132.898 64.04 133.858 65.8C133.858 65.96 134.178 65.8 134.498 65.8C136.898 65.32 137.538 65.8 138.338 68.2C138.498 68.68 138.818 68.84 138.818 69C139.778 70.28 139.618 71.4 138.178 72.04C137.058 72.2 136.578 73 135.938 73.64C134.658 74.6 133.858 73.96 133.698 72.84C133.538 71.72 132.578 72.04 131.778 71.56C131.138 71.4 130.338 71.72 130.018 72.36C129.538 73.32 128.738 73.8 127.778 74.12C126.818 74.76 126.018 75.24 125.698 76.36C125.218 77.96 121.698 78.6 120.738 79.88C118.338 83.56 115.618 87.4 113.058 90.92C112.418 91.72 111.938 92.68 111.298 93.48C108.738 97 106.498 100.52 104.258 104.36C103.938 105.16 103.458 106.12 102.978 107.08C102.978 106.92 102.978 106.92 102.818 106.76C102.818 106.76 102.658 106.76 102.658 106.92C102.658 107.08 102.658 107.24 102.818 107.24C102.818 107.24 102.818 107.24 102.978 107.24C101.378 110.6 99.7775 113.8 98.1775 117C96.7375 120.2 95.9375 123.72 94.8175 127.08C94.4975 128.52 96.0975 129.96 95.2975 131.24C94.1775 133.64 94.8175 136.04 95.4575 138.28C95.9375 139.72 97.2175 139.24 98.1775 139.08C102.178 137.32 106.498 135.88 110.018 133.16C116.418 127.88 121.858 121.96 126.658 115.56C128.898 112.36 130.818 109 133.058 105.96C133.858 104.84 133.538 103.72 133.218 102.6C132.578 98.92 132.738 95.08 134.018 91.4C135.138 87.72 136.258 84.04 138.178 80.68C138.338 80.36 138.498 79.88 138.498 79.56C138.498 75.72 141.218 73.16 143.298 70.12C145.218 67.72 147.298 66.12 150.338 65C151.938 64.36 153.698 64.84 155.138 65.48C155.938 66.12 155.458 66.76 155.298 67.56C154.978 69.8 153.538 71.56 152.578 73.8C152.258 74.6 151.938 75.08 152.738 76.04C153.378 76.84 152.898 77.96 151.778 78.44C151.618 78.6 151.138 78.6 150.658 78.92C150.178 79.08 148.898 78.6 148.898 79.4C149.058 80.36 150.178 79.72 150.658 79.56C151.138 79.56 151.618 79.72 151.458 80.2C150.338 81 151.138 82.92 149.378 83.4C148.738 85.16 146.498 89.48 144.578 90.6C144.258 90.92 144.738 91.4 144.578 91.88C143.618 94.44 144.738 95.88 143.618 98.44C143.298 99.08 142.818 99.4 143.298 99.88C143.618 100.52 144.258 100.52 144.738 100.36C148.578 99.08 150.178 98.44 153.538 96.2C158.178 93 162.498 89.32 166.658 85.48C168.258 84.2 169.538 82.92 170.818 81.48L173.858 81ZM127.778 68.84C127.618 68.84 127.458 69 127.618 69.16C127.778 69.16 127.938 69.16 128.098 69.32V69C128.098 69 127.938 68.84 127.778 68.84ZM121.378 72.68C121.218 73.16 121.058 73.32 120.898 73.32C121.378 73.48 121.858 73.48 121.378 72.68ZM114.498 74.44C114.338 74.76 114.498 74.92 114.658 74.76C115.298 74.76 115.298 74.28 115.298 73.8C114.658 73.8 114.498 73.96 114.498 74.44ZM115.778 75.24C115.778 75.24 115.778 75.4 115.938 75.4C116.258 75.24 116.418 74.92 116.578 74.28C116.418 74.44 115.938 74.6 115.778 75.24ZM116.578 75.88C116.578 76.36 116.578 76.36 116.898 76.36C117.058 76.36 117.218 76.2 117.218 76.2C117.218 75.88 117.058 75.88 116.898 75.88H116.578ZM112.418 76.84C112.258 76.84 112.258 77 112.098 77C112.418 77.16 112.418 77.32 112.578 77.32C112.738 77.64 112.898 77.32 112.738 77.16C112.738 77 112.738 76.84 112.418 76.84ZM115.938 77.32C115.618 77.8 115.458 78.12 115.618 78.6V78.76H115.778C115.618 78.76 115.618 78.6 115.618 78.6H115.778C116.098 78.28 116.578 78.12 116.418 77.64C116.258 77.32 116.098 77.32 115.938 77.32ZM117.698 78.44H117.378L117.538 78.6H117.858C118.178 78.44 118.338 78.44 118.178 77.96V77.8C117.858 77.96 117.698 77.96 117.698 78.44ZM111.618 78.44C111.618 78.76 111.457 79.08 111.298 79.4L111.938 78.44H111.618ZM117.218 79.4C117.218 79.24 117.058 79.24 117.058 79.24C116.578 79.08 116.578 79.24 116.578 79.56H116.738C117.058 79.56 117.218 79.72 117.218 79.4ZM113.058 79.4C112.898 79.4 112.738 79.56 112.738 79.72C112.738 79.72 112.738 79.88 112.898 80.04L113.378 79.4H113.058ZM113.058 80.36H113.218C113.538 80.36 113.538 80.04 113.538 79.88V79.56L113.058 80.36ZM114.178 81.16C113.858 81.16 114.018 81.32 114.178 81.64C114.178 81.8 114.338 81.64 114.658 81.64C114.658 81.16 114.338 81.32 114.178 81.16ZM115.458 82.6L115.618 81.48C115.298 81.8 114.978 81.96 115.138 82.44C115.138 82.6 115.458 82.6 115.458 82.6ZM112.418 82.28C112.098 82.6 112.418 82.92 112.578 83.24C112.738 83.08 113.058 82.92 112.898 82.44C112.898 82.44 112.578 82.28 112.418 82.28ZM110.818 82.76C110.178 82.92 110.338 83.24 110.178 83.56H110.338L110.818 82.76ZM114.178 83.08C113.858 83.08 113.698 83.24 113.698 83.72C113.538 84.2 113.058 84.52 113.058 84.84C112.898 84.84 112.898 84.84 112.738 85C112.898 85 112.898 85 113.058 84.84C113.538 84.84 113.858 84.52 114.178 84.04C114.338 83.72 114.498 83.4 114.178 83.08ZM112.258 83.56C112.258 83.72 112.418 83.88 112.738 83.88C112.898 83.88 113.058 84.04 113.058 83.72C113.058 83.56 112.898 83.24 112.738 83.24C112.578 83.24 112.418 83.4 112.258 83.56ZM146.978 84.52C146.818 84.52 146.818 84.68 146.818 84.68C146.818 85 146.818 85 146.978 85.16C146.978 85.16 147.138 85 147.138 84.68L146.978 84.52ZM113.378 85.8C113.378 85.64 113.378 85.48 113.218 85.48C113.058 85.48 112.898 85.64 112.898 85.64C112.898 86.12 113.058 86.28 113.058 86.28C113.378 86.28 113.378 86.12 113.378 85.8ZM106.338 86.92C106.018 87.08 106.018 87.4 106.338 87.56C106.498 87.88 106.658 87.88 107.138 87.72C107.618 87.08 107.618 86.28 107.938 85.64C107.298 85.8 106.658 86.28 106.338 86.92ZM112.098 87.08C111.618 87.88 110.818 88.2 110.818 89C110.818 89.32 110.658 89.32 110.818 89.48C110.978 89.48 111.457 89.48 111.457 89.32C111.457 88.84 111.938 88.2 112.098 87.08C112.418 86.92 112.578 86.92 112.578 86.76C112.418 86.6 112.258 86.92 112.098 87.08ZM145.698 86.92C145.698 86.6 143.618 88.2 144.098 88.04C144.258 88.04 144.418 88.2 144.418 88.36C145.058 87.88 145.698 87.08 145.698 86.92ZM108.418 86.92C107.938 87.56 107.778 87.72 107.938 88.2C108.418 87.72 108.418 87.56 108.418 86.92ZM109.698 88.2C108.898 88.36 108.898 88.84 109.057 89.48C109.698 89.32 109.698 88.84 109.698 88.2ZM100.258 98.28C99.7775 99.08 98.9775 99.4 98.4975 100.52C98.6575 101 98.6575 101.32 98.9775 101.48C99.2975 101.8 99.4575 101.16 99.6175 101C99.7775 100.04 100.418 99.24 100.578 98.44C100.738 97.64 101.698 97.32 101.858 96.68C102.818 94.76 103.778 93.48 104.898 92.04C105.698 90.92 105.858 89.8 106.018 88.84C105.698 88.84 105.538 89 105.378 89.48C104.418 90.6 104.098 91.88 103.138 93C102.978 93.48 102.338 93.48 102.338 93.96C102.338 95.08 101.858 95.4 100.738 94.6C101.538 95.72 101.218 96.2 101.058 97.16C100.738 97.48 100.418 97.8 100.258 98.28ZM108.898 92.2C108.258 92.68 108.258 93.64 108.098 94.44H108.258C109.858 93.48 109.698 91.72 110.338 90.12C110.658 89.96 110.338 89.64 110.178 89.8C109.858 89.8 109.698 89.8 109.538 90.12C109.538 90.76 109.698 91.72 108.898 92.2ZM108.418 90.92C108.418 90.76 108.098 90.92 107.938 90.92C107.778 90.92 107.618 90.92 107.298 91.4C107.618 91.4 107.778 91.56 107.938 91.56C108.098 91.56 108.418 91.4 108.418 90.92ZM144.738 91.24C144.738 90.92 145.218 90.92 145.378 90.92C145.698 90.92 145.858 91.08 145.858 91.4C145.698 91.72 145.538 92.04 145.378 92.04C144.898 91.72 144.578 91.56 144.738 91.24ZM105.538 92.36C105.218 92.36 104.738 92.68 105.218 93.32C105.538 93 106.018 93.32 105.698 92.68L105.538 92.36ZM104.898 96.84C105.858 96.2 106.338 95.24 106.178 94.12C106.018 94.28 105.858 94.6 105.538 94.76C104.578 96.04 104.418 97.96 103.298 99.08C102.978 99.08 102.978 99.24 103.298 99.4C103.138 99.72 103.298 99.72 103.458 99.4C103.778 99.4 103.778 99.24 103.938 98.92C104.578 98.12 104.578 97.32 104.898 96.84ZM103.298 96.68C103.778 96.04 104.418 95.56 104.258 94.76C103.778 95.24 103.298 95.56 103.298 96.68ZM108.418 96.36C108.578 96.04 109.378 96.04 109.218 95.56C109.057 95.08 108.418 95.4 108.098 95.4C107.138 94.6 106.978 95.24 106.818 96.04C106.818 96.04 107.138 96.2 107.298 96.2C107.778 96.52 108.098 96.84 108.418 96.36ZM106.658 97.32C106.818 97.32 106.818 97.32 106.658 97C106.658 96.84 106.658 96.52 106.178 96.52C106.018 96.68 106.018 96.84 106.338 97.16C106.338 97.32 106.338 97.48 106.658 97.32ZM103.458 102.12C104.578 101.8 104.258 100.84 104.418 100.36C103.778 100.68 103.938 101.48 103.458 102.12C103.458 102.12 103.298 102.44 103.458 102.6V102.12ZM97.0575 103.56C97.0575 103.88 97.0575 103.88 97.2175 103.88C97.2175 104.04 97.3775 104.04 97.3775 103.88C98.0175 103.56 98.0175 103.08 98.3375 102.44C98.4975 102.12 98.1775 101.96 98.0175 101.96C97.8575 101.8 97.5375 101.96 97.5375 102.12C97.3775 102.76 97.0575 103.24 97.0575 103.56ZM96.0975 104.68C95.4575 105.16 95.6175 105.96 95.2975 106.92C96.0975 106.6 96.2575 106.44 96.7375 105.96C96.8975 105.64 97.2175 105.32 97.0575 105C96.7375 104.52 96.2575 104.84 96.0975 104.68ZM100.578 106.44C101.378 106.28 101.698 105.8 101.538 105C101.058 105.16 101.058 105.96 100.578 106.44ZM96.8975 106.92C97.3775 106.6 97.5375 106.28 97.6975 105.64C97.2175 105.8 97.2175 106.44 96.8975 106.92ZM98.6575 106.92C98.4975 106.6 98.3375 106.92 98.1775 107.24C98.1775 107.72 98.0175 108.04 97.5375 108.52C97.2175 108.52 97.3775 109 97.5375 109C98.0175 109.16 98.1775 109.48 98.8175 109.64C99.4575 110.12 99.7775 109.48 99.7775 109.48C99.4575 108.84 100.258 108.36 100.258 107.56L99.6175 108.04C99.2975 108.36 99.2975 109.16 98.6575 108.84C98.3375 108.68 98.6575 107.88 98.6575 107.24C98.6575 107.08 98.9775 107.08 98.6575 106.92ZM95.7775 109C95.7775 109.16 96.0975 109.16 96.2575 109C96.4175 108.84 96.4175 108.36 96.4175 107.72C96.0975 108.36 95.6175 108.68 95.7775 109ZM93.3775 110.12C93.5375 110.44 93.3775 110.44 92.8975 110.44C93.3775 111.72 93.6975 110.76 94.0175 110.6C94.1775 110.44 94.4975 110.12 94.1775 109.96C94.0175 109.64 93.8575 109.8 93.5375 109.8C93.2175 109.48 93.3775 109.8 93.3775 110.12ZM95.1375 110.44C95.1375 110.44 94.9775 110.76 95.1375 110.76C95.4575 110.44 95.6175 110.12 95.6175 109.8C95.2975 110.12 95.1375 110.12 95.1375 110.44ZM95.9375 111.56C95.7775 111.56 95.9375 111.72 96.2575 111.56C96.4175 111.56 96.5775 111.24 96.7375 111.08C96.7375 110.92 96.5775 110.92 96.5775 110.92C96.2575 111.08 95.9375 111.08 95.9375 111.56ZM98.3375 112.36C98.3375 112.04 97.8575 112.2 97.6975 112.2C97.0575 112.2 97.0575 112.68 96.8975 113C96.8975 113.16 97.0575 113.48 97.5375 113.48C97.6975 113.16 98.3375 112.84 98.3375 112.36ZM93.3775 113.8C93.5375 113.64 93.8575 113.16 93.8575 112.52C93.3775 113 93.2175 113.32 93.3775 113.8ZM91.6175 113.16C91.7775 113.8 90.9775 113.96 91.4575 114.76C92.0975 114.44 92.0975 113.8 91.6175 113.16ZM96.8975 114.28C97.2175 114.12 97.0575 113.8 96.8975 113.8C96.4175 113.64 96.4175 113.8 96.4175 114.12C96.2575 114.44 95.7775 114.92 96.0975 115.56C96.4175 115.08 96.4175 114.76 96.8975 114.28ZM94.8175 114.12C94.0175 114.76 94.0175 114.76 94.0175 115.4C94.3375 114.92 94.6575 114.76 94.8175 114.12ZM91.6175 116.68C91.2975 116.84 90.9775 117 91.2975 117.64C91.4575 117.16 91.6175 117 91.6175 116.68ZM91.2975 120.2C91.7775 120.2 92.0975 120.04 91.7775 119.08C91.4575 119.4 91.2975 119.88 91.2975 120.2ZM87.4575 121.96C87.6175 121.64 87.9375 121.32 87.7775 120.68C87.2975 121.32 87.1375 121.48 87.4575 121.96ZM91.9375 122.76C92.0975 122.6 92.4175 122.12 92.0975 121.8C92.0975 121.48 91.6175 121.64 91.6175 121.96C91.1375 122.12 91.9375 122.6 91.9375 122.76C91.2975 122.76 90.9775 122.92 90.8175 123.4C90.6575 124.68 89.8575 125.8 89.5375 126.92C89.3775 127.24 89.0575 127.72 89.3775 127.88C89.6975 128.36 90.0175 127.88 90.3375 127.24C91.1375 125.96 90.9775 124.04 91.9375 122.76ZM220.923 79.56V79.72C219.803 79.72 219.483 80.04 220.443 81C220.763 81.32 220.763 82.12 220.603 82.76C219.963 84.68 219.483 86.6 219.323 88.36C219.163 88.68 219.163 89 218.843 88.84C218.523 88.68 218.203 88.52 217.883 89C217.723 89.48 218.363 89.48 218.363 89.64C218.843 89.96 219.323 90.28 218.683 91.08C218.043 92.04 217.243 92.84 216.923 94.12C216.763 94.76 216.923 94.92 217.403 95.08C216.603 95.24 216.603 96.2 215.963 96.36C215.803 96.36 215.803 96.52 215.803 96.68C216.443 97.96 215.643 98.92 215.003 99.88C215.003 100.2 214.683 100.36 215.163 100.52C215.803 101 215.163 101.32 215.163 101.48C213.883 102.6 213.723 104.36 213.243 105.8C212.443 107.88 210.203 112.52 208.923 114.44C207.643 116.36 206.683 118.44 205.723 120.84C205.403 121 205.243 121.32 205.083 121.48C205.243 121.64 205.243 121.8 205.403 121.96C205.563 121.96 205.243 122.12 205.083 122.12C204.763 121.96 204.603 121.96 204.443 121.96C204.283 122.12 204.123 122.28 204.123 122.44C202.843 124.52 201.883 126.44 200.123 128.2L196.923 131.08L193.243 133.96C190.683 135.88 188.123 137.96 185.243 138.92C183.163 139.56 181.403 140.36 179.323 140.84C177.883 141.16 176.123 141.64 174.523 141.8C172.763 141.96 171.323 141.96 169.723 141.96C169.083 141.96 169.243 141.96 169.243 141.96C169.243 141.96 169.083 141.96 168.923 141.96C167.963 141.64 167.163 141.48 166.203 141.32C164.763 141 163.483 141.16 162.203 141C160.923 140.84 159.643 140.68 158.523 140.04C157.083 139.56 155.963 140.52 155.803 142.12C155.803 143.08 155.483 144.04 155.003 145C154.203 146.76 153.242 148.52 152.442 149.96C151.802 151.08 151.322 152.2 150.362 153.32C150.042 153.8 149.722 154.28 149.722 154.92L149.242 155.56H149.402C149.242 155.72 149.082 155.72 148.922 155.88C148.922 155.88 148.922 155.88 148.922 156.04H148.762C148.922 155.88 148.922 155.88 148.922 155.88C148.602 156.04 148.283 156.2 148.283 155.72C148.122 155.88 147.802 155.72 147.802 155.88C147.322 156.04 147.002 156.04 147.482 156.52C148.122 157.16 148.762 156.36 148.922 156.04C149.562 156.36 149.402 156.84 148.922 157C148.442 157.64 148.442 158.12 148.602 158.92C148.283 158.6 147.962 158.28 147.642 158.44C147.322 158.76 147.322 159.08 147.322 159.56C147.482 159.72 147.962 159.88 147.962 160.04C147.962 160.52 147.802 161 147.482 161.16C146.202 161.48 145.722 162.28 146.362 163.4C146.682 164.04 146.202 164.2 145.882 164.68H145.402C144.922 164.84 144.602 165.16 144.762 165.64C144.922 166.28 145.242 165.8 145.882 165.96C145.882 166.28 145.722 166.28 145.402 166.44C144.602 166.44 144.762 166.92 145.082 167.4C145.562 168.2 145.402 168.84 144.922 169.48C144.602 169.96 144.122 170.6 144.442 171.4C144.442 171.72 144.442 172.2 144.282 172.36C143.322 173.8 143.322 175.72 142.522 177.16C141.882 178.28 141.562 179.72 141.082 181C140.122 183.24 139.482 187.56 141.882 188.68C141.882 189.48 141.722 190.12 140.762 190.28C140.122 190.28 139.802 190.6 139.162 191.24C138.842 191.72 138.202 191.24 137.562 191.24C135.962 190.92 132.122 189.96 131.642 188.2C131.482 187.4 130.522 187.24 129.882 186.76C128.922 186.12 128.922 185.32 128.442 184.52C128.282 184.2 128.282 184.04 128.442 183.88C129.082 183.08 129.242 181.96 129.722 181.16C130.842 178.76 131.322 176.2 132.282 173.96C133.562 171.08 134.202 168.2 135.802 165.32C136.602 163.88 136.762 162.12 137.242 160.52C135.322 162.44 142.682 148.68 143.642 146.28C144.282 144.68 144.442 143.08 145.562 141.64C145.882 140.84 145.882 139.56 146.522 138.76C146.842 138.28 147.002 137.64 147.482 137.32C148.442 136.68 148.122 136.04 147.482 135.24C146.042 133.96 144.442 133.16 143.322 131.56C143.162 131.24 143.003 130.76 143.003 130.12C144.122 130.76 144.762 131.4 145.402 132.04C146.202 133.32 147.482 133.64 148.442 134.28C148.922 134.28 149.242 134.12 149.242 133.8C149.882 132.36 150.522 131.08 151.002 129.64C151.482 128.04 151.802 126.28 152.762 124.84C153.883 123.24 154.523 121.48 155.003 119.4C155.323 117.8 155.803 116.04 157.083 114.92C158.523 113.48 159.003 111.56 161.243 107.4C161.563 106.6 162.043 105.96 162.523 105.16C163.963 102.76 164.443 100.2 165.563 97.8C166.523 95.72 167.163 93.48 167.963 91.24C168.923 89.32 170.043 87.4 170.683 85.32C171.643 82.76 173.083 80.52 174.203 78.12C174.363 77.64 174.523 77.32 174.363 76.68C174.363 76.2 174.523 75.88 174.843 75.56C175.963 73.96 176.283 71.72 177.243 70.12C178.203 68.52 178.683 66.92 179.323 65.16C179.323 64.52 179.963 64.04 180.283 63.24C180.763 62.6 180.603 61.96 180.443 61.16C179.643 59.72 181.083 57.8 182.843 57.96C183.483 58.12 184.123 58.44 184.763 58.6C185.883 58.92 186.843 59.72 188.123 59.24C189.243 60.84 191.803 60.2 192.603 62.28C192.763 62.6 193.083 62.76 193.403 63.08C193.723 63.24 193.883 63.56 193.562 63.88C193.083 64.36 193.403 65 193.403 65.48C192.923 67.72 191.643 69.32 190.683 71.24C190.043 72.04 189.723 73.16 188.763 73.96C187.643 75.24 187.003 77.16 185.883 78.6C184.923 79.72 184.123 81.16 183.803 82.6C183.643 83.56 183.003 84.52 182.363 85.32C181.723 86.44 181.403 87.72 180.443 88.68C179.803 89.8 179.163 91.24 178.683 92.52C178.683 93.16 178.203 93.96 177.723 94.44C177.082 94.92 176.763 95.56 176.763 96.52C176.763 96.68 176.603 97 176.283 97C175.643 97.16 175.483 97.32 175.003 97.8C174.682 97.96 173.883 97.96 173.403 97.8C172.923 97.64 172.763 97.8 172.603 98.28C172.283 98.6 172.603 98.92 173.083 99.24L173.883 99.56C174.523 99.88 174.843 100.2 174.363 100.84L173.723 100.2C173.562 100.04 173.243 100.04 173.083 100.2C172.763 100.36 173.083 100.52 173.243 100.68C173.562 101.64 174.043 100.84 174.523 100.84C174.523 101 174.682 101 175.003 100.84C175.643 100.2 176.603 99.56 177.403 98.92C177.563 98.6 177.082 97.8 177.563 97.48C178.523 96.68 178.843 95.4 179.963 94.6C180.443 94.28 180.923 93.48 181.403 92.84C181.403 92.52 181.563 92.36 182.043 91.72C181.883 92.52 182.043 93 181.723 93.8C182.363 93.16 182.683 92.68 182.523 92.04C182.363 91.24 182.683 91.24 183.323 91.24C183.163 91.08 182.843 90.92 183.163 90.6C183.323 90.44 183.483 90.6 183.643 90.76C184.123 90.92 184.443 90.76 184.283 90.28C183.963 89.32 184.443 89 185.083 88.84C185.723 88.84 186.043 88.52 185.883 88.04C185.723 88.2 185.563 88.36 185.243 88.52C185.083 87.72 185.243 87.24 185.883 87.08C186.203 86.92 186.363 86.76 186.523 86.6C186.523 85.96 186.683 85.64 187.163 86.12C187.963 84.52 188.763 83.08 190.203 81.96C191.323 81.16 191.963 80.2 192.763 79.08C193.243 78.12 193.883 77.16 194.843 76.2C196.123 75.56 196.923 74.28 198.043 73.48C201.243 70.44 201.243 67.88 205.243 65.8C205.883 65.32 206.843 65.32 206.523 64.2C207.803 63.56 208.763 62.6 209.723 61.8C210.043 61.64 210.523 61.96 211.003 62.28C211.643 63.08 212.603 62.92 213.403 63.56C213.723 63.56 214.203 63.72 214.363 63.56C215.323 62.6 216.283 63.08 217.243 63.08C218.363 63.08 219.003 64.04 219.963 64.36C220.443 64.52 220.443 65.32 220.443 65.96C220.603 66.44 220.603 66.92 220.763 67.24C220.923 67.4 221.083 67.56 220.923 67.72C220.763 69.96 221.723 72.04 221.243 74.12C221.083 74.28 221.083 74.6 221.243 74.6C221.563 75.88 221.403 77 220.763 77.96C220.123 78.44 220.283 78.92 220.923 79.56ZM207.643 104.04C207.483 103.88 207.803 103.88 207.963 103.88C208.923 103.56 209.403 102.76 208.923 101.8C208.923 101.32 208.923 101.16 209.083 100.84C210.043 98.76 210.043 96.52 211.163 94.44C211.323 93.96 211.163 93.64 210.683 93.96C210.523 93.64 210.523 93.48 210.683 93.32C211.003 93 211.803 93.32 211.323 92.52C210.843 91.88 210.843 92.84 210.363 93C210.043 93 209.723 93.16 209.723 93.48C209.883 93.8 210.363 93.8 210.523 93.8C209.883 95.24 209.243 96.68 208.763 98.12C207.963 100.36 207.323 102.6 206.523 105C206.523 105.8 205.723 106.28 205.883 107.08C206.043 108.2 203.643 111.08 203.163 111.72C203.003 111.72 203.003 111.72 202.843 111.88C203.003 109.96 202.683 107.56 203.323 106.6C205.243 103.72 206.203 100.68 207.163 97.48C208.123 94.44 209.243 91.4 209.723 88.2C209.723 87.56 210.043 86.92 209.883 86.44C210.203 84.52 210.843 82.76 210.843 80.68C210.843 79.72 211.003 78.92 211.003 77.96C211.003 75.56 210.683 73.32 210.683 70.92C210.843 69.64 210.363 68.52 209.563 68.36C207.963 68.04 206.683 67.88 205.563 69C205.083 69.48 204.603 69.8 204.123 69.96C201.083 71.4 202.523 73.96 200.123 75.88C198.203 77.48 196.763 79.24 195.483 81.16C193.723 82.92 192.443 84.52 190.683 86.12L188.923 88.52C187.323 90.28 185.723 92.04 184.603 94.12C184.443 94.44 184.123 94.76 183.803 94.6C182.683 93.64 182.683 94.76 182.203 95.24C181.883 95.56 181.563 95.56 181.883 96.04C182.523 96.04 182.043 95.56 182.203 95.24C182.523 95.4 182.843 95.4 182.843 95.88C182.843 96.36 182.523 96.36 182.203 96.52C181.883 96.68 181.563 96.68 181.563 96.36C180.443 96.84 180.123 97.96 179.483 98.92C179.643 99.4 180.443 98.6 180.283 99.4C179.963 100.04 179.643 100.68 178.843 100.68C178.683 100.36 179.323 100.04 179.003 99.56C178.843 100.2 178.043 100.2 178.043 101.16C177.883 101.16 177.723 101 177.883 101.32C177.883 101.16 177.883 101.16 178.043 101.16C178.363 101 178.683 100.84 178.843 100.68C178.203 102.6 177.082 103.88 175.963 105.16C175.483 104.36 176.443 104.2 176.283 103.56C175.163 104.36 174.682 105.48 173.883 106.44C173.723 107.08 172.603 107.4 173.723 108.2C173.883 108.36 173.723 108.52 173.723 108.68C171.643 111.72 171.003 112.52 170.363 113.48C170.363 113 170.363 112.68 170.203 112.36C170.523 112.36 170.523 112.2 170.683 111.88C171.163 111.88 171.163 111.56 172.923 108.68C172.443 108.84 170.843 111.56 170.683 111.88L170.203 112.36C169.883 112.84 169.083 113.16 170.363 114.28C169.083 113.64 169.243 114.12 169.243 114.76C169.243 115.24 168.763 115.4 168.603 116.04C167.963 117.16 167.643 118.12 167.003 119.24C166.523 120.04 166.523 121.32 165.403 122.12C165.083 122.44 165.083 122.76 164.763 123.24L163.323 127.08C163.003 128.84 161.403 129.8 160.923 131.4C160.763 131.72 160.603 131.56 160.283 131.56C158.842 131.72 158.363 132.68 159.323 133.96C159.483 134.12 159.643 134.28 159.483 134.6H159.323C158.683 135.08 157.563 134.76 157.883 135.88C158.203 136.52 158.683 137.32 159.803 137.16C160.603 137.16 161.723 137 162.523 137.16C164.923 137.64 167.483 136.52 169.883 136.52C170.683 136.52 171.643 136.84 172.443 136.52C171.003 135.72 173.243 136.68 174.843 135.24C175.963 135.4 176.603 134.76 177.563 134.12C177.563 133.8 177.883 133.64 178.203 133.48C180.603 132.04 183.643 131.4 185.723 129C186.683 127.88 188.283 127.56 189.403 126.12C190.363 124.84 191.803 124.04 192.763 122.76C192.923 122.28 193.403 122.28 194.043 122.12C194.682 122.12 195.323 121.48 195.643 120.84C196.763 120.2 196.923 119.08 197.243 117.96C198.363 117.64 198.363 117.48 198.043 116.68C197.883 116.36 197.723 116.2 197.883 116.04C198.683 115.24 201.403 114.44 202.363 113.64C202.523 113.64 202.683 113.8 203.003 114.28C203.483 114.44 203.803 113.96 203.803 113.48C203.803 113.16 203.803 112.84 204.123 112.68C204.923 111.72 206.363 108.04 207.483 107.24C207.643 107.08 207.483 106.76 207.483 106.44C207.643 105.64 207.963 104.84 207.643 104.04ZM192.123 83.4C191.963 83.56 191.483 83.56 191.643 84.04C192.123 84.04 192.123 83.72 192.123 83.4C192.603 82.92 193.243 82.76 193.403 81.8C192.603 82.28 192.283 82.92 192.123 83.4ZM174.203 82.28C173.243 82.6 173.562 83.56 173.562 84.04C173.723 83.56 174.043 82.92 174.203 82.28ZM172.123 86.92C171.803 87.24 171.643 87.4 171.803 87.72C172.283 87.56 172.123 87.24 172.123 86.92ZM176.123 88.36C175.803 88.2 175.483 88.04 175.323 88.68C175.483 89 175.323 89.32 175.643 89.16C176.123 89.32 175.963 88.84 176.123 88.52V88.36C176.283 88.04 176.443 87.72 176.283 87.24C175.803 87.72 175.963 88.04 176.123 88.36ZM171.003 89.32C170.523 89.8 169.723 90.44 170.203 91.56C170.843 90.6 171.323 89.96 171.003 89.32ZM186.843 89.8C186.523 89.8 186.203 89.8 186.203 90.12L186.363 90.28C186.683 90.44 186.843 90.28 186.843 89.8ZM176.923 91.56C176.763 91.56 176.443 91.72 176.443 91.56C176.123 91.24 175.803 91.4 175.643 91.72C175.643 92.2 175.963 92.36 176.283 92.36C176.763 92.52 177.082 92.52 177.243 92.2V92.36C177.243 92.68 177.082 92.84 177.403 93.16C177.723 92.84 177.883 92.52 177.243 92.36C177.403 92.04 177.563 91.88 177.403 91.56C177.243 91.4 177.082 91.56 176.923 91.56ZM169.403 92.68C168.923 93.16 168.603 93.64 169.083 94.28C169.403 93.8 169.563 93.48 169.403 92.68ZM183.963 92.84C183.643 92.84 183.483 93 183.483 93.32C183.643 93.48 183.803 93.64 183.963 93.64C184.123 93.64 184.283 93.48 184.283 93.16C184.443 93 184.283 92.84 183.963 92.84ZM173.243 93.32C172.763 93.32 172.603 93.8 172.763 94.12V94.44H173.083C173.083 94.44 173.243 94.92 173.403 94.76C173.723 94.6 173.723 94.44 173.562 94.28C173.403 93.96 173.243 93.64 173.243 93.32ZM213.403 93.8C213.083 94.12 213.083 94.44 213.723 94.92C213.563 94.28 213.403 94.12 213.403 93.8ZM175.003 94.28C174.843 94.12 174.843 94.28 175.003 94.44C175.003 94.6 175.003 94.92 175.323 94.76C175.483 94.76 175.483 94.6 175.323 94.44C175.323 94.28 175.163 94.28 175.003 94.28ZM170.043 95.56C169.403 95.56 169.403 95.88 169.563 96.36C170.043 96.2 170.043 95.88 170.043 95.56ZM172.123 95.56C171.483 95.72 171.643 96.2 171.483 96.68C171.483 96.84 171.483 97.16 171.803 97.16C172.123 97.32 172.603 97 172.763 96.52C172.603 96.2 172.923 96.04 172.923 95.72C172.603 95.72 172.443 95.56 172.123 95.56ZM168.123 96.68C167.643 97.16 166.683 97.8 167.003 99.08C167.483 98.28 168.123 97.48 168.123 96.68ZM180.763 97.8C180.923 97.8 181.083 97.8 181.083 98.12C181.083 98.44 180.923 98.6 180.603 98.6C180.443 98.76 180.283 98.6 180.283 98.28C180.283 97.96 180.283 97.8 180.763 97.8ZM170.843 98.6C170.843 98.76 171.003 98.76 171.163 98.76C171.323 98.6 171.003 98.28 171.003 98.12C170.843 98.28 170.843 98.6 170.843 98.6ZM168.603 99.08C168.603 98.92 168.123 98.76 168.123 98.76C167.963 98.92 167.963 99.08 167.963 99.24C168.123 99.4 168.123 99.56 168.283 99.56C168.443 99.56 168.603 99.4 168.603 99.08ZM166.523 99.4C166.203 99.72 166.363 100.04 166.203 100.84C166.683 100.2 167.003 100.04 166.843 99.56C166.843 99.4 166.523 99.4 166.523 99.4ZM211.163 103.4C211.163 102.76 210.843 102.12 211.323 101.64C211.643 101.32 211.963 100.84 211.803 100.04C211.803 99.72 211.643 99.4 211.323 99.4C211.003 99.56 211.163 99.88 211.163 100.04C211.323 100.68 211.163 101 211.003 101.48C210.683 101.96 210.043 102.44 210.203 103.08C210.203 103.4 210.043 103.88 210.523 104.04C210.843 104.2 211.003 103.72 211.163 103.4ZM170.523 104.2C169.883 103.72 170.203 103.08 170.843 102.92C171.643 102.44 171.643 101.48 172.123 100.52C171.483 100.84 171.323 101.48 171.003 101.96C170.523 101.48 170.203 100.84 170.203 100.36C169.723 101.48 169.563 102.6 168.443 102.92C168.283 103.08 168.283 103.24 168.283 103.4C168.283 104.52 167.643 105 167.323 105.64C167.003 105.96 166.683 106.28 167.003 106.44C167.323 106.92 167.643 106.92 168.123 106.44C168.443 106.12 168.603 105.48 169.243 106.28C169.403 106.44 170.683 105.8 170.683 105.64C169.723 104.84 171.163 105.48 171.003 105C170.843 104.84 170.843 104.36 170.523 104.2ZM165.723 101.8C165.243 102.28 165.243 102.6 165.403 103.08C165.723 102.76 166.043 102.44 165.723 101.8ZM175.163 101.96C175.003 101.96 174.843 101.96 174.843 102.12C174.843 102.28 174.843 102.6 175.163 102.6C175.323 102.6 175.483 102.28 175.483 102.28C175.483 101.96 175.323 101.96 175.163 101.96ZM163.323 106.76C162.843 107.56 160.923 110.92 160.923 112.04C162.043 109.8 164.763 105.64 165.243 103.4C164.603 103.88 164.283 104.52 164.122 105.16C163.963 105.8 163.803 106.28 163.323 106.76ZM166.363 103.56C166.363 103.72 166.363 103.72 166.203 103.88C166.203 104.04 166.203 104.2 166.363 104.2C166.523 104.2 166.683 104.04 166.683 103.88L166.363 103.56ZM212.123 104.84C212.123 104.84 212.123 104.52 212.283 104.36H211.963C211.803 104.36 211.803 104.52 211.803 104.52C211.803 104.68 211.803 104.84 212.123 104.84ZM208.923 107.56C209.403 107.88 210.363 107.4 210.683 106.76C210.363 106.6 210.203 106.6 209.723 106.6C210.363 106.12 210.683 105.48 210.043 105.16C209.723 104.84 209.243 104.68 209.243 105.16C208.603 105.8 208.923 106.6 208.443 107.24L208.923 107.56ZM171.963 105C171.643 105 171.803 105.32 171.643 105.64C171.643 105.8 171.803 105.96 171.963 105.96C172.283 105.96 172.443 105.64 172.443 105.32C172.443 105.16 172.283 105 171.963 105ZM175.003 105.8C175.163 105.64 175.323 105.64 175.483 105.8C175.483 105.96 175.643 105.96 175.483 106.28C175.003 106.76 174.682 107.24 174.043 107.72C173.883 106.6 174.682 106.28 175.003 105.8ZM164.603 108.2C164.923 107.88 165.083 107.72 164.923 107.08C164.763 107.56 164.443 107.72 164.603 108.2ZM161.083 119.08C160.763 119.72 160.763 120.68 159.963 121.32C159.643 121.8 159.323 122.6 159.163 123.24C159.323 123.72 159.483 123.72 159.803 123.56C160.283 123.24 160.443 122.92 160.443 122.44C160.923 121.32 162.363 120.68 162.043 119.24C163.323 118.76 163.163 117.8 163.003 116.68L163.483 115.56C164.283 114.76 164.603 113.8 164.923 113C165.563 112.2 166.683 111.4 167.323 107.88C167.163 107.72 167.483 107.24 167.163 107.24C166.683 107.08 166.523 107.4 166.523 107.72C165.243 111.4 164.443 112.52 163.963 113.32C162.843 115.24 161.883 117 161.083 119.08ZM161.883 112.84C162.043 113 162.203 112.84 162.203 112.84C162.363 112.2 163.003 111.88 164.283 108.68C162.203 111.4 161.883 111.88 161.883 112.36C161.723 112.52 161.723 112.84 161.883 112.84ZM167.323 112.52C167.643 112.52 167.803 112.2 167.803 111.88C167.803 111.72 167.643 111.56 167.483 111.56C167.163 111.72 167.163 112.04 167.163 112.2C167.163 112.36 167.163 112.52 167.323 112.52ZM202.683 113.32C202.523 113.32 202.523 113.48 202.363 113.64C202.043 113.48 201.883 113.64 201.723 114.12C201.723 113.16 202.363 112.52 202.843 111.88C202.843 112.36 202.843 112.84 202.683 113.32ZM165.883 114.12C166.203 113.96 166.043 113.64 165.883 113.32C166.203 113.16 166.523 113 166.363 112.68C165.883 112.68 166.043 113 165.883 113.32C165.563 113.32 165.243 113.48 165.563 113.96C165.563 114.12 165.723 114.28 165.883 114.12ZM161.563 114.12C161.883 113.96 162.043 113.64 161.883 113.64C161.723 113.48 161.563 113.48 161.403 113.48V113.8C161.403 113.96 161.563 113.96 161.563 114.12ZM202.843 114.28C202.523 114.44 202.203 114.6 202.363 115.08C202.363 115.08 202.523 115.24 202.683 115.24C203.163 115.08 203.163 114.76 202.843 114.28ZM159.163 115.08C158.842 115.72 158.363 116.2 159.003 117.16C159.323 116.52 159.323 115.88 159.643 115.4C159.803 115.24 159.803 115.08 159.643 114.92C159.483 114.92 159.323 114.92 159.163 115.08ZM160.283 116.36C160.123 116.36 160.283 116.52 160.443 116.68C160.603 116.36 160.603 116.2 160.763 116.2C160.603 116.04 160.443 116.04 160.443 116.04C160.443 116.04 160.283 116.2 160.283 116.36ZM204.123 118.6C204.763 118.44 205.243 118.12 205.403 118.12C205.083 117.96 204.763 117.8 204.603 117.64C204.443 117.96 204.283 118.28 204.123 118.6ZM156.603 120.52C156.123 121.16 156.443 121.64 155.963 122.12H156.123C156.603 121.8 156.923 121.48 157.243 121.16C157.563 120.84 157.403 120.52 157.243 120.36C156.763 120.04 156.763 120.36 156.603 120.52ZM195.323 120.2C195.643 120.2 195.483 120.68 195.643 120.84C195.323 121 195.163 121 194.682 121C194.682 120.68 194.843 120.2 195.323 120.2ZM156.443 124.2H156.763C157.243 123.72 157.723 123.4 158.043 122.76C158.203 122.44 158.363 121.96 157.883 121.64C157.403 121.32 157.243 122.12 157.083 122.28C156.923 122.92 156.763 123.56 156.443 124.2ZM193.723 123.4C193.883 123.08 194.203 122.92 194.043 122.44C193.562 122.44 193.562 122.76 193.723 123.4ZM155.483 123.88C155.643 123.72 155.963 123.56 155.963 123.08H155.643C155.323 123.24 155.483 123.56 155.323 123.88H155.483C155.323 124.2 154.843 123.72 154.843 124.2C154.683 124.36 154.843 124.52 155.003 124.52C155.483 124.52 155.483 124.2 155.483 123.88ZM157.403 127.56C157.563 127.56 157.883 127.24 158.043 127.08C158.523 126.44 158.363 125.32 159.163 124.84C159.323 124.68 159.323 124.36 159.003 124.36C158.842 124.36 158.683 124.36 158.683 124.52C157.883 125.16 157.723 126.28 156.923 127.24C156.923 127.4 156.923 127.56 157.083 127.56H157.403ZM194.523 125.64C195.003 125.48 195.163 125 194.843 124.52C194.523 124.68 194.203 124.84 194.203 125.32C194.203 125.64 194.363 125.64 194.523 125.64ZM154.523 125C154.363 125 154.203 125.16 154.203 125.32C154.203 125.48 154.363 125.64 154.523 125.64C154.683 125.64 154.683 125.48 154.843 125.32C154.843 125.16 154.683 125 154.523 125ZM187.803 131.72C189.883 130.28 191.803 128.52 193.403 126.44C192.923 127.08 192.123 127.08 191.643 127.72C190.843 128.52 190.043 129.32 189.083 130.12C188.443 130.6 188.123 131.08 187.803 131.72C187.643 131.56 187.483 131.4 187.323 131.56C187.163 131.72 187.323 131.88 187.323 131.88C187.643 131.88 187.643 131.72 187.803 131.72ZM154.363 129.16C153.883 129.16 153.723 129.48 153.883 129.8C154.203 129.96 154.523 129.8 154.523 129.32L154.363 129.16ZM190.363 131.24C191.323 130.92 191.803 130.6 191.803 129.8C191.163 130.12 190.683 130.44 190.363 131.24ZM152.762 133C152.922 132.84 153.242 132.84 153.242 132.36L153.082 132.04C152.602 132.2 152.762 132.52 152.762 133ZM183.803 134.28C185.243 134.6 185.563 133.16 186.363 132.68C185.563 133 184.123 133.8 183.803 134.28ZM186.523 134.12C187.483 133.8 187.803 133.32 188.283 132.84C187.643 133 186.683 133 186.523 134.12ZM150.842 134.28C151.002 134.76 151.482 134.76 151.802 134.6C152.122 134.76 152.602 134.6 152.282 133.96V134.12C151.962 133.8 151.802 133.8 151.642 133.48C151.162 133.64 150.842 133.8 150.842 134.28ZM182.683 136.68C182.843 136.52 183.163 136.36 183.163 136.2C183.003 135.88 182.843 136.04 182.683 136.04C182.203 135.88 181.883 136.36 181.563 136.36C181.243 136.52 181.083 137 180.763 136.52C180.443 136.2 180.923 136.2 181.243 136.04C181.723 135.72 181.883 135.4 182.363 135.24V134.92C181.243 135.4 180.283 135.4 179.483 136.04C178.683 136.68 177.723 137.16 176.603 137.32L176.123 137.64C175.963 137.64 175.803 137.8 176.123 137.96C176.123 138.12 176.443 138.12 176.443 138.12C177.243 137.32 178.363 137.16 179.483 137.8C179.643 137.96 179.643 137.8 179.643 137.8C180.763 137.8 181.563 136.84 182.683 136.68ZM147.162 143.08C147.802 141.32 149.722 140.04 149.402 137.96C148.283 139.56 147.642 141.16 147.162 143.08ZM171.803 139.4C172.603 139.88 173.243 139.72 173.723 138.92C172.923 139.24 172.603 139.4 171.803 139.4ZM155.003 143.4C155.163 143.08 154.843 142.92 154.523 142.92C154.043 143.08 153.883 143.4 153.883 143.72C153.883 144.04 154.203 144.36 154.523 144.36C155.003 144.36 155.003 143.88 155.003 143.4ZM146.522 143.88C146.042 144.68 145.402 145.32 145.402 146.44C146.362 145.48 146.842 144.84 146.522 143.88ZM152.602 145.96C152.602 145.96 152.762 145.96 152.922 145.8C152.762 145.64 152.602 145.48 152.442 145.48C152.282 145.48 152.282 145.64 152.282 145.8C152.282 145.96 152.442 146.12 152.602 145.96ZM149.882 147.4C150.202 147.08 150.202 146.76 150.362 146.44C150.042 146.76 149.722 146.92 149.882 147.4ZM146.362 154.28C147.002 152.52 147.642 151.24 148.122 150.44H147.322C147.162 150.44 147.162 150.28 146.842 150.12C146.842 149.96 146.522 150.6 146.042 151.72C145.722 152.04 145.402 152.52 145.242 153C145.242 153.32 144.922 153.64 145.242 153.96C144.762 154.6 144.602 155.08 144.602 155.56C144.602 155.4 144.602 155.08 144.602 154.92C144.602 154.6 144.762 154.44 144.762 154.28C145.242 153.8 145.082 153.48 144.602 153.48C143.962 153.16 143.802 153.48 143.642 153.8C143.642 154.12 143.482 154.28 143.482 154.6C143.322 154.6 143.322 154.6 143.162 154.76L142.842 154.44C142.682 154.28 142.522 154.28 142.362 154.44C142.362 154.76 142.362 154.92 142.522 155.24C143.003 155.4 142.682 155.72 142.682 156.04L142.842 155.88C142.842 156.04 142.682 156.2 142.682 156.36C142.522 156.68 143.962 154.76 143.962 155.4C144.282 155.72 144.122 156.36 144.602 156.36C144.602 156.52 144.602 156.68 144.442 156.84C144.282 156.52 143.962 156.52 143.642 156.36C143.482 156.36 143.482 156.36 143.322 156.52C143.322 157.64 143.003 158.76 142.362 159.56C142.042 159.88 142.522 160.2 142.842 160.36C143.162 160.52 143.482 160.2 143.482 160.04C143.003 159.24 143.482 158.92 144.282 158.44C144.762 158.28 144.922 158.12 145.082 157.8C145.242 156.84 146.042 156.04 146.362 154.92C146.362 154.76 146.522 154.6 146.202 154.44C146.362 154.28 146.362 154.28 146.362 154.28ZM145.402 153.64V154.28C145.242 154.12 145.242 153.96 145.242 153.96L146.042 151.72C146.202 151.4 146.362 151.24 146.522 151.08C146.682 150.92 147.002 150.76 147.162 151.4C146.682 151.72 147.322 152.84 146.522 153.32H146.362C146.202 153.32 146.202 153.32 146.042 153.16C146.202 153.16 146.202 153.16 146.042 153C146.042 153 146.202 153.16 146.042 153.16L146.202 153.32C145.882 153.32 145.562 153.48 145.402 153.64ZM145.882 154.6H146.202L145.402 156.52C145.242 156.36 145.082 156.2 145.082 156.2C145.082 156.2 145.242 156.04 145.242 155.88C145.242 155.56 145.402 155.24 145.562 154.92C145.562 154.76 145.722 154.6 145.882 154.6ZM150.682 156.04C150.682 155.56 150.202 155.56 149.882 155.56C150.042 155.24 150.362 155.08 150.842 155.08C151.322 155.08 151.482 154.92 151.962 154.6C150.682 156.68 151.162 156.52 150.682 156.04ZM143.482 155.08C143.322 155.4 143.162 155.72 142.842 155.88C143.003 155.72 143.003 155.4 143.162 155.24V154.76C143.322 154.76 143.482 154.92 143.482 155.08ZM144.442 156.84C144.602 157 144.762 157 144.762 157.16C144.762 157.64 144.442 158.12 144.282 158.44H143.802C144.122 157.96 144.442 157.32 144.442 156.84ZM141.882 157.64C142.042 157.48 142.042 157.32 142.042 157L141.722 157.32V157.48H141.562L141.402 158.12C141.562 157.96 141.562 157.64 141.722 157.48L141.882 157.64C141.722 157.96 141.562 158.28 141.722 158.6C141.562 158.6 141.562 158.6 141.402 158.44L141.722 158.92V158.6C142.042 158.28 141.882 158.12 141.882 157.96V157.64ZM142.682 158.12C143.003 157.8 143.322 157.8 143.162 157.16C142.842 157.48 142.682 157.64 142.682 158.12ZM140.762 159.88C141.082 159.72 141.402 159.72 141.242 159.24C140.762 159.24 140.922 159.56 140.762 159.88C140.602 160.04 140.442 160.52 140.602 161C140.922 160.68 141.242 160.36 140.762 159.88ZM144.602 159.4C144.442 159.88 144.442 160.04 144.922 160.36C144.922 160.04 144.922 159.72 144.602 159.4ZM139.802 161.64C139.482 162.12 139.802 162.44 139.802 162.76C140.282 162.6 140.442 162.28 140.122 161.8C140.122 161.64 139.802 161.64 139.802 161.64ZM146.842 162.6C146.682 162.28 146.682 161.96 147.482 161.64C147.162 162.12 147.482 162.6 147.002 162.76L146.842 162.6ZM138.842 163.72C138.202 164.04 137.882 164.52 138.202 165.32C138.362 164.84 138.522 164.2 138.842 163.72ZM140.122 165.32C140.442 165.64 140.762 165.8 140.922 165.32C140.442 165.16 140.282 165.16 140.122 165.32ZM139.802 168.84C140.442 168.68 140.762 168.36 140.922 167.72C140.922 167.4 140.602 167.24 140.282 167.24C139.642 167.24 139.482 167.88 139.482 168.36C139.322 168.68 139.482 168.84 139.802 168.84ZM139.962 170.28C140.122 169.96 140.122 169.64 139.802 169.64C139.322 169.48 139.162 169.8 139.162 170.12C139.162 170.76 139.162 171.4 138.522 171.56C138.042 171.88 137.882 172.36 137.562 172.84C137.402 173.32 137.242 173.64 136.762 173.96C137.722 174.92 136.762 175.56 136.602 176.52C137.082 176.68 137.242 176.52 137.402 176.2C137.722 175.4 137.882 174.76 138.042 173.96C138.362 173.96 138.842 173.8 139.002 173.48C139.642 172.52 139.482 171.24 139.962 170.28ZM137.722 170.12C137.242 170.12 136.922 170.28 136.282 170.44C136.922 170.76 137.242 170.92 137.722 170.12ZM135.962 174.92C135.962 174.92 136.122 174.76 136.122 174.6C136.122 174.44 136.122 174.28 135.802 174.28C135.802 174.44 135.802 174.44 135.642 174.6C135.642 174.76 135.802 174.92 135.962 174.92ZM293.858 48.68C294.658 49.96 294.818 51.4 294.498 52.84C294.338 53.48 293.858 54.28 293.378 54.92C292.738 55.72 291.938 56.68 291.778 57.96C291.778 58.12 291.618 58.44 291.458 58.6C289.858 59.88 289.058 61.8 287.938 63.4C287.618 63.72 287.298 64.2 286.978 64.52C286.658 65 286.338 65.48 286.018 65.96C285.698 66.76 285.378 67.56 284.898 68.36C284.578 69 284.098 69.64 283.618 70.12C283.138 70.6 282.818 70.92 283.138 71.56C283.138 71.72 283.138 72.04 282.978 72.2C281.858 72.84 281.538 74.12 280.898 75.08C279.778 76.52 278.818 78.12 277.858 79.72C277.698 79.88 277.858 80.36 277.698 80.52C277.218 81.48 276.738 82.28 276.258 83.24C276.098 83.4 275.938 83.56 275.938 83.72C275.938 84.68 275.138 85.32 274.498 85.96C274.338 86.12 274.178 86.28 274.178 86.28C274.338 87.08 273.858 87.56 273.378 87.88C273.218 88.04 273.058 88.2 273.058 88.36C272.738 90.12 271.618 91.56 270.978 93.16C270.498 94.6 269.538 95.88 268.738 97.32C268.418 97.96 268.098 98.76 267.778 99.56C266.818 101.64 266.018 103.88 264.738 105.96C264.418 106.6 264.258 107.24 263.938 108.04C263.458 109 262.818 109.96 262.338 111.08C262.018 111.56 261.858 112.36 261.698 113C261.378 113.48 261.058 113.96 260.898 114.6C260.578 115.24 260.418 115.88 260.258 116.68C260.098 116.84 260.098 117 260.098 117.16C258.818 118.76 258.338 120.84 257.698 122.76C256.898 125.16 256.258 127.72 255.458 130.12C255.138 131.24 254.818 132.2 254.658 133.32C254.658 133.8 254.178 134.28 254.018 134.92C253.698 136.52 253.538 138.12 253.218 139.72C253.058 140.84 252.898 141.96 252.898 142.92C252.738 143.88 252.578 144.68 251.778 145.32C251.618 145.48 251.457 145.64 251.298 145.8C250.978 145.96 250.658 146.12 250.498 145.96C249.858 145.64 249.378 145.32 248.738 144.84C248.578 144.84 248.258 144.68 247.938 144.68C246.818 145 246.178 144.04 245.378 143.4C244.898 142.92 244.578 142.28 244.418 141.64C244.258 141.32 244.098 140.68 244.258 140.36C244.578 139.4 244.258 139.08 243.618 138.76C243.298 138.6 242.818 138.28 242.818 138.12C242.658 137.48 242.658 136.84 242.658 136.2C242.818 135.24 243.298 134.44 243.458 133.64C243.618 132.84 243.618 132.2 243.778 131.4C243.778 131.08 244.098 130.76 244.098 130.28C244.258 129.8 244.418 129.16 244.578 128.68C244.738 128.36 244.898 128.2 245.058 128.04C245.058 127.88 245.378 128.04 245.538 128.04C245.538 128.04 245.698 128.36 245.538 128.52C245.538 129.32 245.378 129.96 245.218 130.76C245.218 131.08 245.538 131.4 245.698 131.56C245.858 131.4 246.178 131.4 246.338 131.08C246.498 130.92 246.658 130.76 246.818 130.6C246.978 130.44 247.138 130.28 247.138 130.12C247.138 129.16 247.138 128.36 247.138 127.56C246.978 127.56 246.978 127.56 246.818 127.56C245.538 127.4 244.898 126.44 245.538 125.32C245.858 124.36 246.178 123.4 246.498 122.44C246.818 121.32 246.978 120.2 247.618 119.08C248.258 117.8 248.418 116.36 248.898 115.08C249.218 113.96 249.378 112.68 250.338 112.04C250.338 111.88 250.338 111.88 250.338 111.72C250.018 110.92 250.658 110.44 250.978 109.8C251.298 109.16 251.457 108.52 251.618 107.88C251.778 107.72 251.778 107.56 251.778 107.4C252.898 106.28 253.218 104.68 253.698 103.08C253.858 102.6 254.178 102.28 254.498 101.96C254.658 101.8 254.818 101.48 254.818 101.32C254.658 100.52 255.298 99.72 255.618 98.92C256.098 97.96 256.738 96.84 257.218 95.72C257.378 95.56 257.378 95.24 257.538 94.92C258.018 93.64 258.658 92.52 259.298 91.4C259.618 90.28 259.938 89.32 260.418 88.04C259.938 88.04 259.458 88.04 259.298 88.2C258.338 89.48 257.058 90.76 256.258 92.2C255.778 93.16 255.458 94.12 254.818 94.92C254.498 95.4 254.018 95.56 253.698 95.88C253.058 96.68 252.418 97.48 251.778 98.44L251.618 98.6C251.938 99.88 251.138 100.52 250.178 101.16C250.018 101.32 250.018 101.48 249.858 101.64C248.418 101.64 248.578 103.08 248.098 103.88C247.938 104.04 248.098 104.52 248.098 105.16C247.778 105.32 247.298 105.48 246.818 105.8C246.658 105.8 246.498 105.8 246.498 105.96C245.858 107.08 244.738 107.4 243.938 107.88C243.298 108.36 242.658 108.84 242.018 109.16C241.538 109.48 241.058 109.8 240.418 110.12C239.938 110.44 239.298 110.92 238.658 111.4C238.178 111.72 236.578 111.56 235.938 110.92C235.618 110.6 235.138 110.44 234.658 110.12C234.498 109.96 234.338 109.8 234.338 109.8C234.498 108.68 233.858 107.4 234.818 106.44C235.298 105.96 235.938 105.64 236.418 105.32C237.378 104.68 238.497 104.2 239.298 103.56C240.418 102.76 241.378 101.8 242.338 100.84C242.978 100.2 243.458 99.4 244.098 98.76C244.898 97.96 245.698 97.32 246.338 96.68C246.498 96.52 246.658 96.52 246.658 96.36C246.818 95.08 248.098 94.6 248.738 93.8C249.858 92.68 250.818 91.72 251.778 90.6C252.098 90.28 252.258 89.64 252.578 89.32C253.218 88.68 254.178 88.04 254.818 87.24C255.458 86.6 256.098 85.64 256.738 84.84C257.378 84.04 257.858 83.08 258.818 82.28C259.298 81.8 259.618 81 260.098 80.52C261.058 79.4 261.858 78.44 262.658 77.32L263.138 77.48C262.978 77.8 262.818 78.12 262.658 78.44C262.338 78.92 262.018 79.24 262.498 79.72C262.978 80.04 263.298 79.72 263.618 79.4C264.738 77.96 265.858 76.68 266.818 75.24C267.138 74.6 267.298 73.96 267.618 73.32C268.098 72.04 268.738 70.92 269.698 70.12C270.498 69.32 270.658 68.2 271.138 67.4C271.618 66.6 271.778 65.8 272.098 64.84V64.68C273.218 63.72 273.538 62.44 274.338 61.32C275.138 60.36 275.778 59.08 276.418 57.96C276.578 57.64 276.898 57.16 277.218 56.84C277.218 56.68 277.378 56.68 277.378 56.52C277.698 55.08 278.818 54.12 279.458 53C280.098 51.88 280.578 50.6 281.218 49.48C281.218 49.32 281.218 49.16 281.218 49.16C282.338 48.52 282.338 47.24 282.978 46.44C282.978 46.28 282.978 46.12 282.978 45.8C282.818 45.64 282.818 45.32 282.818 45.16L282.978 45.32C283.458 45 283.778 44.52 284.258 44.2C284.578 43.88 285.058 43.56 285.378 43.24C286.178 42.76 286.658 42.44 286.658 41.48C286.658 40.84 287.138 40.84 287.618 40.68C288.738 40.2 288.898 40.2 289.538 41.16C290.018 41.8 290.658 41.96 291.298 41.96C292.258 41.96 292.578 42.44 292.738 43.24C292.898 43.56 293.058 43.88 293.218 44.2C293.538 45 294.018 45.64 293.378 46.6C293.218 47.08 293.538 48.2 293.858 48.68ZM268.098 79.72C268.258 79.4 268.258 79.08 268.258 78.76C268.258 78.6 267.778 78.6 267.778 78.6C267.458 78.76 267.298 79.08 267.138 79.24C266.978 79.72 266.818 80.04 266.658 80.36C265.218 82.12 264.258 84.2 263.938 86.28C263.938 86.44 263.778 86.6 263.778 86.76C263.138 87.56 262.498 88.36 262.018 89.16C262.018 89.48 262.018 89.96 262.178 90.28C262.338 90.44 262.818 90.44 262.978 90.28C263.298 90.12 263.618 89.8 263.618 89.48C263.938 88.36 264.418 87.08 265.378 86.44C265.378 85.8 265.218 85 265.378 84.84C266.498 84.2 266.818 83.4 266.818 82.44C266.818 82.28 267.138 82.12 267.138 82.12C267.938 81.64 268.098 81 267.618 80.36C267.778 80.04 267.938 80.04 268.098 79.72ZM263.138 92.84C263.138 92.68 262.978 92.36 262.818 92.36C262.498 91.88 262.178 91.72 261.858 91.4V91.08C261.378 91.4 260.898 91.56 260.578 92.04C260.258 92.36 260.098 92.84 259.778 93.32C259.618 93.96 259.298 94.6 258.978 95.08C258.498 95.88 258.498 96.84 257.538 97.16C257.538 97.48 257.538 97.96 257.378 98.12C257.058 99.4 256.418 100.68 255.938 101.96C255.938 101.96 255.778 102.12 255.778 102.28C255.298 103.08 254.658 104.04 254.338 105C253.858 105.96 253.378 107.08 253.058 108.04C252.258 109.64 251.618 111.08 250.818 112.68C250.658 113.32 250.498 114.12 250.178 114.6C249.698 115.24 249.538 115.88 249.538 116.68C249.538 116.84 249.378 117.16 249.378 117.32C249.218 117.64 248.898 117.96 248.738 118.28C248.418 119.24 248.098 120.36 247.938 121.32C247.778 121.64 247.618 121.96 247.458 122.28C247.298 123.24 247.138 124.04 246.658 125C246.178 126.12 246.178 126.6 247.138 127.56C247.458 126.6 247.938 125.8 248.098 124.84C248.258 124.04 248.738 123.4 249.378 123.08C250.338 122.92 250.658 122.28 250.658 121.48L249.378 120.84C250.018 119.72 250.018 119.72 250.978 120.2C251.298 119.72 251.618 119.4 250.978 118.92C250.498 118.44 250.658 117.8 250.818 117.16C250.978 116.52 251.298 116.04 251.457 115.4C251.778 114.6 252.258 113.8 252.578 113C252.898 111.88 253.858 110.92 254.018 109.64C254.018 109.48 254.018 109.32 254.018 109.32C254.498 108.52 255.138 107.72 255.298 106.76C255.458 105.64 256.578 104.84 256.418 103.56C256.258 103.56 256.578 103.24 256.578 103.08C256.898 102.76 257.218 102.6 257.218 102.28C257.538 101.16 258.178 100.68 259.138 100.04C258.498 99.56 258.658 99.08 258.978 98.44C259.298 97.96 259.618 97.48 259.778 97C260.098 95.72 260.578 94.6 261.538 93.8C261.858 93.48 262.338 93.32 262.658 93.16C262.818 93.16 263.138 93 263.138 92.84ZM370.394 24.68C370.554 25.8 370.234 26.76 369.754 27.88C369.114 29.48 368.954 31.24 368.634 33C368.474 33.64 368.314 34.28 368.314 34.92C368.154 35.24 367.994 35.56 368.154 35.72C369.114 37.32 367.834 38.44 367.194 39.56C366.874 40.2 366.394 40.68 366.074 41.16C364.634 43.08 363.354 45 361.914 46.92C360.794 48.52 359.834 50.12 358.714 51.72C357.754 52.84 356.794 53.96 355.834 55.24C355.034 56.36 354.234 57.48 353.434 58.76C352.154 61.16 349.914 63.08 348.954 65.8C348.954 66.12 348.794 66.28 348.474 66.6C346.874 67.88 346.234 69.8 344.954 71.4C343.034 74.12 341.114 76.68 339.194 79.24C338.394 80.36 337.594 81.32 336.954 82.28C335.994 83.4 335.034 84.52 334.234 85.8C333.274 86.92 332.474 88.04 331.674 89.32C329.594 92.52 327.194 95.56 324.794 98.76C323.834 100.04 322.874 101.32 322.234 103.08C322.074 104.04 321.114 104.84 320.474 105.64C319.514 106.92 318.394 108.36 317.434 109.64C316.154 111.4 314.874 113.16 313.594 115.08C313.114 115.72 312.954 116.68 312.314 117.16C310.394 118.92 309.594 121.32 308.314 123.4C307.034 125.64 305.594 127.72 304.474 129.96C302.554 133.48 300.954 137 299.354 140.68C298.874 141.64 298.714 142.76 298.554 143.72C298.234 144.84 297.594 145.16 296.634 144.84C295.674 144.68 294.714 144.36 293.594 144.36C293.114 144.52 292.314 143.72 291.994 143.24C291.354 142.28 291.034 141.32 290.554 140.36C290.394 140.2 290.394 139.88 290.234 139.72C288.474 138.44 289.114 136.52 289.434 134.92C290.074 133 290.874 131.08 291.674 129.32C293.274 125.96 295.034 122.92 296.634 119.56C296.954 119.08 297.114 118.44 297.434 117.96C297.594 117.48 297.914 116.84 298.234 116.52C298.714 115.72 299.194 114.92 299.834 114.12L301.754 114.6C301.914 114.28 301.914 114.12 301.914 113.8C301.914 113 302.394 112.52 303.194 112.36C304.474 112.04 304.634 111.72 303.994 110.6C303.834 110.12 303.674 109.8 303.514 109.32C303.034 108.52 303.354 108.2 304.154 107.88L304.954 109.8C307.034 109 306.874 106.44 308.314 105.48C309.114 105.16 309.914 106.92 310.714 105.32L309.114 104.52C309.114 104.2 309.274 103.88 309.274 103.4C309.114 103.08 308.954 102.76 308.794 102.44C309.594 101.32 310.234 100.68 311.674 101.32C312.154 101.48 312.794 101.32 313.434 101.16C313.754 101.16 314.234 101.16 314.714 101.16C315.034 101 315.514 101 315.834 100.84C315.994 100.68 315.674 100.04 315.674 99.72C315.514 99.56 315.354 99.24 315.194 99.08C315.834 98.12 316.314 97.32 316.954 96.52C317.594 95.72 318.074 94.92 316.954 94.12L320.954 93C321.274 92.36 321.274 91.72 320.474 91.24C319.354 90.6 319.194 91.88 318.394 92.52C318.394 91.4 318.394 90.28 318.874 89.48C319.514 88.68 320.314 88.2 320.954 87.56C320.314 86.28 319.514 87.56 318.714 87.08L319.834 85.16L321.594 86.28C322.554 86.12 322.234 85 322.554 84.52C323.034 84.04 323.834 83.72 323.994 82.92C323.354 82.12 322.714 82.92 321.914 82.6C322.394 81.96 323.034 81.64 323.354 81C323.834 80.52 323.834 79.72 324.314 79.24C325.114 78.12 325.114 78.12 326.394 78.6C326.714 78.76 326.874 78.76 327.034 78.76C327.994 79.08 327.994 79.56 327.354 80.36C327.194 80.52 326.874 80.68 326.394 80.84L324.954 79.56C324.154 81.16 325.434 81.64 326.074 82.44C325.434 83.24 324.474 84.04 323.994 85C323.514 85.96 322.074 86.44 322.874 88.04L324.794 87.08C324.634 86.6 324.474 85.96 324.634 85.64C324.794 85.16 325.274 84.68 325.754 84.36C326.234 84.04 326.714 83.24 327.674 83.4C328.474 83.56 329.434 81.8 329.114 81C328.794 80.36 328.794 79.72 329.274 79.24C329.594 78.76 329.594 78.28 329.114 77.64C328.634 77 328.314 76.36 327.994 75.72C329.754 75.56 331.194 74.12 331.354 72.2C331.514 71.4 331.834 71.08 332.474 70.6C333.594 69.8 333.914 69.48 334.714 67.88C333.914 67.4 333.594 67.88 333.114 68.36C332.634 68.84 332.314 69.48 331.674 69.8C332.634 67.4 333.914 65.32 335.994 63.56C336.634 64.84 334.554 65.32 335.354 66.6C336.474 66.6 337.114 65.8 337.434 64.84C337.754 63.56 338.394 62.6 339.514 61.8C340.474 60.84 341.114 59.56 340.634 58.12C340.314 57.48 340.154 57 340.634 56.36C341.434 55.56 342.074 54.6 342.714 53.64C344.314 51.4 345.914 49 347.674 46.76C349.114 44.84 350.714 42.92 352.314 41C354.554 38.12 356.954 35.24 359.034 32.2C359.194 31.88 359.354 31.56 359.354 31.24C359.034 29.64 359.994 28.68 360.794 27.72C362.074 26.44 363.354 25.32 364.634 24.04C364.954 23.72 365.434 23.24 365.754 22.92C366.394 22.12 367.994 21.48 368.794 21.8C369.754 22.12 370.394 23.4 370.394 24.68ZM296.794 72.04C295.674 71.24 295.674 70.12 295.834 69C296.634 63.72 297.754 58.6 300.314 53.96C302.074 50.76 303.674 47.4 306.234 44.68C306.554 44.36 306.554 43.72 306.874 43.4C307.354 42.6 307.834 41.8 308.474 41C309.594 39.4 310.714 37.8 312.154 36.36C313.274 35.08 314.234 33.64 315.834 32.84C316.474 32.52 316.954 31.56 317.274 30.92C317.594 29.96 318.074 29.64 319.194 29.64C320.154 29.64 321.114 29.48 322.074 29.32V29.48C324.154 29.48 326.394 29.32 328.474 29.48C329.274 29.48 329.914 29.8 330.554 30.12C331.354 30.44 331.994 30.76 332.634 31.24C333.594 31.88 333.914 32.52 333.114 33.32C332.634 34.12 331.674 34.76 330.874 35.24C330.074 35.88 328.954 36.2 328.154 36.84C327.514 37 327.034 37.48 326.554 37.48C324.474 37.96 323.514 39.56 323.034 41.32C322.554 42.44 323.034 43.4 323.514 44.36C324.154 45.48 324.794 46.44 325.274 47.72C325.594 48.52 325.434 49.64 325.434 50.44C325.274 52.2 325.114 53.8 324.954 55.4C324.794 56.04 324.794 56.84 324.474 57.48C323.034 61.8 320.954 65.64 318.554 69.48C317.114 71.4 316.154 73.64 314.554 75.4C312.314 77.8 309.754 79.56 306.874 80.52C305.594 81 304.314 80.52 303.194 80.2C302.714 80.04 302.234 79.88 301.754 79.88C300.634 80.04 299.994 79.56 299.514 78.6C298.714 77 297.434 75.24 297.274 73.32C297.274 72.84 297.114 72.36 296.794 72.04ZM349.434 48.04C349.594 48.04 349.754 47.88 349.914 47.72C349.754 47.56 349.594 47.4 349.434 47.4C349.274 47.4 349.274 47.56 349.114 47.72C349.274 47.88 349.274 48.04 349.434 48.04ZM314.554 58.28C313.274 59.24 312.634 60.84 312.154 62.6C314.074 62.28 314.074 62.28 314.874 61C315.834 59.4 316.794 57.8 317.594 56.04C318.074 55.4 318.554 54.44 318.394 53.8C317.754 52.36 318.554 51.24 318.874 49.8C318.874 49.32 319.034 48.84 319.194 48.36C317.754 49.8 316.794 51.4 316.794 53.48C316.794 55.4 315.994 57 314.554 58.28ZM344.634 52.68C346.074 52.36 346.074 52.36 345.914 51.24L344.634 52.68ZM343.354 55.4C343.834 55.24 344.154 54.92 343.834 53.96L342.874 55.08L343.354 55.4ZM342.554 57.48C342.554 57.48 342.394 57.16 342.234 57C341.914 57.32 341.754 57.48 341.594 57.64C341.594 57.8 341.914 57.96 341.914 58.12C342.234 57.96 342.394 57.8 342.554 57.48ZM338.234 60.04C338.874 60.84 338.554 61.16 338.234 61.48L337.754 61.32L338.234 60.04ZM339.354 67.4L340.154 66.44L339.674 66.12L339.034 67.08L339.354 67.4ZM335.354 70.44C335.994 70.28 336.314 69.8 336.154 68.68L335.034 70.12L335.354 70.44ZM330.714 70.76C330.234 72.52 330.234 72.52 328.794 73.64C328.794 72.36 329.274 71.72 330.714 70.76ZM334.074 72.52C334.234 72.36 334.394 72.36 334.554 72.2L334.234 71.56C333.914 71.88 333.754 72.04 333.754 72.2C333.754 72.2 333.914 72.52 334.074 72.52ZM327.674 75.24C327.834 75.24 327.834 75.56 327.994 75.72C327.834 75.72 327.674 75.88 327.514 75.72C327.354 75.72 327.194 75.56 327.034 75.4L327.194 75.08C327.354 75.08 327.514 75.08 327.674 75.24ZM332.154 77.48L332.634 77.32C332.474 77.16 332.314 77 332.154 77L331.994 77.16C331.994 77.32 332.154 77.32 332.154 77.48ZM363.994 82.44C365.914 84.84 367.034 87.4 365.754 90.6C365.594 90.92 365.434 91.24 365.594 91.56C366.074 93.8 365.274 95.88 364.314 97.8C364.154 98.12 364.154 98.6 364.154 98.92C363.994 99.56 363.834 100.2 363.674 100.84C363.514 101.32 363.354 101.8 363.194 102.28C362.714 104.2 362.234 105.96 361.114 107.56C360.634 108.52 360.314 109.48 359.834 110.44C358.394 112.84 356.954 115.24 355.354 117.48C354.074 119.56 352.634 121.64 351.194 123.72C350.074 125.48 348.154 126.44 346.394 127.56C344.154 129.16 341.914 128.52 339.674 127.88C337.434 127.4 336.474 125.8 335.514 123.88C334.714 122.12 334.554 120.04 333.274 118.28C332.794 117.64 332.954 116.52 332.794 115.56C332.954 110.92 334.554 106.6 336.634 102.6C338.874 97.64 341.754 93.16 344.954 88.68C345.274 88.36 345.594 88.04 345.914 87.72C346.074 87.4 346.394 86.92 346.394 86.76C346.234 85.64 346.714 84.84 347.514 84.2C349.114 82.6 350.874 81.16 352.634 79.56C352.794 79.4 352.954 79.24 353.114 79.08C355.194 77 358.394 77.16 360.154 79.4C360.794 80.04 361.434 80.68 362.234 81C362.874 81.32 363.514 81.96 363.994 82.44ZM361.754 86.6C361.914 85.48 361.594 85.32 360.474 85.16C360.314 85.48 360.314 85.8 360.154 86.12C359.354 88.84 359.034 91.56 357.754 94.12C356.954 95.88 356.154 97.8 355.194 99.56C354.714 100.36 354.554 101 355.354 101.8L354.234 101.96C354.234 102.44 354.234 102.92 354.074 103.24C353.114 104.36 352.314 105.48 351.194 106.28C349.434 107.4 349.114 109.32 348.794 111.08C348.794 111.24 348.954 111.24 348.954 111.4C350.074 110.92 351.354 110.6 352.474 109.96C352.954 109.8 353.434 109.16 353.754 108.68C354.074 108.2 354.234 107.56 354.714 107.08C356.474 105.48 357.274 103.08 358.554 101.16C358.874 100.84 359.034 100.04 358.874 99.88C357.914 98.76 358.554 97.96 359.034 97.16C361.114 93.96 361.594 90.28 361.754 86.6ZM322.714 90.76L323.834 89.64C323.194 89.48 322.554 89.32 322.074 89.16C321.754 89.16 321.434 89.32 321.114 89.32C321.274 89.64 321.274 89.96 321.434 90.12C321.754 90.44 322.234 90.6 322.714 90.76ZM316.794 92.52C316.154 92.84 315.674 92.36 315.674 91.88C315.354 90.92 315.994 90.44 316.794 89.64V92.52ZM318.554 96.52L319.994 94.76L319.674 94.44C319.354 94.76 318.874 94.92 318.714 95.24C318.554 95.56 317.914 95.88 318.554 96.52ZM312.474 100.04L312.954 96.68L315.034 96.2C315.034 97.48 313.754 99.4 312.474 100.04ZM310.874 99.56C310.714 99.72 310.234 99.72 309.914 99.72C309.914 99.4 309.754 99.08 309.914 98.76C310.234 98.28 310.554 97.96 310.874 97.48L311.514 97.8C311.354 98.44 311.194 99.08 310.874 99.56ZM317.274 98.44C317.274 98.44 317.114 98.28 317.114 97.96C316.794 98.28 316.794 98.44 316.634 98.6C316.634 98.6 316.794 98.92 316.954 98.76C317.114 98.76 317.114 98.6 317.274 98.44ZM312.314 103.24C312.474 103.08 312.474 102.6 312.314 102.6C312.154 102.44 311.834 102.44 311.674 102.44C311.034 102.92 310.714 103.4 310.874 104.68C311.514 104.04 311.994 103.56 312.314 103.24ZM304.634 106.44L305.594 105L306.074 105.48L305.114 106.76L304.634 106.44ZM310.074 108.36C310.234 108.36 310.394 108.2 310.394 108.04C310.394 107.88 310.234 107.72 310.234 107.56L309.594 107.88C309.754 108.2 309.914 108.36 310.074 108.36ZM308.474 110.92C308.634 110.92 308.634 110.6 308.634 110.6C308.154 109.8 307.674 110.28 307.034 110.28C307.514 110.76 307.834 111.4 308.474 110.92ZM346.554 115.08C347.674 114.12 347.674 113.16 347.034 112.68C346.874 112.52 346.394 112.52 346.074 112.68C345.914 112.84 345.754 113.16 345.754 113.48C345.914 113.96 346.234 114.44 346.554 115.08ZM304.634 115.88C305.434 115.72 306.234 115.24 306.074 114.6C305.914 113.96 305.594 113.32 305.114 113C304.794 112.68 304.314 113 304.314 113.48C304.474 114.28 304.474 114.92 304.634 115.88ZM301.594 118.76C301.914 118.28 302.074 117.64 302.554 117L301.274 115.72C300.954 117.64 299.674 119.08 298.394 120.68C299.674 120.36 300.474 120.68 300.634 121.96L301.114 121.8C301.114 121.48 301.434 121 301.274 120.68C300.954 119.88 301.114 119.4 301.594 118.76ZM298.874 125.96C299.674 125.32 300.314 124.68 299.834 123.4C298.714 124.68 298.554 124.84 298.874 125.96ZM297.434 128.04L298.234 127.72C297.754 127.56 297.754 127.56 297.594 127.4C297.434 127.4 297.274 127.56 297.274 127.56C297.274 127.72 297.274 127.88 297.434 128.04Z" fill="#F3F3F3"/>
</svg>
