<svg width="173" height="72" viewBox="0 0 173 72" fill="none" xmlns="http://www.w3.org/2000/svg">
<path d="M22.2797 1.09999C23.1797 1.8 22.7797 3.4 21.9797 5.2C21.4797 6.5 20.8797 7.5 20.8797 9.2C20.8797 10.7 21.3797 12.2 22.8797 11.9C26.5797 11.1 27.6797 14.5 27.3797 17C26.9797 20.2 24.0797 21.2 21.8797 20.9C18.3797 20.5 16.4797 17.6 16.0797 13.9C15.7797 11.3 16.0797 7.7 17.3797 5.1C19.2797 1.2 21.2797 0.299999 22.2797 1.09999ZM7.27969 1.09999C8.17969 1.8 7.77969 3.4 6.97969 5.2C6.47969 6.5 5.87969 7.5 5.87969 9.2C5.87969 10.7 6.37969 12.2 7.87969 11.9C11.5797 11.1 12.6797 14.5 12.3797 17C11.9797 20.2 9.07969 21.2 6.87969 20.9C3.37969 20.5 1.47969 17.6 1.07969 13.9C0.779688 11.3 1.07969 7.7 2.37969 5.1C4.27969 1.2 6.27969 0.299999 7.27969 1.09999ZM80.0328 55.3C80.0328 47.8 81.5328 40.9 83.1328 33.5C83.3328 32.5 84.3328 25.2 84.4328 24.3C84.5328 22.9 85.4328 21.6 87.7328 21.6C90.3328 21.6 90.8328 23.1 90.8328 25.2C90.8328 26.9 89.3328 30.4 89.0328 32.5C86.3328 51.1 85.6328 54.6 85.6328 57.8C85.6328 61 86.1328 63.1 86.4328 66.2V66.6C86.4328 67.5 85.3328 67.9 84.4328 67.9C80.9328 67.9 80.0328 61.7 80.0328 55.3ZM36.9328 67.4C36.7328 65.9 37.5328 65.3 39.0328 64.3C39.4328 64.1 41.3328 62.6 41.6328 62.3C42.4328 61.5 44.0328 59.7 44.4328 59C45.3328 57.5 46.1328 56.5 46.6328 55.1C47.5328 52.8 49.9328 44.6 50.2328 42.6C50.4328 41 51.3328 38.9 53.0328 38.8C55.7328 38.7 56.0328 40.7 55.8328 41.9C55.5328 44 53.5328 52.2 52.5328 54.8C51.6328 57.1 50.1328 59.9 48.4328 61.4C51.5328 60.3 60.7328 57.7 62.3328 57.3C64.9328 56.6 67.4328 56.3 69.9328 56.3C70.9328 56.3 72.2328 56.3 72.4328 57.4C72.7328 59.3 71.2328 59.6 70.1328 60C68.2328 60.7 64.7328 61.7 62.8328 62.2C61.2328 62.7 59.6328 63.2 57.9328 63.7C53.0328 65.1 49.0328 66.9 44.4328 68.8C42.9328 69.4 42.6328 69.6 41.0328 70.1C39.5328 70.6 37.2328 69.8 36.9328 67.4ZM44.1328 31.5C44.1328 25.5 48.8328 19.7 51.6328 17.2C52.4328 16.5 53.1328 16.8 54.1328 16.4C54.6328 16.2 54.9328 15.7 56.1328 15.7C58.9328 15.7 60.9328 19.1 60.9328 22.1C60.9328 28.3 56.4328 35.3 48.9328 35.6C46.3328 35.7 44.1328 34.2 44.1328 31.5ZM56.0328 20.2C53.7328 21.6 50.0328 27 50.0328 30.8C53.0328 30.8 56.7328 25.9 56.7328 22.1C56.7328 21.3 56.4328 20.7 56.0328 20.2ZM104.912 68.6C104.812 67.3 106.312 66.5 107.312 65.8C110.012 64.1 111.712 61.3 112.812 58.6C114.512 54.2 115.212 47.8 118.612 43.9C119.212 43.2 120.312 42.8 121.412 42.9C123.112 43 123.412 44.4 123.412 45.5C123.412 47.2 121.412 50 120.712 51.4C118.912 55.1 118.512 58.8 116.512 62.8C116.012 63.8 115.512 64.7 114.512 65.9C119.912 65.9 125.212 65.2 130.312 65.2C134.112 65.2 137.112 65.1 140.212 65.9C141.312 66.4 141.012 69 139.912 69.2C138.712 69.3 133.412 69.9 132.412 69.9C131.712 69.9 127.212 70.2 125.512 70.3C119.612 70.6 113.512 72 107.612 72C106.012 72 104.912 70.7 104.912 68.6ZM107.312 37.4C107.712 36.1 111.812 34.5 112.912 34.1C113.412 33.5 115.012 29.7 116.012 26.4C116.712 24.1 116.712 22.9 116.812 21C116.912 19.7 116.412 19 115.712 18.9C114.512 18.7 112.912 19.2 111.512 20.1C110.812 20.5 110.312 21 109.412 21.1C108.012 21.3 106.912 19.6 107.112 18C107.212 17.3 107.812 16.8 108.512 16.3C110.012 15.3 111.012 14.9 112.712 14.4C114.612 13.8 117.512 13.8 119.212 14.5C121.712 15.5 122.112 17.7 122.012 19.8C121.912 22.9 121.812 24.6 120.712 28C120.312 29.3 119.612 31 119.012 32.1C120.512 31.6 121.812 31.2 123.812 30.9C125.712 30.6 128.812 30.2 130.212 30.2C131.112 30.2 131.912 30.2 132.812 30.6C133.612 30.9 133.812 33.1 132.112 33.6C131.112 33.9 127.012 34.5 124.712 35.1C120.412 36.2 116.712 37.1 113.912 38.3C112.212 39 111.412 39.9 109.012 40.5C107.712 40.8 106.812 39.1 107.312 37.4ZM98.9117 30.8C98.6117 26.7 98.6117 23.5 99.1117 19.5C99.5117 16.6 99.7117 16 100.812 12.9C101.512 11 102.212 10.7 102.612 10.4C103.612 9.6 106.812 10.1 107.112 11.4V11.9C107.112 12.9 106.812 13.3 106.312 14.4C104.112 19.5 104.012 23.8 104.012 29.7C104.012 30.7 104.112 31.7 104.112 32.5V33.5C104.112 34.3 103.712 34.8 103.012 35.1C102.512 35.3 100.712 35.6 99.8117 34.1C99.2117 33.1 99.0117 31.7 98.9117 30.8ZM151.447 20.4C150.547 19.7 150.947 18.1 151.747 16.3C152.247 15 152.847 14 152.847 12.3C152.847 10.8 152.347 9.3 150.847 9.6C147.147 10.4 146.047 7 146.347 4.5C146.747 1.3 149.647 0.299999 151.847 0.599995C155.347 0.999996 157.247 3.89999 157.647 7.59999C157.947 10.2 157.647 13.8 156.347 16.4C154.447 20.3 152.447 21.2 151.447 20.4ZM166.447 20.4C165.547 19.7 165.947 18.1 166.747 16.3C167.247 15 167.847 14 167.847 12.3C167.847 10.8 167.347 9.3 165.847 9.6C162.147 10.4 161.047 7 161.347 4.5C161.747 1.3 164.647 0.299999 166.847 0.599995C170.347 0.999996 172.247 3.89999 172.647 7.59999C172.947 10.2 172.647 13.8 171.347 16.4C169.447 20.3 167.447 21.2 166.447 20.4Z" fill="#F85C83"/>
</svg>
