<svg width="60" height="60" viewBox="0 0 60 60" fill="none" xmlns="http://www.w3.org/2000/svg">
<g filter="url(#filter0_b_476_2888)">
<circle cx="30" cy="30" r="30" fill="white" fill-opacity="0.4"/>
</g>
<g clip-path="url(#clip0_476_2888)">
<path d="M43.7999 29.6873C43.7999 30.9994 43.2118 32.1756 42.2908 32.9546L32.8257 42.554C31.1867 44.2156 28.5307 44.2156 26.8932 42.554C26.6434 42.3 26.4318 42.0244 26.2587 41.7287L34.9103 32.9546C35.8319 32.1759 36.4206 30.9994 36.4206 29.6873C36.4206 28.3198 35.7839 27.1094 34.7968 26.3305L26.2581 17.6718C26.4312 17.3761 26.6428 17.0998 26.8926 16.8465C28.5301 15.1846 31.1861 15.1846 32.8251 16.8465L42.1772 26.3308C43.1641 27.1094 43.7996 28.3201 43.7999 29.6876V29.6873Z" fill="white" fill-opacity="0.6"/>
<path d="M32.3433 26.9105L22.832 17.2664C22.1021 16.5252 21.1319 16.118 20.0979 16.118C19.0655 16.118 18.0953 16.5252 17.3645 17.2664C16.6351 18.0076 16.2327 18.9921 16.2327 20.0392C16.2327 21.0869 16.6351 22.0711 17.3648 22.8117L24.1408 29.6833L17.3326 36.5891C16.602 37.3297 16.2 38.3142 16.2 39.3616C16.2 40.409 16.6023 41.3938 17.3326 42.1347C18.0625 42.875 19.033 43.2821 20.0669 43.2821C21.0988 43.2821 22.0699 42.875 22.8001 42.1347L32.3433 32.4564C33.0723 31.7161 33.4744 30.7325 33.475 29.6842C33.475 28.6365 33.0723 27.6523 32.343 26.9108L32.3433 26.9105Z" fill="white"/>
</g>
<defs>
<filter id="filter0_b_476_2888" x="-12" y="-12" width="84" height="84" filterUnits="userSpaceOnUse" color-interpolation-filters="sRGB">
<feFlood flood-opacity="0" result="BackgroundImageFix"/>
<feGaussianBlur in="BackgroundImageFix" stdDeviation="6"/>
<feComposite in2="SourceAlpha" operator="in" result="effect1_backgroundBlur_476_2888"/>
<feBlend mode="normal" in="SourceGraphic" in2="effect1_backgroundBlur_476_2888" result="shape"/>
</filter>
<clipPath id="clip0_476_2888">
<rect width="27.6" height="28.2" fill="white" transform="translate(16.2 15.6)"/>
</clipPath>
</defs>
</svg>
